<svg xmlns="http://www.w3.org/2000/svg" xmlns:xlink="http://www.w3.org/1999/xlink" viewBox="0 0 62.38 162.35"><defs><style>.cls-1{isolation:isolate;}.cls-2{fill:#1b0043;}.cls-3{fill:#908f97;}.cls-4{fill:#83828b;}.cls-5{fill:#9aacba;}.cls-6{fill:url(#linear-gradient);}.cls-7{opacity:0.55;fill:url(#linear-gradient-2);}.cls-12,.cls-7{mix-blend-mode:multiply;}.cls-8{opacity:0.45;fill:url(#linear-gradient-3);}.cls-9{fill:url(#radial-gradient);}.cls-10{fill:url(#radial-gradient-2);}.cls-11{fill:#6c416f;}.cls-12{fill:#bdcbd6;}.cls-13{fill:#f2f1f2;}.cls-14{fill:#5b5862;}.cls-15{fill:#2f2b38;}</style><linearGradient id="linear-gradient" x1="31.41" x2="31.41" y2="42.3" gradientUnits="userSpaceOnUse"><stop offset="0" stop-color="#8d468b"/><stop offset="1" stop-color="#ec5e5c"/></linearGradient><linearGradient id="linear-gradient-2" x1="32.12" y1="6.01" x2="31.21" y2="45.21" gradientUnits="userSpaceOnUse"><stop offset="0" stop-color="#8d468b"/><stop offset="1" stop-color="#903968"/></linearGradient><linearGradient id="linear-gradient-3" x1="31.71" y1="6" x2="30.8" y2="45.2" gradientUnits="userSpaceOnUse"><stop offset="0" stop-color="#3cc"/><stop offset="0.18" stop-color="#33c6cc"/><stop offset="0.43" stop-color="#33b5cc"/><stop offset="0.71" stop-color="#3499cd"/><stop offset="1" stop-color="#3475cd"/></linearGradient><radialGradient id="radial-gradient" cx="22.02" cy="21.49" r="15.55" gradientUnits="userSpaceOnUse"><stop offset="0.5" stop-color="#fae849"/><stop offset="0.81" stop-color="#f9e747"/><stop offset="0.92" stop-color="#f4e140"/><stop offset="1" stop-color="#edd935"/></radialGradient><radialGradient id="radial-gradient-2" cx="43.51" cy="21.75" r="15.03" xlink:href="#radial-gradient"/></defs><g class="cls-1"><g id="Capa_2" data-name="Capa 2"><g id="Layer_1" data-name="Layer 1"><path class="cls-2" d="M58.15,143.59l2.52-.92,1.71,2.19a3.34,3.34,0,0,1-4.19,1.34Z"/><path class="cls-3" d="M58.15,143.59s2.06.73,2.52-.92C60.67,142.67,58.53,142.5,58.15,143.59Z"/><path class="cls-2" d="M0,148.18l1.2-2,3.2.8-.11,2.8S1.06,150.59,0,148.18Z"/><path class="cls-3" d="M1.2,146.15a2.72,2.72,0,0,0,3.2.8S3.83,145.54,1.2,146.15Z"/><path class="cls-2" d="M29,158.2l3.88.25.94,3.08s-3.52,2.11-6-.44Z"/><path class="cls-3" d="M29,158.2s1.38,2,3.88.25A4.73,4.73,0,0,0,29,158.2Z"/><polygon class="cls-2" points="34.27 54.48 35.95 59.93 39.03 59.54 37.73 54.63 34.27 54.48"/><polygon class="cls-2" points="30.21 54.66 29.75 58.75 35.18 58.98 34.89 54.86 30.21 54.66"/><path class="cls-2" d="M2.63,146.84a3.17,3.17,0,0,0,1.07,0L30.13,59l-3.5-.42L1.93,146.26A.86.86,0,0,0,2.63,146.84Z"/><path class="cls-2" d="M60.17,142.84,38.28,56.71l-3-.13,23.32,86.76A1,1,0,0,0,60.17,142.84Z"/><path class="cls-2" d="M29.74,158.32l.05,0a3.17,3.17,0,0,0,.51.2,2.61,2.61,0,0,0,1.24,0,1.91,1.91,0,0,0,.41-.29l1.43-45.73.77-.18,1.6-57.56-5.08.51-.93,57.12.81,0ZM31.4,56.76l3.11.21-1,53.28-2.9.16Z"/><polygon class="cls-2" points="27.44 54.49 26.13 59.64 29.86 60.31 31.15 54.35 27.44 54.49"/><polygon class="cls-2" points="27.17 52.62 26.75 55.73 38.3 56.21 37.74 53.07 27.17 52.62"/><path class="cls-2" d="M38.05,54.82l-.31-1.75-10.57-.45-.25,1.85C27.81,54.59,36.59,54.87,38.05,54.82Z"/><polygon class="cls-4" points="38.15 53.37 26.72 53.37 24.86 41.06 40.01 41.06 38.15 53.37"/><path class="cls-2" d="M30.18,49.69c-.39-1.82-.57-3.71-1.06-5.51-.28-1-.61-2.06-.81-3.12H24.87l1.85,12.31H31C30.73,52.14,30.44,50.92,30.18,49.69Z"/><path class="cls-2" d="M39,47.77l1-6.71H24.87l1.07,7.13C34.72,51.16,38.13,48.28,39,47.77Z"/><path class="cls-2" d="M38.54,3.16a18.34,18.34,0,0,0-2.69-1.63h0a16,16,0,0,1-2,.4A15.27,15.27,0,0,1,31.72,2c1.62.82,4.62,2.55,4.81,4s-.76,2.3-1.47,3.07h3.45c.75-.42.25-1,.85-1.64C40.33,6.31,40,4.32,38.54,3.16Z"/><path class="cls-5" d="M41.86,2C39.54.26,26.23-.39,20.75.23a10.89,10.89,0,0,1,.14,1.13c0,.21,0,.42.05.63V2a.67.67,0,0,1,.05.17,2.88,2.88,0,0,1,.23.93c2.54.41,5.38,1.62,2.84,5.07,0,0-4.84,1.19-5.4,4.66S14.57,39.25,18,41.62c2.55,1.77,17.18,2,24.16.89l.08-.06c.78-.52,2.16-1.07,2.66-1.91a22.29,22.29,0,0,0,1.43-3.28C46.46,27.72,44.08,3.74,41.86,2ZM39.07,6,37.79,7.52a.46.46,0,0,1-.39.18l-7-.11a.37.37,0,0,1-.23-.07L28.41,6.06a.49.49,0,0,1-.17-.65l1.28-2.15A.47.47,0,0,1,29.88,3c1.15-.15,5.53,0,6.5.44A18.67,18.67,0,0,1,39,5.28.48.48,0,0,1,39.07,6Z"/><path class="cls-6" d="M41.86,2C39.54.26,26.23-.39,20.75.23a10.89,10.89,0,0,1,.14,1.13c0,.21,0,.42.05.63V2a.67.67,0,0,1,.05.17,2.88,2.88,0,0,1,.23.93c2.54.41,5.38,1.62,2.84,5.07,0,0-4.84,1.19-5.4,4.66S14.57,39.25,18,41.62c2.55,1.77,17.18,2,24.16.89l.08-.06c.78-.52,2.16-1.07,2.66-1.91a22.29,22.29,0,0,0,1.43-3.28C46.46,27.72,44.08,3.74,41.86,2ZM39.07,6,37.79,7.52a.46.46,0,0,1-.39.18l-7-.11a.37.37,0,0,1-.23-.07L28.41,6.06a.49.49,0,0,1-.17-.65l1.28-2.15A.47.47,0,0,1,29.88,3c1.15-.15,5.53,0,6.5.44A18.67,18.67,0,0,1,39,5.28.48.48,0,0,1,39.07,6Z"/><path class="cls-7" d="M21.4,37.75a43.89,43.89,0,0,0,12.43,1.64c8.46.17,12.47-1.28,12.47-1-.44,1.11-.83,1.14-1.44,2.17-.5.84-1.88,1.39-2.66,1.91l-.08.06c-7,1.1-21.61.88-24.16-.89-1-.72-1.41-3.32-1.44-6.7,1.32.34,2.65.65,4,.87C21.13,36,20.79,37.6,21.4,37.75Z"/><polygon class="cls-8" points="25.39 15.22 29.47 12.35 38.15 19.42 35.81 31.21 27.24 35.08 24.33 33.28 25.39 15.22"/><path class="cls-2" d="M41.18,8.91c-3.15,0-6.3,0-9.44,0s-6,0-9,0a9.24,9.24,0,0,0-2.81,1.69c8.27-.05,16.56-.06,24.81-.56,0-.42-.08-.82-.12-1.22C43.48,8.91,42.33,8.92,41.18,8.91Z"/><path class="cls-2" d="M23.53,2A16.81,16.81,0,0,1,20.91.37c.05.27.1.54.14.82-.07-.48.09.42.12.51s.35.71.06.22a2.92,2.92,0,0,1,.38,1.26c2.43.47,4.87,1.72,2.46,5,0,0-4.84,1.19-5.4,4.66S14.57,39.25,18,41.62a4.57,4.57,0,0,0,1.29.54,59.09,59.09,0,0,1,5.12-7,12.45,12.45,0,0,0,1.78-3.29c.1-1.25.23-2.5.45-3.72A25,25,0,0,0,27,22.33L26,3.08C25.14,2.7,24.27,2.33,23.53,2Z"/><path class="cls-2" d="M20.09,39.62l.18-.07.41-.23a2.93,2.93,0,0,0,.45-.3,6.18,6.18,0,0,0,1.38-1.87,21.46,21.46,0,0,0,1.26-5.33c.41-2.17,1-4.31,1.35-6.49s.51-4.17.85-6.24c.54-3.29,0-6.81.75-10-.51-.28-2.13-.65-2.48-1.09l-.17.23s.28.18-.86.6A16.59,16.59,0,0,1,23.37,14c-.24,3.53-.4,7-1,10.53-.38,2.38-.59,4.78-1,7.16-.25,1.56-.5,3.74-1.74,4.87a6.53,6.53,0,0,1-3,1.52,10.9,10.9,0,0,0,.45,2.19A8.75,8.75,0,0,0,20.09,39.62Z"/><path class="cls-9" d="M27,2.78c-.42-1.62-3.43-2.32-5-2.65a18.76,18.76,0,0,0-2.36.28,1.52,1.52,0,0,0-1.07,1.26,1.44,1.44,0,0,0,.07.87c.17.4.5.44.9.51s.61.12.91.2A7.42,7.42,0,0,1,22.29,4a2.89,2.89,0,0,1,1.53,2.27S23.9,23,23.57,26.58c-.46,5-.95,7.48-3,10.75a3.79,3.79,0,0,1-3.8,1.35c.22,1.47.6,2.52,1.19,2.94.81.56,2.77,1,5.29,1.23l.26-.25h0a8.06,8.06,0,0,0,2.59-4.34C27.23,33,27.62,5.31,27,2.78Z"/><path class="cls-10" d="M41.86,2a8.6,8.6,0,0,0-3-1,13.21,13.21,0,0,1,3.56,5.46c.91,3.37,3.82,23.69,1.89,32.23a10.24,10.24,0,0,1-2.08,3.8A7.73,7.73,0,0,0,46.11,41C50,37.52,47.65,18.75,45,7.24A10.35,10.35,0,0,0,41.86,2Z"/><path class="cls-2" d="M29.47,12.35s.82,16.3,0,18.49a22.69,22.69,0,0,1-2.23,4.24H40s2.87-3.29,2.87-4.79S42,14.13,40.82,12.9,32,11.41,29.47,12.35Z"/><path class="cls-11" d="M39.64,16.53a23.32,23.32,0,0,0-5.19-.48,13.53,13.53,0,0,0-1.81.12c-1,.41-2,.85-3,1.33.12,3.65.23,8.38.07,11.18A24,24,0,0,0,37.33,30a10.67,10.67,0,0,0,5.48-1.57c-.14-2.7-.49-7.64-1-11.25A10.66,10.66,0,0,0,39.64,16.53Z"/><path class="cls-4" d="M22.34,17.44c-.07,1.84-1.31,3.2-2.67,3a13.4,13.4,0,0,1-1.93-.23c-.83-.48-.26-1.69-.21-3s-.41-2.62.52-3c.18-.07,1.66-.06,1.87-.07C21.3,14.14,22.42,15.59,22.34,17.44Z"/><path class="cls-2" d="M20.32,17.36c-.08,1.75-1.2,3.05-2.45,2.91s-2-1.52-2-3.09,1-2.88,2.2-2.92S20.39,15.6,20.32,17.36Z"/><path class="cls-4" d="M21.75,30.06c-.24,2.11-1.72,3.52-3.17,3.17a15.47,15.47,0,0,1-2.11-.5c-.79-.61,0-1.83.19-3.25s-.53-2.77.34-3.2a17.12,17.12,0,0,1,2.38,0C20.87,26.25,22,28,21.75,30.06Z"/><path class="cls-2" d="M19.2,29.77c-.22,1.94-1.5,3.25-2.73,3s-1.82-1.81-1.63-3.46,1.21-3,2.37-3S19.42,27.83,19.2,29.77Z"/><path class="cls-12" d="M40.16,22.64c0,2.73-1.1,4.94-3.92,4.94l-3-.41A4.64,4.64,0,0,1,30,22.64a5.29,5.29,0,0,1,2-3.87,25,25,0,0,1,4.14-1.07C38.93,17.7,40.16,19.92,40.16,22.64Z"/><path class="cls-13" d="M41.56,22.64a5.1,5.1,0,1,1-5.09-4.94A5,5,0,0,1,41.56,22.64Z"/><path class="cls-14" d="M40.48,22.64a4,4,0,1,1-4-3.89A4,4,0,0,1,40.48,22.64Z"/><path class="cls-15" d="M36.75,18.77a4.1,4.1,0,0,1,1.34,1.85c.63,1.79.44,4.8-1.4,5.9a3.88,3.88,0,0,0,.06-7.75Z"/></g></g></g></svg>