<svg xmlns="http://www.w3.org/2000/svg" xmlns:xlink="http://www.w3.org/1999/xlink" viewBox="0 0 225 225"><defs><style>.cls-1{isolation:isolate;}.cls-2{fill:#f1c40f;}.cls-3{fill:#f39c12;}.cls-4{fill:#ffe061;}.cls-5{fill:#415b75;}.cls-6{fill:#537596;}.cls-7{fill:#ffd52e;}.cls-8{fill:#bdc3c7;}.cls-9{fill:#95a5a6;}.cls-10,.cls-37{fill:#ecf0f1;}.cls-11{fill:#34495e;}.cls-12{fill:#1c2833;}.cls-13{fill:#476380;}.cls-14,.cls-15{fill:#2c3e50;}.cls-15{opacity:0.1;}.cls-16{fill:#151d26;}.cls-17{fill:#fff;}.cls-17,.cls-34{opacity:0.3;mix-blend-mode:overlay;}.cls-18{fill:#27ae60;}.cls-19{fill:#2ecc71;}.cls-20{fill:#8f2a20;}.cls-21{fill:#c0392b;}.cls-22{fill:#6d98c4;}.cls-23{fill:#f1d2a9;}.cls-24{fill:#e3ba86;}.cls-25,.cls-27{fill:#2980b9;}.cls-26{fill:#3498db;}.cls-27{opacity:0.7;}.cls-28{fill:url(#linear-gradient);}.cls-29{mix-blend-mode:screen;fill:url(#linear-gradient-2);}.cls-30{fill:#16a085;}.cls-31{fill:#1abc9c;}.cls-32{fill:#2f4154;}.cls-33{fill:#243342;}.cls-34{fill:#24ffd4;}.cls-35{fill:#e74c3c;}.cls-36{fill:#7f8c8d;}.cls-37{font-size:13.9px;font-family:MyriadPro-Regular, Myriad Pro;}.cls-38{letter-spacing:0em;}.cls-39{letter-spacing:-0.02em;}</style><linearGradient id="linear-gradient" x1="113.06" y1="53.88" x2="113.06" y2="77.96" gradientUnits="userSpaceOnUse"><stop offset="0" stop-color="#3aacf7"/><stop offset="0.44" stop-color="#39aaf4"/><stop offset="0.73" stop-color="#38a4eb"/><stop offset="0.98" stop-color="#3499dd"/><stop offset="1" stop-color="#3498db"/></linearGradient><linearGradient id="linear-gradient-2" x1="110.65" y1="54.73" x2="110.65" y2="71.64" gradientUnits="userSpaceOnUse"><stop offset="0" stop-color="#3498db"/><stop offset="0.28" stop-color="#266fa1"/><stop offset="0.93" stop-color="#040a0f"/><stop offset="1"/></linearGradient></defs><g class="cls-1"><g id="Capa_2" data-name="Capa 2"><g id="Layer_1" data-name="Layer 1"><rect class="cls-2" width="225" height="225"/><path class="cls-3" d="M135.8,110.48v-9l-8.66-2.27A27.82,27.82,0,0,0,124,91.62l4.52-7.73-6.35-6.35-7.72,4.52a27.73,27.73,0,0,0-7.63-3.15l-2.26-8.66h-9l-2.27,8.66a27.8,27.8,0,0,0-7.62,3.15L78,77.54,71.6,83.89l4.52,7.73A27.82,27.82,0,0,0,73,99.24l-8.66,2.27v9L73,112.75a27.82,27.82,0,0,0,3.16,7.62L71.6,128.1,78,134.44l7.72-4.52a27.82,27.82,0,0,0,7.62,3.16l2.27,8.66h9l2.26-8.66a27.75,27.75,0,0,0,7.63-3.16l7.72,4.52,6.35-6.34L124,120.37a27.82,27.82,0,0,0,3.16-7.62Zm-35.75,17.11a21.6,21.6,0,1,1,21.6-21.6A21.6,21.6,0,0,1,100.05,127.59Z"/><path class="cls-3" d="M112.21,106a12.16,12.16,0,1,1-12.16-12.16A12.16,12.16,0,0,1,112.21,106Z"/><path class="cls-3" d="M178.59,67.93V64.65l-3.17-.83A10.32,10.32,0,0,0,174.27,61l1.65-2.83-2.32-2.32-2.82,1.66A10.1,10.1,0,0,0,168,56.39l-.83-3.16h-3.28l-.83,3.16a10,10,0,0,0-2.78,1.16l-2.83-1.66-2.32,2.32L156.78,61a10,10,0,0,0-1.16,2.78l-3.16.83v3.28l3.16.83a10.1,10.1,0,0,0,1.16,2.79l-1.66,2.82,2.32,2.32L160.27,75a10.32,10.32,0,0,0,2.78,1.15l.83,3.17h3.28l.83-3.17A10.39,10.39,0,0,0,170.78,75l2.82,1.65,2.32-2.32-1.65-2.82a10.39,10.39,0,0,0,1.15-2.79Zm-13.07,6.26a7.9,7.9,0,1,1,7.9-7.9A7.9,7.9,0,0,1,165.52,74.19Z"/><path class="cls-3" d="M170,66.29a4.45,4.45,0,1,1-4.45-4.44A4.45,4.45,0,0,1,170,66.29Z"/><path class="cls-3" d="M189.45,85.65v-2.5L187,82.52a7.78,7.78,0,0,0-.88-2.12l1.26-2.15-1.77-1.77-2.15,1.26a7.48,7.48,0,0,0-2.12-.88l-.63-2.41h-2.5l-.63,2.41a7.48,7.48,0,0,0-2.12.88l-2.15-1.26-1.77,1.77,1.26,2.15a7.78,7.78,0,0,0-.88,2.12l-2.41.63v2.5l2.41.63a7.92,7.92,0,0,0,.88,2.12l-1.26,2.15,1.77,1.76,2.15-1.25a7.46,7.46,0,0,0,2.12.87l.63,2.41h2.5l.63-2.41a7.46,7.46,0,0,0,2.12-.87l2.15,1.25,1.77-1.76-1.26-2.15a7.92,7.92,0,0,0,.88-2.12Zm-9.95,4.76a6,6,0,1,1,6-6A6,6,0,0,1,179.5,90.41Z"/><path class="cls-3" d="M182.89,84.4A3.39,3.39,0,1,1,179.5,81,3.38,3.38,0,0,1,182.89,84.4Z"/><path class="cls-3" d="M61.82,72v-2.5l-2.41-.63a7.6,7.6,0,0,0-.88-2.12l1.26-2.15L58,62.79,55.88,64a8,8,0,0,0-2.13-.88l-.63-2.41H50.63L50,63.16a8,8,0,0,0-2.13.88l-2.15-1.25L44,64.55l1.26,2.15a7.32,7.32,0,0,0-.88,2.12l-2.41.63V72l2.41.63a7.2,7.2,0,0,0,.88,2.12L44,76.85l1.76,1.77,2.15-1.26a8,8,0,0,0,2.13.88l.63,2.41h2.49l.63-2.41a8,8,0,0,0,2.13-.88L58,78.62l1.76-1.77L58.53,74.7a7.48,7.48,0,0,0,.88-2.12Zm-9.94,4.76a6,6,0,1,1,6-6A6,6,0,0,1,51.88,76.71Z"/><path class="cls-3" d="M55.26,70.7a3.39,3.39,0,1,1-3.38-3.38A3.39,3.39,0,0,1,55.26,70.7Z"/><path class="cls-3" d="M61.82,149.15v-2.5L59.41,146a7.48,7.48,0,0,0-.88-2.12l1.26-2.15L58,140l-2.15,1.26a8,8,0,0,0-2.13-.88L53.12,138H50.63L50,140.36a8,8,0,0,0-2.13.88L45.72,140,44,141.75l1.26,2.15a7.2,7.2,0,0,0-.88,2.12l-2.41.63v2.5l2.41.63a7.2,7.2,0,0,0,.88,2.12L44,154.05l1.76,1.77,2.15-1.26a8,8,0,0,0,2.13.88l.63,2.41h2.49l.63-2.41a8,8,0,0,0,2.13-.88L58,155.82l1.76-1.77-1.26-2.15a7.48,7.48,0,0,0,.88-2.12Zm-9.94,4.76a6,6,0,1,1,6-6A6,6,0,0,1,51.88,153.91Z"/><path class="cls-3" d="M55.26,147.9a3.39,3.39,0,1,1-3.38-3.39A3.38,3.38,0,0,1,55.26,147.9Z"/><path class="cls-3" d="M154.3,63.31V57.67l-5.45-1.43a17.42,17.42,0,0,0-2-4.79l2.84-4.86-4-4-4.86,2.85a17.45,17.45,0,0,0-4.79-2L134.65,38H129l-1.43,5.44a17.45,17.45,0,0,0-4.79,2l-4.86-2.85-4,4,2.85,4.86a17.45,17.45,0,0,0-2,4.79l-5.44,1.43v5.64l5.44,1.42a17.45,17.45,0,0,0,2,4.79l-2.85,4.86,4,4,4.86-2.84a17.42,17.42,0,0,0,4.79,2L129,83h5.64l1.42-5.45a17.42,17.42,0,0,0,4.79-2l4.86,2.84,4-4-2.84-4.86a17.42,17.42,0,0,0,2-4.79Zm-22.47,11a13.85,13.85,0,1,1,13.85-13.85A13.85,13.85,0,0,1,131.83,74.34Z"/><path class="cls-3" d="M131.83,48a12.5,12.5,0,1,0,12.5,12.5A12.49,12.49,0,0,0,131.83,48Zm0,18.3a5.81,5.81,0,1,1,5.8-5.8A5.81,5.81,0,0,1,131.83,66.29Z"/><path class="cls-3" d="M68.54,120.16v-5.64L63.1,113.1a17.45,17.45,0,0,0-2-4.79L64,103.45l-4-4-4.85,2.84a17.49,17.49,0,0,0-4.8-2l-1.42-5.45H43.25l-1.43,5.45a17.12,17.12,0,0,0-4.79,2l-4.85-2.84-4,4L31,108.31a17.45,17.45,0,0,0-2,4.79l-5.44,1.42v5.64L29,121.59a17.45,17.45,0,0,0,2,4.79l-2.84,4.85,4,4L37,132.38a17.45,17.45,0,0,0,4.79,2l1.43,5.44h5.64l1.42-5.44a17.51,17.51,0,0,0,4.8-2L60,135.22l4-4-2.84-4.85a17.45,17.45,0,0,0,2-4.79Zm-22.47,11a13.85,13.85,0,1,1,13.85-13.85A13.85,13.85,0,0,1,46.07,131.19Z"/><path class="cls-3" d="M46.07,104.84a12.5,12.5,0,1,0,12.5,12.5A12.5,12.5,0,0,0,46.07,104.84Zm0,18.31a5.81,5.81,0,1,1,5.81-5.81A5.81,5.81,0,0,1,46.07,123.15Z"/><path class="cls-3" d="M208,119v-5.65l-5.44-1.42a17.45,17.45,0,0,0-2-4.79l2.84-4.86-4-4-4.85,2.84a17.42,17.42,0,0,0-4.79-2l-1.43-5.44h-5.64l-1.42,5.44a17.3,17.3,0,0,0-4.79,2l-4.86-2.84-4,4,2.84,4.86a17.12,17.12,0,0,0-2,4.79L163,113.31V119l5.45,1.42a17.12,17.12,0,0,0,2,4.79L167.63,130l4,4,4.86-2.84a17.61,17.61,0,0,0,4.79,2l1.42,5.44h5.64l1.43-5.44a17.74,17.74,0,0,0,4.79-2L199.4,134l4-4-2.84-4.86a17.45,17.45,0,0,0,2-4.79Zm-22.47,11a13.86,13.86,0,1,1,13.85-13.86A13.86,13.86,0,0,1,185.51,130Z"/><path class="cls-3" d="M185.51,103.64A12.5,12.5,0,1,0,198,116.13,12.5,12.5,0,0,0,185.51,103.64Zm0,18.3a5.81,5.81,0,1,1,5.81-5.81A5.81,5.81,0,0,1,185.51,121.94Z"/><path class="cls-4" d="M72.9,52.59l-.29-7.82A9.51,9.51,0,0,0,74,44.61l1.37,7.71A17.39,17.39,0,0,1,72.9,52.59Zm-9.63-2.37a18.71,18.71,0,0,1-2.07-1.39L66,42.64a10.11,10.11,0,0,0,1.18.79Zm21-2.26-5.24-5.81a10.47,10.47,0,0,0,1-1l6,5A18.7,18.7,0,0,1,84.29,48Zm-29-7.12a18,18,0,0,1-.71-2.41l7.65-1.67a10.61,10.61,0,0,0,.4,1.36Zm34.73-3.75L82.31,36a11,11,0,0,0,.09-1.42l7.83-.23v.3A18.63,18.63,0,0,1,90.06,37.09ZM62.63,31.17l-7.37-2.63a17.56,17.56,0,0,1,1-2.31l6.93,3.65A9.34,9.34,0,0,0,62.63,31.17Zm18.18-2.06A12.05,12.05,0,0,0,80,28l5.94-5.1a18.33,18.33,0,0,1,1.49,2Zm-13.74-3.3-4-6.75A18.65,18.65,0,0,1,65.34,18l3,7.23A9.38,9.38,0,0,0,67.07,25.81Zm8.21-.93a10.92,10.92,0,0,0-1.37-.33l1.28-7.72a17.11,17.11,0,0,1,2.45.58Z"/><path class="cls-4" d="M72.22,26.9a7.7,7.7,0,1,0,7.7,7.69A7.69,7.69,0,0,0,72.22,26.9Zm-2.61,7.69A2.56,2.56,0,1,1,72.35,32,2.64,2.64,0,0,1,69.61,34.59Z"/><path class="cls-3" d="M205.14,196.36a5.93,5.93,0,0,0-3.82-1.41,6,6,0,0,0-6,6,5.89,5.89,0,0,0,.85,3Z"/><path class="cls-3" d="M206.43,197.83l-9,7.68a6,6,0,0,0,9-7.68Z"/><path class="cls-3" d="M27.4,196.36a6,6,0,0,0-9,7.64Z"/><path class="cls-3" d="M28.69,197.83l-9,7.68a6,6,0,0,0,9.05-7.68Z"/><path class="cls-3" d="M27.4,16.23a6,6,0,0,0-9,7.65Z"/><path class="cls-3" d="M28.69,17.71l-9,7.67a6,6,0,0,0,9.05-7.67Z"/><path class="cls-3" d="M205.14,16.23a6,6,0,0,0-9,7.65Z"/><path class="cls-3" d="M206.43,17.71l-9,7.67a6,6,0,0,0,3.93,1.5,6,6,0,0,0,6-6A5.89,5.89,0,0,0,206.43,17.71Z"/><path class="cls-5" d="M133.16,162.27l2.26,15.62h2.88v-8.34a2.7,2.7,0,0,1,2.7-2.7h10.91a2.7,2.7,0,0,1,2.71,2.7v8.34H158l1.83-15.81a6.77,6.77,0,0,0-6.72-7.54H139.85A6.76,6.76,0,0,0,133.16,162.27Z"/><path class="cls-6" d="M133.59,164.12l1.83,13.77h2.39v-8.34a3,3,0,0,1,2.71-3h11.39a3,3,0,0,1,2.71,3v8.34H158l.64-14c.46-4-1.49-7.54-5.53-7.54H139.85C135.73,156.39,133,160,133.59,164.12Z"/><path class="cls-2" d="M154.56,155.23l-2.24,8.89H140.6l-2.24-8.89a1.35,1.35,0,0,1,1.31-1.68h13.58A1.35,1.35,0,0,1,154.56,155.23Z"/><path class="cls-2" d="M154.56,155.23l-2.24,8.89H140.6l-2.24-8.89a1.35,1.35,0,0,1,1.31-1.68h13.58A1.35,1.35,0,0,1,154.56,155.23Z"/><polygon class="cls-7" points="138.36 155.23 140.6 164.12 152.32 164.12 141.16 163.64 138.36 155.23 138.36 155.23"/><path class="cls-3" d="M138.36,155.23l.41,1.65a1.57,1.57,0,0,1,1.61-1.36h12.17a1.55,1.55,0,0,1,1.6,1.34l.41-1.63a1.35,1.35,0,0,0-1.31-1.68H139.67A1.35,1.35,0,0,0,138.36,155.23Z"/><rect class="cls-8" x="137.74" y="174.88" width="2.85" height="1.73" transform="translate(-36.58 314.91) rotate(-90)"/><rect class="cls-9" x="138.75" y="173.87" width="0.83" height="1.73" transform="translate(-35.57 313.9) rotate(-90)"/><rect class="cls-10" x="138.75" y="175.35" width="0.83" height="1.73" transform="translate(-37.06 315.38) rotate(-90)"/><rect class="cls-8" x="150.26" y="172.83" width="2.85" height="5.83" transform="translate(-24.06 327.43) rotate(-90)"/><rect class="cls-9" x="151.27" y="171.82" width="0.83" height="5.83" transform="translate(-23.05 326.42) rotate(-90)"/><rect class="cls-10" x="151.27" y="173.3" width="0.83" height="5.83" transform="translate(-24.53 327.91) rotate(-90)"/><rect class="cls-8" x="168.28" y="168.14" width="6.63" height="15.21" transform="translate(-4.15 347.34) rotate(-90)"/><rect class="cls-9" x="163.99" y="172.43" width="15.21" height="1.31"/><rect class="cls-10" x="163.99" y="175.77" width="15.21" height="1.99"/><rect class="cls-10" x="163.99" y="175.03" width="15.21" height="0.47"/><rect class="cls-9" x="163.99" y="174.01" width="15.21" height="0.47"/><rect class="cls-10" x="163.99" y="177.98" width="15.21" height="0.47"/><rect class="cls-11" x="178.32" y="174.28" width="4.69" height="2.93" transform="translate(4.92 356.41) rotate(-90)"/><rect class="cls-12" x="179.2" y="173.39" width="2.93" height="0.93"/><rect class="cls-13" x="179.2" y="175.75" width="2.93" height="1.4"/><rect class="cls-13" x="179.2" y="175.23" width="2.93" height="0.33"/><rect class="cls-12" x="179.2" y="174.51" width="2.93" height="0.33"/><rect class="cls-13" x="179.2" y="177.31" width="2.93" height="0.33"/><path class="cls-14" d="M155.19,166.85V178a2.19,2.19,0,0,0,2.18,2.19h9a2.19,2.19,0,0,0,2.19-2.19V173.5a2.19,2.19,0,0,0-2.19-2.19h-2.08a3.38,3.38,0,0,1-3.38-3.38h0a1.08,1.08,0,0,0-1.08-1.08Z"/><rect class="cls-11" x="155.56" y="171.7" width="12.63" height="8.14" rx="1.72"/><rect class="cls-9" x="156.38" y="172.22" width="11" height="7.09" rx="1.5"/><path class="cls-15" d="M157.77,175.73h0l-.15-.15v-2.39l.15-.16h0c.13.13.2.21.34.34v2Zm.34,2.44v-2l-.34-.33h0l-.15.15v2.39l.15.16h0Zm1.48-2.59v-2.39l-.15-.16h0l-.34.34v2l.34.33h0Zm0,2.77V176l-.15-.15h0l-.34.33v2l.34.34h0Zm-1.43-5H159l.33-.33h0l-.15-.16H158l-.15.16h0Zm-.33,5.27h0l.15.16h1.24l.15-.16h0l-.33-.33h-.88Zm1.5-2.78v-.06l-.25-.25h-1l-.25.25v.06l.25.26h1Zm.68-.06h0l-.15-.15v-2.39L160,173h0l.33.34v2Zm.33,2.44v-2l-.33-.33h0l-.15.15v2.39l.15.16h0Zm1.49-2.59v-2.39l-.16-.16h0l-.33.34v2l.33.33h0Zm0,2.77V176l-.16-.15h0l-.33.33v2l.33.34h0Zm-1.43-5h.87l.34-.33h0l-.16-.16h-1.23l-.16.16h0Zm-.34,5.27h0l.16.16h1.23l.16-.16h0l-.34-.33h-.87Zm1.51-2.78v-.06c-.1-.1-.16-.15-.25-.25h-.95l-.25.25v.06l.25.26h.95Zm.68-.06h0l-.16-.15v-2.39l.16-.16h0l.33.34v2Zm.33,2.44v-2l-.33-.33h0l-.16.15v2.39l.16.16h0Zm1.49-2.59v-2.39l-.16-.16h0l-.33.34v2l.33.33h0Zm0,2.77V176l-.16-.15h0l-.33.33v2l.33.34h0Zm-1.43-5h.87l.34-.33h0l-.16-.16h-1.23l-.16.16h0Zm-.34,5.27h0l.16.16h1.23l.16-.16h0l-.34-.33h-.87Zm1.51-2.78v-.06l-.26-.25h-.94l-.26.25v.06l.26.26h.94Zm.68-.06h0l-.16-.15v-2.39l.16-.16h0l.33.34v2Zm.33,2.44v-2l-.33-.33h0l-.16.15v2.39l.16.16h0Zm1.48-2.59v-2.39l-.15-.16h0l-.33.34v2l.33.33h0Zm0,2.77V176l-.15-.15h0l-.33.33v2l.33.34h0Zm-1.42-5h.87l.34-.33h0l-.16-.16h-1.24l-.15.16h0Zm-.34,5.27h0l.15.16h1.24l.16-.16h0l-.34-.33h-.87Zm1.51-2.78v-.06l-.26-.25h-.95l-.25.25v.06l.25.26h.95Z"/><path class="cls-16" d="M157.77,175.73h0l-.15-.15v-2.39l.15-.16h0c.13.13.2.21.34.34v2Zm1.82,2.62V176l-.15-.15h0l-.34.33v2l.34.34h0Zm-1.43-5H159l.33-.33h0l-.15-.16H158l-.15.16h0Zm-.33,5.27h0l.15.16h1.24l.15-.16h0l-.33-.33h-.88Zm1.5-2.78v-.06l-.25-.25h-1l-.25.25v.06l.25.26h1Zm.68-.06h0l-.15-.15v-2.39L160,173h0l.33.34v2Zm.33,2.44v-2l-.33-.33h0l-.15.15v2.39l.15.16h0Zm1.49.18V176l-.16-.15h0l-.33.33v2l.33.34h0Zm-1.43-5h.87l.34-.33h0l-.16-.16h-1.23l-.16.16h0Zm-.34,5.27h0l.16.16h1.23l.16-.16h0l-.34-.33h-.87Zm1.51-2.78v-.06c-.1-.1-.16-.15-.25-.25h-.95l-.25.25v.06l.25.26h.95Zm2.5-.21v-2.39l-.16-.16h0l-.33.34v2l.33.33h0Zm0,2.77V176l-.16-.15h0l-.33.33v2l.33.34h0Zm-1.43-5h.87l.34-.33h0l-.16-.16h-1.23l-.16.16h0Zm1.85,2.43h0l-.16-.15v-2.39l.16-.16h0l.33.34v2Zm.33,2.44v-2l-.33-.33h0l-.16.15v2.39l.16.16h0Zm1.48-2.59v-2.39l-.15-.16h0l-.33.34v2l.33.33h0Zm0,2.77V176l-.15-.15h0l-.33.33v2l.33.34h0Zm-1.42-5h.87l.34-.33h0l-.16-.16h-1.24l-.15.16h0Zm-.34,5.27h0l.15.16h1.24l.16-.16h0l-.34-.33h-.87Zm1.51-2.78v-.06l-.26-.25h-.95l-.25.25v.06l.25.26h.95Z"/><path class="cls-17" d="M159.52,174.56c-1.21-.74-2.38-1.49-3.52-2.28a1.72,1.72,0,0,0-.44,1.14v4.7a1.72,1.72,0,0,0,1.72,1.72h9.18a1.7,1.7,0,0,0,1.19-.48C164.77,178.14,162.06,176.12,159.52,174.56Z"/><polygon class="cls-5" points="152.32 164.12 152.94 164.12 155.46 156.88 154.45 156.07 152.32 164.12"/><path class="cls-12" d="M157.65,168.15a.89.89,0,1,1-.9.89A.89.89,0,0,1,157.65,168.15Z"/><path class="cls-18" d="M157.27,168.33a.9.9,0,1,1-.89.9A.89.89,0,0,1,157.27,168.33Z"/><path class="cls-19" d="M157.15,168.87a.5.5,0,0,1,0,1,.5.5,0,1,1,0-1Z"/><path class="cls-12" d="M159.83,168.15a.89.89,0,1,1-.89.89A.89.89,0,0,1,159.83,168.15Z"/><path class="cls-3" d="M159.45,168.33a.9.9,0,1,1-.89.9A.89.89,0,0,1,159.45,168.33Z"/><path class="cls-2" d="M159.33,168.87a.5.5,0,1,1,0,1,.5.5,0,0,1,0-1Z"/><path class="cls-20" d="M144.22,161.16a2,2,0,0,1-2-2,2,2,0,0,1,.48-1.3,2,2,0,0,0,1,3.72h5.46a2,2,0,0,0,1.52-.71,2,2,0,0,1-1,.29Z"/><path class="cls-21" d="M149.19,157.57h-5.46a1.36,1.36,0,0,0-1.51,1.59,2,2,0,0,0,2,2h5.46a1.81,1.81,0,0,0-.49-3.59Z"/><path class="cls-22" d="M136.17,177.48s-2.37-12.61-1.61-15.9,2.6-2.74,1.67.49C135.43,164.84,136.17,177.48,136.17,177.48Z"/><path class="cls-23" d="M133.4,84.22h0c-1.6-11.94-10.08-21.07-20.34-21.07S94.31,72.28,92.72,84.22h0c-2.68,0-4.7,3.32-4.23,7.35.49,4.35,1.7,4.36,3.33,7.6a2,2,0,0,0,3,.78c3.46,8,10.33,13.44,18.26,13.44s14.8-5.45,18.25-13.44a2.06,2.06,0,0,0,3-.78c1.63-3.24,2.83-3.25,3.33-7.6C138.1,87.54,136.09,84.25,133.4,84.22Z"/><path class="cls-24" d="M133.4,84.22h0c-1.6-11.94-10.08-21.07-20.34-21.07S94.31,72.28,92.72,84.22h0c-1.92,0-3.48,1.72-4,4.17.06.06.13.11.19.18,7.55,7.89,19.62,7.7,29.74,6.52,4.26-.5,7.12,4.48,6.17,8.11a17.13,17.13,0,0,1-5.7,9.09c5.31-2,9.71-6.46,12.25-12.34a2.06,2.06,0,0,0,3-.78c1.63-3.24,2.83-3.25,3.33-7.6C138.1,87.54,136.09,84.25,133.4,84.22Z"/><path class="cls-25" d="M137.45,85.62c-1.13,2.67-10.9,4.88-24.39,4.88-12.73,0-23.26-2.21-24.39-4.88Z"/><path class="cls-26" d="M137.45,85c-1.13,2.67-10.9,4.34-24.39,4.34-12.73,0-23.26-1.67-24.39-4.34Z"/><path class="cls-26" d="M113.06,54.73h0A24.65,24.65,0,0,0,88.41,79.38v6.3s1.76.73,24.65.73c22.56,0,24.65-.73,24.65-.73v-6.3A24.65,24.65,0,0,0,113.06,54.73Z"/><path class="cls-27" d="M130.63,62.11c-.47,12.85-12.55,23.48-25.17,23.48a24.29,24.29,0,0,1-17-6.87c0,.22,0,.44,0,.66v6.3s1.76.73,24.65.73c22.56,0,24.65-.73,24.65-.73v-6.3A24.57,24.57,0,0,0,130.63,62.11Z"/><path class="cls-25" d="M113.06,54.73h0a24.47,24.47,0,0,0-10.41,2.33.76.76,0,0,0,.08.11c3.48,5.68,3.32,13.21,2.84,20.47h15.65c.41-6.6,1.51-13.87,4.56-19.32h0A24.41,24.41,0,0,0,113.06,54.73Z"/><path class="cls-28" d="M121.05,78h-16V55.79a1.45,1.45,0,0,1,1.15-1.43,34.82,34.82,0,0,1,6.84-.48,35,35,0,0,1,6.84.48,1.47,1.47,0,0,1,1.15,1.43Z"/><rect class="cls-29" x="106.01" y="54.73" width="9.29" height="16.91" rx="2.57"/><rect class="cls-30" x="82.96" y="106.33" width="60.21" height="42.64" rx="5.82"/><path class="cls-31" d="M97.56,101.91h31a1.45,1.45,0,0,1,1.45,1.45v48.57a1.46,1.46,0,0,1-1.46,1.46h-31a1.45,1.45,0,0,1-1.45-1.45V103.37A1.46,1.46,0,0,1,97.56,101.91Z" transform="translate(240.71 14.59) rotate(90)"/><rect class="cls-8" x="147.76" y="125.15" width="8.64" height="2.3" transform="translate(-43.21 95.59) rotate(-30.77)"/><rect class="cls-9" x="148.14" y="126.52" width="8.64" height="0.83" transform="translate(-43.48 95.88) rotate(-30.77)"/><rect class="cls-11" x="79.61" y="117.73" width="3.34" height="19.84"/><rect class="cls-32" x="76.27" y="122.66" width="3.34" height="9.98"/><rect class="cls-11" x="143.16" y="117.73" width="3.34" height="19.84" transform="translate(289.66 255.3) rotate(180)"/><rect class="cls-14" x="143.16" y="129.98" width="3.34" height="7.59" transform="translate(289.66 267.55) rotate(180)"/><rect class="cls-32" x="146.5" y="122.66" width="3.34" height="9.98" transform="translate(296.35 255.3) rotate(180)"/><rect class="cls-33" x="146.5" y="128.79" width="3.34" height="3.85" transform="translate(296.35 261.43) rotate(180)"/><rect class="cls-14" x="79.61" y="129.98" width="3.34" height="7.59"/><rect class="cls-33" x="76.27" y="128.79" width="3.34" height="3.85"/><path class="cls-2" d="M124.34,129.06v-2.83l-2.74-.71a8.81,8.81,0,0,0-1-2.41l1.42-2.44-2-2-2.44,1.43a8.77,8.77,0,0,0-2.4-1l-.72-2.73h-2.83l-.71,2.73a8.83,8.83,0,0,0-2.41,1l-2.44-1.43-2,2,1.43,2.44a8.83,8.83,0,0,0-1,2.41l-2.73.71v2.83l2.73.72a8.64,8.64,0,0,0,1,2.4l-1.43,2.44,2,2,2.44-1.42a8.81,8.81,0,0,0,2.41,1l.71,2.74h2.83l.72-2.74a8.74,8.74,0,0,0,2.4-1l2.44,1.42,2-2-1.42-2.44a8.62,8.62,0,0,0,1-2.4Zm-11.28,5.4a6.82,6.82,0,1,1,6.81-6.81A6.81,6.81,0,0,1,113.06,134.46Z"/><path class="cls-2" d="M116.9,127.65a3.84,3.84,0,1,1-3.84-3.84A3.84,3.84,0,0,1,116.9,127.65Z"/><path class="cls-34" d="M85.33,147.82c17.06-15.25,36.77-27.26,57.75-36.46a5.8,5.8,0,0,0-5.74-5H88.78A5.81,5.81,0,0,0,83,112.15v31A5.8,5.8,0,0,0,85.33,147.82Z"/><path class="cls-21" d="M158.65,124.08a2.87,2.87,0,1,1-2.86-2.86A2.86,2.86,0,0,1,158.65,124.08Z"/><path class="cls-35" d="M157.16,123.36a1.84,1.84,0,1,1-1.84-1.83A1.84,1.84,0,0,1,157.16,123.36Z"/><path class="cls-9" d="M127.93,158.35H98.19a7.29,7.29,0,0,1-7.28-7.27V149h2.91v2.11a4.37,4.37,0,0,0,4.37,4.36h29.74a4.37,4.37,0,0,0,4.36-4.36V149h2.91v2.11A7.28,7.28,0,0,1,127.93,158.35Z"/><path class="cls-8" d="M127.93,157.62H98.19a6.55,6.55,0,0,1-6.55-6.54V149H93.1v2.11a5.1,5.1,0,0,0,5.09,5.09h29.74a5.1,5.1,0,0,0,5.09-5.09V149h1.45v2.11A6.54,6.54,0,0,1,127.93,157.62Z"/><path class="cls-36" d="M123.13,172.22a12.71,12.71,0,0,0-2.26,1.75,3.19,3.19,0,0,1-2.21.91l-13.9-.07v0l-14.21-.07a3,3,0,0,1-2-.71c-1-.86-2.92-2.22-4.64-2.23-2.4,0-4.81,3.15-4.81,3.15l.37.95,3.78-.85s1.17.23,1.5,2.06a2.63,2.63,0,0,1-.65,2.55l-3.48.74.17,1.08s3.63,1.66,5.53.54a12.26,12.26,0,0,0,2.26-1.76,3.13,3.13,0,0,1,2.21-.9l13.9.06v0l14.21.07a3.09,3.09,0,0,1,2,.71c1,.86,2.91,2.22,4.63,2.23,2.4,0,4.82-3.15,4.82-3.15l-.38-.94-3.78.85s-1.17-.23-1.5-2.06a2.65,2.65,0,0,1,.65-2.56l3.48-.74-.17-1.08S125,171.09,123.13,172.22Z"/><path class="cls-8" d="M124.8,173.39l-.24.19a3,3,0,0,0-.59.69,3,3,0,0,1-2.59,1.36L87,175.46a3.07,3.07,0,0,1-2.13-.91,2.86,2.86,0,0,0-1.36-.77l-.26-.05-3.86.87-.27.33.37.95,3.78-.85s1.17.23,1.5,2.06a2.63,2.63,0,0,1-.65,2.55l-3.48.74.23,1.11.22.09,3.59-.76.23-.18a2.91,2.91,0,0,0,.59-.7,3,3,0,0,1,2.59-1.35l34.36.16a3.08,3.08,0,0,1,2.13.92,2.82,2.82,0,0,0,1.36.76l.26,0,3.86-.87c.06-.06.23-.28.27-.33l-.37-.94-3.78.85s-1.17-.23-1.5-2.06a2.65,2.65,0,0,1,.65-2.56l3.48-.74-.23-1.11-.22-.09Z"/><path class="cls-10" d="M79.51,175.88a28.71,28.71,0,0,1,3.69-1.27l.08,0,.09,0a1.82,1.82,0,0,1,.45.15,3.17,3.17,0,0,1,.36.23,2.65,2.65,0,0,1,.56.6,4.25,4.25,0,0,1,.35.71l.11.37a3.61,3.61,0,0,1,.08.38,5.43,5.43,0,0,1,.06.75,4,4,0,0,1-.1.77,3.19,3.19,0,0,1-.3.74,1.85,1.85,0,0,1-.23.34,1.83,1.83,0,0,1-.31.32l-.09.07h-.09a27.87,27.87,0,0,1-3.56.33,28.13,28.13,0,0,1,3.39-1.14l-.17.08s.1-.12.14-.19a1.71,1.71,0,0,0,.13-.23,2.41,2.41,0,0,0,.16-.54,2.63,2.63,0,0,0,0-.57,3.57,3.57,0,0,0-.06-.6l-.06-.28-.08-.28a2.64,2.64,0,0,0-.23-.51,2,2,0,0,0-.34-.42,1.49,1.49,0,0,0-.2-.15l-.18-.1h.18A29.52,29.52,0,0,1,79.51,175.88Z"/><path class="cls-10" d="M130,178.34a30.33,30.33,0,0,1-3.69,1.27l-.08,0-.09,0a1.57,1.57,0,0,1-.45-.16,2.67,2.67,0,0,1-.36-.22,2.5,2.5,0,0,1-.56-.61,3.61,3.61,0,0,1-.35-.71l-.11-.36a3.33,3.33,0,0,1-.08-.39,4.17,4.17,0,0,1,0-.74,3.46,3.46,0,0,1,.09-.78,3.59,3.59,0,0,1,.3-.74,1.94,1.94,0,0,1,.23-.33,1.33,1.33,0,0,1,.31-.32l.09-.07h.09a27.87,27.87,0,0,1,3.56-.34,28.19,28.19,0,0,1-3.39,1.15l.17-.08-.14.18a1.83,1.83,0,0,0-.13.24,2.49,2.49,0,0,0-.16.53,3.66,3.66,0,0,0-.05.57,3.58,3.58,0,0,0,.06.61l.06.28.08.28a2.66,2.66,0,0,0,.24.51,1.65,1.65,0,0,0,.33.41,1,1,0,0,0,.2.16,1.46,1.46,0,0,0,.18.09h-.18A29.52,29.52,0,0,1,130,178.34Z"/><path class="cls-36" d="M120.5,177.2h0a1,1,0,0,1-1,.94L90.23,178a1,1,0,0,1-1-1h0a1,1,0,0,1,1-.94l29.32.14A1,1,0,0,1,120.5,177.2Z"/><path class="cls-11" d="M83.46,167.73v-4a1.42,1.42,0,0,0-1.42-1.42h0v6.89h0A1.43,1.43,0,0,0,83.46,167.73Z"/><path class="cls-26" d="M82,169.36v-7.31a1,1,0,0,0-1-1L58.48,161a4.64,4.64,0,0,0-4.66,4.63h0a4.64,4.64,0,0,0,4.64,4.66l22.57,0A1,1,0,0,0,82,169.36Z"/><path class="cls-25" d="M82,169.36v-3.18a3.35,3.35,0,0,1-2.41.91l-20.5,0C56,167,55,163.9,56,161.74a4.64,4.64,0,0,0-2.14,3.89h0a4.64,4.64,0,0,0,4.64,4.66l22.57,0A1,1,0,0,0,82,169.36Z"/><polygon class="cls-8" points="101.8 167.72 101.8 167.72 104.48 167.07 104.48 164.44 101.8 163.78 101.8 163.78 100.99 163.58 99.29 164.43 83.46 164.39 83.46 167.02 99.28 167.06 100.98 167.92 101.8 167.72"/><polygon class="cls-10" points="103.67 167.27 104.48 167.07 104.48 164.44 103.67 164.24 103.67 167.27"/><path class="cls-9" d="M101.15,167.88a2.6,2.6,0,0,1-1.16-2.27,2.66,2.66,0,0,1,.71-1.89l-1.41.71-15.83,0V167l15.82,0,1.7.86Zm-16.36-1.65a.66.66,0,0,1,0-1.32l13.53,0a.66.66,0,0,1,0,1.32Z"/><text class="cls-37" transform="translate(70.95 207.96)">P<tspan class="cls-38" x="7.39" y="0">R</tspan><tspan x="14.91" y="0">ODU</tspan><tspan class="cls-39" x="42.73" y="0">C</tspan><tspan x="50.5" y="0">CIÓN</tspan></text></g></g></g></svg>