<svg xmlns="http://www.w3.org/2000/svg" xmlns:xlink="http://www.w3.org/1999/xlink" viewBox="0 0 225 225"><defs><style>.cls-1{isolation:isolate;}.cls-2{fill:#d44637;}.cls-3{fill:#b83629;}.cls-4{fill:#f39c12;}.cls-5{fill:#e67e22;}.cls-6{fill:#f1c40f;}.cls-7{fill:#f1d874;}.cls-8{fill:#34495e;}.cls-9{fill:#bdc3c7;}.cls-10{fill:#95a5a6;}.cls-11{fill:#ecf0f1;}.cls-12{fill:#2ecc71;}.cls-13{fill:#39ff8d;}.cls-14{fill:#27ae60;}.cls-15{fill:#ffeda6;}.cls-16{fill:#c7b260;}.cls-17{fill:url(#linear-gradient);}.cls-18{fill:url(#linear-gradient-2);}.cls-19{fill:#7f8c8d;}.cls-20{fill:#2c3e50;}.cls-21{fill:#496785;}.cls-22{fill:#2d3f52;}.cls-23{fill:#2980b9;}.cls-24{fill:#e8ddad;}.cls-25{fill:#cfc59a;}.cls-26,.cls-30,.cls-36{fill:#fff;}.cls-26{opacity:0.3;}.cls-26,.cls-35{mix-blend-mode:overlay;}.cls-27{fill:#f0f4f5;}.cls-28{fill:#ffda45;}.cls-29{fill:#45617d;}.cls-31{fill:#4a6785;}.cls-32{fill:#484f4f;}.cls-33{fill:#d35400;}.cls-34{fill:#3498db;}.cls-35{fill:#fcffa3;opacity:0.2;}.cls-36{font-size:13.09px;font-family:MyriadPro-Regular, Myriad Pro;}</style><linearGradient id="linear-gradient" x1="71.2" y1="89.96" x2="153.8" y2="172.57" gradientUnits="userSpaceOnUse"><stop offset="0" stop-color="#dbd0a2"/><stop offset="0.33" stop-color="#e4daaf"/><stop offset="0.93" stop-color="#fcf4d1"/><stop offset="1" stop-color="#fff7d6"/></linearGradient><linearGradient id="linear-gradient-2" x1="71.2" y1="89.96" x2="153.8" y2="172.57" gradientUnits="userSpaceOnUse"><stop offset="0" stop-color="#dbd0a2"/><stop offset="0.32" stop-color="#dfd4a6"/><stop offset="0.66" stop-color="#ebe0b3"/><stop offset="1" stop-color="#fff4c7"/></linearGradient></defs><g class="cls-1"><g id="Capa_2" data-name="Capa 2"><g id="Layer_1" data-name="Layer 1"><rect class="cls-2" width="225" height="225"/><path class="cls-3" d="M22.54,170H202.46a9.51,9.51,0,0,0,9.51-9.51H13A9.51,9.51,0,0,0,22.54,170Z"/><path class="cls-3" d="M92.57,70.64l13.81-31.38,12.88,31.38h6.81L111.63,35.45a6.59,6.59,0,0,1-10.42-.07L85.69,70.64Z"/><path class="cls-3" d="M127,72.82h-6.81l.16.38H91.44l.17-.38H84.73l0,.06h-.58V157.3h6.3v-20l32.23,22.56a3.16,3.16,0,0,0,5-2.58V72.88H127ZM90.42,82.6l24.47,18.06H90.42Zm0,27.46,24.47,18.06H90.42Zm30.89,41.19-24-16.83h24Zm0-26.22L96.84,107h24.47Zm0-27.46L96.84,79.5h24.47Z"/><rect class="cls-3" x="76.92" y="153.78" width="59.13" height="6.67"/><path class="cls-3" d="M65.29,67.36v11H165.51v-11ZM151,72.82H66.75a1.09,1.09,0,0,1,0-2.18H151A1.09,1.09,0,0,1,151,72.82Z"/><path class="cls-3" d="M167.41,70.41h-104a7.77,7.77,0,0,1,0,4.93h104A7.7,7.7,0,0,1,167.41,70.41ZM151,72.82H66.75a1.09,1.09,0,0,1,0-2.18H151A1.09,1.09,0,0,1,151,72.82Z"/><path class="cls-3" d="M177,78.76V90.21h2V76.72A6.06,6.06,0,0,1,177,78.76Z"/><path class="cls-3" d="M56.37,66.22a8.57,8.57,0,0,1,.9-.09,7,7,0,0,1,1.88.27l40.9-33.77a7.92,7.92,0,0,1,0-2.57Z"/><path class="cls-3" d="M52.1,77.17v25.68h2v-24A5.91,5.91,0,0,1,52.1,77.17Z"/><path class="cls-3" d="M112.48,28.54a7.35,7.35,0,0,1,.49,2.71l57.22,35.8a6.37,6.37,0,0,1,2.4-.72Z"/><path class="cls-3" d="M175.29,107.46a3.57,3.57,0,0,1-.78,2l6.32,0a3.58,3.58,0,0,1-.79-2Z"/><path class="cls-3" d="M178.9,89.84a1,1,0,0,0-.9-.61,1,1,0,0,0-.91.58l-6.18,13.9a3.71,3.71,0,0,1,1-.15,3.54,3.54,0,0,1,1.11.18l4.9-11,4.47,10.92a3.63,3.63,0,0,1,2.15.07Z"/><rect class="cls-3" x="176.57" y="108.46" width="1.96" height="4.57"/><path class="cls-3" d="M182.55,114.61a1.86,1.86,0,0,1,1.86,1.86v2.46l-3.59,5h-6.54l-3.59-5v-2.46a1.87,1.87,0,0,1,1.87-1.86Zm0-1h-10a2.85,2.85,0,0,0-2.85,2.84v2.78l4.07,5.63h7.54l4.08-5.63v-2.78a2.85,2.85,0,0,0-2.85-2.84Z"/><path class="cls-3" d="M172.11,113.71a3.25,3.25,0,0,1,.45-.08h2.14l8.57,8.57-1.13,1.55Z"/><polygon class="cls-3" points="179.86 113.63 185.4 119.17 185.4 119.25 184.31 120.75 177.18 113.63 179.86 113.63"/><path class="cls-3" d="M180.79,124.88h-2.67l-8.41-8.41a2.84,2.84,0,0,1,.76-1.91Z"/><path class="cls-3" d="M178,141.43c3.38,0,6.8-2.26,6.8-7.32,0-3.48-2.05-5.56-3.54-7.08-.84-.85-1.56-1.59-1.56-2.15h-4.37c0,2.35,1.49,3.87,2.81,5.21s2.29,2.41,2.29,4c0,2-.8,2.95-2.43,2.95a2.54,2.54,0,0,1-2.53-2.54h-4.38A6.92,6.92,0,0,0,178,141.43Z"/><path class="cls-3" d="M174.77,107a2.66,2.66,0,1,1-2.66-2.65A2.66,2.66,0,0,1,174.77,107Z"/><path class="cls-3" d="M185.92,107a2.66,2.66,0,1,1-2.65-2.65A2.66,2.66,0,0,1,185.92,107Z"/><path class="cls-3" d="M106.48,25.44a5.77,5.77,0,1,0,5.77,5.77A5.77,5.77,0,0,0,106.48,25.44Zm0,10a4.25,4.25,0,1,1,4.25-4.24A4.24,4.24,0,0,1,106.48,35.45Z"/><path class="cls-3" d="M106.48,28.74A2.47,2.47,0,1,0,109,31.21,2.47,2.47,0,0,0,106.48,28.74Zm0,3.93a1.46,1.46,0,1,1,1.46-1.46A1.47,1.47,0,0,1,106.48,32.67Z"/><path class="cls-3" d="M173.31,67.11a5.77,5.77,0,1,0,5.77,5.77A5.77,5.77,0,0,0,173.31,67.11Zm0,10a4.25,4.25,0,1,1,4.24-4.24A4.24,4.24,0,0,1,173.31,77.12Z"/><path class="cls-3" d="M173.31,70.41a2.47,2.47,0,1,0,2.46,2.47A2.46,2.46,0,0,0,173.31,70.41Zm0,3.93a1.46,1.46,0,1,1,1.46-1.46A1.46,1.46,0,0,1,173.31,74.34Z"/><path class="cls-3" d="M57.33,67.11a5.77,5.77,0,1,0,5.77,5.77A5.77,5.77,0,0,0,57.33,67.11Zm0,10a4.25,4.25,0,1,1,4.25-4.24A4.24,4.24,0,0,1,57.33,77.12Z"/><path class="cls-3" d="M57.33,70.41a2.47,2.47,0,1,0,2.47,2.47A2.47,2.47,0,0,0,57.33,70.41Zm0,3.93a1.46,1.46,0,1,1,1.46-1.46A1.46,1.46,0,0,1,57.33,74.34Z"/><polygon class="cls-3" points="46.63 111.45 52.44 101.81 53.72 102.71 46.63 111.45"/><polygon class="cls-3" points="59.54 111.45 52.44 102.71 53.72 101.81 59.54 111.45"/><rect class="cls-3" x="44.18" y="122.41" width="17.8" height="4.3"/><rect class="cls-3" x="44.18" y="127.94" width="17.8" height="4.3"/><rect class="cls-3" x="44.18" y="116.93" width="17.8" height="4.3"/><rect class="cls-3" x="44.18" y="111.45" width="17.8" height="4.3"/><path class="cls-3" d="M195.05,140.9a3.28,3.28,0,1,0,3.27,3.27A3.27,3.27,0,0,0,195.05,140.9Zm-1.32,3.27A1.22,1.22,0,1,1,195,143,1.21,1.21,0,0,1,193.73,144.17Z"/><rect class="cls-3" x="193.44" y="148.83" width="3.2" height="11.62"/><path class="cls-3" d="M189.38,151.82a10.1,10.1,0,0,1-1-.85l2.86-3a6.57,6.57,0,0,0,.57.48Zm11.17,0-2.44-3.33a4.46,4.46,0,0,0,.57-.49l2.88,3A9.09,9.09,0,0,1,200.55,151.78Zm-14.82-5.33a9.31,9.31,0,0,1-.24-1.3l4.11-.46a6,6,0,0,0,.13.74Zm18.44-.06-4-1a6,6,0,0,0,.13-.74l4.12.31v.16A9.87,9.87,0,0,1,204.17,146.39Zm-14.07-4.61L186.37,140a8.16,8.16,0,0,1,.66-1.15l3.43,2.29A4.52,4.52,0,0,0,190.1,141.78Zm9.65-.08a4.61,4.61,0,0,0-.38-.65l3.4-2.35a8.72,8.72,0,0,1,.67,1.14Zm-7-2.49L191,135.45a8.8,8.8,0,0,1,1.24-.47l1.17,4A4.54,4.54,0,0,0,192.72,139.21Zm4.36,0a5.27,5.27,0,0,0-.7-.25l1.1-4a7.72,7.72,0,0,1,1.25.44Z"/><path class="cls-3" d="M31,140.9a3.28,3.28,0,1,0,3.27,3.27A3.27,3.27,0,0,0,31,140.9Zm-1.32,3.27A1.22,1.22,0,1,1,30.89,143,1.22,1.22,0,0,1,29.66,144.17Z"/><rect class="cls-3" x="29.38" y="148.83" width="3.21" height="11.62"/><path class="cls-3" d="M25.32,151.82a9.19,9.19,0,0,1-1-.85l2.86-3a6.71,6.71,0,0,0,.58.48Zm11.16,0L34,148.45a4.55,4.55,0,0,0,.58-.49l2.87,3A8.26,8.26,0,0,1,36.48,151.78Zm-14.82-5.33a9.31,9.31,0,0,1-.24-1.3l4.11-.46a4.6,4.6,0,0,0,.14.74Zm18.45-.06-4-1a4.58,4.58,0,0,0,.13-.74l4.12.31v.16A9.8,9.8,0,0,1,40.11,146.39ZM26,141.78,22.3,140a8.16,8.16,0,0,1,.66-1.15l3.44,2.29A4.56,4.56,0,0,0,26,141.78Zm9.65-.08a4.61,4.61,0,0,0-.38-.65l3.4-2.35a10.08,10.08,0,0,1,.68,1.14Zm-7-2.49-1.71-3.76a9.29,9.29,0,0,1,1.24-.47l1.17,4A4.54,4.54,0,0,0,28.65,139.21Zm4.36,0a5.27,5.27,0,0,0-.7-.25l1.1-4a7.72,7.72,0,0,1,1.25.44Z"/><rect class="cls-4" x="111.5" y="165.68" width="5.65" height="31.51" transform="translate(295.76 67.12) rotate(90)"/><rect class="cls-5" x="113.46" y="167.65" width="1.72" height="31.51" transform="translate(297.72 69.08) rotate(90)"/><rect class="cls-6" x="113.46" y="163.72" width="1.72" height="31.51" transform="translate(293.8 65.15) rotate(90)"/><polygon class="cls-7" points="92.85 182.24 92.85 180.64 98.57 178.61 98.57 184.26 92.85 182.24"/><polygon class="cls-8" points="92.85 180.64 90.32 181.44 92.85 182.24 92.85 180.64"/><rect class="cls-9" x="128.58" y="179.91" width="6.05" height="3.06" transform="translate(313.05 49.83) rotate(90)"/><rect class="cls-10" x="130.08" y="183.17" width="3.06" height="1.3"/><rect class="cls-11" x="130.08" y="179.86" width="3.06" height="1.3"/><path class="cls-12" d="M136.45,183.09V181l-1.39-2.34h-1.92v5.65h2.14A1.17,1.17,0,0,0,136.45,183.09Z"/><polygon class="cls-13" points="136.45 180.95 135.7 179.68 133.14 179.68 133.14 181.34 136.45 181.34 136.45 180.95"/><path class="cls-14" d="M136.45,183.09v-.91a1.52,1.52,0,0,1-1.32.84H134a1.41,1.41,0,0,1-.86-.29v1.53h2.14A1.17,1.17,0,0,0,136.45,183.09Z"/><polygon class="cls-15" points="98.57 179.47 92.85 181.06 98.57 181.06 98.57 179.47"/><polygon class="cls-16" points="98.57 182.24 92.85 181.67 92.85 182.24 98.57 184.26 98.57 182.24"/><rect class="cls-17" x="71.2" y="89.96" width="82.61" height="82.61"/><path class="cls-18" d="M147.05,112.08q3.36-2.53,6.75-5.06V90H71.2v82.61h3.48Q109.41,140.65,147.05,112.08Z"/><path class="cls-19" d="M98.26,92.82H74.05v76.9H151V92.82ZM75.19,94H97.13v5.93H75.19Zm0,54.09h17v6.08h-17Zm74.62,13.31H93.36V148.05h56.45Zm-10.57,1.14v6.08h-8.52V162.5Zm-64.05-7.23h17v6.09h-17Zm0,7.23h54.39v6.08H75.19Zm74.62,6.08h-9.43V162.5h9.43ZM75.19,146.91V101H98.26V94h51.55v53Z"/><path class="cls-19" d="M115.76,143.48h-6.52l-1.45-5.54a17.85,17.85,0,0,1-4.33-1.8L98.51,139l-4.61-4.61,2.89-5A18.23,18.23,0,0,1,95,125.15l-5.55-1.45v-6.53L95,115.72a18.4,18.4,0,0,1,1.79-4.33l-2.89-4.94,4.61-4.62,4.95,2.9a17.44,17.44,0,0,1,4.33-1.79l1.45-5.55h6.52l1.45,5.55a17.44,17.44,0,0,1,4.33,1.79l4.95-2.9,4.61,4.62-2.89,4.94a18.4,18.4,0,0,1,1.79,4.33l5.55,1.45v6.53L130,125.15a18.23,18.23,0,0,1-1.79,4.33l2.89,5L126.49,139l-4.95-2.9a17.85,17.85,0,0,1-4.33,1.8Zm-5.64-1.14h4.76l1.4-5.34.33-.08a17.14,17.14,0,0,0,4.64-1.93l.29-.17,4.77,2.79,3.37-3.37-2.8-4.77.18-.29a16.85,16.85,0,0,0,1.92-4.64l.08-.32,5.35-1.4v-4.77l-5.35-1.4-.08-.32a16.85,16.85,0,0,0-1.92-4.64l-.18-.29,2.8-4.77-3.37-3.37-4.77,2.79-.29-.17a16.8,16.8,0,0,0-4.64-1.92l-.33-.08-1.4-5.35h-4.76l-1.4,5.35-.33.08a16.8,16.8,0,0,0-4.64,1.92l-.29.17-4.77-2.79-3.37,3.37,2.8,4.77-.18.29A16.85,16.85,0,0,0,96,116.33l-.08.32-5.35,1.4v4.77l5.35,1.4.08.32a16.85,16.85,0,0,0,1.92,4.64l.18.29-2.8,4.77,3.37,3.37,4.77-2.79.29.17a17.14,17.14,0,0,0,4.64,1.93l.33.08Z"/><path class="cls-19" d="M112.5,134.59a14.15,14.15,0,1,1,14.15-14.15A14.17,14.17,0,0,1,112.5,134.59Zm0-27.17a13,13,0,1,0,13,13A13,13,0,0,0,112.5,107.42Z"/><path class="cls-19" d="M112.5,128.65a8.22,8.22,0,1,1,8.22-8.21A8.22,8.22,0,0,1,112.5,128.65Zm0-15.29a7.08,7.08,0,1,0,7.08,7.08A7.09,7.09,0,0,0,112.5,113.36Z"/><rect class="cls-19" x="82.45" y="120.15" width="3.42" height="0.57"/><rect class="cls-19" x="86.96" y="120.15" width="1.09" height="0.57"/><path class="cls-19" d="M137.29,120.72H136.2v-.57h1.09Zm-2.18,0h-6.57v-.57h6.57Zm-7.66,0h-1.1v-.57h1.1Zm-2.19,0h-6.57v-.57h6.57Zm-7.66,0h-1.1v-.57h1.1Zm-2.19,0h-6.57v-.57h6.57Zm-7.66,0h-1.09v-.57h1.09Zm-2.19,0H99v-.57h6.56Zm-7.66,0H96.81v-.57H97.9Zm-2.19,0H89.15v-.57h6.56Z"/><rect class="cls-19" x="138.39" y="120.15" width="3.42" height="0.57"/><rect class="cls-19" x="111.84" y="95.75" width="0.57" height="3.42"/><rect class="cls-19" x="111.84" y="100.27" width="0.57" height="1.1"/><path class="cls-19" d="M112.41,140.89h-.57v-1.1h.57Zm0-2.2h-.57V132.1h.57Zm0-7.68h-.57v-1.1h.57Zm0-2.2h-.57v-6.59h.57Zm0-7.68h-.57V120h.57Zm0-2.2h-.57v-6.59h.57Zm0-7.68h-.57v-1.1h.57Zm0-2.2h-.57v-6.59h.57Z"/><rect class="cls-19" x="111.84" y="141.98" width="0.57" height="3.42"/><polygon class="cls-19" points="137.53 104.2 133.6 98.27 134.55 97.64 137.29 101.78 140 95.18 148.52 95.18 148.52 96.32 140.76 96.32 137.53 104.2"/><rect class="cls-8" x="148.46" y="160.91" width="7.79" height="3.69"/><rect class="cls-8" x="148.46" y="123.16" width="7.79" height="3.69"/><rect class="cls-20" x="153.87" y="123.16" width="2.38" height="3.69"/><rect class="cls-21" x="149.58" y="123.16" width="2.38" height="3.69"/><rect class="cls-20" x="153.87" y="160.91" width="2.38" height="3.69"/><rect class="cls-21" x="149.58" y="160.91" width="2.38" height="3.69"/><path class="cls-6" d="M150.75,121.47H154a.71.71,0,0,1,.71.71v1a0,0,0,0,1,0,0H150a0,0,0,0,1,0,0v-1A.71.71,0,0,1,150.75,121.47Z"/><path class="cls-4" d="M154,121.47a.62.62,0,0,1-.52.92h-2.79a.57.57,0,0,1-.57-.4.65.65,0,0,0,0,.19v1h4.63v-1A.71.71,0,0,0,154,121.47Z"/><rect class="cls-22" x="148.97" y="164.6" width="6.78" height="0.79"/><path class="cls-10" d="M150.85,165.39v3.94a1.51,1.51,0,0,0,3,0v-3.94Z"/><path class="cls-19" d="M150.85,165.39v1.23a1,1,0,0,1,1.83.36v2.69a.93.93,0,0,1-1.19.89,1.52,1.52,0,0,0,.87.27,1.5,1.5,0,0,0,1.5-1.5v-3.94Z"/><path class="cls-23" d="M170.47,143.78a18.12,18.12,0,1,1-18.11-18.12A18.11,18.11,0,0,1,170.47,143.78Z"/><path class="cls-24" d="M167.11,143.78A14.76,14.76,0,1,1,152.36,129,14.75,14.75,0,0,1,167.11,143.78Z"/><path class="cls-25" d="M160.36,137.94c-.37-.42-5.13,3.18-7.3,4.89l-.21,0a1.84,1.84,0,1,0,1.83,1.83h0C156.63,142.67,160.74,138.36,160.36,137.94Z"/><path class="cls-20" d="M159.87,137.08c.47.53-6.11,7.16-6.63,7.63a1.28,1.28,0,1,1-1.71-1.91C152.06,142.33,159.4,136.55,159.87,137.08Z"/><path class="cls-8" d="M154.19,143.78a1.84,1.84,0,1,1-1.83-1.84A1.83,1.83,0,0,1,154.19,143.78Z"/><circle class="cls-6" cx="152.36" cy="143.78" r="0.93"/><path class="cls-25" d="M140.34,147.12A14.74,14.74,0,0,1,165,136.21a14.74,14.74,0,1,0-22.55,18.48A14.67,14.67,0,0,1,140.34,147.12Z"/><path class="cls-8" d="M151.58,157.49l-.81-.07.34-2.83a6.2,6.2,0,0,0,.62.06Zm2.38-.07-.33-2.83.63-.09.49,2.8Zm-5.52-.48-.76-.25,1-2.67a5.8,5.8,0,0,0,.59.19Zm8.63-.26-1-2.67.59-.23,1.13,2.6C157.56,156.49,157.32,156.59,157.07,156.68Zm-11.56-1c-.23-.13-.46-.27-.68-.42l1.55-2.38.54.34Zm14.4-.43-1.57-2.37.52-.37,1.7,2.28C160.35,155,160.13,155.1,159.91,155.25Zm-17-1.47-.57-.57,2.07-2a4.78,4.78,0,0,0,.45.45Zm19.39-.58-2.06-2c.14-.15.28-.3.42-.47l2.18,1.83C162.7,152.8,162.53,153,162.34,153.2Zm-21.44-1.86c-.15-.22-.29-.44-.42-.67l2.45-1.43c.11.18.22.36.34.54Zm23.35-.7-2.46-1.42.3-.56,2.54,1.28C164.51,150.18,164.38,150.41,164.25,150.64Zm-24.79-2.14c-.09-.25-.17-.5-.25-.76l2.72-.82c.06.21.13.41.2.6Zm26-.78-2.72-.82c.06-.2.11-.4.16-.61l2.77.65Q165.63,147.33,165.51,147.72Zm-26.79-2.32c0-.26-.05-.53-.07-.79l2.84-.17c0,.21,0,.42,0,.63Zm27.34-.82-2.84-.17c0-.21,0-.42,0-.63l2.84-.05v.11C166.08,144.05,166.08,144.31,166.06,144.58Zm-24.52-2-2.83-.32c0-.27.07-.53.12-.79l2.8.48Q141.57,142.23,141.54,142.54Zm21.53-.7c0-.21-.08-.41-.13-.62l2.76-.66c.07.26.12.52.17.78Zm-21-1.76-2.67-1c.09-.26.19-.5.29-.75l2.62,1.12A6.07,6.07,0,0,0,142.11,140.08Zm20.23-.65c-.09-.19-.18-.39-.27-.57l2.53-1.29c.12.23.23.47.34.72Zm-19.1-1.61-2.37-1.56c.14-.22.29-.44.45-.65l2.29,1.68Zm17.83-.57c-.13-.17-.26-.34-.4-.5l2.17-1.83c.17.2.34.41.5.62Zm-16.2-1.37-2-2.06c.19-.19.39-.36.59-.54l1.83,2.18A6,6,0,0,0,144.87,135.88Zm14.45-.47-.49-.39,1.68-2.28c.22.16.43.32.63.49Zm-12.43-1-1.44-2.45.7-.38,1.29,2.53Zm10.32-.33-.58-.27,1.12-2.61c.25.11.49.22.72.34Zm-8-.67-.82-2.72c.25-.08.51-.15.77-.21l.66,2.76Zm5.63-.19-.62-.12.48-2.8c.26,0,.53.1.79.16Zm-3.14-.26-.18-2.83c.27,0,.53,0,.8,0v2.84Z"/><path class="cls-26" d="M141.79,158.49A35.91,35.91,0,0,1,149.71,146a35.3,35.3,0,0,1,19.17-9.6,18.11,18.11,0,1,0-27.09,22.11Z"/><path class="cls-27" d="M152.35,169.56a.6.6,0,0,1-.6.6.6.6,0,0,1,0-1.2A.6.6,0,0,1,152.35,169.56Z"/><path class="cls-6" d="M85.27,102.34c0,.39-1.11.71-2.49.71s-2.49-.32-2.49-.71,1.11-.71,2.49-.71S85.27,102,85.27,102.34Z"/><rect class="cls-4" x="80.29" y="102.34" width="4.99" height="11.22"/><rect class="cls-5" x="84.2" y="102.34" width="1.07" height="11.22"/><rect class="cls-28" x="81.29" y="102.34" width="1.08" height="11.22"/><polygon class="cls-5" points="83.96 116.76 81.6 116.76 80.29 113.56 85.27 113.56 83.96 116.76"/><rect class="cls-8" x="82.04" y="116.76" width="1.48" height="14.08"/><rect class="cls-20" x="82.87" y="116.76" width="0.65" height="14.08"/><path class="cls-8" d="M82.78,118.47a6.19,6.19,0,1,1-6.19,6.18,6.18,6.18,0,0,1,6.19-6.18Zm0-.85a7,7,0,1,0,7,7,7,7,0,0,0-7-7Z"/><path class="cls-29" d="M78.5,129.1a6.17,6.17,0,1,1,8.94-8.48l.64-.57a7,7,0,1,0-10.17,9.67C78.1,129.51,78.3,129.3,78.5,129.1Z"/><path class="cls-11" d="M84.5,131.69A1.72,1.72,0,1,1,82.78,130,1.73,1.73,0,0,1,84.5,131.69Z"/><rect class="cls-8" x="67.37" y="145.13" width="30.85" height="1.49"/><rect class="cls-20" x="67.37" y="145.96" width="30.85" height="0.66"/><path class="cls-8" d="M84.3,132.88l-.79.37L87,140.67l.67-.31L97.3,161l-.67.32,4.21,9,.79-.37,1.44-4L88.29,134.33Z"/><path class="cls-29" d="M87.16,137.15c3.44,5.48,6,11.83,8.81,17.66,2.23,4.58,5.2,9.19,6,14.27.39-1.06.68-1.88,1.13-3.12L88.29,134.33l-4-1.45-.79.37.42.91A8,8,0,0,1,87.16,137.15Z"/><polygon class="cls-30" points="100.84 170.32 103.33 175.65 101.63 169.95 100.84 170.32"/><path class="cls-4" d="M102.44,163.37a2.46,2.46,0,1,1-3.27-1.19A2.45,2.45,0,0,1,102.44,163.37Z"/><path class="cls-6" d="M98.4,166.05a7.05,7.05,0,0,1,4.06-2.62s0,0,0-.06A2.46,2.46,0,1,0,98,165.45,2.13,2.13,0,0,0,98.4,166.05Z"/><path class="cls-19" d="M100.82,164.13a.67.67,0,1,1-.89-.32A.67.67,0,0,1,100.82,164.13Z"/><path class="cls-19" d="M92.54,145.56a.74.74,0,0,1-1.35.63.74.74,0,1,1,1.35-.63Z"/><polygon class="cls-8" points="69.72 157.92 77.92 140.36 78.59 140.67 82.05 133.25 81.26 132.88 77.28 134.33 66.88 156.6 69.72 157.92"/><path class="cls-29" d="M82,133.48l.1-.23-.79-.37-4,1.45L66.88,156.6l1.87.87c.64-1.61,5-12.21,8.55-18.63C79.49,134.86,81.29,133.8,82,133.48Z"/><polygon class="cls-8" points="65.44 159.69 62.5 165.97 63.95 169.96 64.74 170.33 68.94 161.32 65.44 159.69"/><path class="cls-29" d="M66,162.67c.06-.15.12-.29.19-.44.25-.57.5-1.15.76-1.73l0-.08-1.57-.73L62.5,166l1.27,3.48A39.05,39.05,0,0,1,66,162.67Z"/><polygon class="cls-30" points="64.74 170.33 62.25 175.66 63.95 169.96 64.74 170.33"/><path class="cls-4" d="M63.13,163.38a2.46,2.46,0,1,0,3.27-1.19A2.47,2.47,0,0,0,63.13,163.38Z"/><path class="cls-6" d="M64.13,165.33a8.2,8.2,0,0,1,3.42-2,2.45,2.45,0,1,0-4,2.69A6.77,6.77,0,0,1,64.13,165.33Z"/><path class="cls-19" d="M64.76,164.14a.66.66,0,1,0,1.2.56.65.65,0,0,0-.32-.88A.66.66,0,0,0,64.76,164.14Z"/><path class="cls-19" d="M73,145.56a.76.76,0,0,0,.36,1,.75.75,0,1,0-.36-1Z"/><rect class="cls-8" x="66.54" y="157.1" width="2.07" height="3.42" transform="translate(73.53 -13.68) rotate(25.03)"/><rect class="cls-31" x="66.88" y="156.91" width="0.55" height="3.42" transform="translate(73.53 -13.51) rotate(25.07)"/><rect class="cls-20" x="67.93" y="157.41" width="0.61" height="3.42" transform="translate(73.89 -13.92) rotate(25.08)"/><rect class="cls-32" x="68.99" y="152.82" width="0.66" height="4.67" transform="translate(72.14 -14.76) rotate(25.02)"/><rect class="cls-4" x="66.51" y="151.62" width="0.92" height="4.88" transform="translate(71.44 -13.87) rotate(25.02)"/><rect class="cls-6" x="66.84" y="152.67" width="0.92" height="1.41" transform="translate(71.34 -14.07) rotate(25.07)"/><rect class="cls-5" x="65.74" y="155.11" width="0.92" height="1.22" transform="translate(72.07 -13.39) rotate(25.02)"/><rect class="cls-32" x="67.36" y="153.71" width="0.52" height="1.35" transform="translate(71.69 -14.11) rotate(25.04)"/><rect class="cls-4" x="82.04" y="138.84" width="1.48" height="14.08"/><rect class="cls-6" x="82.04" y="141.58" width="1.48" height="3.13"/><rect class="cls-5" x="82.04" y="148.4" width="1.48" height="4.52"/><polygon class="cls-4" points="65.91 147.42 67.37 146.96 67.37 144.81 65.91 144.34 65.91 147.42"/><polygon class="cls-4" points="99.65 147.42 98.19 146.96 98.19 144.81 99.65 144.34 99.65 147.42"/><path class="cls-28" d="M80.29,102.34a2.47,2.47,0,0,1,.61-.29,4.55,4.55,0,0,1,1.35-.21,4.5,4.5,0,0,1,1.35.21,2.68,2.68,0,0,1,.62.29,2.68,2.68,0,0,1-.62.29,4.5,4.5,0,0,1-1.35.21,4.55,4.55,0,0,1-1.35-.21A2.47,2.47,0,0,1,80.29,102.34Z"/><polygon class="cls-4" points="81.28 113.56 82.25 116.76 82.37 113.56 81.28 113.56"/><polygon class="cls-33" points="84.2 113.56 83.2 116.76 83.96 116.76 85.27 113.56 84.2 113.56"/><path class="cls-30" d="M83.33,131.55a.71.71,0,1,1-.71-.71A.71.71,0,0,1,83.33,131.55Z"/><polygon class="cls-6" points="65.91 144.83 67.37 145.13 67.37 145.71 65.91 145.88 65.91 144.83"/><polygon class="cls-5" points="65.91 146.46 67.37 146.15 67.37 146.96 65.91 147.42 65.91 146.46"/><polygon class="cls-6" points="99.65 144.83 98.19 145.13 98.19 145.71 99.65 145.88 99.65 144.83"/><polygon class="cls-5" points="99.65 146.46 98.19 146.15 98.19 146.96 99.65 147.42 99.65 146.46"/><path class="cls-11" d="M74,145.78a.3.3,0,0,1-.31.29.29.29,0,1,1,0-.58A.3.3,0,0,1,74,145.78Z"/><ellipse class="cls-11" cx="91.87" cy="145.78" rx="0.31" ry="0.29"/><path class="cls-11" d="M65.6,164.31a.29.29,0,1,1-.29-.28A.28.28,0,0,1,65.6,164.31Z"/><path class="cls-11" d="M100.28,164.31a.29.29,0,0,1-.57,0,.29.29,0,0,1,.57,0Z"/><path class="cls-23" d="M114.53,170.77h-2.2v5.55H143v-5.55h-2.2a13.13,13.13,0,0,0-26.25,0Zm13.12.74a.74.74,0,1,1,.74-.74A.74.74,0,0,1,127.65,171.51Zm7.93-.74h-6.45a1.48,1.48,0,1,0-2.95,0h-6.45a7.93,7.93,0,0,1,15.85,0Z"/><path class="cls-34" d="M142.14,175.48h-29v-3.87h2.2v-.84a12.29,12.29,0,1,1,24.57,0v.84h2.2Zm-5.73-3.87v-.84a8.76,8.76,0,1,0-17.51,0v.84h7.42a1.59,1.59,0,0,0,2.67,0Z"/><path class="cls-20" d="M140.37,169.82l-2.08.15c0-.12,0-.25,0-.38l2.08-.22C140.34,169.51,140.36,169.67,140.37,169.82Zm-.37-2.24-2,.52-.1-.37,2-.59Zm-.76-2.14-1.9.87c-.05-.11-.1-.23-.16-.34L139,165C139.11,165.16,139.17,165.3,139.24,165.44Zm-1.13-2-1.71,1.2a3.55,3.55,0,0,0-.23-.31l1.67-1.26Zm-1.46-1.74-1.47,1.48-.28-.26,1.42-1.53Zm-1.74-1.45-1.2,1.72a2.11,2.11,0,0,0-.31-.21l1.12-1.76Zm-2-1.12-.87,1.9-.35-.15.8-1.93Zm-2.15-.75-.5,2-.38-.09.44-2Zm-2.24-.36-.15,2.08-.37,0,.06-2.08Zm-2,2.12-.37.05-.3-2.07.45-.06Zm-1.85.37c-.13,0-.25.07-.37.12l-.66-2,.43-.13Zm-1.77.7-.33.17-1-1.83.4-.21Zm-1.61,1-.3.23-1.31-1.62c.11-.1.23-.19.35-.28Zm-1.41,1.27-.26.28L118,162.43c.1-.12.2-.23.31-.34Zm-1.17,1.5c-.07.11-.14.21-.2.32l-1.8-1.06.24-.39Zm-.88,1.68c0,.12-.1.24-.14.36l-2-.73c.06-.14.11-.29.17-.43Zm-.57,1.82c0,.12,0,.24-.07.37l-2.06-.37.09-.45Zm-.23,1.88c0,.13,0,.25,0,.38H114.9c0-.15,0-.3,0-.45Z"/><path class="cls-20" d="M141.1,173.74v2.09h-.42v-2.09Zm-2.09,0v2.09h-.41v-2.09Zm-2.08,0v2.09h-.42v-2.09Zm-2.09,0v2.09h-.42v-2.09Zm-2.09,0v2.09h-.42v-2.09Zm-2.09,0v2.09h-.41v-2.09Zm-2.09,0v2.09h-.41v-2.09Zm-2.08,0v2.09h-.42v-2.09Zm-2.09,0v2.09H124v-2.09Zm-2.09,0v2.09h-.42v-2.09Zm-2.09,0v2.09h-.42v-2.09Zm-2.09,0v2.09h-.41v-2.09Zm-2.08,0v2.09h-.42v-2.09Zm-2.09,0v2.09h-.42v-2.09Z"/><path class="cls-35" d="M129.22,170.82l0,0h-.05a.28.28,0,0,0,0-.09l-.84-1.24a1.46,1.46,0,0,0-2.1,1.33h-6.45a7.92,7.92,0,0,1,4.72-7.24c-.76-1.23-1.51-2.46-2.23-3.71l-.46-.77a13.11,13.11,0,0,0-7.23,11.72h-2.2v5.55h20.81C131.8,174.51,130.5,172.67,129.22,170.82Zm-2.3,0a.74.74,0,1,1,.73.74A.74.74,0,0,1,126.92,170.77Z"/><text class="cls-36" transform="translate(83.25 207.94)">INGENIERÍA</text></g></g></g></svg>