<svg xmlns="http://www.w3.org/2000/svg" xmlns:xlink="http://www.w3.org/1999/xlink" viewBox="0 0 187.89 187.67"><defs><style>.cls-1{isolation:isolate;}.cls-2{fill:url(#linear-gradient);}.cls-10,.cls-14,.cls-23,.cls-3,.cls-33,.cls-44,.cls-46,.cls-47,.cls-53,.cls-56,.cls-7{mix-blend-mode:multiply;}.cls-3{fill:url(#linear-gradient-2);}.cls-4{fill:url(#linear-gradient-3);}.cls-5{fill:url(#linear-gradient-4);}.cls-6{fill:url(#linear-gradient-5);}.cls-7{fill:url(#linear-gradient-6);}.cls-8{fill:url(#linear-gradient-7);}.cls-9{fill:url(#linear-gradient-8);}.cls-10{fill:url(#linear-gradient-9);}.cls-11{fill:url(#linear-gradient-10);}.cls-12{fill:url(#linear-gradient-11);}.cls-13{fill:url(#linear-gradient-12);}.cls-14{fill:url(#linear-gradient-13);}.cls-15{fill:url(#linear-gradient-14);}.cls-16{fill:#1b0043;}.cls-17{fill:url(#linear-gradient-15);}.cls-18{fill:url(#linear-gradient-16);}.cls-19{fill:url(#linear-gradient-17);}.cls-20{fill:url(#linear-gradient-18);}.cls-21{fill:url(#linear-gradient-19);}.cls-22{fill:url(#linear-gradient-20);}.cls-23{fill:#a8a6a9;opacity:0.32;}.cls-24{fill:url(#linear-gradient-21);}.cls-25{fill:url(#linear-gradient-22);}.cls-26{fill:url(#linear-gradient-23);}.cls-27{fill:#37323e;}.cls-28{fill:url(#linear-gradient-24);}.cls-29{fill:url(#linear-gradient-25);}.cls-30{fill:url(#linear-gradient-26);}.cls-31{fill:url(#linear-gradient-27);}.cls-32{fill:url(#linear-gradient-28);}.cls-33{fill:url(#linear-gradient-29);}.cls-34{fill:url(#linear-gradient-30);}.cls-35{fill:url(#linear-gradient-31);}.cls-36{fill:url(#linear-gradient-32);}.cls-37{fill:url(#linear-gradient-33);}.cls-38{fill:url(#linear-gradient-34);}.cls-39{fill:url(#linear-gradient-35);}.cls-40{fill:url(#linear-gradient-36);}.cls-41{fill:#fdb294;}.cls-42{fill:#d76f54;}.cls-43{fill:url(#linear-gradient-37);}.cls-44,.cls-46,.cls-47,.cls-53,.cls-60{opacity:0.55;}.cls-44{fill:url(#linear-gradient-38);}.cls-45{fill:url(#linear-gradient-39);}.cls-46{fill:url(#linear-gradient-40);}.cls-47{fill:url(#linear-gradient-41);}.cls-48{fill:#100142;}.cls-49{fill:#e37c58;}.cls-50{fill:url(#linear-gradient-42);}.cls-51{fill:#aa96b4;}.cls-52{fill:url(#linear-gradient-43);}.cls-53{fill:url(#linear-gradient-44);}.cls-54{fill:url(#radial-gradient);}.cls-55{fill:#efb921;}.cls-56{fill:#fec94e;opacity:0.5;}.cls-57{fill:url(#linear-gradient-45);}.cls-58{fill:#f4b900;}.cls-59,.cls-60{fill:#f9d433;}.cls-60{mix-blend-mode:screen;}.cls-61{fill:#ca5645;}.cls-62{fill:#fff;}.cls-63{fill:#c4b6cb;}</style><linearGradient id="linear-gradient" x1="170.94" y1="184.95" x2="207.86" y2="184.95" gradientTransform="translate(-18.16 -63.83) rotate(10.28)" gradientUnits="userSpaceOnUse"><stop offset="0" stop-color="#f0f2fa"/><stop offset="1" stop-color="#d6dcf0"/></linearGradient><linearGradient id="linear-gradient-2" x1="195.39" y1="176.08" x2="179.9" y2="199" xlink:href="#linear-gradient"/><linearGradient id="linear-gradient-3" x1="200.68" y1="169.34" x2="175.22" y2="196.18" xlink:href="#linear-gradient"/><linearGradient id="linear-gradient-4" x1="177.64" y1="192.65" x2="224.56" y2="161.94" xlink:href="#linear-gradient"/><linearGradient id="linear-gradient-5" x1="176.31" y1="184.95" x2="202.48" y2="184.95" gradientTransform="translate(-18.16 -63.83) rotate(10.28)" gradientUnits="userSpaceOnUse"><stop offset="0.59" stop-color="#d6dcf0"/><stop offset="0.97" stop-color="#d6dcf0"/></linearGradient><linearGradient id="linear-gradient-6" x1="180.66" y1="167.3" x2="204.1" y2="175.22" gradientUnits="userSpaceOnUse"><stop offset="0.44" stop-color="#b1bce2"/><stop offset="0.7" stop-color="#d6dcf0"/></linearGradient><linearGradient id="linear-gradient-7" x1="141.03" y1="147.27" x2="61.65" y2="211.12" gradientTransform="matrix(1, 0, 0, 1, 0, 0)" xlink:href="#linear-gradient"/><linearGradient id="linear-gradient-8" x1="89.87" y1="32.06" x2="112.69" y2="32.06" gradientTransform="matrix(0.96, -0.28, 0.28, 0.96, 53.28, 112.4)" xlink:href="#linear-gradient"/><linearGradient id="linear-gradient-9" x1="104.98" y1="26.57" x2="95.41" y2="40.74" gradientTransform="matrix(0.96, -0.28, 0.28, 0.96, 53.28, 112.4)" xlink:href="#linear-gradient"/><linearGradient id="linear-gradient-10" x1="108.25" y1="22.41" x2="92.51" y2="39" gradientTransform="matrix(0.96, -0.28, 0.28, 0.96, 53.28, 112.4)" xlink:href="#linear-gradient"/><linearGradient id="linear-gradient-11" x1="94.01" y1="36.81" x2="123.01" y2="17.83" gradientTransform="matrix(0.96, -0.28, 0.28, 0.96, 53.28, 112.4)" xlink:href="#linear-gradient"/><linearGradient id="linear-gradient-12" x1="93.19" y1="32.06" x2="109.36" y2="32.06" gradientTransform="matrix(0.96, -0.28, 0.28, 0.96, 53.28, 112.4)" xlink:href="#linear-gradient"/><linearGradient id="linear-gradient-13" x1="110.32" y1="31.78" x2="81.17" y2="32.68" gradientTransform="matrix(0.96, -0.28, 0.28, 0.96, 53.28, 112.4)" gradientUnits="userSpaceOnUse"><stop offset="0.3" stop-color="#d6dcf0"/><stop offset="0.56" stop-color="#b1bce2"/></linearGradient><linearGradient id="linear-gradient-14" x1="106.73" y1="25.52" x2="95.69" y2="38.75" gradientTransform="matrix(0.96, -0.28, 0.28, 0.96, 53.28, 112.4)" xlink:href="#linear-gradient"/><linearGradient id="linear-gradient-15" x1="101.38" y1="77.38" x2="167.24" y2="83.38" gradientTransform="matrix(0.98, -0.21, 0.21, 0.98, -3.07, 19.89)" gradientUnits="userSpaceOnUse"><stop offset="0" stop-color="#efdb38"/><stop offset="0.05" stop-color="#f2de3c"/><stop offset="0.25" stop-color="#f8e646"/><stop offset="0.5" stop-color="#fae849"/><stop offset="0.81" stop-color="#f9e747"/><stop offset="0.92" stop-color="#f4e140"/><stop offset="1" stop-color="#edd935"/></linearGradient><linearGradient id="linear-gradient-16" x1="687.43" y1="-185.62" x2="676.62" y2="-185.62" gradientTransform="matrix(-1, 0, 0, -1, 687.5, -100.45)" xlink:href="#linear-gradient"/><linearGradient id="linear-gradient-17" x1="690.47" y1="-184.02" x2="679.66" y2="-184.02" gradientTransform="translate(686.81 -99.22) rotate(180)" xlink:href="#linear-gradient"/><linearGradient id="linear-gradient-18" x1="678.53" y1="-185.26" x2="575.88" y2="-185.26" gradientTransform="matrix(-0.78, 0.63, -0.63, -0.78, 422.05, -485.13)" xlink:href="#linear-gradient"/><linearGradient id="linear-gradient-19" x1="688.24" y1="-189.17" x2="576.08" y2="-189.17" gradientTransform="translate(672.19 -151.15) rotate(180)" xlink:href="#linear-gradient"/><linearGradient id="linear-gradient-20" x1="688.24" y1="-180.29" x2="576.08" y2="-180.29" gradientTransform="translate(666.64 -149.2) rotate(180)" xlink:href="#linear-gradient"/><linearGradient id="linear-gradient-21" x1="574.24" y1="-168.58" x2="593.81" y2="-168.58" gradientTransform="matrix(-0.78, 0.63, -0.63, -0.78, 422.05, -485.13)" xlink:href="#linear-gradient"/><linearGradient id="linear-gradient-22" x1="-219.04" y1="-169.29" x2="-199.47" y2="-169.29" gradientTransform="matrix(0.78, -0.63, -0.63, -0.78, 139.53, -259.7)" xlink:href="#linear-gradient"/><linearGradient id="linear-gradient-23" x1="-219.04" y1="-177.88" x2="-199.47" y2="-177.88" gradientTransform="matrix(0.78, -0.63, -0.63, -0.78, 139.53, -259.7)" xlink:href="#linear-gradient"/><linearGradient id="linear-gradient-24" x1="598.99" y1="-195.59" x2="602.33" y2="-195.59" gradientTransform="matrix(-1, 0, 0, -1, 676.2, -152.57)" gradientUnits="userSpaceOnUse"><stop offset="0.1" stop-color="#3b3648"/><stop offset="0.9" stop-color="#3b3648"/></linearGradient><linearGradient id="linear-gradient-25" x1="759.62" y1="2016.3" x2="722.67" y2="2016.3" gradientTransform="matrix(-0.72, 0, 0, 0.31, 599.99, -604.28)" xlink:href="#linear-gradient"/><linearGradient id="linear-gradient-26" x1="677.47" y1="-187.93" x2="679.32" y2="-187.93" gradientTransform="matrix(-0.78, 0.63, -0.63, -0.78, 422.05, -485.13)" xlink:href="#linear-gradient-24"/><linearGradient id="linear-gradient-27" x1="677.47" y1="-181.42" x2="679.32" y2="-181.42" gradientTransform="matrix(-0.78, 0.63, -0.63, -0.78, 422.05, -485.13)" xlink:href="#linear-gradient-24"/><linearGradient id="linear-gradient-28" x1="572.29" y1="-195" x2="600.81" y2="-195" gradientTransform="matrix(-0.78, 0.63, -0.63, -0.78, 422.05, -485.13)" xlink:href="#linear-gradient"/><linearGradient id="linear-gradient-29" x1="594.09" y1="-196.07" x2="594.09" y2="-186.12" gradientTransform="matrix(-0.78, 0.63, -0.63, -0.78, 422.05, -485.13)" xlink:href="#linear-gradient"/><linearGradient id="linear-gradient-30" x1="474.01" y1="-190.91" x2="692.36" y2="-190.91" gradientTransform="matrix(-0.78, 0.63, -0.63, -0.78, 422.05, -485.13)" xlink:href="#linear-gradient"/><linearGradient id="linear-gradient-31" x1="588.89" y1="-190.74" x2="590.6" y2="-190.74" gradientTransform="matrix(-0.78, 0.63, -0.63, -0.78, 422.05, -485.13)" xlink:href="#linear-gradient-24"/><linearGradient id="linear-gradient-32" x1="599.8" y1="-190.74" x2="601.51" y2="-190.74" gradientTransform="matrix(-0.78, 0.63, -0.63, -0.78, 422.05, -485.13)" xlink:href="#linear-gradient-24"/><linearGradient id="linear-gradient-33" x1="610.71" y1="-190.74" x2="612.42" y2="-190.74" gradientTransform="matrix(-0.78, 0.63, -0.63, -0.78, 422.05, -485.13)" xlink:href="#linear-gradient-24"/><linearGradient id="linear-gradient-34" x1="588.89" y1="-178.37" x2="590.6" y2="-178.37" gradientTransform="matrix(-0.78, 0.63, -0.63, -0.78, 422.05, -485.13)" xlink:href="#linear-gradient-24"/><linearGradient id="linear-gradient-35" x1="599.8" y1="-178.37" x2="601.51" y2="-178.37" gradientTransform="matrix(-0.78, 0.63, -0.63, -0.78, 422.05, -485.13)" xlink:href="#linear-gradient-24"/><linearGradient id="linear-gradient-36" x1="610.71" y1="-178.37" x2="612.42" y2="-178.37" gradientTransform="matrix(-0.78, 0.63, -0.63, -0.78, 422.05, -485.13)" xlink:href="#linear-gradient-24"/><linearGradient id="linear-gradient-37" x1="48.59" y1="120.7" x2="32.85" y2="162.68" gradientTransform="translate(0.57)" gradientUnits="userSpaceOnUse"><stop offset="0" stop-color="#8d468b"/><stop offset="1" stop-color="#ec5e5c"/></linearGradient><linearGradient id="linear-gradient-38" x1="48.59" y1="120.7" x2="32.85" y2="162.68" gradientTransform="translate(0.57)" gradientUnits="userSpaceOnUse"><stop offset="0" stop-color="#8d468b"/><stop offset="1" stop-color="#2c5cc8"/></linearGradient><linearGradient id="linear-gradient-39" x1="85.97" y1="122.66" x2="63.25" y2="183.25" xlink:href="#linear-gradient-37"/><linearGradient id="linear-gradient-40" x1="579.29" y1="116.89" x2="553.85" y2="184.75" gradientTransform="matrix(-1, 0, 0, 1, 620.12, 0)" xlink:href="#linear-gradient-38"/><linearGradient id="linear-gradient-41" x1="100.02" y1="127.97" x2="76.89" y2="189.65" xlink:href="#linear-gradient-38"/><linearGradient id="linear-gradient-42" x1="551.62" y1="245.47" x2="546.96" y2="245.84" gradientTransform="matrix(-0.97, -0.25, -0.25, 0.97, 654.09, 9.68)" gradientUnits="userSpaceOnUse"><stop offset="0" stop-color="#fc5653"/><stop offset="1" stop-color="#fc0053"/></linearGradient><linearGradient id="linear-gradient-43" x1="86.49" y1="124.4" x2="70.05" y2="168.25" xlink:href="#linear-gradient-37"/><linearGradient id="linear-gradient-44" x1="86.49" y1="124.4" x2="70.05" y2="168.25" xlink:href="#linear-gradient-38"/><radialGradient id="radial-gradient" cx="592.6" cy="66.82" r="18.71" gradientTransform="matrix(-1, 0.07, 0.07, 1, 645.14, -23.27)" gradientUnits="userSpaceOnUse"><stop offset="0.5" stop-color="#fae849"/><stop offset="0.81" stop-color="#f9e747"/><stop offset="0.92" stop-color="#f4e140"/><stop offset="1" stop-color="#edd935"/></radialGradient><linearGradient id="linear-gradient-45" x1="598.84" y1="69.41" x2="569.86" y2="75.34" gradientTransform="matrix(-1, 0.07, 0.07, 1, 645.14, -23.27)" xlink:href="#linear-gradient-15"/></defs><g class="cls-1"><g id="Capa_2" data-name="Capa 2"><g id="Layer_1" data-name="Layer 1"><path class="cls-2" d="M152.85,157.38a17.15,17.15,0,0,0,.53-2.14,20.73,20.73,0,0,0,.26-2.19l-3.6-1.81a14.7,14.7,0,0,0-.34-2.57l3-2.7a18.32,18.32,0,0,0-1.91-4l-4,.65a15.88,15.88,0,0,0-1.79-1.88l.82-3.94a18.2,18.2,0,0,0-3.87-2.08l-2.83,2.87a11.11,11.11,0,0,0-1.27-.29c-.43-.08-.85-.14-1.28-.18l-1.65-3.67a18.11,18.11,0,0,0-4.36.59l-.6,4a13.28,13.28,0,0,0-2.34,1.13l-3.49-2a18.66,18.66,0,0,0-3.18,3l1.84,3.57a14.76,14.76,0,0,0-1.22,2.29l-4,.43a17.15,17.15,0,0,0-.53,2.14,20.42,20.42,0,0,0-.26,2.19l3.6,1.81a14.7,14.7,0,0,0,.34,2.57l-3,2.7a18.54,18.54,0,0,0,1.91,4l4-.65a15.06,15.06,0,0,0,1.79,1.87L124.6,167a18.23,18.23,0,0,0,3.87,2.09l2.83-2.87c.42.11.84.21,1.27.29s.86.13,1.28.17l1.65,3.68a18.11,18.11,0,0,0,4.36-.59l.6-4a14.85,14.85,0,0,0,2.34-1.13l3.49,2a18.66,18.66,0,0,0,3.18-3l-1.84-3.57a14.76,14.76,0,0,0,1.22-2.29ZM134.28,164a12.08,12.08,0,1,1,12.54-8.69A12.08,12.08,0,0,1,134.28,164Z"/><path class="cls-3" d="M152.85,157.38a17.15,17.15,0,0,0,.53-2.14,20.73,20.73,0,0,0,.26-2.19l-3.6-1.81a14.7,14.7,0,0,0-.34-2.57l3-2.7a18.32,18.32,0,0,0-1.91-4l-4,.65a15.88,15.88,0,0,0-1.79-1.88l.82-3.94a18.2,18.2,0,0,0-3.87-2.08l-2.83,2.87a11.11,11.11,0,0,0-1.27-.29c-.43-.08-.85-.14-1.28-.18l-1.65-3.67a18.11,18.11,0,0,0-4.36.59l-.6,4a13.28,13.28,0,0,0-2.34,1.13l-3.49-2a18.66,18.66,0,0,0-3.18,3l1.84,3.57a14.76,14.76,0,0,0-1.22,2.29l-4,.43a17.15,17.15,0,0,0-.53,2.14,20.42,20.42,0,0,0-.26,2.19l3.6,1.81a14.7,14.7,0,0,0,.34,2.57l-3,2.7a18.54,18.54,0,0,0,1.91,4l4-.65a15.06,15.06,0,0,0,1.79,1.87L124.6,167a18.23,18.23,0,0,0,3.87,2.09l2.83-2.87c.42.11.84.21,1.27.29s.86.13,1.28.17l1.65,3.68a18.11,18.11,0,0,0,4.36-.59l.6-4a14.85,14.85,0,0,0,2.34-1.13l3.49,2a18.66,18.66,0,0,0,3.18-3l-1.84-3.57a14.76,14.76,0,0,0,1.22-2.29ZM134.28,164a12.08,12.08,0,1,1,12.54-8.69A12.08,12.08,0,0,1,134.28,164Z"/><path class="cls-4" d="M126,144.11a12.07,12.07,0,0,1,20.79,11.19,5.27,5.27,0,0,1-.19.56l.73,0a23.66,23.66,0,0,0,6-.74,17.24,17.24,0,0,0,.25-2.12l-3.6-1.81a14.7,14.7,0,0,0-.34-2.57l3-2.7a18.32,18.32,0,0,0-1.91-4l-4,.65a15.88,15.88,0,0,0-1.79-1.88l.82-3.94a18.2,18.2,0,0,0-3.87-2.08l-2.83,2.87a11.11,11.11,0,0,0-1.27-.29c-.43-.08-.85-.14-1.28-.18l-1.65-3.67a18.11,18.11,0,0,0-4.36.59l-.6,4a13.28,13.28,0,0,0-2.34,1.13l-3.49-2a19.2,19.2,0,0,0-1.81,1.55C123.46,140.59,124.72,142.37,126,144.11Z"/><path class="cls-5" d="M137.85,137.41a14.77,14.77,0,1,0,11.9,17.17A14.78,14.78,0,0,0,137.85,137.41Zm-4.79,26.42a12.08,12.08,0,1,1,14-9.73A12.08,12.08,0,0,1,133.06,163.83Z"/><path class="cls-6" d="M137.55,139.07a13.09,13.09,0,1,0,10.54,15.21A13.09,13.09,0,0,0,137.55,139.07Zm-4.12,22.71a10,10,0,1,1,11.62-8.05A10,10,0,0,1,133.43,161.78Z"/><path class="cls-7" d="M137.07,141.71a10.4,10.4,0,1,0,8.38,12.09A10.41,10.41,0,0,0,137.07,141.71Zm-3.47,19.16a9.07,9.07,0,1,1,10.54-7.31A9.08,9.08,0,0,1,133.6,160.87Z"/><path class="cls-8" d="M137.18,141.11a11,11,0,1,0,8.87,12.8A11,11,0,0,0,137.18,141.11Zm-3.68,20.28a9.6,9.6,0,1,1,11.16-7.73A9.6,9.6,0,0,1,133.5,161.39Z"/><path class="cls-9" d="M170.73,112.89a13.31,13.31,0,0,0-.3-1.33,11.52,11.52,0,0,0-.47-1.28h-2.48a9.68,9.68,0,0,0-.9-1.33l.9-2.32a11.87,11.87,0,0,0-2.15-1.66l-2,1.46a9.06,9.06,0,0,0-1.51-.54l-.63-2.41a11.75,11.75,0,0,0-2.72-.08l-.77,2.37a7.38,7.38,0,0,0-.78.19,6.81,6.81,0,0,0-.76.26l-1.93-1.58a11.22,11.22,0,0,0-2.24,1.53l.76,2.37a9.33,9.33,0,0,0-1,1.27l-2.48-.14a11.42,11.42,0,0,0-.92,2.55l2,1.47a9.48,9.48,0,0,0-.05,1.6l-2.09,1.35a13.31,13.31,0,0,0,.3,1.33c.13.44.29.86.46,1.28h2.49a10.33,10.33,0,0,0,.9,1.33l-.9,2.32a11.53,11.53,0,0,0,2.15,1.66l2-1.46a9.67,9.67,0,0,0,1.51.54l.63,2.41a11.68,11.68,0,0,0,2.71.08l.78-2.37a7.38,7.38,0,0,0,.78-.19,6.81,6.81,0,0,0,.76-.26l1.92,1.58a11.29,11.29,0,0,0,2.25-1.53l-.76-2.37a8.53,8.53,0,0,0,1-1.27l2.49.14a12.14,12.14,0,0,0,.92-2.55l-2-1.47a8.54,8.54,0,0,0,0-1.6Zm-8.44,8.79a7.47,7.47,0,1,1,4.53-8.27A7.47,7.47,0,0,1,162.29,121.68Z"/><path class="cls-10" d="M170.73,112.89a13.31,13.31,0,0,0-.3-1.33,11.52,11.52,0,0,0-.47-1.28h-2.48a9.68,9.68,0,0,0-.9-1.33l.9-2.32a11.87,11.87,0,0,0-2.15-1.66l-2,1.46a9.06,9.06,0,0,0-1.51-.54l-.63-2.41a11.75,11.75,0,0,0-2.72-.08l-.77,2.37a7.38,7.38,0,0,0-.78.19,6.81,6.81,0,0,0-.76.26l-1.93-1.58a11.22,11.22,0,0,0-2.24,1.53l.76,2.37a9.33,9.33,0,0,0-1,1.27l-2.48-.14a11.42,11.42,0,0,0-.92,2.55l2,1.47a9.48,9.48,0,0,0-.05,1.6l-2.09,1.35a13.31,13.31,0,0,0,.3,1.33c.13.44.29.86.46,1.28h2.49a10.33,10.33,0,0,0,.9,1.33l-.9,2.32a11.53,11.53,0,0,0,2.15,1.66l2-1.46a9.67,9.67,0,0,0,1.51.54l.63,2.41a11.68,11.68,0,0,0,2.71.08l.78-2.37a7.38,7.38,0,0,0,.78-.19,6.81,6.81,0,0,0,.76-.26l1.92,1.58a11.29,11.29,0,0,0,2.25-1.53l-.76-2.37a8.53,8.53,0,0,0,1-1.27l2.49.14a12.14,12.14,0,0,0,.92-2.55l-2-1.47a8.54,8.54,0,0,0,0-1.6Zm-8.44,8.79a7.47,7.47,0,1,1,4.53-8.27A7.47,7.47,0,0,1,162.29,121.68Z"/><path class="cls-11" d="M152.23,113a7.47,7.47,0,0,1,14.59.44c0,.12,0,.24.05.36l.42-.17a14.38,14.38,0,0,0,3.12-2.08,9.19,9.19,0,0,0-.45-1.24h-2.48a9.68,9.68,0,0,0-.9-1.33l.9-2.32a11.87,11.87,0,0,0-2.15-1.66l-2,1.46a9.06,9.06,0,0,0-1.51-.54l-.63-2.41a11.75,11.75,0,0,0-2.72-.08l-.77,2.37a7.38,7.38,0,0,0-.78.19,6.81,6.81,0,0,0-.76.26l-1.93-1.58a11.22,11.22,0,0,0-2.24,1.53l.76,2.37a9.33,9.33,0,0,0-1,1.27l-2.48-.14a10.7,10.7,0,0,0-.57,1.35C149.84,111.74,151,112.37,152.23,113Z"/><path class="cls-12" d="M156.91,106a9.13,9.13,0,1,0,11.33,6.2A9.14,9.14,0,0,0,156.91,106Zm4.66,15.93a7.47,7.47,0,1,1,5.07-9.26A7.46,7.46,0,0,1,161.57,121.93Z"/><path class="cls-13" d="M157.21,107a8.09,8.09,0,1,0,10,5.5A8.1,8.1,0,0,0,157.21,107Zm4.24,14.53a7,7,0,1,1,4.79-8.74A7,7,0,0,1,161.45,121.53Z"/><path class="cls-14" d="M157.21,107a8.09,8.09,0,1,0,10,5.5A8.1,8.1,0,0,0,157.21,107Zm4.24,14.53a7,7,0,1,1,4.79-8.74A7,7,0,0,1,161.45,121.53Z"/><path class="cls-15" d="M157.07,106.55a8.56,8.56,0,1,0,10.62,5.81A8.55,8.55,0,0,0,157.07,106.55Zm4.5,15.38a7.47,7.47,0,1,1,5.07-9.26A7.46,7.46,0,0,1,161.57,121.93Z"/><path class="cls-16" d="M176.14,72.05l-1.93-.56-3.33-1-27.41-8.09-5.12-1.5-17.49-5.16-12-3.52,13.2,38.39Zm-56.81-4.59L152.41,75l-12.34,3.84-7.5,2.33L123.51,84Z"/><path class="cls-17" d="M187.89,74.33,103.8,49.54,113,100.1Zm-68.26-8,33.09,7.56-28.9,9Z"/><polygon class="cls-16" points="114.64 99.53 103.8 49.54 102.48 49.84 113.02 100.1 114.64 99.53"/><rect class="cls-16" x="117.93" y="94.04" width="0.45" height="4.19" transform="translate(-24.84 43.65) rotate(-18.98)"/><rect class="cls-16" x="120.21" y="95.41" width="0.45" height="2.09" transform="translate(-24.82 44.4) rotate(-18.98)"/><rect class="cls-16" x="122.15" y="94.74" width="0.45" height="2.09" transform="matrix(0.95, -0.33, 0.33, 0.95, -24.51, 45.03)"/><rect class="cls-16" x="124.09" y="94.08" width="0.45" height="2.09" transform="matrix(0.95, -0.33, 0.33, 0.95, -24.19, 45.62)"/><rect class="cls-16" x="126.03" y="93.41" width="0.45" height="2.09" transform="translate(-23.85 46.19) rotate(-18.98)"/><rect class="cls-16" x="127.63" y="90.71" width="0.45" height="4.19" transform="translate(-23.23 46.63) rotate(-18.98)"/><rect class="cls-16" x="129.9" y="92.08" width="0.45" height="2.09" transform="translate(-23.21 47.37) rotate(-18.98)"/><rect class="cls-16" x="131.84" y="91.41" width="0.45" height="2.09" transform="translate(-22.88 47.93) rotate(-18.96)"/><rect class="cls-16" x="133.78" y="90.74" width="0.45" height="2.09" transform="translate(-22.56 48.55) rotate(-18.97)"/><rect class="cls-16" x="135.72" y="90.08" width="0.45" height="2.09" transform="translate(-22.26 49.2) rotate(-18.99)"/><rect class="cls-16" x="137.32" y="87.37" width="0.45" height="4.19" transform="translate(-21.62 49.6) rotate(-18.98)"/><rect class="cls-16" x="139.6" y="88.74" width="0.45" height="2.09" transform="translate(-21.6 50.34) rotate(-18.98)"/><rect class="cls-16" x="141.53" y="88.08" width="0.45" height="2.09" transform="translate(-21.27 50.9) rotate(-18.96)"/><rect class="cls-16" x="143.47" y="87.41" width="0.45" height="2.09" transform="translate(-20.95 51.5) rotate(-18.96)"/><rect class="cls-16" x="145.41" y="86.74" width="0.45" height="2.09" transform="translate(-20.63 52.13) rotate(-18.98)"/><rect class="cls-16" x="147.01" y="84.04" width="0.45" height="4.19" transform="translate(-20.01 52.56) rotate(-18.98)"/><rect class="cls-16" x="149.29" y="85.41" width="0.45" height="2.09" transform="translate(-20 53.36) rotate(-18.99)"/><rect class="cls-16" x="151.22" y="84.74" width="0.45" height="2.09" transform="translate(-19.66 53.9) rotate(-18.97)"/><rect class="cls-16" x="153.16" y="84.08" width="0.45" height="2.09" transform="translate(-19.34 54.47) rotate(-18.96)"/><rect class="cls-16" x="155.1" y="83.41" width="0.45" height="2.09" transform="translate(-19.02 55.08) rotate(-18.97)"/><rect class="cls-16" x="156.7" y="80.71" width="0.45" height="4.19" transform="translate(-18.4 55.53) rotate(-18.98)"/><rect class="cls-16" x="158.98" y="82.08" width="0.45" height="2.09" transform="translate(-18.38 56.3) rotate(-18.98)"/><rect class="cls-16" x="160.92" y="81.41" width="0.45" height="2.09" transform="translate(-18.06 56.88) rotate(-18.98)"/><rect class="cls-16" x="162.85" y="80.75" width="0.45" height="2.09" transform="translate(-17.74 57.52) rotate(-18.99)"/><rect class="cls-16" x="164.79" y="80.08" width="0.45" height="2.09" transform="translate(-17.42 58.09) rotate(-18.98)"/><rect class="cls-16" x="166.39" y="77.37" width="0.45" height="4.19" transform="translate(-16.78 58.46) rotate(-18.96)"/><rect class="cls-16" x="168.67" y="78.75" width="0.45" height="2.09" transform="translate(-16.77 59.27) rotate(-18.98)"/><rect class="cls-16" x="170.61" y="78.08" width="0.45" height="2.09" transform="translate(-16.44 59.81) rotate(-18.96)"/><rect class="cls-16" x="172.55" y="77.41" width="0.45" height="2.09" transform="translate(-16.13 60.5) rotate(-18.99)"/><rect class="cls-16" x="174.48" y="76.75" width="0.45" height="2.09" transform="translate(-15.81 61.09) rotate(-18.99)"/><rect class="cls-16" x="176.08" y="74.04" width="0.45" height="4.19" transform="translate(-15.18 61.47) rotate(-18.98)"/><rect class="cls-18" x="2.8" y="84.39" width="8.47" height="1.6" transform="translate(-51.71 23.1) rotate(-38.7)"/><rect class="cls-19" x="-0.74" y="84.03" width="11.32" height="1.6" transform="translate(-51.95 21.7) rotate(-38.7)"/><path class="cls-16" d="M52.14,36c-1-1.18-.41-3.19,1.21-4.48S57,30.09,58,31.27s.4,3.19-1.21,4.49S53.09,37.14,52.14,36Z"/><polygon class="cls-20" points="61.18 47.25 61.73 47.93 84.22 29.91 83.71 29.27 87.87 25.94 88.38 26.58 93.63 22.37 86.77 13.81 3.52 80.5 9.84 88.38 61.18 47.25"/><rect class="cls-16" x="81.07" y="19.04" width="0.28" height="5.46" transform="translate(4.21 55.54) rotate(-38.69)"/><rect class="cls-16" x="79.96" y="19.65" width="0.27" height="3.52" transform="translate(4.2 54.79) rotate(-38.71)"/><rect class="cls-16" x="79.53" y="20" width="0.27" height="3.52" transform="translate(3.9 54.61) rotate(-38.72)"/><rect class="cls-16" x="79.1" y="20.35" width="0.27" height="3.52" transform="translate(3.58 54.4) rotate(-38.7)"/><rect class="cls-16" x="78.66" y="20.7" width="0.27" height="3.52" transform="translate(3.25 54.18) rotate(-38.69)"/><rect class="cls-16" x="78.45" y="20.98" width="0.27" height="4.21" transform="translate(2.81 54.17) rotate(-38.67)"/><rect class="cls-16" x="77.8" y="21.4" width="0.27" height="3.52" transform="translate(2.64 53.83) rotate(-38.72)"/><rect class="cls-16" x="77.36" y="21.74" width="0.27" height="3.52" transform="translate(2.31 53.58) rotate(-38.67)"/><rect class="cls-16" x="76.92" y="22.09" width="0.27" height="3.52" transform="translate(2.01 53.42) rotate(-38.7)"/><rect class="cls-16" x="76.49" y="22.44" width="0.27" height="3.52" transform="translate(1.69 53.2) rotate(-38.69)"/><rect class="cls-16" x="76.58" y="22.63" width="0.28" height="5.46" transform="translate(1 53.56) rotate(-38.72)"/><rect class="cls-16" x="75.48" y="23.24" width="0.27" height="3.52" transform="translate(0.96 52.73) rotate(-38.67)"/><rect class="cls-16" x="75.05" y="23.59" width="0.27" height="3.52" transform="translate(0.67 52.6) rotate(-38.72)"/><rect class="cls-16" x="74.62" y="23.94" width="0.27" height="3.52" transform="translate(0.33 52.34) rotate(-38.67)"/><rect class="cls-16" x="74.18" y="24.29" width="0.27" height="3.52" transform="translate(0.03 52.17) rotate(-38.69)"/><rect class="cls-16" x="73.97" y="24.57" width="0.27" height="4.21" transform="translate(-0.42 52.16) rotate(-38.67)"/><rect class="cls-16" x="73.32" y="24.99" width="0.27" height="3.52" transform="translate(-0.6 51.8) rotate(-38.7)"/><rect class="cls-16" x="72.88" y="25.33" width="0.27" height="3.52" transform="translate(-0.9 51.6) rotate(-38.7)"/><rect class="cls-16" x="72.44" y="25.68" width="0.27" height="3.52" transform="translate(-1.21 51.42) rotate(-38.72)"/><rect class="cls-16" x="72.01" y="26.03" width="0.27" height="3.52" transform="translate(-1.53 51.23) rotate(-38.72)"/><rect class="cls-16" x="71" y="26.83" width="0.27" height="3.52" transform="translate(-2.26 50.76) rotate(-38.7)"/><rect class="cls-16" x="70.57" y="27.18" width="0.27" height="3.52" transform="translate(-2.56 50.58) rotate(-38.72)"/><rect class="cls-16" x="70.13" y="27.53" width="0.27" height="3.52" transform="translate(-2.88 50.39) rotate(-38.72)"/><rect class="cls-16" x="69.7" y="27.88" width="0.27" height="3.52" transform="translate(-3.19 50.17) rotate(-38.7)"/><rect class="cls-16" x="69.49" y="28.16" width="0.27" height="4.21" transform="translate(-3.64 50.16) rotate(-38.68)"/><rect class="cls-16" x="68.84" y="28.58" width="0.27" height="3.52" transform="translate(-3.83 49.79) rotate(-38.7)"/><rect class="cls-16" x="68.4" y="28.92" width="0.27" height="3.52" transform="translate(-4.13 49.61) rotate(-38.72)"/><rect class="cls-16" x="67.96" y="29.27" width="0.27" height="3.52" transform="translate(-4.45 49.37) rotate(-38.69)"/><rect class="cls-16" x="67.53" y="29.62" width="0.27" height="3.52" transform="translate(-4.76 49.18) rotate(-38.69)"/><rect class="cls-16" x="66.52" y="30.42" width="0.27" height="3.52" transform="translate(-5.49 48.73) rotate(-38.69)"/><rect class="cls-16" x="66.09" y="30.77" width="0.27" height="3.52" transform="translate(-5.8 48.51) rotate(-38.67)"/><rect class="cls-16" x="65.65" y="31.12" width="0.27" height="3.52" transform="translate(-6.11 48.35) rotate(-38.7)"/><rect class="cls-16" x="65.22" y="31.47" width="0.27" height="3.52" transform="translate(-6.43 48.14) rotate(-38.69)"/><rect class="cls-16" x="65.01" y="31.75" width="0.27" height="4.21" transform="translate(-6.86 48.18) rotate(-38.72)"/><rect class="cls-16" x="64.36" y="32.17" width="0.27" height="3.52" transform="translate(-7.06 47.76) rotate(-38.69)"/><rect class="cls-16" x="63.92" y="32.51" width="0.27" height="3.52" transform="translate(-7.36 47.57) rotate(-38.7)"/><rect class="cls-16" x="63.48" y="32.86" width="0.27" height="3.52" transform="translate(-7.67 47.38) rotate(-38.7)"/><rect class="cls-16" x="63.05" y="33.21" width="0.27" height="3.52" transform="translate(-7.99 47.18) rotate(-38.7)"/><rect class="cls-16" x="62.04" y="34.01" width="0.27" height="3.52" transform="translate(-8.71 46.71) rotate(-38.69)"/><rect class="cls-16" x="61.61" y="34.36" width="0.27" height="3.52" transform="translate(-9.02 46.54) rotate(-38.7)"/><rect class="cls-16" x="61.17" y="34.71" width="0.27" height="3.52" transform="translate(-9.33 46.36) rotate(-38.72)"/><rect class="cls-16" x="60.74" y="35.05" width="0.27" height="3.52" transform="translate(-9.65 46.17) rotate(-38.72)"/><rect class="cls-16" x="60.53" y="35.34" width="0.27" height="4.21" transform="translate(-10.09 46.15) rotate(-38.7)"/><rect class="cls-16" x="59.88" y="35.76" width="0.27" height="3.52" transform="translate(-10.28 45.76) rotate(-38.7)"/><rect class="cls-16" x="59.44" y="36.1" width="0.27" height="3.52" transform="translate(-10.59 45.55) rotate(-38.69)"/><rect class="cls-16" x="59" y="36.45" width="0.27" height="3.52" transform="translate(-10.9 45.38) rotate(-38.72)"/><rect class="cls-16" x="58.57" y="36.79" width="0.27" height="3.52" transform="translate(-11.22 45.17) rotate(-38.7)"/><rect class="cls-16" x="57.56" y="37.6" width="0.27" height="3.52" transform="translate(-11.94 44.72) rotate(-38.7)"/><rect class="cls-16" x="57.13" y="37.95" width="0.27" height="3.52" transform="translate(-12.25 44.52) rotate(-38.7)"/><rect class="cls-16" x="56.69" y="38.3" width="0.27" height="3.52" transform="translate(-12.57 44.29) rotate(-38.67)"/><rect class="cls-16" x="56.26" y="38.64" width="0.27" height="3.52" transform="translate(-12.88 44.13) rotate(-38.7)"/><rect class="cls-16" x="56.05" y="38.93" width="0.27" height="4.21" transform="translate(-13.32 44.14) rotate(-38.7)"/><rect class="cls-16" x="55.4" y="39.35" width="0.27" height="3.52" transform="translate(-13.51 43.79) rotate(-38.73)"/><rect class="cls-16" x="54.96" y="39.69" width="0.27" height="3.52" transform="translate(-13.82 43.51) rotate(-38.67)"/><rect class="cls-16" x="54.52" y="40.04" width="0.27" height="3.52" transform="translate(-14.13 43.35) rotate(-38.7)"/><rect class="cls-16" x="54.09" y="40.38" width="0.27" height="3.52" transform="translate(-14.44 43.12) rotate(-38.67)"/><rect class="cls-16" x="53.08" y="41.19" width="0.27" height="3.52" transform="translate(-15.17 42.69) rotate(-38.69)"/><rect class="cls-16" x="52.65" y="41.54" width="0.27" height="3.52" transform="translate(-15.48 42.51) rotate(-38.7)"/><rect class="cls-16" x="52.21" y="41.88" width="0.27" height="3.52" transform="translate(-15.79 42.29) rotate(-38.68)"/><rect class="cls-16" x="51.78" y="42.23" width="0.27" height="3.52" transform="translate(-16.11 42.14) rotate(-38.72)"/><rect class="cls-16" x="51.57" y="42.51" width="0.27" height="4.21" transform="translate(-16.54 42.11) rotate(-38.69)"/><rect class="cls-16" x="50.92" y="42.94" width="0.27" height="3.52" transform="translate(-16.74 41.73) rotate(-38.7)"/><rect class="cls-16" x="50.48" y="43.28" width="0.27" height="3.52" transform="translate(-17.05 41.55) rotate(-38.72)"/><rect class="cls-16" x="50.04" y="43.62" width="0.27" height="3.52" transform="translate(-17.36 41.34) rotate(-38.7)"/><rect class="cls-16" x="49.61" y="43.97" width="0.27" height="3.52" transform="translate(-17.67 41.14) rotate(-38.7)"/><rect class="cls-16" x="48.6" y="44.78" width="0.27" height="3.52" transform="translate(-18.39 40.69) rotate(-38.7)"/><rect class="cls-16" x="48.17" y="45.13" width="0.27" height="3.52" transform="translate(-18.71 40.5) rotate(-38.7)"/><rect class="cls-16" x="47.73" y="45.47" width="0.27" height="3.52" transform="translate(-19.02 40.32) rotate(-38.72)"/><rect class="cls-16" x="47.3" y="45.82" width="0.27" height="3.52" transform="translate(-19.33 40.09) rotate(-38.69)"/><rect class="cls-16" x="47.09" y="46.1" width="0.27" height="4.21" transform="translate(-19.77 40.13) rotate(-38.72)"/><rect class="cls-16" x="46.44" y="46.53" width="0.27" height="3.52" transform="translate(-19.96 39.7) rotate(-38.69)"/><rect class="cls-16" x="46" y="46.87" width="0.27" height="3.52" transform="translate(-20.27 39.52) rotate(-38.7)"/><rect class="cls-16" x="45.56" y="47.21" width="0.27" height="3.52" transform="translate(-20.58 39.29) rotate(-38.67)"/><rect class="cls-16" x="45.13" y="47.56" width="0.27" height="3.52" transform="translate(-20.9 39.13) rotate(-38.7)"/><rect class="cls-16" x="44.12" y="48.37" width="0.27" height="3.52" transform="translate(-21.62 38.68) rotate(-38.7)"/><rect class="cls-16" x="43.69" y="48.71" width="0.27" height="3.52" transform="translate(-21.93 38.47) rotate(-38.69)"/><rect class="cls-16" x="43.25" y="49.06" width="0.27" height="3.52" transform="translate(-22.25 38.29) rotate(-38.7)"/><rect class="cls-16" x="42.82" y="49.41" width="0.27" height="3.52" transform="translate(-22.56 38.06) rotate(-38.67)"/><rect class="cls-16" x="42.61" y="49.69" width="0.27" height="4.21" transform="translate(-23 38.1) rotate(-38.7)"/><rect class="cls-16" x="41.96" y="50.12" width="0.27" height="3.52" transform="translate(-23.19 37.69) rotate(-38.69)"/><rect class="cls-16" x="41.51" y="50.45" width="0.27" height="3.52" transform="translate(-23.5 37.52) rotate(-38.72)"/><rect class="cls-16" x="41.08" y="50.8" width="0.27" height="3.52" transform="translate(-23.82 37.33) rotate(-38.72)"/><rect class="cls-16" x="40.65" y="51.15" width="0.27" height="3.52" transform="translate(-24.13 37.11) rotate(-38.7)"/><rect class="cls-16" x="39.64" y="51.96" width="0.27" height="3.52" transform="translate(-24.86 36.69) rotate(-38.72)"/><rect class="cls-16" x="39.21" y="52.3" width="0.27" height="3.52" transform="translate(-25.17 36.49) rotate(-38.72)"/><rect class="cls-16" x="38.77" y="52.65" width="0.27" height="3.52" transform="translate(-25.47 36.26) rotate(-38.69)"/><rect class="cls-16" x="38.34" y="53" width="0.27" height="3.52" transform="translate(-25.79 36.1) rotate(-38.72)"/><rect class="cls-16" x="38.13" y="53.28" width="0.27" height="4.21" transform="translate(-26.22 36.07) rotate(-38.69)"/><rect class="cls-16" x="37.48" y="53.71" width="0.27" height="3.52" transform="translate(-26.42 35.69) rotate(-38.7)"/><rect class="cls-16" x="37.03" y="54.04" width="0.27" height="3.52" transform="translate(-26.72 35.48) rotate(-38.69)"/><rect class="cls-16" x="36.6" y="54.39" width="0.27" height="3.52" transform="translate(-27.05 35.31) rotate(-38.72)"/><rect class="cls-16" x="36.17" y="54.74" width="0.27" height="3.52" transform="translate(-27.34 35.07) rotate(-38.67)"/><rect class="cls-16" x="35.16" y="55.54" width="0.27" height="3.52" transform="translate(-28.07 34.64) rotate(-38.69)"/><rect class="cls-16" x="34.73" y="55.89" width="0.27" height="3.52" transform="translate(-28.39 34.46) rotate(-38.7)"/><rect class="cls-16" x="34.29" y="56.24" width="0.27" height="3.52" transform="translate(-28.69 34.23) rotate(-38.67)"/><rect class="cls-16" x="33.86" y="56.59" width="0.27" height="3.52" transform="translate(-29.02 34.06) rotate(-38.7)"/><rect class="cls-16" x="33.65" y="56.87" width="0.27" height="4.21" transform="translate(-29.46 34.07) rotate(-38.7)"/><rect class="cls-16" x="33" y="57.29" width="0.27" height="3.52" transform="translate(-29.65 33.68) rotate(-38.7)"/><rect class="cls-16" x="32.55" y="57.63" width="0.27" height="3.52" transform="translate(-29.95 33.46) rotate(-38.69)"/><rect class="cls-16" x="32.12" y="57.98" width="0.27" height="3.52" transform="translate(-30.27 33.28) rotate(-38.7)"/><rect class="cls-16" x="31.69" y="58.33" width="0.27" height="3.52" transform="translate(-30.58 33.08) rotate(-38.69)"/><rect class="cls-16" x="30.68" y="59.13" width="0.27" height="3.52" transform="translate(-31.3 32.62) rotate(-38.68)"/><rect class="cls-16" x="30.25" y="59.48" width="0.27" height="3.52" transform="translate(-31.62 32.44) rotate(-38.7)"/><rect class="cls-16" x="29.81" y="59.83" width="0.27" height="3.52" transform="translate(-31.94 32.26) rotate(-38.72)"/><rect class="cls-16" x="29.38" y="60.18" width="0.27" height="3.52" transform="translate(-32.24 32.05) rotate(-38.7)"/><rect class="cls-16" x="29.17" y="60.46" width="0.27" height="4.21" transform="translate(-32.67 32.04) rotate(-38.68)"/><rect class="cls-16" x="28.52" y="60.88" width="0.27" height="3.52" transform="translate(-32.87 31.67) rotate(-38.7)"/><rect class="cls-16" x="28.07" y="61.22" width="0.27" height="3.52" transform="translate(-33.19 31.48) rotate(-38.72)"/><rect class="cls-16" x="27.64" y="61.57" width="0.27" height="3.52" transform="translate(-33.48 31.24) rotate(-38.67)"/><rect class="cls-16" x="27.2" y="61.92" width="0.27" height="3.52" transform="translate(-33.8 31.06) rotate(-38.69)"/><rect class="cls-16" x="26.2" y="62.72" width="0.27" height="3.52" transform="translate(-34.54 30.64) rotate(-38.72)"/><rect class="cls-16" x="25.77" y="63.07" width="0.27" height="3.52" transform="translate(-34.84 30.41) rotate(-38.69)"/><rect class="cls-16" x="25.33" y="63.42" width="0.27" height="3.52" transform="translate(-35.16 30.23) rotate(-38.7)"/><rect class="cls-16" x="24.9" y="63.77" width="0.27" height="3.52" transform="translate(-35.46 30.02) rotate(-38.69)"/><rect class="cls-16" x="24.69" y="64.05" width="0.27" height="4.21" transform="translate(-35.92 30.06) rotate(-38.72)"/><rect class="cls-16" x="24.04" y="64.47" width="0.27" height="3.52" transform="translate(-36.09 29.64) rotate(-38.69)"/><rect class="cls-16" x="23.59" y="64.81" width="0.27" height="3.52" transform="translate(-36.41 29.45) rotate(-38.7)"/><rect class="cls-16" x="23.16" y="65.16" width="0.27" height="3.52" transform="translate(-36.72 29.24) rotate(-38.69)"/><rect class="cls-16" x="22.72" y="65.51" width="0.27" height="3.52" transform="translate(-37.03 29.04) rotate(-38.68)"/><rect class="cls-16" x="21.72" y="66.31" width="0.27" height="3.52" transform="translate(-37.76 28.61) rotate(-38.7)"/><rect class="cls-16" x="21.29" y="66.66" width="0.27" height="3.52" transform="translate(-38.06 28.4) rotate(-38.69)"/><rect class="cls-16" x="20.85" y="67.01" width="0.27" height="3.52" transform="translate(-38.38 28.21) rotate(-38.69)"/><rect class="cls-16" x="20.42" y="67.36" width="0.27" height="3.52" transform="translate(-38.7 28.02) rotate(-38.7)"/><rect class="cls-16" x="20.21" y="67.64" width="0.27" height="4.21" transform="translate(-39.15 28.05) rotate(-38.72)"/><rect class="cls-16" x="19.56" y="68.06" width="0.27" height="3.52" transform="translate(-39.33 27.64) rotate(-38.7)"/><rect class="cls-16" x="19.11" y="68.4" width="0.27" height="3.52" transform="translate(-39.65 27.46) rotate(-38.72)"/><rect class="cls-16" x="18.68" y="68.75" width="0.27" height="3.52" transform="translate(-39.96 27.26) rotate(-38.72)"/><rect class="cls-16" x="18.24" y="69.1" width="0.27" height="3.52" transform="translate(-40.27 27.05) rotate(-38.7)"/><rect class="cls-16" x="17.24" y="69.9" width="0.27" height="3.52" transform="translate(-40.99 26.6) rotate(-38.7)"/><rect class="cls-16" x="16.81" y="70.25" width="0.27" height="3.52" transform="translate(-41.3 26.4) rotate(-38.7)"/><rect class="cls-16" x="16.37" y="70.6" width="0.27" height="3.52" transform="translate(-41.62 26.21) rotate(-38.7)"/><rect class="cls-16" x="15.94" y="70.94" width="0.27" height="3.52" transform="translate(-41.94 26.03) rotate(-38.72)"/><rect class="cls-16" x="15.73" y="71.23" width="0.27" height="4.21" transform="translate(-42.36 26) rotate(-38.69)"/><rect class="cls-16" x="15.08" y="71.65" width="0.27" height="3.52" transform="translate(-42.56 25.63) rotate(-38.7)"/><rect class="cls-16" x="14.63" y="71.99" width="0.27" height="3.52" transform="translate(-42.86 25.41) rotate(-38.69)"/><rect class="cls-16" x="14.2" y="72.34" width="0.27" height="3.52" transform="translate(-43.17 25.22) rotate(-38.69)"/><rect class="cls-16" x="13.76" y="72.68" width="0.27" height="3.52" transform="translate(-43.47 25.01) rotate(-38.67)"/><rect class="cls-16" x="72.1" y="26.22" width="0.28" height="5.46" transform="matrix(0.78, -0.63, 0.63, 0.78, -2.23, 51.53)"/><rect class="cls-16" x="67.62" y="29.81" width="0.29" height="5.46" transform="translate(-5.46 49.5) rotate(-38.69)"/><rect class="cls-16" x="63.14" y="33.39" width="0.28" height="5.46" transform="translate(-8.69 47.49) rotate(-38.69)"/><rect class="cls-16" x="58.66" y="36.98" width="0.28" height="5.46" transform="translate(-11.92 45.51) rotate(-38.72)"/><rect class="cls-16" x="54.18" y="40.57" width="0.28" height="5.46" transform="matrix(0.78, -0.63, 0.63, 0.78, -15.15, 43.48)"/><rect class="cls-16" x="49.7" y="44.16" width="0.29" height="5.46" transform="translate(-18.37 41.45) rotate(-38.69)"/><rect class="cls-16" x="45.22" y="47.75" width="0.29" height="5.46" transform="translate(-21.6 39.44) rotate(-38.69)"/><rect class="cls-16" x="40.74" y="51.34" width="0.28" height="5.46" transform="translate(-24.82 37.42) rotate(-38.69)"/><rect class="cls-16" x="36.26" y="54.93" width="0.28" height="5.46" transform="translate(-28.06 35.44) rotate(-38.72)"/><rect class="cls-16" x="31.78" y="58.52" width="0.28" height="5.46" transform="translate(-31.28 33.39) rotate(-38.69)"/><rect class="cls-16" x="27.3" y="62.11" width="0.29" height="5.46" transform="translate(-34.51 31.39) rotate(-38.69)"/><rect class="cls-16" x="22.82" y="65.7" width="0.28" height="5.46" transform="translate(-37.73 29.37) rotate(-38.69)"/><rect class="cls-16" x="18.34" y="69.28" width="0.28" height="5.46" transform="translate(-40.96 27.36) rotate(-38.69)"/><rect class="cls-16" x="13.86" y="72.87" width="0.28" height="5.46" transform="translate(-44.19 25.35) rotate(-38.7)"/><rect class="cls-21" x="57.73" y="36.46" width="27.66" height="3.15" transform="translate(-8.07 53.09) rotate(-38.7)"/><rect class="cls-22" x="52.18" y="29.53" width="27.66" height="3.15" transform="translate(-4.96 48.1) rotate(-38.7)"/><rect class="cls-23" x="-7.86" y="47.04" width="106.67" height="1.03" transform="translate(-19.75 38.87) rotate(-38.69)"/><polygon class="cls-23" points="61.18 47.25 63.19 49.75 86.19 31.32 84.24 28.88 87.5 26.27 89.45 28.71 95.09 24.19 92.51 20.97 9.26 87.66 9.84 88.38 61.18 47.25"/><path class="cls-24" d="M81,18.47l5.81-4.66-1.94-2.42L71,.67A16.09,16.09,0,0,0,68.21,0C68,.13,67,1,67,1Z"/><path class="cls-25" d="M76.52,22l-5.81,4.65-1.95-2.42L61.33,8.39a16.52,16.52,0,0,1,0-2.84c.17-.18,1.24-1,1.24-1Z"/><polygon class="cls-26" points="67.84 22.3 68.76 24.26 70.71 26.68 76.52 22.03 73.26 17.96 67.84 22.3"/><rect class="cls-27" x="73.44" y="39.47" width="1.63" height="3.81" transform="translate(-9.57 55.51) rotate(-38.7)"/><rect class="cls-28" x="73.91" y="41.87" width="3.34" height="2.34" rx="0.21" transform="translate(-10.32 56.7) rotate(-38.7)"/><rect class="cls-16" x="76.37" y="41.12" width="0.31" height="2.34" transform="translate(-9.64 57.12) rotate(-38.69)"/><rect class="cls-16" x="75.9" y="41.49" width="0.31" height="2.34" transform="translate(-9.98 56.93) rotate(-38.71)"/><rect class="cls-16" x="75.43" y="41.87" width="0.31" height="2.34" transform="translate(-10.32 56.7) rotate(-38.69)"/><rect class="cls-16" x="74.96" y="42.25" width="0.31" height="2.34" transform="translate(-10.65 56.53) rotate(-38.72)"/><rect class="cls-16" x="74.49" y="42.62" width="0.31" height="2.34" transform="translate(-10.99 56.28) rotate(-38.69)"/><rect class="cls-29" x="50.81" y="26.88" width="27.74" height="5.1" transform="translate(-4.2 46.9) rotate(-38.7)"/><path class="cls-30" d="M9.55,84.94a.92.92,0,0,0-.14,1.3.91.91,0,0,0,1.29.14.92.92,0,1,0-1.15-1.44Z"/><path class="cls-31" d="M6.63,81.3A.92.92,0,0,0,6.77,80a.91.91,0,0,0-1.29-.14A.92.92,0,1,0,6.63,81.3Z"/><path class="cls-32" d="M84.61,32.58l1.54-1.21.46.58.34-.27,1.38,1.73-.34.27,3.26,4.07c.89-.72-1.91-7.6-1.91-7.6l-2.63-3.28.68-.54L90,29.61s6.1,4.23,7,3.52l-3.25-4.07-.34.28L92,27.61l.34-.27-.47-.59,3.19-2.56L92.37,20.8,60.47,46.36l2.72,3.39Z"/><path class="cls-33" d="M84.61,32.58l1.54-1.21.46.58.34-.27,1.38,1.73-.34.27,3.26,4.07c.89-.72-1.91-7.6-1.91-7.6l-2.63-3.28.68-.54L90,29.61s6.1,4.23,7,3.52l-3.25-4.07-.34.28L92,27.61l.34-.27-.47-.59,3.19-2.56L92.37,20.8,60.47,46.36l2.72,3.39Z"/><polygon class="cls-34" points="85.24 32.08 83.29 29.65 86.73 26.89 86.71 26.87 87.36 26.35 86.61 25.42 82.52 28.69 81.92 29.18 81.91 29.19 84.62 32.58 85.24 32.08"/><path class="cls-16" d="M92,27.62,91,28.5,93.72,32c1.47.83,2.9,1.5,3.29,1.18l-3.25-4.07-.34.28Z"/><path class="cls-16" d="M63.9,10.37l-2.65-3.3a5.63,5.63,0,0,1,0-1.52c.17-.18,1.24-1,1.24-1L65.9,8.77Z"/><path class="cls-16" d="M72.34,3.61,69.69.31A5.21,5.21,0,0,0,68.21,0C68,.13,67,1,67,1l3.37,4.2Z"/><path class="cls-35" d="M81.6,33.1A.85.85,0,1,0,80.4,33,.85.85,0,0,0,81.6,33.1Z"/><path class="cls-36" d="M73.09,39.92a.86.86,0,0,0,.13-1.2.85.85,0,0,0-1.2-.13.85.85,0,1,0,1.07,1.33Z"/><path class="cls-37" d="M64.57,46.74a.85.85,0,1,0-1.2-.13A.85.85,0,0,0,64.57,46.74Z"/><path class="cls-38" d="M73.86,23.44a.85.85,0,1,0-1.2-.13A.86.86,0,0,0,73.86,23.44Z"/><path class="cls-39" d="M65.35,30.26a.85.85,0,1,0-1.2-.13A.85.85,0,0,0,65.35,30.26Z"/><path class="cls-40" d="M56.83,37.08a.86.86,0,0,0,.14-1.2.87.87,0,0,0-1.21-.13.86.86,0,0,0-.13,1.2A.85.85,0,0,0,56.83,37.08Z"/><path class="cls-16" d="M83.23,25c-.27-.33-.3-.62-.08-.8s.48-.08.74.25.27.63.07.79S83.48,25.33,83.23,25Zm.53-.44c-.21-.26-.41-.35-.53-.25s-.07.33.13.58.39.35.52.24S84,24.84,83.76,24.57Z"/><path class="cls-16" d="M79.38,28.69h0l.1-.23.1.08-.12.29-.11.1-.8-1,.13-.1Z"/><path class="cls-16" d="M74.53,31.15l.07.08,0,.19c-.06.44-.07.66.05.81a.23.23,0,0,0,.35,0,.48.48,0,0,0,.15-.25l.12.06a.62.62,0,0,1-.2.32.36.36,0,0,1-.54,0c-.15-.19-.13-.44-.08-.81l0-.14h0l-.44.36-.09-.11Z"/><path class="cls-16" d="M70.13,34.93a.56.56,0,0,0-.27.11.25.25,0,0,0-.07.37.29.29,0,0,0,.42,0l.07-.06.08.1-.07.06a.25.25,0,0,0-.09.34.2.2,0,0,0,.3,0,.54.54,0,0,0,.14-.22l.12.07a.7.7,0,0,1-.2.28.32.32,0,0,1-.48,0,.31.31,0,0,1,0-.38h0a.34.34,0,0,1-.43-.08.41.41,0,0,1,.12-.59.66.66,0,0,1,.32-.14Z"/><path class="cls-16" d="M65.16,38.66l.21.27.47-.37.07.09.06,1-.14.11-.5-.61-.14.11-.08-.11.14-.11L65,38.76Zm.3.37.26.34a.61.61,0,0,1,.12.16h0a1.91,1.91,0,0,1,0-.21l0-.53h0Z"/><path class="cls-16" d="M61.19,43.28l.38-.3-.17-.29-.07.07a.56.56,0,0,1-.26.12.38.38,0,0,1-.35-.14.46.46,0,0,1,.1-.64.62.62,0,0,1,.3-.13l.05.12a.65.65,0,0,0-.26.12.27.27,0,0,0-.06.4c.1.13.26.15.46,0a.79.79,0,0,0,.13-.13l.32.53-.48.38Z"/><path class="cls-16" d="M56.77,46.85l.1-.09a.52.52,0,0,0,.06-.63h0a.33.33,0,0,1-.14.3.37.37,0,0,1-.56-.08.41.41,0,0,1,.05-.61.47.47,0,0,1,.69.14.79.79,0,0,1,.19.58.75.75,0,0,1-.2.41l-.09.08Zm-.42-.6a.26.26,0,0,0,.39.06.28.28,0,0,0,.09-.28.13.13,0,0,0,0-.07c-.13-.16-.31-.22-.45-.11A.28.28,0,0,0,56.35,46.25Z"/><path class="cls-16" d="M52.18,50.68l-.07-.09-.29-1.25.14-.11.27,1.22h0l.48-.39.09.11Z"/><path class="cls-16" d="M47.87,52.92a.36.36,0,0,1,0,.42h0a.33.33,0,0,1,.34.09.36.36,0,0,1-.1.51.32.32,0,0,1-.51-.37h0a.34.34,0,0,1-.4-.09.39.39,0,0,1,.1-.56A.37.37,0,0,1,47.87,52.92Zm-.53.43c.1.12.23.12.39,0a.29.29,0,0,0,0-.35.23.23,0,0,0-.35,0A.23.23,0,0,0,47.34,53.35Zm.77.2c-.08-.09-.2-.09-.34,0a.24.24,0,0,0,0,.3.19.19,0,0,0,.29,0A.21.21,0,0,0,48.11,53.55Z"/><path class="cls-16" d="M43.18,56.42l-.11.09a.5.5,0,0,0-.13.26.64.64,0,0,0,.08.37h0a.36.36,0,0,1,.15-.29.35.35,0,0,1,.53.06.44.44,0,0,1-.05.63c-.21.16-.46.1-.67-.16a.82.82,0,0,1-.2-.6.65.65,0,0,1,.18-.36l.12-.11Zm.41.61a.25.25,0,0,0-.36-.06.27.27,0,0,0-.11.26.14.14,0,0,0,0,.06c.14.17.3.25.45.14A.28.28,0,0,0,43.59,57Z"/><path class="cls-16" d="M39.54,60.6h0l.09-.23.11.08-.12.29-.12.09-.79-1,.13-.11Z"/><path class="cls-16" d="M38.1,61.16c-.27-.33-.29-.62-.07-.8s.47-.08.74.25.27.63.06.79S38.36,61.48,38.1,61.16Zm.53-.44c-.21-.26-.4-.35-.53-.25s-.07.33.13.58.39.35.53.24S38.85,61,38.63,60.72Z"/><path class="cls-16" d="M35,64.25h0l.09-.23.11.08-.12.29-.12.1-.79-1,.13-.1Z"/><path class="cls-16" d="M34.21,64.87h0l.1-.23.11.08L34.3,65l-.12.09-.79-1,.12-.1Z"/><path class="cls-16" d="M30.57,67.79h0l.1-.23.11.08-.13.29-.11.09-.8-1,.13-.11Z"/><path class="cls-16" d="M29.38,67.32l.07.08,0,.18c-.06.45-.08.67,0,.82a.23.23,0,0,0,.35,0,.5.5,0,0,0,.15-.26l.12.06a.61.61,0,0,1-.2.33.36.36,0,0,1-.54,0c-.15-.19-.13-.44-.08-.81l0-.14h0l-.44.35-.09-.11Z"/><path class="cls-16" d="M26.08,71.39h0l.1-.23.11.08-.13.29-.11.1-.8-1,.13-.1Z"/><path class="cls-16" d="M25,71.09a.56.56,0,0,0-.27.12.25.25,0,0,0-.08.37c.12.14.29.09.42,0l.08-.06.08.1-.08.06a.26.26,0,0,0-.09.35.2.2,0,0,0,.3,0,.41.41,0,0,0,.14-.23l.12.07a.61.61,0,0,1-.2.29c-.2.15-.38.11-.47,0a.3.3,0,0,1,0-.38h0a.34.34,0,0,1-.43-.07.41.41,0,0,1,.13-.59.64.64,0,0,1,.31-.14Z"/><path class="cls-16" d="M21.63,75h0l.1-.23.11.08-.12.29-.12.09-.79-1,.13-.1Z"/><path class="cls-16" d="M20,74.81l.22.27.46-.37.07.09.06,1-.14.11-.5-.62-.13.12L20,75.29l.14-.11-.22-.27Zm.3.37.27.33.12.16h0c0-.08,0-.14,0-.21l0-.54h0Z"/><path class="cls-16" d="M17.12,78.57h0l.1-.23.11.08-.13.29-.11.1-.8-1,.13-.1Z"/><path class="cls-16" d="M16,79.45l.38-.31-.16-.28-.08.07a.68.68,0,0,1-.26.12.37.37,0,0,1-.34-.15.43.43,0,0,1,.09-.63.65.65,0,0,1,.3-.14l0,.13a.53.53,0,0,0-.26.12.28.28,0,0,0-.06.4c.1.13.26.15.46,0a.79.79,0,0,0,.13-.12l.32.53-.48.38Z"/><path class="cls-41" d="M81.5,102.62c-.84,3-3.28,12.08,1.68,18.33,0,0-1.81,10.42-11.41,9.52s-6.6-7.5-6.6-7.5,6-4.24,4.15-15.54C67.72,97.53,81.5,102.62,81.5,102.62Z"/><path class="cls-42" d="M68.09,119.1c3.73-.95,5.25-2.08,6.67-4.41,2.39-3.9,1-8.35,1.29-12.4-3.91-.65-7.74-1.11-6.73,5.14C70.19,112.84,69.28,116.61,68.09,119.1Z"/><path class="cls-42" d="M75.85,101.33A22.59,22.59,0,0,1,77.53,112c-.2,3.91-.6,7.83.29,11.7a27.05,27.05,0,0,0,1.54,4.32A14.1,14.1,0,0,0,83.18,121c-5-6.25-2.52-15.3-1.68-18.33A22,22,0,0,0,75.85,101.33Z"/><path class="cls-16" d="M92.73,156.25c-2.12-.73-2.64-3.4-3.47-5.48A56.6,56.6,0,0,0,86,145.05,19.56,19.56,0,0,1,84.59,130a48.41,48.41,0,0,0,1.53-4.64,6.23,6.23,0,0,0-.61-4.72c-.93-1.42-1.94-1.88-2.81-3.33-1.17-1.94-1.76-2.59-.66-6.9.56-2.19.9-4.81-.67-6.44a23.64,23.64,0,0,1,8,.37c2.58.72,5,2.54,5.75,5.12a22.53,22.53,0,0,1,.38,4.27,5,5,0,0,0,1.76,3.77c1,.67,2.27.69,3.42,1a6.76,6.76,0,0,1,4.64,7.42c-.37,2.06-1.71,3.87-2,6-.5,4.09,3.27,7.56,3.63,11.66a9.65,9.65,0,0,1-3.06,7.41,25.1,25.1,0,0,1-6.91,4.5C95.69,156.09,94.15,156.74,92.73,156.25Z"/><path class="cls-43" d="M65.77,125.4s-7.62-2.32-11.09-1c-5.37,2.12-10,33.72-13.25,34.36S20.07,147,20.07,147l-7.36,8.11s17.94,17.22,31.58,18.76c9.93,1.12,17-23.41,18.13-25.82S65.77,125.4,65.77,125.4Z"/><path class="cls-44" d="M57.33,124c0,.07,0,.14,0,.21a2.27,2.27,0,0,1,.67,1.89,13.43,13.43,0,0,1-2.4,7.29c-.43.57-.93,1.17-1.46,1.78-.45,1.14-.94,2.28-1.52,3.45-2.23,4.52-.57,8.63-1.92,13.1-1.19,3.89-5.56,7.06-4.26,11.31.52,1.69.33,4.56-1.44,5.54C39,172,34.31,165,29.46,161.06l-.31-.26a11.47,11.47,0,0,0-3.44-2c-3.88-1.27-7.9-3.36-10.39-6.58l-2.61,2.87s17.94,17.22,31.58,18.76c9.93,1.12,17-23.41,18.13-25.82s3.35-22.64,3.35-22.64A33.41,33.41,0,0,0,57.33,124Z"/><path class="cls-45" d="M93.36,187.67H52.66c-.19-5.76-.62-19.67-.44-28.11.22-10.84,2.46-35.11,2.46-35.11l11.11-2.77c10.87,11.53,17.39-.73,17.39-.73s4.51-1.75,14.72,4.84,6.26,18.12,1.48,29.65C95.75,164.2,94,180.39,93.36,187.67Z"/><path class="cls-46" d="M57.17,167.8c.18,2,3.71,4.61,1.27,9.17-1,1.91-1.94,3-2.83,5a6.42,6.42,0,0,0,.28,5.71H52.66c-.19-5.76-.62-19.67-.44-28.11,0-.68,0-1.41.06-2.18,0-1.16.1-2.42.17-3.74,0-.44,0-.89.08-1.35.08-1.36.16-2.78.26-4.23.13-1.92.27-3.89.41-5.84s.3-3.85.44-5.66c0-.45.08-.9.11-1.33.14-1.76.28-3.39.4-4.82,0-.36.07-.71.09-1,.06-.67.12-1.28.16-1.83.17-1.93.28-3.09.28-3.09l3.38-.84a47.18,47.18,0,0,0-.11,7.8c.34,3.05,2.43,5.84,3.31,8.74,1.36,4.45-1.31,6.46-2,10.26-.2,1.07,1.14,4.6,2.91,9.34C60.22,162.3,56.87,164.39,57.17,167.8Z"/><path class="cls-47" d="M93.36,187.67H82.64a6.85,6.85,0,0,0-1.41-2.89c-2.11-2.56-4.75-5.41-2.57-8.92A23.81,23.81,0,0,0,81,171.13c.84-2.38.23-4.92-.79-7.25a26.57,26.57,0,0,0-.32-3.58c-.8-5.49-2.75-9.22-.94-14.92,1.53-4.79,6.17-8.56,9.22-12.42a25.5,25.5,0,0,0,1.55-2.17h13c3.62,6.65.39,15.65-3.34,24.65C95.75,164.2,94,180.39,93.36,187.67Z"/><path class="cls-41" d="M67,87.8c-3.66.32-7.15,1.52-9,4.79a12,12,0,0,0-.65,4.54c0,4.06-1.23,6.77.81,12.31.12.35,1,3.08,2.11,6.47.73,2.25,5.6,2,8.16.46,6.17-3.67,6.88-5.53,10.3-9,0,0,9.3-.13,4.29-11.66-2.06-4.75-6.77-5.37-11.91-7.34A9.39,9.39,0,0,0,67,87.8Z"/><path class="cls-48" d="M57.23,102.12a1.17,1.17,0,1,0,1.27-1A1.15,1.15,0,0,0,57.23,102.12Z"/><path class="cls-48" d="M63.86,103a1.36,1.36,0,0,0,1.32,1.37,1.25,1.25,0,1,0,.24-2.47A1.37,1.37,0,0,0,63.86,103Z"/><path class="cls-49" d="M61.07,109.66h.14a.39.39,0,0,0,.41-.36.38.38,0,0,0-.39-.38c-.84,0-1.38-.19-1.53-.45-.25-.42.3-1.27.71-1.9.16-.25.31-.47.41-.67a4.31,4.31,0,0,0,.57-2.14.39.39,0,0,0-.39-.39.38.38,0,0,0-.42.34,3.65,3.65,0,0,1-.49,1.87c-.09.17-.23.38-.38.61-.53.82-1.19,1.84-.72,2.63C59.29,109.33,60,109.6,61.07,109.66Z"/><path class="cls-50" d="M60.79,112.57a3.91,3.91,0,0,0,2.94-1,.34.34,0,1,0-.41-.53c-2.25,1.74-3.52.37-3.57.31a.33.33,0,0,0-.47,0,.35.35,0,0,0,0,.48A2.73,2.73,0,0,0,60.79,112.57Z"/><path class="cls-48" d="M68.38,101a.38.38,0,0,0,.27-.68,7.29,7.29,0,0,0-5.12-1.08.38.38,0,0,0,.14.74,6.61,6.61,0,0,1,4.55,1A.37.37,0,0,0,68.38,101Z"/><path class="cls-48" d="M57.4,98c0,.25,0,.5,0,.74a4.58,4.58,0,0,1,1.88.39.38.38,0,0,0,.5-.18.38.38,0,0,0-.17-.5A5.54,5.54,0,0,0,57.4,98Z"/><path class="cls-16" d="M85.28,105.26c-1.19,1.09-5.23,3.64-5.55,3.35-.91-.82-1.26-3.24-1.46-4.54,0,0,5.57-4,2.25-6.55-4.33-3.31-5.51,3.78-5.86,5.54s-2.55,2.44-2.44-1.26-4.89-5-4.26-13.49,10.62-11,15.66-4.89C88.46,89.25,95,96.32,85.28,105.26Z"/><path class="cls-16" d="M16.24,121.57,7.43,156.42S18.06,161.58,42,167.05l12-34.06S36.81,128.7,16.24,121.57Z"/><polygon class="cls-51" points="32 130.21 31.13 131.89 20.01 129.06 20.42 127.74 32 130.21"/><path class="cls-51" d="M44.7,135.75l-1.6.4,2.4-1.37s.17,2,.29,2.36l-.69-1.35L42.25,143h0l1.48-.52-1.84,1.4-.81-2.55,1,1.35A16,16,0,0,1,44.7,135.75Z"/><path class="cls-51" d="M45.79,137.14l0,.06S45.8,137.18,45.79,137.14Z"/><path class="cls-51" d="M34.7,133.06l-1.6.4,2.4-1.37s.17,2,.29,2.37l-.69-1.35-2.85,7.19h0l1.48-.52-1.83,1.41-.81-2.56L32,140A16.12,16.12,0,0,1,34.7,133.06Z"/><path class="cls-51" d="M35.79,134.46l0,.06Z"/><path class="cls-51" d="M30.94,144.74l-.84,4.47,8.37,2.86,1.88-4.72Zm.16,3.71.47-2.58L39.35,148l-1.18,3.16Z"/><polygon class="cls-51" points="41.7 144.02 31.8 140.89 32.25 140.3 41.6 143.48 41.7 144.02"/><polygon class="cls-51" points="45.5 134.78 45.09 135.79 35.1 132.78 35.5 132.09 45.5 134.78"/><polygon class="cls-51" points="45.3 140.32 41.48 139.22 41.79 138.53 45.66 139.69 45.3 140.32"/><polygon class="cls-51" points="40.01 138.51 36.19 137.41 36.5 136.72 40.38 137.88 40.01 138.51"/><polygon class="cls-51" points="34.72 136.7 30.9 135.6 31.21 134.91 35.09 136.07 34.72 136.7"/><polygon class="cls-51" points="29.19 135.2 25.37 134.1 25.68 133.41 29.55 134.57 29.19 135.2"/><polygon class="cls-51" points="23.7 133.42 19.89 132.32 20.2 131.63 24.07 132.79 23.7 133.42"/><path class="cls-51" d="M28.8,139l-.37,1.09-8.68-2.15.12-.78S27,138.56,28.8,139Z"/><polygon class="cls-51" points="26.11 139.26 24.9 146.94 29.26 148.65 27.15 156.51 22.86 155.76 22.12 158.26 20.99 157.84 22.12 154.74 26.44 155.32 28.34 149.4 23.67 147.47 25.43 138.89 26.11 139.26"/><path class="cls-51" d="M18.59,139.88l-.84,4.06,4.72.69.41-4Zm-.09,3.48.57-2.67,2.95.43-.38,2.75Z"/><polygon class="cls-51" points="26.97 151.52 24.14 151.09 24.24 150.55 26.98 151.01 26.97 151.52"/><polygon class="cls-51" points="23.18 150.4 23.07 150.95 20.61 150.53 20.82 150.07 23.18 150.4"/><polygon class="cls-51" points="19.66 149.81 19.4 150.47 17 150.09 17.19 149.68 19.66 149.81"/><polygon class="cls-51" points="16.23 149.6 16.11 149.99 13.83 149.67 13.93 149.1 16.23 149.6"/><path class="cls-41" d="M54.81,156a20,20,0,0,1-1.19-2.06,14.93,14.93,0,0,0-3-4.22,7.62,7.62,0,0,0-2-1.32s-1.51,3.08-1.94,3.07c-1.67,0-4.21-1.49-6.29-2.34-2.92-1.18-5.49,0-2,1.72a34.54,34.54,0,0,0,5.72,2.38s-4.69-1.57-6-2.24c-2.24-1.18-4.53-.56-2.88,1a10,10,0,0,0,3.36,1.82,34.48,34.48,0,0,0,4.77,1.71s-5.17-1.37-6.21-1.84c-1.43-.66-3.5.43-.55,2a12.87,12.87,0,0,0,2.87,1.09c1.16.31,3.2.8,3.67.9,0,0-2.72-.32-3.62-.53s-2.49-1.19-2.76-.08,4.79,2.74,8,2.79a24.69,24.69,0,0,1,7.31,1.65c.85.26,4.34-3.14,4.34-3.14Z"/><path class="cls-41" d="M16.06,145a30.84,30.84,0,0,1-3.43-1.41A30,30,0,0,0,16,144.69c3,.82,1.94-1.71-.45-2.63-.78-.3-1.68-.56-2.52-.86A2.52,2.52,0,0,0,10,142.41c-1,2-1.62,6-.63,6.65,2,1.38,4.37,2.33,4.64,1.53.36-1-1.09-1.28-1.76-1.68a12.23,12.23,0,0,1-1.39-1.06c.34.22.73.31,1.6.8a9.11,9.11,0,0,0,2.31,1c2.59.63,1.83-1.54.62-1.93a44.52,44.52,0,0,1-4-2.06,16,16,0,0,0,3,1.25,6.56,6.56,0,0,0,3,.71C19.16,147.38,18,145.45,16.06,145Z"/><path class="cls-52" d="M54.66,152.56,48,162.77s24,18.88,34.75,15.37,26-36.82,21.2-45.42-11.79-8.08-16.37.95-5.88,31.1-8.64,30.25S54.66,152.56,54.66,152.56Z"/><path class="cls-53" d="M103.92,132.72c-.26-.48-.54-.92-.82-1.34.51,7.43-.33,16.23-4.76,21.26-1.43,1.62-3.23,2.8-4.68,4.38-2.28,2.49-2,5.07-2.87,8a16.7,16.7,0,0,1-5.55,8.21,6.81,6.81,0,0,1-7.72.56c-4-2.12-8.52-.31-12.26-3.23a54.33,54.33,0,0,1-4.73-4.5c-2.17-2.13-4.74-2-7.2-3.22a12.3,12.3,0,0,1-3.57-2.8L48,162.77s24,18.88,34.75,15.37S108.72,141.32,103.92,132.72Z"/><path class="cls-54" d="M55.87,88.88S63.8,95.39,70.16,93c5.28-2,15.45-.87,18.59-4.45a2.8,2.8,0,0,0-2-4.59h-.07s-.77-15.73-16.34-13.71C56,72.08,56.72,83.2,55.87,88.88Z"/><path class="cls-55" d="M70.4,90.37c4.67-.27,14.46-.93,16.21-6.67,0,.15,0,.24,0,.24h.07a2.8,2.8,0,0,1,2,4.59C85.61,92.11,75.44,91,70.16,93c-6.36,2.41-14.29-4.1-14.29-4.1,0-.28.08-.56.11-.86C56,88,59.93,91,70.4,90.37Z"/><path class="cls-56" d="M85.77,84.42h.07a2.7,2.7,0,0,1,2.41,3.79,4.75,4.75,0,0,1-1.78,2c-2.27,1.09-5.51,1.46-8.82,2.19.37-4.69.44-9.51-.87-14-.68-2.37-1.5-4.57-3.41-6.2a11.6,11.6,0,0,0-2.69-1.58C85,69.54,85.77,84.42,85.77,84.42Z"/><path class="cls-57" d="M87,84C89.33,85,85.6,92.25,65.2,91.4a17.19,17.19,0,0,1-9.28-2.84c-1.17.8-4.79,3.55-4,5.36S62,98,70,96.9C78.23,95.72,86.3,92,89.17,88.5a2.73,2.73,0,0,0-1.26-4.37A4.58,4.58,0,0,0,87,84Z"/><path class="cls-56" d="M79.3,90.38c8-1.9,9.34-5.67,7.73-6.42a4.58,4.58,0,0,1,.88.17,2.73,2.73,0,0,1,1.26,4.37c-1.81,2.21-5.71,4.51-10.42,6.2A6.58,6.58,0,0,0,79.3,90.38Z"/><polygon class="cls-58" points="85.31 83.22 83.74 82.36 78.95 84.15 79.39 90.41 80.96 91.26 85.31 83.22"/><polygon class="cls-59" points="85.72 89.11 85.31 83.22 80.52 85 80.96 91.26 85.72 89.11"/><path class="cls-60" d="M64.73,83.33c-.52,1.79,0,4.06-1.4,5.26a2.92,2.92,0,0,1-3.85-.47,5.43,5.43,0,0,1-1.21-4c0-1.42.41-2.82.55-4.24a6.36,6.36,0,0,0-.47-2.38,12.83,12.83,0,0,1,7.79-6.35c.34,0,.71.11,1.12.2a9.14,9.14,0,0,1,4.62,2.69,3.25,3.25,0,0,1-.15,4A6.87,6.87,0,0,1,69,79.38,6.53,6.53,0,0,0,64.73,83.33Z"/><path class="cls-61" d="M80.58,99.43a3.27,3.27,0,0,0-2.74-.5,2.75,2.75,0,0,0-1.33,3.51c.3.72,1.94,1.38,2.15-.92C78.76,100.28,79.18,99.85,80.58,99.43Z"/><path class="cls-62" d="M76.59,105a1.64,1.64,0,1,0,1.63-1.63A1.63,1.63,0,0,0,76.59,105Z"/><polygon class="cls-63" points="67.78 119.73 60.55 122.99 65.77 132.99 71.8 126.04 67.78 119.73"/><polygon class="cls-63" points="81.36 117.83 71.8 126.04 75.39 133.65 87.23 121 81.36 117.83"/></g></g></g></svg>