<svg xmlns="http://www.w3.org/2000/svg" viewBox="0 0 225 225"><defs><style>.cls-1{isolation:isolate;}.cls-2{fill:#2980b9;}.cls-3{fill:#1e608a;}.cls-4{fill:#f1dd8e;}.cls-5{fill:#bdad6f;}.cls-6{fill:#34495e;}.cls-7{fill:#486582;}.cls-8{fill:#968a58;}.cls-9{fill:#2ecc71;}.cls-10{fill:#39ff8d;}.cls-11{fill:#575033;}.cls-12{fill:#3aff8d;}.cls-13{fill:#f1c40f;}.cls-14{fill:#ffd429;}.cls-15{fill:#95a5a6;}.cls-16{fill:#e67e22;}.cls-17,.cls-21,.cls-24{fill:#fff;}.cls-17{opacity:0.4;}.cls-17,.cls-21{mix-blend-mode:overlay;}.cls-18{fill:#c0392b;}.cls-19{opacity:0.5;}.cls-20{fill:#2c3e50;}.cls-21{opacity:0.3;}.cls-22{fill:#ffe88a;}.cls-23{fill:#f39c12;}.cls-24{font-size:13.16px;font-family:MyriadPro-Regular, Myriad Pro;}.cls-25{letter-spacing:0em;}.cls-26{letter-spacing:-0.04em;}</style></defs><g class="cls-1"><g id="Capa_2" data-name="Capa 2"><g id="Layer_1" data-name="Layer 1"><rect class="cls-2" width="225" height="225"/><path class="cls-3" d="M30.15,169.79h164.7a10.32,10.32,0,0,0,10.32-10.33H19.83A10.32,10.32,0,0,0,30.15,169.79Z"/><path class="cls-3" d="M116.81,44.42v115H181v-115Zm34.49,91.07H124.11V120.92H151.3Zm0-35H124.11V86H151.3Zm0-35H124.11V51H151.3Zm21.18,83.36H155.65v-28h16.83Zm0-35H155.65V86h16.83Zm0-35H155.65V51h16.83Z"/><rect class="cls-3" x="114.74" y="153.45" width="68.29" height="6.01"/><path class="cls-3" d="M44.2,119.2v40.26h61.1V119.2Zm33.29,17.45H51.61V122.79H77.49Zm20.15,12.78h-16V122.79h16Z"/><path class="cls-3" d="M44.2,79.87v40.27h61.1V79.87ZM77.49,97.32H51.61V83.46H77.49ZM97.64,110.1h-16V83.46h16Z"/><rect class="cls-3" x="38.72" y="152.27" width="71.78" height="7.2"/><path class="cls-3" d="M98.62,32.89,44.5,36.69a3,3,0,0,1,.8,1L97.75,34A3.93,3.93,0,0,1,98.62,32.89Z"/><polygon class="cls-3" points="99.52 56.32 103.47 49.76 104.35 50.37 99.52 56.32"/><polygon class="cls-3" points="108.31 56.32 103.47 50.37 104.35 49.76 108.31 56.32"/><path class="cls-3" d="M103.38,39.83V50.4h1.06V39.05c-.06.06-.16.09-.23.15A3.43,3.43,0,0,1,103.38,39.83Z"/><path class="cls-3" d="M41.05,57.74V42A2.75,2.75,0,0,1,40,41V57.74Z"/><path class="cls-3" d="M45.65,39.08v.37l33.27,2V39.52A6.86,6.86,0,0,1,79.38,37Z"/><rect class="cls-3" x="97.85" y="63.78" width="12.12" height="2.93"/><rect class="cls-3" x="97.85" y="60.05" width="12.12" height="2.93"/><rect class="cls-3" x="97.85" y="56.32" width="12.12" height="2.93"/><path class="cls-3" d="M97.16,36.1l-5.7.33a6.56,6.56,0,0,1,.73,3l5.18-2.21A4.46,4.46,0,0,1,97.16,36.1Z"/><path class="cls-3" d="M98.33,76.71,91,39.05a5.35,5.35,0,0,0-10.69,0L72.9,76.71H70v3.16h31.33V76.71ZM94.6,74.17,80.48,57.87H91.41ZM90.48,53.12l-7.15-9a5.3,5.3,0,0,0,2.28.52,5.39,5.39,0,0,0,3-.93ZM85.61,36.65A2.61,2.61,0,1,1,83,39.26,2.61,2.61,0,0,1,85.61,36.65Zm-3.33,8.68,8.69,11H80.13ZM76.13,76.71l3.42-17.49L94.7,76.71Z"/><path class="cls-3" d="M101.17,32.49a3.57,3.57,0,1,0,3.57,3.56A3.56,3.56,0,0,0,101.17,32.49Zm0,6.11a2.55,2.55,0,1,1,2.54-2.55A2.55,2.55,0,0,1,101.17,38.6Z"/><path class="cls-3" d="M101.17,34.75a1.31,1.31,0,1,0,1.3,1.3A1.31,1.31,0,0,0,101.17,34.75Zm0,1.9a.6.6,0,1,1,.6-.6A.6.6,0,0,1,101.17,36.65Z"/><path class="cls-3" d="M42.6,36.65a2.61,2.61,0,1,0,2.61,2.61A2.61,2.61,0,0,0,42.6,36.65Zm0,4.39a1.78,1.78,0,1,1,1.78-1.78A1.78,1.78,0,0,1,42.6,41Z"/><path class="cls-3" d="M42.6,38.35a.92.92,0,1,0,.91.91A.92.92,0,0,0,42.6,38.35Zm0,1.33a.41.41,0,0,1-.42-.42.42.42,0,1,1,.83,0A.41.41,0,0,1,42.6,39.68Z"/><path class="cls-3" d="M43,58.63a.85.85,0,0,1,.85.86v1.18l-1.72,2.38H39l-1.72-2.38V59.49a.85.85,0,0,1,.85-.86Zm0-.53H38.08a1.39,1.39,0,0,0-1.39,1.39v1.35l2,2.74h3.67l2-2.74V59.49A1.38,1.38,0,0,0,43,58.1Z"/><path class="cls-3" d="M38.28,63l-.55-.76,4.18-4.17h1a1.55,1.55,0,0,1,.21,0Zm1.11-4.93-2.7,2.7v0l.53.73,3.47-3.47Zm-.45,5.48h1.3l4.09-4.09a1.37,1.37,0,0,0-.37-.94Z"/><path class="cls-3" d="M40.28,71.64A3.26,3.26,0,0,1,37,68.08a4.74,4.74,0,0,1,1.73-3.45c.41-.42.76-.78.76-1h2.13a3.63,3.63,0,0,1-1.37,2.54c-.69.7-1.11,1.17-1.11,2,0,1,.38,1.43,1.18,1.43a1.23,1.23,0,0,0,1.23-1.24h2.13A3.37,3.37,0,0,1,40.28,71.64Z"/><rect class="cls-3" x="114.64" y="42.12" width="68.39" height="2.3"/><rect class="cls-4" x="83.07" y="92.69" width="58.86" height="48.82" rx="6.67"/><rect class="cls-5" x="90.76" y="90.34" width="43.48" height="53.52" rx="4" transform="translate(229.6 4.6) rotate(90)"/><rect class="cls-6" x="88.15" y="97.54" width="48.71" height="35.56" rx="2.67"/><path class="cls-7" d="M89.46,132.72c7.89-18.47,27.19-32,47.38-32.66a2.66,2.66,0,0,0-2.65-2.52H90.82a2.67,2.67,0,0,0-2.67,2.67v30.23A2.65,2.65,0,0,0,89.46,132.72Z"/><rect class="cls-8" x="98.28" y="141.51" width="28.43" height="3.23"/><polygon class="cls-5" points="133.29 148.1 91.71 148.1 98.28 144.74 126.72 144.74 133.29 148.1"/><rect class="cls-8" x="91.71" y="148.1" width="41.59" height="1.61"/><rect class="cls-4" x="75.49" y="149.71" width="74.03" height="25.13" rx="4"/><path class="cls-5" d="M103.94,127.93h17.13a1.34,1.34,0,0,1,1.34,1.34v66a1.33,1.33,0,0,1-1.33,1.33H103.94a1.33,1.33,0,0,1-1.33-1.33v-66A1.33,1.33,0,0,1,103.94,127.93Z" transform="translate(274.77 49.77) rotate(90)"/><circle class="cls-8" cx="140.82" cy="163.43" r="3.5"/><path class="cls-9" d="M143.6,161.94a3.5,3.5,0,1,1-3.5-3.5A3.5,3.5,0,0,1,143.6,161.94Z"/><path class="cls-10" d="M141.5,161.47a2,2,0,1,1-2-2A2,2,0,0,1,141.5,161.47Z"/><path class="cls-9" d="M140.33,170.57l-.14-3.78a3.82,3.82,0,0,0,.68-.07l.66,3.72A9.78,9.78,0,0,1,140.33,170.57Zm-4.65-1.14a10.89,10.89,0,0,1-1-.67l2.31-3a5.13,5.13,0,0,0,.57.38Zm10.14-1.1-2.53-2.8a5.55,5.55,0,0,0,.48-.49l2.89,2.42A7.66,7.66,0,0,1,145.82,168.33Zm-14-3.43a9.6,9.6,0,0,1-.34-1.16l3.69-.81a4.58,4.58,0,0,0,.19.66Zm16.76-1.81-3.74-.52a5.07,5.07,0,0,0,0-.68l3.78-.11v.14A9.59,9.59,0,0,1,148.61,163.09Zm-13.24-2.85L131.82,159a8.58,8.58,0,0,1,.48-1.12l3.35,1.76A4.46,4.46,0,0,0,135.37,160.24Zm8.77-1a5.23,5.23,0,0,0-.41-.55l2.87-2.46a9.74,9.74,0,0,1,.72,1Zm-6.63-1.59-1.91-3.25a7.26,7.26,0,0,1,1.08-.54l1.45,3.49A4.43,4.43,0,0,0,137.51,157.65Zm4-.45a4.54,4.54,0,0,0-.66-.16l.62-3.72a7.79,7.79,0,0,1,1.18.28Z"/><rect class="cls-8" x="81.02" y="155.26" width="36.92" height="7.67"/><rect class="cls-11" x="81.02" y="165.59" width="36.92" height="2.01"/><path class="cls-12" d="M106.48,99.07H96.25v32.51h32.5V99.07Zm-9.75.48H106v2.51H96.73Zm0,22.87h7.2V125h-7.2ZM128.27,128H104.41v-5.62h23.86Zm-4.47.48v2.58h-3.6v-2.58Zm-27.07-3.05h7.2V128h-7.2Zm0,3.05h23v2.58h-23Zm31.54,2.58h-4v-2.58h4Zm-31.54-9.16v-19.4h9.75v-3h21.79v22.39Z"/><path class="cls-12" d="M113.88,120.49h-2.76l-.61-2.35a7.15,7.15,0,0,1-1.83-.76l-2.09,1.23-2-2,1.22-2.09a7.7,7.7,0,0,1-.76-1.83l-2.34-.62v-2.75l2.34-.62a7.7,7.7,0,0,1,.76-1.83l-1.22-2.09,2-2,2.09,1.23a7.15,7.15,0,0,1,1.83-.76l.61-2.35h2.76l.61,2.35a7.15,7.15,0,0,1,1.83.76l2.09-1.23,2,2-1.22,2.09a7.7,7.7,0,0,1,.76,1.83l2.34.62v2.75l-2.34.62a7.7,7.7,0,0,1-.76,1.83l1.22,2.09-2,2-2.09-1.23a7.15,7.15,0,0,1-1.83.76Zm-2.39-.48h2l.59-2.26.14,0a7,7,0,0,0,2-.81l.12-.07,2,1.17,1.42-1.42-1.18-2,.07-.12a7.34,7.34,0,0,0,.82-2l0-.14,2.26-.59v-2l-2.26-.59,0-.14a7.34,7.34,0,0,0-.82-2l-.07-.12,1.18-2-1.42-1.42-2,1.18-.12-.08a7,7,0,0,0-2-.81l-.14,0-.59-2.26h-2l-.59,2.26-.14,0a7,7,0,0,0-2,.81l-.12.08-2-1.18-1.42,1.42,1.18,2-.07.12a7.34,7.34,0,0,0-.82,2l0,.14-2.26.59v2l2.26.59,0,.14a7.34,7.34,0,0,0,.82,2l.07.12-1.18,2,1.42,1.42,2-1.17.12.07a7,7,0,0,0,2,.81l.14,0Z"/><path class="cls-12" d="M112.5,116.73a6,6,0,1,1,6-6A6,6,0,0,1,112.5,116.73Zm0-11.48a5.5,5.5,0,1,0,5.5,5.5A5.5,5.5,0,0,0,112.5,105.25Z"/><path class="cls-12" d="M112.5,114.22a3.48,3.48,0,1,1,3.47-3.47A3.47,3.47,0,0,1,112.5,114.22Zm0-6.47a3,3,0,1,0,3,3A3,3,0,0,0,112.5,107.75Z"/><rect class="cls-12" x="99.8" y="110.63" width="1.45" height="0.24"/><rect class="cls-12" x="101.7" y="110.63" width="0.46" height="0.24"/><path class="cls-12" d="M123,110.87h-.46v-.24H123Zm-.92,0h-2.78v-.24h2.78Zm-3.24,0h-.46v-.24h.46Zm-.93,0h-2.77v-.24h2.77Zm-3.24,0h-.46v-.24h.46Zm-.92,0H111v-.24h2.78Zm-3.24,0H110v-.24h.46Zm-.92,0h-2.78v-.24h2.78Zm-3.24,0h-.46v-.24h.46Zm-.93,0h-2.77v-.24h2.77Z"/><rect class="cls-12" x="123.44" y="110.63" width="1.44" height="0.24"/><rect class="cls-12" x="112.22" y="100.31" width="0.24" height="1.44"/><rect class="cls-12" x="112.22" y="102.22" width="0.24" height="0.46"/><path class="cls-12" d="M112.46,119.39h-.24v-.46h.24Zm0-.93h-.24v-2.78h.24Zm0-3.25h-.24v-.46h.24Zm0-.92h-.24V111.5h.24Zm0-3.25h-.24v-.47h.24Zm0-.93h-.24v-2.79h.24Zm0-3.25h-.24v-.46h.24Zm0-.93h-.24v-2.78h.24Z"/><rect class="cls-12" x="112.22" y="119.85" width="0.24" height="1.44"/><polygon class="cls-12" points="123.08 103.88 121.42 101.38 121.82 101.11 122.98 102.86 124.12 100.07 127.73 100.07 127.73 100.55 124.44 100.55 123.08 103.88"/><path class="cls-13" d="M91.71,136a1.2,1.2,0,1,1-1.2-1.19A1.19,1.19,0,0,1,91.71,136Z"/><path class="cls-9" d="M162.67,142.18a1.58,1.58,0,1,1-1.58-1.58A1.58,1.58,0,0,1,162.67,142.18Z"/><path class="cls-10" d="M161.72,142a.89.89,0,1,1-.88-.88A.88.88,0,0,1,161.72,142Z"/><path class="cls-9" d="M159,141.15l-1.52-.77a3.24,3.24,0,0,1,.28-.47l1.4,1A2.26,2.26,0,0,0,159,141.15Z"/><path class="cls-9" d="M163,141.19c-.05-.09-.1-.18-.16-.27l1.42-.94a4.39,4.39,0,0,1,.27.47Z"/><path class="cls-9" d="M160.13,140.11l-.67-1.57a4.4,4.4,0,0,1,.51-.18l.46,1.65A1.76,1.76,0,0,0,160.13,140.11Z"/><path class="cls-9" d="M161.93,140.13a1.36,1.36,0,0,0-.28-.11l.48-1.64a4.5,4.5,0,0,1,.51.2Z"/><path class="cls-13" d="M142.85,142.21h22.35a0,0,0,0,1,0,0v34.48a2,2,0,0,1-2,2H144.8a1.95,1.95,0,0,1-1.95-1.95V142.21A0,0,0,0,1,142.85,142.21Z"/><path class="cls-14" d="M146.71,155.85a127.64,127.64,0,0,1,11.69-9.19c2.13-1.51,4.27-3,6.46-4.45h-22v17.31C144.12,158.22,145.44,157,146.71,155.85Z"/><path class="cls-14" d="M151.94,177.48a134.41,134.41,0,0,1,9.89-9.2l3.36-2.79V162.4c-.91.68-1.81,1.37-2.7,2.08-4.1,3.28-8.06,6.75-12,10.27-1.35,1.22-2.77,2.5-4.09,3.88h4.36C151.18,178.25,151.57,177.86,151.94,177.48Z"/><path class="cls-15" d="M145.52,144h16.83a1,1,0,0,1,1,1v8.61a1,1,0,0,1-1,1H145.52a1,1,0,0,1-1-1V145A1,1,0,0,1,145.52,144Z"/><path class="cls-16" d="M149,160.71a2,2,0,1,1-2-2A2,2,0,0,1,149,160.71Z"/><path class="cls-2" d="M148.55,160.22a2,2,0,1,1-2-2A2,2,0,0,1,148.55,160.22Z"/><circle class="cls-17" cx="146.32" cy="160.01" r="1.49"/><path class="cls-16" d="M154,160.71a2,2,0,1,1-2-2A2,2,0,0,1,154,160.71Z"/><path class="cls-2" d="M153.47,160.22a2,2,0,1,1-2-2A2,2,0,0,1,153.47,160.22Z"/><circle class="cls-17" cx="151.24" cy="160.01" r="1.49"/><path class="cls-16" d="M158.89,160.71a2,2,0,1,1-2-2A2,2,0,0,1,158.89,160.71Z"/><path class="cls-2" d="M158.4,160.22a2,2,0,1,1-2-2A2,2,0,0,1,158.4,160.22Z"/><path class="cls-17" d="M156.17,161.5a1.49,1.49,0,1,1,1.49-1.49A1.49,1.49,0,0,1,156.17,161.5Z"/><path class="cls-16" d="M163.82,160.71a2,2,0,1,1-2-2A2,2,0,0,1,163.82,160.71Z"/><path class="cls-2" d="M163.33,160.22a2,2,0,1,1-2-2A2,2,0,0,1,163.33,160.22Z"/><path class="cls-17" d="M161.1,161.5a1.49,1.49,0,1,1,1.49-1.49A1.49,1.49,0,0,1,161.1,161.5Z"/><path class="cls-16" d="M149,165.65a2,2,0,1,1-2-2A2,2,0,0,1,149,165.65Z"/><path class="cls-2" d="M148.55,165.17a2,2,0,1,1-2-2A2,2,0,0,1,148.55,165.17Z"/><path class="cls-17" d="M146.32,166.44A1.49,1.49,0,1,1,147.8,165,1.49,1.49,0,0,1,146.32,166.44Z"/><path class="cls-16" d="M154,165.65a2,2,0,1,1-2-2A2,2,0,0,1,154,165.65Z"/><path class="cls-2" d="M153.47,165.17a2,2,0,1,1-2-2A2,2,0,0,1,153.47,165.17Z"/><path class="cls-17" d="M151.24,166.44a1.49,1.49,0,1,1,1.49-1.48A1.48,1.48,0,0,1,151.24,166.44Z"/><path class="cls-16" d="M158.89,165.65a2,2,0,1,1-2-2A2,2,0,0,1,158.89,165.65Z"/><path class="cls-2" d="M158.4,165.17a2,2,0,1,1-2-2A2,2,0,0,1,158.4,165.17Z"/><path class="cls-17" d="M156.17,166.44a1.49,1.49,0,1,1,1.49-1.48A1.48,1.48,0,0,1,156.17,166.44Z"/><path class="cls-16" d="M163.82,165.65a2,2,0,1,1-2-2A2,2,0,0,1,163.82,165.65Z"/><path class="cls-2" d="M163.33,165.17a2,2,0,1,1-2-2A2,2,0,0,1,163.33,165.17Z"/><path class="cls-17" d="M161.1,166.44a1.49,1.49,0,1,1,1.49-1.48A1.49,1.49,0,0,1,161.1,166.44Z"/><path class="cls-16" d="M149,170.59a2,2,0,1,1-2-2A2,2,0,0,1,149,170.59Z"/><path class="cls-2" d="M148.55,170.11a2,2,0,1,1-2-2A2,2,0,0,1,148.55,170.11Z"/><path class="cls-17" d="M146.32,171.38a1.49,1.49,0,1,1,1.48-1.48A1.49,1.49,0,0,1,146.32,171.38Z"/><path class="cls-16" d="M154,170.59a2,2,0,1,1-2-2A2,2,0,0,1,154,170.59Z"/><path class="cls-2" d="M153.47,170.11a2,2,0,1,1-2-2A2,2,0,0,1,153.47,170.11Z"/><path class="cls-17" d="M151.24,171.38a1.49,1.49,0,1,1,1.49-1.48A1.48,1.48,0,0,1,151.24,171.38Z"/><path class="cls-16" d="M158.89,170.59a2,2,0,1,1-2-2A2,2,0,0,1,158.89,170.59Z"/><path class="cls-2" d="M158.4,170.11a2,2,0,1,1-2-2A2,2,0,0,1,158.4,170.11Z"/><path class="cls-17" d="M156.17,171.38a1.49,1.49,0,0,1,0-3,1.49,1.49,0,1,1,0,3Z"/><path class="cls-16" d="M163.82,170.59a2,2,0,1,1-2-2A2,2,0,0,1,163.82,170.59Z"/><path class="cls-2" d="M163.33,170.11a2,2,0,1,1-2-2A2,2,0,0,1,163.33,170.11Z"/><path class="cls-17" d="M161.1,171.38a1.49,1.49,0,1,1,1.49-1.48A1.49,1.49,0,0,1,161.1,171.38Z"/><path class="cls-16" d="M149,175.54a2,2,0,1,1-2-2A2,2,0,0,1,149,175.54Z"/><path class="cls-2" d="M148.55,175.05a2,2,0,1,1-2-2A2,2,0,0,1,148.55,175.05Z"/><path class="cls-17" d="M146.32,176.33a1.49,1.49,0,1,1,1.48-1.49A1.49,1.49,0,0,1,146.32,176.33Z"/><path class="cls-16" d="M154,175.54a2,2,0,1,1-2-2A2,2,0,0,1,154,175.54Z"/><path class="cls-2" d="M153.47,175.05a2,2,0,1,1-2-2A2,2,0,0,1,153.47,175.05Z"/><path class="cls-17" d="M151.24,176.33a1.49,1.49,0,1,1,1.49-1.49A1.49,1.49,0,0,1,151.24,176.33Z"/><path class="cls-16" d="M158.89,175.54a2,2,0,1,1-2-2A2,2,0,0,1,158.89,175.54Z"/><path class="cls-18" d="M158.4,175.05a2,2,0,1,1-2-2A2,2,0,0,1,158.4,175.05Z"/><path class="cls-17" d="M156.17,176.33a1.49,1.49,0,1,1,1.49-1.49A1.49,1.49,0,0,1,156.17,176.33Z"/><path class="cls-16" d="M163.82,175.54a2,2,0,1,1-2-2A2,2,0,0,1,163.82,175.54Z"/><path class="cls-2" d="M163.33,175.05a2,2,0,1,1-2-2A2,2,0,0,1,163.33,175.05Z"/><path class="cls-17" d="M161.1,176.33a1.49,1.49,0,1,1,1.49-1.49A1.49,1.49,0,0,1,161.1,176.33Z"/><g class="cls-19"><path class="cls-6" d="M162.55,153.72H145.32v-8.88h17.23Zm-17-.24h16.74v-8.4H145.57Z"/><rect class="cls-6" x="145.44" y="152.04" width="16.99" height="0.24"/><rect class="cls-6" x="145.44" y="150.6" width="16.99" height="0.24"/><rect class="cls-6" x="145.44" y="149.16" width="16.99" height="0.24"/><rect class="cls-6" x="145.44" y="147.72" width="16.99" height="0.24"/><rect class="cls-6" x="145.44" y="146.28" width="16.99" height="0.24"/><rect class="cls-6" x="158.06" y="144.96" width="0.24" height="8.64"/><rect class="cls-6" x="153.82" y="144.96" width="0.24" height="8.64"/><rect class="cls-6" x="149.57" y="144.96" width="0.24" height="8.64"/></g><path class="cls-20" d="M145.46,153.86a.25.25,0,0,1,0-.49c.83,0,1.37-2.16,1.84-4.07.58-2.33,1.13-4.53,2.39-4.53s1.81,2.17,2.35,4.47c.44,1.92,1,4.1,1.87,4.1s1.46-2.18,1.92-4.11c.56-2.31,1.09-4.49,2.4-4.49s1.86,2.22,2.42,4.58c.43,1.84.93,3.93,1.74,3.93a.24.24,0,0,1,.24.24.24.24,0,0,1-.24.25c-1.2,0-1.69-2.09-2.22-4.31-.47-2-1-4.2-1.94-4.2s-1.46,2.18-1.92,4.11c-.56,2.31-1.09,4.49-2.4,4.49s-1.81-2.17-2.35-4.48c-.45-1.92-.95-4.09-1.87-4.09s-1.43,2.21-1.92,4.16C147.21,151.7,146.67,153.86,145.46,153.86Z"/><path class="cls-21" d="M145.52,154.56h.74a70.75,70.75,0,0,1,8.1-6.48,55.85,55.85,0,0,1,6.88-4.08H145.52a1,1,0,0,0-1,1v8.61A1,1,0,0,0,145.52,154.56Z"/><rect class="cls-2" x="142.85" y="156.35" width="22.35" height="0.49"/><rect class="cls-18" x="142.85" y="155.87" width="22.35" height="0.49"/><rect class="cls-22" x="142.85" y="156.84" width="22.35" height="0.49"/><rect class="cls-23" x="51.03" y="130.1" width="35.63" height="49.26" rx="2.72"/><rect class="cls-13" x="45.57" y="138.28" width="46.54" height="32.91" rx="1.36" transform="translate(223.58 85.89) rotate(90)"/><rect class="cls-6" x="54.47" y="133.51" width="28.76" height="39.13" rx="0.68"/><rect class="cls-16" x="54.92" y="175.21" width="6.09" height="2.32" rx="0.66"/><rect class="cls-2" x="54.47" y="174.66" width="6.09" height="2.32" rx="0.66"/><rect class="cls-17" x="54.92" y="175.04" width="5.18" height="0.97" rx="0.39"/><rect class="cls-16" x="62.48" y="175.21" width="6.09" height="2.32" rx="0.66"/><rect class="cls-2" x="62.02" y="174.66" width="6.09" height="2.32" rx="0.66"/><rect class="cls-17" x="62.48" y="175.04" width="5.18" height="0.97" rx="0.39"/><rect class="cls-16" x="70.04" y="175.21" width="6.09" height="2.32" rx="0.66"/><rect class="cls-2" x="69.58" y="174.66" width="6.09" height="2.32" rx="0.66"/><rect class="cls-17" x="70.04" y="175.04" width="5.18" height="0.97" rx="0.39"/><rect class="cls-16" x="77.59" y="175.21" width="6.09" height="2.32" rx="0.66"/><rect class="cls-18" x="77.14" y="174.66" width="6.09" height="2.32" rx="0.66"/><rect class="cls-17" x="77.59" y="175.04" width="5.18" height="0.97" rx="0.39"/><path class="cls-12" d="M62.05,134.67H55.29v36.84h27V134.67Zm-6.21.54h5.67v2.85H55.84Zm0,25.92h3.32V164H55.84Zm25.87,6.37h-22v-6.37h22Zm-5.07.55V171H72.56v-2.91Zm-20.8-3.46h3.32v2.91H55.84Zm0,3.46H72V171H55.84ZM81.71,171H77.19v-2.91h4.52ZM55.84,160.58v-22h6.21v-3.39H81.71v25.37Z"/><path class="cls-12" d="M70.44,158.94H67.31l-.69-2.66a8.23,8.23,0,0,1-2.08-.86l-2.37,1.39L60,154.6l1.39-2.37a8.32,8.32,0,0,1-.86-2.07l-2.66-.7v-3.12l2.66-.7a8.32,8.32,0,0,1,.86-2.07L60,141.2,62.17,139l2.37,1.38a9,9,0,0,1,2.08-.86l.69-2.65h3.13l.69,2.65a9.22,9.22,0,0,1,2.08.86L75.58,139l2.21,2.21-1.39,2.37a9.14,9.14,0,0,1,.86,2.07l2.66.7v3.12l-2.66.7a9.14,9.14,0,0,1-.86,2.07l1.39,2.37-2.21,2.21-2.37-1.39a8.38,8.38,0,0,1-2.08.86Zm-2.71-.54H70l.67-2.57.15,0a7.72,7.72,0,0,0,2.22-.92l.14-.08,2.29,1.34,1.61-1.62-1.33-2.28.08-.14a8.47,8.47,0,0,0,.92-2.22l0-.16,2.56-.67v-2.28l-2.56-.67,0-.16a8.47,8.47,0,0,0-.92-2.22l-.08-.14,1.33-2.29-1.61-1.61L73.2,141l-.14-.09a8.33,8.33,0,0,0-2.22-.92l-.15,0L70,137.4H67.73L67.06,140l-.16,0a8.47,8.47,0,0,0-2.22.92l-.14.09-2.28-1.34-1.61,1.61L62,143.57l-.08.14a7.84,7.84,0,0,0-.92,2.22l0,.16-2.56.67V149l2.56.67,0,.16a7.84,7.84,0,0,0,.92,2.22l.08.14-1.33,2.28,1.61,1.62,2.28-1.34.14.08a7.84,7.84,0,0,0,2.22.92l.16,0Z"/><path class="cls-12" d="M68.87,154.68a6.78,6.78,0,1,1,6.78-6.78A6.79,6.79,0,0,1,68.87,154.68Zm0-13a6.23,6.23,0,1,0,6.24,6.23A6.24,6.24,0,0,0,68.87,141.67Z"/><path class="cls-12" d="M68.87,151.84a3.94,3.94,0,1,1,3.94-3.94A3.94,3.94,0,0,1,68.87,151.84Zm0-7.33a3.39,3.39,0,1,0,3.4,3.39A3.39,3.39,0,0,0,68.87,144.51Z"/><path class="cls-12" d="M80.75,148h-.52v-.28h.52Zm-1,0H76.56v-.28H79.7ZM76,148h-.52v-.28H76Zm-1,0H71.84v-.28H75Zm-3.67,0h-.53v-.28h.53Zm-1,0H67.12v-.28h3.15Zm-3.67,0h-.53v-.28h.53Zm-1,0H62.4v-.28h3.15Zm-3.67,0h-.53v-.28h.53Zm-1.05,0H57.69v-.28h3.14Z"/><rect class="cls-12" x="68.56" y="136.07" width="0.27" height="1.64"/><rect class="cls-12" x="68.56" y="138.24" width="0.27" height="0.53"/><path class="cls-12" d="M68.83,157.7h-.27v-.53h.27Zm0-1h-.27v-3.16h.27Zm0-3.69h-.27v-.52h.27Zm0-1.05h-.27v-3.15h.27Zm0-3.68h-.27v-.53h.27Zm0-1h-.27V144h.27Zm0-3.68h-.27V143h.27Zm0-1.06h-.27v-3.15h.27Z"/><rect class="cls-12" x="68.56" y="158.22" width="0.27" height="1.64"/><polygon class="cls-12" points="77.83 138.5 76.66 136.72 76.94 136.54 77.76 137.77 78.57 135.8 80.05 135.8 80.05 136.14 78.8 136.14 77.83 138.5"/><path class="cls-21" d="M68.73,156.41c5.32-5,10.83-9.86,16.57-14.39v-4.2c-5.23,4.37-10.24,9-15,13.84q-8.82,8.85-16.87,18.41c-.34.4-.66.8-1,1.2v1.43C57.61,167.05,63.17,161.68,68.73,156.41Z"/><path class="cls-21" d="M68.77,148.5A222.42,222.42,0,0,1,85.3,133.57v-.75a1.36,1.36,0,0,0-1.36-1.36H53.75a1.36,1.36,0,0,0-1.36,1.36v33.37Q60.21,157,68.77,148.5Z"/><text class="cls-24" transform="translate(73.53 205.57)">DESAR<tspan class="cls-25" x="36.85" y="0">R</tspan><tspan x="43.97" y="0">OL</tspan><tspan class="cls-26" x="59.25" y="0">L</tspan><tspan x="64.94" y="0">O</tspan></text></g></g></g></svg>