<svg xmlns="http://www.w3.org/2000/svg" xmlns:xlink="http://www.w3.org/1999/xlink" viewBox="0 0 225 225"><defs><style>.cls-1{isolation:isolate;}.cls-2{fill:#16a085;}.cls-3{fill:#10735f;}.cls-4{fill:#1dd1ae;}.cls-5{fill:#f1d2a9;}.cls-6{fill:#e3ba86;}.cls-7{fill:#f39c12;}.cls-8{fill:#f1c40f;}.cls-10,.cls-9{fill:#e67e22;}.cls-9{opacity:0.7;}.cls-11{fill:url(#linear-gradient);}.cls-12{mix-blend-mode:screen;fill:url(#linear-gradient-2);}.cls-13{fill:#dbd0a2;}.cls-14{fill:#bfb68e;}.cls-15{fill:#e8ddad;}.cls-16{fill:#8f886a;}.cls-17,.cls-49{opacity:0.2;}.cls-17,.cls-24,.cls-25,.cls-42{mix-blend-mode:multiply;}.cls-18{fill:#36100c;}.cls-19{fill:#1c0806;}.cls-20{fill:#5e1c15;}.cls-21,.cls-24,.cls-25{fill:#4f1812;}.cls-22{fill:#7a251c;}.cls-23{fill:#ffe16b;}.cls-24,.cls-55{opacity:0.4;}.cls-25{opacity:0.8;}.cls-26{fill:#0a0e12;}.cls-27{fill:#304357;}.cls-28{fill:#3a5169;}.cls-29{fill:#1f2b38;}.cls-30{fill:#19242e;}.cls-31{fill:#bdc3c7;}.cls-32{fill:#c9cfd4;}.cls-33,.cls-55,.cls-60{fill:#fff;}.cls-33{opacity:0.3;}.cls-33,.cls-49,.cls-55{mix-blend-mode:overlay;}.cls-34{fill:#95a5a6;}.cls-35{fill:#727f80;}.cls-36{fill:#acbebf;}.cls-37{fill:#7f8c8d;}.cls-38,.cls-42,.cls-45{fill:#2c3e50;}.cls-39{fill:#d9ddde;}.cls-40{fill:#ecf0f1;}.cls-41{fill:#5e6869;}.cls-42,.cls-57{opacity:0.5;}.cls-43{fill:#34495e;}.cls-44{fill:#537596;}.cls-45{opacity:0.1;}.cls-46{fill:#151d26;}.cls-47{fill:#27ae60;}.cls-48{fill:#2ecc71;}.cls-49{fill:#fcffa3;}.cls-50{fill:#f1d874;}.cls-51{fill:#39ff8d;}.cls-52{fill:#ffeda6;}.cls-53{fill:#c7b260;}.cls-54{fill:#1b2630;}.cls-56{fill:#c0392b;}.cls-58{fill:#3aff8d;}.cls-59{fill:#56799c;}.cls-60{font-size:12.23px;font-family:MyriadPro-Regular, Myriad Pro;}.cls-61{letter-spacing:-0.02em;}.cls-62{letter-spacing:0em;}</style><linearGradient id="linear-gradient" x1="112.5" y1="52.78" x2="112.5" y2="74.89" gradientUnits="userSpaceOnUse"><stop offset="0" stop-color="#f1c40f"/><stop offset="0.39" stop-color="#f1c10f"/><stop offset="0.65" stop-color="#f2b810"/><stop offset="0.87" stop-color="#f2aa11"/><stop offset="1" stop-color="#f39c12"/></linearGradient><linearGradient id="linear-gradient-2" x1="110.29" y1="53.56" x2="110.29" y2="69.09" gradientUnits="userSpaceOnUse"><stop offset="0" stop-color="#ffe682"/><stop offset="0.25" stop-color="#c5b164"/><stop offset="0.81" stop-color="#332e1a"/><stop offset="1"/></linearGradient></defs><g class="cls-1"><g id="Capa_2" data-name="Capa 2"><g id="Layer_1" data-name="Layer 1"><rect class="cls-2" width="225" height="225"/><path class="cls-3" d="M177.87,77.3h-5.72l-1.28-4.86a16,16,0,0,1-3.8-1.58l-4.34,2.54-4-4.05L161.22,65a16.2,16.2,0,0,1-1.57-3.8l-4.87-1.27V54.21l4.87-1.27a16.38,16.38,0,0,1,1.57-3.8l-2.54-4.34,4-4,4.34,2.54a16,16,0,0,1,3.8-1.57l1.28-4.87h5.72l1.27,4.87a15.79,15.79,0,0,1,3.8,1.57l4.35-2.54,4,4-2.54,4.34a16,16,0,0,1,1.58,3.8l4.86,1.27v5.73l-4.86,1.27a15.82,15.82,0,0,1-1.58,3.8l2.54,4.34-4,4.05-4.35-2.54a15.82,15.82,0,0,1-3.8,1.58Zm-5-1h4.18l1.23-4.69.28-.07a14.54,14.54,0,0,0,4.07-1.69l.26-.15,4.19,2.45,3-3L187.63,65l.16-.26a14.82,14.82,0,0,0,1.68-4.07l.07-.28,4.69-1.23V55l-4.69-1.23-.07-.29a15.08,15.08,0,0,0-1.68-4.07l-.16-.25L190.08,45l-3-3-4.19,2.45-.26-.15a14.85,14.85,0,0,0-4.07-1.69l-.28-.07-1.23-4.69h-4.18l-1.23,4.69-.29.07a15.11,15.11,0,0,0-4.07,1.69l-.25.15L162.89,42l-3,3,2.45,4.19-.15.25a15.11,15.11,0,0,0-1.69,4.07l-.07.29L155.78,55v4.18l4.69,1.23.07.28a14.85,14.85,0,0,0,1.69,4.07l.15.26-2.45,4.18,3,3,4.19-2.45.25.15a14.79,14.79,0,0,0,4.07,1.69l.29.07Z"/><path class="cls-3" d="M175,69.5a12.42,12.42,0,1,1,12.42-12.42A12.44,12.44,0,0,1,175,69.5Zm0-23.84a11.42,11.42,0,1,0,11.42,11.42A11.43,11.43,0,0,0,175,45.66Z"/><path class="cls-3" d="M175,64.29a7.22,7.22,0,1,1,7.21-7.21A7.23,7.23,0,0,1,175,64.29Zm0-13.43a6.22,6.22,0,1,0,6.21,6.22A6.23,6.23,0,0,0,175,50.86Z"/><rect class="cls-3" x="148.63" y="56.83" width="3" height="0.5"/><rect class="cls-3" x="152.59" y="56.83" width="0.96" height="0.5"/><path class="cls-3" d="M196.77,57.33h-1v-.5h1Zm-1.92,0h-5.76v-.5h5.76Zm-6.72,0h-1v-.5h1Zm-1.92,0h-5.77v-.5h5.77Zm-6.73,0h-1v-.5h1Zm-1.92,0H171.8v-.5h5.76Zm-6.72,0h-1v-.5h1Zm-1.92,0h-5.76v-.5h5.76Zm-6.72,0h-1v-.5h1Zm-1.93,0h-5.76v-.5h5.76Z"/><rect class="cls-3" x="197.73" y="56.83" width="3" height="0.5"/><rect class="cls-3" x="174.43" y="35.41" width="0.5" height="3"/><rect class="cls-3" x="174.43" y="39.38" width="0.5" height="0.96"/><path class="cls-3" d="M174.93,75h-.5v-1h.5Zm0-1.92h-.5V67.32h.5Zm0-6.75h-.5v-1h.5Zm0-1.92h-.5V58.65h.5Zm0-6.75h-.5v-1h.5Zm0-1.92h-.5V50h.5Zm0-6.75h-.5v-1h.5Zm0-1.93h-.5V41.3h.5Z"/><rect class="cls-3" x="174.43" y="75.99" width="0.5" height="3"/><path class="cls-3" d="M48.68,78h-3.5l-.78-3a9.73,9.73,0,0,1-2.33-1l-2.66,1.56-2.48-2.48,1.56-2.66a9.8,9.8,0,0,1-1-2.32l-3-.78V63.86l3-.78a9.8,9.8,0,0,1,1-2.32L36.93,58.1l2.48-2.48,2.66,1.55a9.7,9.7,0,0,1,2.33-1l.78-3h3.5l.78,3a9.7,9.7,0,0,1,2.33,1l2.66-1.55,2.48,2.48-1.56,2.66a9.8,9.8,0,0,1,1,2.32l3,.78v3.51l-3,.78a9.8,9.8,0,0,1-1,2.32l1.56,2.66-2.48,2.48-2.66-1.56a9.73,9.73,0,0,1-2.33,1Zm-3-.62h2.56L49,74.51l.18,0a9.36,9.36,0,0,0,2.49-1l.16-.1,2.56,1.5L56.16,73l-1.5-2.56.09-.16a8.63,8.63,0,0,0,1-2.49l0-.17,2.87-.76V64.33l-2.87-.75,0-.17a8.8,8.8,0,0,0-1-2.5l-.09-.15,1.5-2.57-1.81-1.81-2.56,1.5-.16-.09a9,9,0,0,0-2.49-1l-.18,0-.75-2.87H45.65l-.75,2.87-.18,0a9,9,0,0,0-2.49,1l-.15.09-2.57-1.5L37.7,58.19l1.5,2.57-.09.15a8.8,8.8,0,0,0-1,2.5l0,.17-2.87.75v2.56l2.87.76,0,.17a8.63,8.63,0,0,0,1,2.49l.09.16L37.7,73l1.81,1.81,2.57-1.5.15.1a9.36,9.36,0,0,0,2.49,1l.18,0Z"/><path class="cls-3" d="M46.93,73.22a7.61,7.61,0,1,1,7.6-7.61A7.61,7.61,0,0,1,46.93,73.22Zm0-14.6a7,7,0,1,0,7,7A7,7,0,0,0,46.93,58.62Z"/><path class="cls-3" d="M46.93,70a4.42,4.42,0,1,1,4.42-4.42A4.43,4.43,0,0,1,46.93,70Zm0-8.22a3.81,3.81,0,1,0,3.8,3.8A3.8,3.8,0,0,0,46.93,61.81Z"/><rect class="cls-3" x="30.78" y="65.46" width="1.84" height="0.31"/><rect class="cls-3" x="33.21" y="65.46" width="0.59" height="0.31"/><path class="cls-3" d="M60.25,65.77h-.58v-.31h.58Zm-1.17,0H55.55v-.31h3.53Zm-4.12,0h-.59v-.31H55Zm-1.17,0H50.26v-.31h3.53Zm-4.12,0h-.59v-.31h.59Zm-1.18,0H45v-.31h3.52Zm-4.11,0h-.59v-.31h.59Zm-1.18,0H39.67v-.31H43.2Zm-4.11,0H38.5v-.31h.59Zm-1.18,0H34.38v-.31h3.53Z"/><rect class="cls-3" x="60.84" y="65.46" width="1.84" height="0.31"/><rect class="cls-3" x="46.58" y="52.35" width="0.31" height="1.84"/><rect class="cls-3" x="46.58" y="54.78" width="0.31" height="0.59"/><path class="cls-3" d="M46.88,76.6h-.3V76h.3Zm0-1.18h-.3V71.88h.3Zm0-4.13h-.3V70.7h.3Zm0-1.18h-.3V66.57h.3Zm0-4.13h-.3v-.59h.3Zm0-1.18h-.3V61.27h.3Zm0-4.13h-.3v-.58h.3Zm0-1.17h-.3V56h.3Z"/><rect class="cls-3" x="46.58" y="77.19" width="0.31" height="1.84"/><path class="cls-3" d="M61.27,58.84H57.76l-.78-3a9.83,9.83,0,0,1-2.32-1L52,56.45,49.52,54l1.55-2.66a9.8,9.8,0,0,1-1-2.32l-3-.78V44.7l3-.78a9.8,9.8,0,0,1,1-2.32l-1.55-2.66L52,36.46,54.66,38a9.8,9.8,0,0,1,2.32-1l.78-3h3.51l.78,3a9.8,9.8,0,0,1,2.32,1L67,36.46l2.48,2.48L68,41.6a9.43,9.43,0,0,1,1,2.32l3,.78v3.51l-3,.78a9.43,9.43,0,0,1-1,2.32L69.51,54,67,56.45l-2.66-1.56a9.83,9.83,0,0,1-2.32,1Zm-3-.62h2.56l.76-2.87.17,0a9.22,9.22,0,0,0,2.49-1l.16-.1,2.56,1.5,1.81-1.81-1.5-2.56.1-.16a9.22,9.22,0,0,0,1-2.49l0-.18,2.88-.75V45.17l-2.88-.75,0-.18a9.5,9.5,0,0,0-1-2.49l-.1-.15L68.74,39l-1.81-1.81-2.56,1.5-.16-.09a8.91,8.91,0,0,0-2.49-1l-.17-.05-.76-2.87H58.23l-.75,2.87-.17.05a8.91,8.91,0,0,0-2.49,1l-.16.09-2.56-1.5L50.29,39l1.5,2.57-.1.15a9.5,9.5,0,0,0-1,2.49l0,.18-2.88.75v2.56l2.88.75,0,.18a9.22,9.22,0,0,0,1,2.49l.1.16-1.5,2.56,1.81,1.81,2.56-1.5.16.1a9.22,9.22,0,0,0,2.49,1l.17,0Z"/><path class="cls-3" d="M59.51,54.06a7.61,7.61,0,1,1,7.61-7.61A7.61,7.61,0,0,1,59.51,54.06Zm0-14.6a7,7,0,1,0,7,7A7,7,0,0,0,59.51,39.46Z"/><path class="cls-3" d="M59.51,50.87a4.42,4.42,0,1,1,4.42-4.42A4.42,4.42,0,0,1,59.51,50.87Zm0-8.22a3.81,3.81,0,1,0,3.81,3.8A3.81,3.81,0,0,0,59.51,42.65Z"/><rect class="cls-3" x="43.37" y="46.3" width="1.84" height="0.31"/><rect class="cls-3" x="45.79" y="46.3" width="0.59" height="0.31"/><path class="cls-3" d="M72.84,46.61h-.59V46.3h.59Zm-1.18,0H68.13V46.3h3.53Zm-4.12,0H67V46.3h.58Zm-1.17,0H62.84V46.3h3.53Zm-4.12,0h-.58V46.3h.58Zm-1.17,0H57.55V46.3h3.53Zm-4.12,0h-.59V46.3H57Zm-1.17,0H52.26V46.3h3.53Zm-4.12,0h-.59V46.3h.59Zm-1.18,0H47V46.3h3.52Z"/><rect class="cls-3" x="73.42" y="46.3" width="1.84" height="0.31"/><rect class="cls-3" x="59.16" y="33.19" width="0.31" height="1.84"/><rect class="cls-3" x="59.16" y="35.62" width="0.31" height="0.59"/><path class="cls-3" d="M59.47,57.44h-.31v-.59h.31Zm0-1.18h-.31V52.72h.31Zm0-4.13h-.31v-.59h.31Zm0-1.18h-.31V47.41h.31Zm0-4.13h-.31v-.59h.31Zm0-1.18h-.31V42.1h.31Zm0-4.13h-.31v-.59h.31Zm0-1.18h-.31V36.8h.31Z"/><rect class="cls-3" x="59.16" y="58.03" width="0.31" height="1.84"/><path class="cls-3" d="M144.14,113.62a.88.88,0,0,1,0-1.76c3,0,4.93-7.8,6.65-14.68,2.09-8.4,4.07-16.34,8.59-16.34,4.73,0,6.55,7.83,8.48,16.13,1.61,6.93,3.43,14.78,6.77,14.78s5.24-7.88,6.93-14.84c2-8.32,3.91-16.18,8.63-16.18s6.71,8,8.73,16.51c1.58,6.65,3.37,14.19,6.3,14.19a.88.88,0,1,1,0,1.75c-4.32,0-6.11-7.54-8-15.53-1.69-7.11-3.6-15.17-7-15.17s-5.24,7.89-6.93,14.85c-2,8.32-3.92,16.18-8.63,16.18s-6.55-7.84-8.48-16.14c-1.61-6.93-3.44-14.78-6.77-14.78-3.15,0-5.13,8-6.89,15C150.44,105.84,148.5,113.62,144.14,113.62Z"/><path class="cls-3" d="M19.13,113.62a.88.88,0,1,1,0-1.76c3,0,4.93-7.8,6.65-14.68,2.09-8.4,4.07-16.34,8.59-16.34,4.73,0,6.55,7.83,8.48,16.13,1.61,6.93,3.43,14.78,6.77,14.78s5.24-7.88,6.92-14.84c2-8.32,3.92-16.18,8.64-16.18s6.71,8,8.73,16.51c1.58,6.65,3.37,14.19,6.3,14.19a.88.88,0,0,1,0,1.75c-4.32,0-6.11-7.54-8-15.53-1.69-7.11-3.6-15.17-7-15.17s-5.24,7.89-6.93,14.85c-2,8.32-3.92,16.18-8.63,16.18s-6.55-7.84-8.48-16.14c-1.61-6.93-3.44-14.78-6.77-14.78-3.15,0-5.13,8-6.89,15C25.43,105.84,23.49,113.62,19.13,113.62Z"/><path class="cls-3" d="M82,113.62a.88.88,0,0,1,0-1.76c3,0,4.93-7.8,6.65-14.68,2.09-8.4,4.07-16.34,8.6-16.34,4.72,0,6.54,7.83,8.47,16.13,1.61,6.93,3.44,14.78,6.77,14.78s5.24-7.88,6.93-14.84c2-8.32,3.91-16.18,8.63-16.18s6.71,8,8.73,16.51c1.58,6.65,3.37,14.19,6.3,14.19a.88.88,0,1,1,0,1.75c-4.32,0-6.11-7.54-8-15.53-1.69-7.11-3.6-15.17-7-15.17s-5.24,7.89-6.93,14.85c-2,8.32-3.91,16.18-8.63,16.18s-6.55-7.84-8.48-16.14c-1.61-6.93-3.44-14.78-6.76-14.78-3.16,0-5.14,8-6.9,15C88.26,105.84,86.33,113.62,82,113.62Z"/><rect class="cls-3" x="18.25" y="16.83" width="8.05" height="8.05"/><rect class="cls-3" x="202.07" y="16.83" width="8.05" height="8.05"/><rect class="cls-3" x="18.25" y="196.95" width="8.05" height="8.05"/><rect class="cls-3" x="202.07" y="196.95" width="8.05" height="8.05"/><rect class="cls-3" x="17.38" y="138.78" width="1.84" height="0.31"/><rect class="cls-3" x="19.81" y="138.78" width="0.59" height="0.31"/><path class="cls-3" d="M46.85,139.08h-.59v-.3h.59Zm-1.17,0H42.15v-.3h3.53Zm-4.12,0H41v-.3h.59Zm-1.18,0H36.86v-.3h3.52Zm-4.11,0h-.59v-.3h.59Zm-1.18,0H31.57v-.3h3.52Zm-4.11,0h-.59v-.3H31Zm-1.18,0H26.27v-.3H29.8Zm-4.11,0H25.1v-.3h.59Zm-1.18,0H21v-.3h3.53Z"/><rect class="cls-3" x="47.44" y="138.78" width="1.84" height="0.31"/><path class="cls-3" d="M24.76,142.42H18.05v-6.91h6.71Zm-6.21-.5h5.71V136H18.55Z"/><path class="cls-3" d="M36.23,145.26h-12V132.65h12Zm-11.47-.5h11V133.15h-11Z"/><path class="cls-3" d="M38.25,147H35.73v-16.1h2.52Zm-2-.5h1.52v-15.1H36.23Z"/><path class="cls-3" d="M44.75,145.94h-7V131.89h7Zm-6.5-.5h6V132.39h-6Z"/><path class="cls-3" d="M49,143.7H44.25v-9.51H49Zm-4.29-.5h3.79v-8.51H44.75Z"/><rect class="cls-3" x="166.27" y="182.47" width="1.84" height="0.31"/><rect class="cls-3" x="168.7" y="182.47" width="0.59" height="0.31"/><path class="cls-3" d="M195.74,182.78h-.58v-.31h.58Zm-1.17,0H191v-.31h3.53Zm-4.12,0h-.59v-.31h.59Zm-1.17,0h-3.53v-.31h3.53Zm-4.12,0h-.59v-.31h.59Zm-1.18,0h-3.52v-.31H184Zm-4.11,0h-.59v-.31h.59Zm-1.18,0h-3.52v-.31h3.52Zm-4.11,0H174v-.31h.59Zm-1.18,0h-3.53v-.31h3.53Z"/><rect class="cls-3" x="196.33" y="182.47" width="1.84" height="0.31"/><path class="cls-3" d="M173.65,186h-7v-6.7h7Zm-6.46-.5h6v-5.7h-6Z"/><path class="cls-3" d="M190.7,189.63H173.15v-14H190.7Zm-17-.5H190.2v-13H173.65Z"/><path class="cls-3" d="M197.5,186h-7.3v-6.7h7.3Zm-6.8-.5H197v-5.7h-6.3Z"/><path class="cls-3" d="M44.16,179.24H41.21l-.66-2.51a8.22,8.22,0,0,1-2-.82l-2.24,1.32-2.09-2.09,1.31-2.24a8.62,8.62,0,0,1-.81-2l-2.51-.66v-2.95l2.51-.66a8.81,8.81,0,0,1,.81-2l-1.31-2.24,2.09-2.09,2.24,1.32a8.22,8.22,0,0,1,2-.82l.66-2.51h2.95l.66,2.51a8.39,8.39,0,0,1,2,.82L49,160.38l2.08,2.09-1.31,2.24a8.39,8.39,0,0,1,.82,2l2.51.66v2.95l-2.51.66a8.22,8.22,0,0,1-.82,2l1.31,2.24L49,177.23l-2.24-1.32a8.39,8.39,0,0,1-2,.82Zm-2.55-.52h2.15l.64-2.42.14,0a7.56,7.56,0,0,0,2.1-.86l.13-.08,2.16,1.26,1.53-1.53-1.27-2.15.08-.14a7.23,7.23,0,0,0,.87-2.09l0-.15,2.42-.64v-2.15l-2.42-.64,0-.15a7.35,7.35,0,0,0-.87-2.09l-.08-.13,1.27-2.16L48.93,161l-2.16,1.26-.13-.08a7.56,7.56,0,0,0-2.1-.86l-.14,0-.64-2.42H41.61L41,161.31l-.15,0a7.68,7.68,0,0,0-2.1.86l-.13.08L36.43,161l-1.52,1.53,1.26,2.16-.08.13a8,8,0,0,0-.87,2.09l0,.15-2.42.64v2.15l2.42.64,0,.15a7.83,7.83,0,0,0,.87,2.09l.08.14-1.26,2.15,1.52,1.53,2.16-1.26.13.08a7.68,7.68,0,0,0,2.1.86l.15,0Z"/><path class="cls-3" d="M42.68,175.21a6.41,6.41,0,1,1,6.41-6.41A6.41,6.41,0,0,1,42.68,175.21Zm0-12.29a5.89,5.89,0,1,0,5.89,5.88A5.9,5.9,0,0,0,42.68,162.92Z"/><path class="cls-3" d="M42.68,172.52a3.72,3.72,0,1,1,3.72-3.72A3.72,3.72,0,0,1,42.68,172.52Zm0-6.92a3.21,3.21,0,1,0,3.21,3.2A3.21,3.21,0,0,0,42.68,165.6Z"/><rect class="cls-3" x="29.08" y="168.68" width="1.55" height="0.26"/><rect class="cls-3" x="31.12" y="168.68" width="0.5" height="0.26"/><path class="cls-3" d="M53.91,168.93h-.5v-.25h.5Zm-1,0h-3v-.25h3Zm-3.47,0H49v-.25h.5Zm-1,0h-3v-.25h3Zm-3.47,0H44.5v-.25H45Zm-1,0H41v-.25h3Zm-3.47,0H40v-.25h.49Zm-1,0h-3v-.25h3Zm-3.46,0h-.5v-.25h.5Zm-1,0h-3v-.25h3Z"/><rect class="cls-3" x="54.4" y="168.68" width="1.55" height="0.26"/><rect class="cls-3" x="42.39" y="157.63" width="0.26" height="1.55"/><rect class="cls-3" x="42.39" y="159.68" width="0.26" height="0.5"/><path class="cls-3" d="M42.64,178.06h-.25v-.5h.25Zm0-1h-.25v-3h.25Zm0-3.48h-.25v-.5h.25Zm0-1h-.25v-3h.25Zm0-3.48h-.25v-.5h.25Zm0-1h-.25v-3h.25Zm0-3.48h-.25v-.49h.25Zm0-1h-.25v-3h.25Z"/><rect class="cls-3" x="42.39" y="178.56" width="0.26" height="1.55"/><rect class="cls-3" x="197.63" y="150.58" width="0.19" height="1.13"/><rect class="cls-3" x="197.63" y="152.07" width="0.19" height="0.36"/><path class="cls-3" d="M197.82,165.54h-.19v-.37h.19Zm0-.73h-.19v-2.19h.19Zm0-2.55h-.19v-.36h.19Zm0-.73h-.19v-2.18h.19Zm0-2.54h-.19v-.37h.19Zm0-.73h-.19v-2.18h.19Zm0-2.55h-.19v-.36h.19Zm0-.73h-.19V152.8h.19Z"/><rect class="cls-3" x="197.63" y="165.9" width="0.19" height="1.13"/><rect class="cls-3" x="204.82" y="158.71" width="1.13" height="0.19"/><rect class="cls-3" x="204.1" y="158.71" width="0.36" height="0.19"/><path class="cls-3" d="M191,158.9v-.19h.36v.19Zm.73,0v-.19h2.18v.19Zm2.54,0v-.19h.37v.19Zm.73,0v-.19h2.18v.19Zm2.55,0v-.19h.36v.19Zm.72,0v-.19h2.19v.19Zm2.55,0v-.19h.37v.19Zm.73,0v-.19h2.18v.19Z"/><rect class="cls-3" x="189.5" y="158.71" width="1.13" height="0.19"/><path class="cls-3" d="M197.73,166.72a7.92,7.92,0,1,1,7.91-7.92A7.92,7.92,0,0,1,197.73,166.72Zm0-15.33a7.42,7.42,0,1,0,7.41,7.41A7.42,7.42,0,0,0,197.73,151.39Z"/><path class="cls-4" d="M115.3,18.14a8.5,8.5,0,0,1,4.79,7.37c.19,4.37-3.86,8.09-8.09,8.09a8.09,8.09,0,0,1-7.77-6.13,8.51,8.51,0,0,0,2.21,4.62,6.24,6.24,0,0,1,1.75,4.26v1.79a.63.63,0,0,0,.62.63h7.72a.63.63,0,0,0,.62-.63V36.35a6.15,6.15,0,0,1,1.72-4.23,8.46,8.46,0,0,0,2.33-5.86A8.56,8.56,0,0,0,115.3,18.14Z"/><path class="cls-4" d="M119.19,26.82V25.14l-1.62-.42a5.46,5.46,0,0,0-.59-1.43l.84-1.44-1.18-1.19-1.45.84a5.46,5.46,0,0,0-1.43-.59l-.42-1.62h-1.68l-.42,1.62a5.46,5.46,0,0,0-1.43.59l-1.45-.84-1.18,1.19.84,1.44a5.46,5.46,0,0,0-.59,1.43l-1.62.42v1.68l1.62.43a5.39,5.39,0,0,0,.59,1.42l-.84,1.45,1.18,1.19,1.45-.85a5.46,5.46,0,0,0,1.43.59l.42,1.62h1.68l.42-1.62a5.46,5.46,0,0,0,1.43-.59l1.45.85,1.18-1.19L117,28.67a5.39,5.39,0,0,0,.59-1.42ZM112.5,30a4,4,0,1,1,4-4A4,4,0,0,1,112.5,30Z"/><path class="cls-4" d="M114.78,26a2.28,2.28,0,1,1-2.28-2.27A2.28,2.28,0,0,1,114.78,26Z"/><path class="cls-4" d="M124.35,36.83,121.26,34l.35-.4,3.2,2.69C124.66,36.49,124.51,36.66,124.35,36.83Zm-24.14-.5c-.15-.18-.3-.36-.44-.55l3.3-2.55.33.41Zm27.14-4.2-3.86-1.59.19-.49,3.92,1.42C127.52,31.69,127.44,31.91,127.35,32.13ZM97.41,31.5c-.08-.21-.16-.44-.23-.66l4-1.27c.06.17.11.34.17.5Zm31.14-4.81-4.17-.18c0-.18,0-.35,0-.53l4.18-.05V26C128.57,26.22,128.56,26.45,128.55,26.69ZM96.44,26.1V26c0-.22,0-.45,0-.67l4.17.17c0,.15,0,.3,0,.46V26H98.46Zm27.39-3.73c0-.17-.11-.33-.17-.5l3.92-1.44c.08.22.16.44.23.67Zm-22.51-.43-3.93-1.42c.08-.22.16-.44.25-.66l3.87,1.59C101.44,21.61,101.38,21.78,101.32,21.94Zm20.59-3.22-.33-.41,3.19-2.7c.15.18.3.36.44.55Zm-18.54-.36-3.2-2.68.46-.53L103.72,18Zm15.48-2.43-.44-.27L120.49,12l.61.37Zm-12.32-.23-2.1-3.61c.2-.12.41-.24.62-.34l1.94,3.7ZM115,14.37l-.51-.1.71-4.12.69.13Zm-4.64-.09-.73-4.12.69-.1.56,4.14Z"/><polygon class="cls-4" points="116.71 43.81 108.63 44.35 108.63 45.04 116.71 44.5 116.71 43.81"/><polygon class="cls-4" points="116.71 42.29 108.63 42.83 108.63 43.52 116.71 42.98 116.71 42.29"/><polygon class="cls-4" points="116.71 39.3 108.63 39.3 108.63 42.01 116.71 41.52 116.71 39.3"/><polygon class="cls-4" points="114.2 45.99 111.14 45.99 108.89 45.04 116.45 45.04 114.2 45.99"/><path class="cls-4" d="M112.82,47.33h-.3A1.34,1.34,0,0,1,111.18,46h3A1.34,1.34,0,0,1,112.82,47.33Z"/><path class="cls-5" d="M131.18,80.64h0c-1.46-11-9.26-19.35-18.68-19.35S95.28,69.67,93.82,80.64h0c-2.47,0-4.32,3-3.89,6.76.45,4,1.56,4,3,7a1.9,1.9,0,0,0,2.76.72c3.17,7.33,9.48,12.34,16.76,12.34s13.59-5,16.76-12.34a1.9,1.9,0,0,0,2.76-.72c1.49-3,2.6-3,3-7C135.5,83.69,133.65,80.67,131.18,80.64Z"/><path class="cls-6" d="M131.18,80.64h0c-1.46-11-9.26-19.35-18.68-19.35S95.28,69.67,93.82,80.64h0c-1.77,0-3.2,1.59-3.73,3.83l.18.16c6.94,7.25,18,7.08,27.31,6,3.91-.46,6.54,4.11,5.67,7.44a15.77,15.77,0,0,1-5.23,8.35,20.36,20.36,0,0,0,11.24-11.33,1.9,1.9,0,0,0,2.76-.72c1.49-3,2.6-3,3-7C135.5,83.69,133.65,80.67,131.18,80.64Z"/><path class="cls-7" d="M134.9,81.93c-1,2.45-10,4.48-22.4,4.48-11.69,0-21.36-2-22.4-4.48Z"/><path class="cls-8" d="M134.9,81.34c-1,2.45-10,4-22.4,4-11.69,0-21.36-1.54-22.4-4Z"/><path class="cls-7" d="M112.5,53.56h0A22.64,22.64,0,0,0,89.87,76.2V82s1.61.68,22.63.68c20.72,0,22.63-.68,22.63-.68V76.2A22.64,22.64,0,0,0,112.5,53.56Z"/><path class="cls-9" d="M128.64,60.34c-.43,11.8-11.53,21.56-23.12,21.56A22.3,22.3,0,0,1,89.9,75.59c0,.21,0,.4,0,.61V82s1.61.68,22.63.68c20.72,0,22.63-.68,22.63-.68V76.2A22.56,22.56,0,0,0,128.64,60.34Z"/><path class="cls-10" d="M112.5,53.56h0a22.5,22.5,0,0,0-9.56,2.14s0,.06.07.1c3.2,5.22,3,12.13,2.61,18.8H120c.38-6.06,1.39-12.73,4.2-17.74h0A22.51,22.51,0,0,0,112.5,53.56Z"/><path class="cls-11" d="M119.84,74.89H105.16V54.53a1.34,1.34,0,0,1,1.06-1.31,32,32,0,0,1,6.28-.44,31.9,31.9,0,0,1,6.28.45,1.33,1.33,0,0,1,1.06,1.3Z"/><rect class="cls-12" x="106.03" y="53.56" width="8.53" height="15.53" rx="2.36"/><polygon class="cls-13" points="127.44 104.37 112.5 104.37 97.56 104.37 76.25 97.17 82.22 146.19 99.06 151.78 112.5 151.78 125.94 151.78 142.78 146.19 148.75 97.17 127.44 104.37"/><polygon class="cls-14" points="127.44 104.37 125.94 151.78 142.78 146.19 148.75 97.17 127.44 104.37"/><polygon class="cls-15" points="97.56 104.37 99.06 151.78 82.22 146.19 76.25 97.17 97.56 104.37"/><path class="cls-14" d="M81.91,143.65h.39l.69-.07a4,4,0,0,0,3.6-4.38l-.45-4.62a4,4,0,0,0-4.37-3.6l-.69.07a2.19,2.19,0,0,0-.68.17Z"/><path class="cls-5" d="M80.09,129.46h.7a4,4,0,0,1,4,4v4.64a4,4,0,0,1-4,4h-.69a2.67,2.67,0,0,1-2.67-2.67v-7.32a2.67,2.67,0,0,1,2.67-2.67Z" transform="translate(-12.81 8.52) rotate(-5.58)"/><path class="cls-16" d="M143.09,143.65h-.39l-.69-.07a4,4,0,0,1-3.6-4.38l.45-4.62a4,4,0,0,1,4.37-3.6l.69.07a2.19,2.19,0,0,1,.68.17Z"/><path class="cls-5" d="M142.88,129.46h.69a4,4,0,0,1,4,4v4.64a4,4,0,0,1-4,4h-.69a2.67,2.67,0,0,1-2.67-2.67v-7.32a2.67,2.67,0,0,1,2.67-2.67Z" transform="translate(273.91 284.92) rotate(-174.42)"/><g class="cls-17"><path class="cls-14" d="M116.43,148.46H111l-1.21-4.62a15.12,15.12,0,0,1-3.6-1.49l-4.12,2.41-3.84-3.84,2.41-4.12a15,15,0,0,1-1.49-3.61L94.53,132v-5.44l4.62-1.2a15,15,0,0,1,1.49-3.61l-2.41-4.12,3.84-3.84,4.12,2.41a15.12,15.12,0,0,1,3.6-1.49l1.21-4.62h5.43l1.21,4.62a15.36,15.36,0,0,1,3.61,1.49l4.12-2.41,3.84,3.84-2.41,4.12a15,15,0,0,1,1.49,3.61l4.62,1.2V132l-4.62,1.2a15,15,0,0,1-1.49,3.61l2.41,4.12-3.84,3.84-4.12-2.41a15.36,15.36,0,0,1-3.61,1.49Zm-4.7-1h4l1.17-4.45.27-.07a14.19,14.19,0,0,0,3.86-1.6l.24-.14,4,2.32,2.81-2.8-2.33-4,.15-.24a14.19,14.19,0,0,0,1.6-3.86l.07-.27,4.45-1.17v-4l-4.45-1.17-.07-.27a14.19,14.19,0,0,0-1.6-3.86l-.15-.24,2.33-4-2.81-2.8-4,2.32-.24-.14a14.19,14.19,0,0,0-3.86-1.6l-.27-.07L115.7,111h-4l-1.16,4.45-.27.07a14.19,14.19,0,0,0-3.86,1.6l-.25.14-4-2.32-2.8,2.8,2.32,4-.14.24a13.59,13.59,0,0,0-1.6,3.86l-.07.27-4.45,1.17v4l4.45,1.17.07.27a13.59,13.59,0,0,0,1.6,3.86l.14.24-2.32,4,2.8,2.8,4-2.32.25.14a14.19,14.19,0,0,0,3.86,1.6l.27.07Z"/><path class="cls-14" d="M113.72,141.05a11.78,11.78,0,1,1,11.78-11.78A11.79,11.79,0,0,1,113.72,141.05Zm0-22.61a10.83,10.83,0,1,0,10.83,10.83A10.85,10.85,0,0,0,113.72,118.44Z"/><path class="cls-14" d="M113.72,136.11a6.84,6.84,0,1,1,6.84-6.84A6.84,6.84,0,0,1,113.72,136.11Zm0-12.73a5.89,5.89,0,1,0,5.89,5.89A5.9,5.9,0,0,0,113.72,123.38Z"/></g><g class="cls-17"><rect class="cls-14" x="88.69" y="129.03" width="2.85" height="0.47"/><rect class="cls-14" x="92.45" y="129.03" width="0.91" height="0.47"/><path class="cls-14" d="M134.36,129.51h-.91V129h.91Zm-1.82,0h-5.47V129h5.47Zm-6.38,0h-.91V129h.91Zm-1.82,0h-5.47V129h5.47Zm-6.38,0h-.91V129H118Zm-1.82,0h-5.47V129h5.47Zm-6.38,0h-.91V129h.91Zm-1.82,0h-5.47V129h5.47Zm-6.38,0h-.91V129h.91Zm-1.82,0H94.27V129h5.47Z"/><rect class="cls-14" x="135.27" y="129.03" width="2.85" height="0.47"/></g><g class="cls-17"><rect class="cls-14" x="113.17" y="108.72" width="0.47" height="2.85"/><rect class="cls-14" x="113.17" y="112.48" width="0.47" height="0.91"/><path class="cls-14" d="M113.64,146.3h-.47v-.92h.47Zm0-1.83h-.47V139h.47Zm0-6.4h-.47v-.91h.47Zm0-1.83h-.47v-5.48h.47Zm0-6.4h-.47v-.91h.47Zm0-1.82h-.47v-5.49h.47Zm0-6.4h-.47v-.92h.47Zm0-1.83h-.47v-5.48h.47Z"/><rect class="cls-14" x="113.17" y="147.21" width="0.47" height="2.85"/></g><path class="cls-18" d="M130.15,131.73H172a0,0,0,0,1,0,0v26.14a2.89,2.89,0,0,1-2.89,2.89H133a2.89,2.89,0,0,1-2.89-2.89V131.73A0,0,0,0,1,130.15,131.73Z"/><rect class="cls-19" x="130.15" y="131.73" width="41.87" height="19.3"/><path class="cls-20" d="M129.75,131.73h42.68a0,0,0,0,1,0,0v16a2.31,2.31,0,0,1-2.31,2.31H132.06a2.32,2.32,0,0,1-2.32-2.32v-16A0,0,0,0,1,129.75,131.73Z"/><rect class="cls-21" x="129.75" y="131.73" width="42.68" height="1.27"/><rect class="cls-22" x="129.75" y="134.2" width="42.68" height="5.72"/><path class="cls-19" d="M138.79,150h6.94a0,0,0,0,1,0,0v3.78a1.34,1.34,0,0,1-1.34,1.34h-4.25a1.34,1.34,0,0,1-1.34-1.34V150A0,0,0,0,1,138.79,150Z"/><path class="cls-7" d="M138.79,150H145a0,0,0,0,1,0,0v3.08a1.16,1.16,0,0,1-1.16,1.16h-3.91a1.16,1.16,0,0,1-1.16-1.16V150A0,0,0,0,1,138.79,150Z"/><path class="cls-8" d="M139.53,150h4.73a0,0,0,0,1,0,0v2.35a.88.88,0,0,1-.88.88h-3a.88.88,0,0,1-.88-.88V150A0,0,0,0,1,139.53,150Z"/><path class="cls-23" d="M141.84,151.42a7.88,7.88,0,0,1,2.42-.64V150h-4.73v2.34a.92.92,0,0,0,.17.52A17.27,17.27,0,0,1,141.84,151.42Z"/><rect class="cls-24" x="138.79" y="131.73" width="6.22" height="18.3"/><rect class="cls-25" x="144.94" y="131.73" width="0.81" height="18.3"/><path class="cls-26" d="M139.53,132.6a.29.29,0,0,1-.29-.29v-.58a.29.29,0,0,1,.58,0v.58A.29.29,0,0,1,139.53,132.6Z"/><path class="cls-26" d="M139.53,148.22a.29.29,0,0,1-.29-.29v-1.12a.29.29,0,0,1,.58,0v1.12A.29.29,0,0,1,139.53,148.22Zm0-2.24a.28.28,0,0,1-.29-.28v-1.12a.29.29,0,0,1,.58,0v1.12A.28.28,0,0,1,139.53,146Zm0-2.23a.29.29,0,0,1-.29-.29v-1.11a.29.29,0,0,1,.58,0v1.11A.29.29,0,0,1,139.53,143.75Zm0-2.23a.29.29,0,0,1-.29-.29v-1.11a.29.29,0,0,1,.58,0v1.11A.29.29,0,0,1,139.53,141.52Zm0-2.23a.29.29,0,0,1-.29-.29v-1.11a.29.29,0,0,1,.58,0V139A.29.29,0,0,1,139.53,139.29Zm0-2.23a.29.29,0,0,1-.29-.29v-1.11a.29.29,0,0,1,.58,0v1.11A.29.29,0,0,1,139.53,137.06Zm0-2.23a.29.29,0,0,1-.29-.29v-1.12a.29.29,0,0,1,.58,0v1.12A.29.29,0,0,1,139.53,134.83Z"/><path class="cls-26" d="M139.53,149.91a.29.29,0,0,1-.29-.29V149a.29.29,0,0,1,.58,0v.58A.29.29,0,0,1,139.53,149.91Z"/><path class="cls-26" d="M144.26,132.6a.29.29,0,0,1-.29-.29v-.58a.29.29,0,1,1,.58,0v.58A.29.29,0,0,1,144.26,132.6Z"/><path class="cls-26" d="M144.26,148.22a.29.29,0,0,1-.29-.29v-1.12a.29.29,0,1,1,.58,0v1.12A.29.29,0,0,1,144.26,148.22Zm0-2.24a.28.28,0,0,1-.29-.28v-1.12a.29.29,0,1,1,.58,0v1.12A.28.28,0,0,1,144.26,146Zm0-2.23a.29.29,0,0,1-.29-.29v-1.11a.29.29,0,1,1,.58,0v1.11A.29.29,0,0,1,144.26,143.75Zm0-2.23a.29.29,0,0,1-.29-.29v-1.11a.29.29,0,1,1,.58,0v1.11A.29.29,0,0,1,144.26,141.52Zm0-2.23A.29.29,0,0,1,144,139v-1.11a.29.29,0,1,1,.58,0V139A.29.29,0,0,1,144.26,139.29Zm0-2.23a.29.29,0,0,1-.29-.29v-1.11a.29.29,0,1,1,.58,0v1.11A.29.29,0,0,1,144.26,137.06Zm0-2.23a.29.29,0,0,1-.29-.29v-1.12a.29.29,0,0,1,.58,0v1.12A.29.29,0,0,1,144.26,134.83Z"/><path class="cls-26" d="M144.26,149.91a.29.29,0,0,1-.29-.29V149a.29.29,0,1,1,.58,0v.58A.29.29,0,0,1,144.26,149.91Z"/><path class="cls-19" d="M156.42,150h6.94a0,0,0,0,1,0,0v3.78a1.34,1.34,0,0,1-1.34,1.34h-4.25a1.34,1.34,0,0,1-1.34-1.34V150A0,0,0,0,1,156.42,150Z"/><path class="cls-7" d="M156.42,150h6.22a0,0,0,0,1,0,0v3.08a1.16,1.16,0,0,1-1.16,1.16h-3.91a1.16,1.16,0,0,1-1.16-1.16V150A0,0,0,0,1,156.42,150Z"/><path class="cls-8" d="M157.17,150h4.73a0,0,0,0,1,0,0v2.35a.88.88,0,0,1-.88.88h-3a.88.88,0,0,1-.88-.88V150A0,0,0,0,1,157.17,150Z"/><path class="cls-23" d="M159.47,151.42a7.87,7.87,0,0,1,2.43-.64V150h-4.73v2.34a.85.85,0,0,0,.17.52A17.16,17.16,0,0,1,159.47,151.42Z"/><rect class="cls-24" x="156.42" y="131.73" width="6.22" height="18.3"/><rect class="cls-25" x="162.57" y="131.73" width="0.81" height="18.3"/><path class="cls-26" d="M157.17,132.6a.29.29,0,0,1-.29-.29v-.58a.29.29,0,1,1,.58,0v.58A.29.29,0,0,1,157.17,132.6Z"/><path class="cls-26" d="M157.17,148.22a.29.29,0,0,1-.29-.29v-1.12a.29.29,0,1,1,.58,0v1.12A.29.29,0,0,1,157.17,148.22Zm0-2.24a.28.28,0,0,1-.29-.28v-1.12a.29.29,0,0,1,.58,0v1.12A.28.28,0,0,1,157.17,146Zm0-2.23a.29.29,0,0,1-.29-.29v-1.11a.29.29,0,1,1,.58,0v1.11A.29.29,0,0,1,157.17,143.75Zm0-2.23a.29.29,0,0,1-.29-.29v-1.11a.29.29,0,1,1,.58,0v1.11A.29.29,0,0,1,157.17,141.52Zm0-2.23a.29.29,0,0,1-.29-.29v-1.11a.29.29,0,1,1,.58,0V139A.29.29,0,0,1,157.17,139.29Zm0-2.23a.29.29,0,0,1-.29-.29v-1.11a.29.29,0,1,1,.58,0v1.11A.29.29,0,0,1,157.17,137.06Zm0-2.23a.29.29,0,0,1-.29-.29v-1.12a.29.29,0,0,1,.58,0v1.12A.29.29,0,0,1,157.17,134.83Z"/><path class="cls-26" d="M157.17,149.91a.29.29,0,0,1-.29-.29V149a.29.29,0,1,1,.58,0v.58A.29.29,0,0,1,157.17,149.91Z"/><path class="cls-26" d="M161.9,132.6a.29.29,0,0,1-.29-.29v-.58a.29.29,0,0,1,.58,0v.58A.29.29,0,0,1,161.9,132.6Z"/><path class="cls-26" d="M161.9,148.22a.29.29,0,0,1-.29-.29v-1.12a.29.29,0,0,1,.58,0v1.12A.29.29,0,0,1,161.9,148.22Zm0-2.24a.28.28,0,0,1-.29-.28v-1.12a.29.29,0,0,1,.58,0v1.12A.28.28,0,0,1,161.9,146Zm0-2.23a.29.29,0,0,1-.29-.29v-1.11a.29.29,0,0,1,.58,0v1.11A.29.29,0,0,1,161.9,143.75Zm0-2.23a.29.29,0,0,1-.29-.29v-1.11a.29.29,0,0,1,.58,0v1.11A.29.29,0,0,1,161.9,141.52Zm0-2.23a.29.29,0,0,1-.29-.29v-1.11a.29.29,0,0,1,.58,0V139A.29.29,0,0,1,161.9,139.29Zm0-2.23a.29.29,0,0,1-.29-.29v-1.11a.29.29,0,0,1,.58,0v1.11A.29.29,0,0,1,161.9,137.06Zm0-2.23a.29.29,0,0,1-.29-.29v-1.12a.29.29,0,0,1,.58,0v1.12A.29.29,0,0,1,161.9,134.83Z"/><path class="cls-26" d="M161.9,149.91a.29.29,0,0,1-.29-.29V149a.29.29,0,0,1,.58,0v.58A.29.29,0,0,1,161.9,149.91Z"/><path class="cls-10" d="M165.4,131.8a12.41,12.41,0,0,1-6.6-2,14.52,14.52,0,0,0-15.43,0,12.38,12.38,0,0,1-6.6,2v-1.16a11.29,11.29,0,0,0,6-1.87,15.69,15.69,0,0,1,16.55,0,11.32,11.32,0,0,0,6,1.87Z"/><path class="cls-8" d="M151,126.41a15.23,15.23,0,0,0-8.15,2.36,11.29,11.29,0,0,1-6,1.87v1.16a12.38,12.38,0,0,0,6.6-2,14,14,0,0,1,7.59-2.21Z"/><path class="cls-27" d="M181.19,132.68h-9.53l.72-17.39a1.43,1.43,0,0,1,1.43-1.38h5.24a1.43,1.43,0,0,1,1.43,1.38Z"/><path class="cls-28" d="M173.81,113.91h-.09v18.76h2.76V113.91Z"/><path class="cls-29" d="M178.88,115v17.68h2.31l-.71-17.39a1.43,1.43,0,0,0-1.43-1.38h-.6A1.49,1.49,0,0,1,178.88,115Z"/><path class="cls-27" d="M181.19,142.28h-9.53l.72,17.39a1.43,1.43,0,0,0,1.43,1.38h5.24a1.43,1.43,0,0,0,1.43-1.38Z"/><path class="cls-28" d="M173.72,142.28V161h2.76V142.28Z"/><path class="cls-29" d="M178.88,142.28v17.53a1.44,1.44,0,0,1-.62,1.24h.79a1.43,1.43,0,0,0,1.43-1.38l.71-17.39Z"/><rect class="cls-27" x="171.66" y="132.68" width="9.53" height="9.6"/><rect class="cls-28" x="173.72" y="132.68" width="2.76" height="9.6"/><rect class="cls-29" x="178.88" y="132.68" width="2.31" height="9.6"/><rect class="cls-7" x="171.21" y="132.68" width="10.45" height="1.52"/><rect class="cls-8" x="173.72" y="132.68" width="2.76" height="1.52"/><rect class="cls-10" x="178.88" y="132.68" width="2.77" height="1.52"/><rect class="cls-7" x="171.21" y="140.76" width="10.45" height="1.52"/><rect class="cls-8" x="173.72" y="140.76" width="2.76" height="1.52"/><rect class="cls-10" x="178.88" y="140.76" width="2.77" height="1.52"/><path class="cls-30" d="M181,144.64a6.15,6.15,0,0,1,1-3.3,7.31,7.31,0,0,0,0-7.71,6.2,6.2,0,0,1-1-3.3h.57a5.62,5.62,0,0,0,.94,3,7.85,7.85,0,0,1,0,8.28,5.66,5.66,0,0,0-.94,3Z"/><path class="cls-31" d="M114.26,185.4l3.14-2.17,3.58-11v-8.69h-2.09a1.25,1.25,0,0,1-1.24-1.24v-.42h1V158l-2.06.52-1.3,5.07v11.17a1,1,0,0,1-1,1h0Z"/><path class="cls-32" d="M113.16,185.4,110,183.23l-3.58-11v-8.69h2.09a1.24,1.24,0,0,0,1.24-1.24v-.42h-1V158l2,.52,1.3,5.07v1.55h39.76v5.69H112.12v3.93a1,1,0,0,0,1,1h0Z"/><path class="cls-33" d="M119.08,178.11c-1.31-1.29-2.56-2.63-3.79-4v.63a1,1,0,0,1-1,1h0v9.62l3.14-2.17Z"/><path class="cls-33" d="M113.16,175.78a1,1,0,0,1-1-1v-3.93h.18c-2-2.17-4-4.34-5.87-6.57v8l3.58,11,3.15,2.17v-9.62Z"/><path class="cls-34" d="M111.27,184.1V181a1.89,1.89,0,0,1,1.89-1.89h0v6.31Z"/><path class="cls-35" d="M111.27,181v3.12l.37.26v-3.21a1.93,1.93,0,0,1,1.52-2v-.11h0A1.89,1.89,0,0,0,111.27,181Z"/><path class="cls-34" d="M116.15,184.1V181a1.89,1.89,0,0,0-1.89-1.89h0v6.31Z"/><path class="cls-36" d="M114.26,179.14a1.93,1.93,0,0,1,1.65,2v3.14l.24-.16V181a1.89,1.89,0,0,0-1.89-1.89h0Z"/><path class="cls-34" d="M108.77,158v3.93h.8a.62.62,0,0,0,.62-.62v-3Z"/><path class="cls-36" d="M110,161.33a.6.6,0,0,1-.41.59h0a.62.62,0,0,0,.62-.62v-3l-.23-.06Z"/><rect class="cls-34" x="127.34" y="145.24" width="3.64" height="45.45" transform="translate(-38.81 297.12) rotate(-90)"/><rect class="cls-37" x="129.01" y="146.96" width="0.29" height="45.45" transform="translate(-40.53 298.84) rotate(-90)"/><path class="cls-38" d="M150.48,166.72v2.49h-.62v-2.49Zm-3.11,0v2.49h-.62v-2.49Zm-3.1,0v2.49h-.62v-2.49Zm-3.1,0v2.49h-.62v-2.49Zm-3.11,0v2.49h-.62v-2.49Zm-3.1,0v2.49h-.62v-2.49Zm-3.1,0v2.49h-.62v-2.49Zm-3.11,0v2.49h-.62v-2.49Zm-3.1,0v2.49H125v-2.49Zm-3.1,0v2.49h-.62v-2.49Zm-3.11,0v2.49h-.62v-2.49Zm-3.1,0v2.49h-.62v-2.49Zm-3.1,0v2.49h-.62v-2.49Zm-3.11,0v2.49h-.62v-2.49Zm-3.1,0v2.49h-.62v-2.49Z"/><rect class="cls-39" x="147.84" y="166.78" width="5.69" height="2.39" transform="translate(-17.29 318.66) rotate(-90)"/><path class="cls-40" d="M150.08,167c-.09-.6-.21-1.24-.25-1.88h-.34v5.69h2.26A8.21,8.21,0,0,1,150.08,167Z"/><path class="cls-7" d="M150.69,165.59a.56.56,0,1,1-.56.56A.56.56,0,0,1,150.69,165.59Z"/><path class="cls-7" d="M150.69,169.22a.56.56,0,0,1,.55.56.56.56,0,1,1-1.11,0A.57.57,0,0,1,150.69,169.22Z"/><path class="cls-8" d="M150.57,166a.25.25,0,0,1,.26.26.26.26,0,0,1-.26.26.26.26,0,0,1-.26-.26A.26.26,0,0,1,150.57,166Z"/><path class="cls-8" d="M150.57,169.62a.27.27,0,0,1,0,.53.27.27,0,0,1,0-.53Z"/><path class="cls-37" d="M153.89,168v.62h-2v-1.24h1.39Z"/><path class="cls-37" d="M153.89,168v.62h-2v-1.24h1.39Z"/><polygon class="cls-41" points="151.88 168.62 151.88 167.38 153.27 167.38 153.62 167.73 152.43 167.73 152.43 168.62 151.88 168.62"/><rect class="cls-42" x="139.19" y="165.08" width="1.67" height="5.74"/><rect class="cls-43" x="119.12" y="163.22" width="20.07" height="10.74" rx="1.86"/><path class="cls-44" d="M137.33,174l-14.61,0h-1.36a2.3,2.3,0,0,1-1.34-.27,1.9,1.9,0,0,1-.85-1,4.19,4.19,0,0,1-.1-1.31c0-1.71,0-3.31,0-4.68,0-.68,0-1.31,0-1.87a1.93,1.93,0,0,1,.7-1.25,2,2,0,0,1,.85-.38l.25,0H121v.06h-.08l-.23.05a1.77,1.77,0,0,0-.76.42,1.68,1.68,0,0,0-.55,1.14c0,.52.07,1.18.09,1.85,0,1.37.14,3,.16,4.68,0,.21,0,.43,0,.65a1.24,1.24,0,0,0,.08.48,1.31,1.31,0,0,0,.61.72,1.71,1.71,0,0,0,1,.17l1.36,0,5.37.07c1.71,0,3.31.12,4.67.16s2.51.15,3.31.2,1.26.1,1.26.1Z"/><rect class="cls-34" x="120.08" y="164.1" width="18.14" height="6.51" rx="1.38"/><path class="cls-45" d="M121.2,167.33h0l-.14-.15V165l.14-.14h0l.31.3V167Zm.31,2.23V167.7l-.31-.31h0l-.14.14v2.2l.14.14h0Zm1.36-2.38V165l-.14-.14h0l-.31.3V167l.31.31h0Zm0,2.55v-2.2l-.14-.14h0l-.31.31v1.86l.31.31h0Zm-1.31-4.64h.8l.31-.3h0l-.14-.14h-1.14l-.14.14h0Zm-.31,4.84h0l.14.14h1.14a1.85,1.85,0,0,0,.14-.14h0l-.31-.31h-.8Zm1.38-2.55v-.06l-.23-.23h-.87l-.23.23v.06l.23.23h.87Zm.63,0h0l-.14-.15V165l.14-.14h0l.3.3V167Zm.3,2.23V167.7l-.3-.31h0l-.14.14v2.2l.14.14h0Zm1.37-2.38V165l-.15-.14h0l-.3.3V167l.3.31h0Zm0,2.55v-2.2l-.15-.14h0l-.3.31v1.86l.3.31h0Zm-1.32-4.64h.81l.3-.3h0a.93.93,0,0,0-.14-.14h-1.13a.93.93,0,0,0-.14.14h0Zm-.3,4.84h0a.93.93,0,0,0,.14.14h1.13a.93.93,0,0,0,.14-.14h0l-.3-.31h-.81Zm1.38-2.55v-.06l-.23-.23h-.87l-.24.23v.06l.24.23h.87Zm.62,0h0l-.14-.15V165l.14-.14h0l.31.3V167Zm.31,2.23V167.7l-.31-.31h0l-.14.14v2.2l.14.14h0Zm1.36-2.38V165l-.14-.14h0l-.31.3V167l.31.31h0Zm0,2.55v-2.2l-.14-.14h0l-.31.31v1.86l.31.31h0Zm-1.31-4.64h.8l.31-.3h0l-.14-.14H125.5l-.14.14h0Zm-.31,4.84h0l.14.14h1.14l.14-.14h0l-.31-.31h-.8Zm1.38-2.55v-.06l-.23-.23h-.87l-.23.23v.06l.23.23h.87Zm.63,0h0l-.15-.15V165l.15-.14h0l.3.3V167Zm.3,2.23V167.7l-.3-.31h0l-.15.14v2.2l.15.14h0Zm1.36-2.38V165l-.14-.14h0l-.3.3V167l.3.31h0Zm0,2.55v-2.2l-.14-.14h0l-.3.31v1.86l.3.31h0Zm-1.31-4.64h.81l.3-.3h0a.93.93,0,0,0-.14-.14h-1.13l-.14.14h0Zm-.3,4.84h0a.93.93,0,0,0,.14.14h1.13a.93.93,0,0,0,.14-.14h0l-.3-.31h-.81Zm1.38-2.55v-.06l-.24-.23h-.87l-.23.23v.06l.23.23h.87Zm.62,0h0l-.14-.15V165l.14-.14h0l.31.3V167Zm.31,2.23V167.7l-.31-.31h0l-.14.14v2.2l.14.14h0Zm1.36-2.38V165l-.14-.14h0l-.31.3V167l.31.31h0Zm0,2.55v-2.2l-.14-.14h0l-.31.31v1.86l.31.31h0Zm-1.31-4.64h.8l.31-.3h0l-.14-.14h-1.14a.93.93,0,0,0-.14.14h0Zm-.31,4.84h0a.93.93,0,0,0,.14.14h1.14l.14-.14h0l-.31-.31h-.8Zm1.38-2.55v-.06l-.23-.23h-.87l-.23.23v.06l.23.23h.87Zm.62,0h0l-.14-.15V165l.14-.14h0l.31.3V167Zm.31,2.23V167.7l-.31-.31h0l-.14.14v2.2l.14.14h0Zm1.36-2.38V165l-.14-.14h0l-.31.3V167l.31.31h0Zm0,2.55v-2.2l-.14-.14h0l-.31.31v1.86l.31.31h0Zm-1.31-4.64h.8l.31-.3h0l-.14-.14h-1.14l-.14.14h0Zm-.31,4.84h0l.14.14h1.14l.14-.14h0l-.31-.31h-.8Zm1.38-2.55v-.06l-.23-.23h-.87l-.23.23v.06l.23.23h.87Zm.63,0h0l-.14-.15V165l.14-.14h0l.3.3V167Zm.3,2.23V167.7l-.3-.31h0l-.14.14v2.2l.14.14h0Zm1.37-2.38V165l-.15-.14h0l-.3.3V167l.3.31h0Zm0,2.55v-2.2l-.15-.14h0l-.3.31v1.86l.3.31h0Zm-1.32-4.64h.81l.31-.3h0l-.15-.14h-1.13l-.14.14h0Zm-.3,4.84h0a.93.93,0,0,0,.14.14h1.13l.15-.14h0l-.31-.31h-.81Zm1.38-2.55v-.06l-.23-.23h-.87l-.23.23v.06l.23.23h.87Zm.62,0h0l-.14-.15V165l.14-.14h0l.31.3V167Zm.31,2.23V167.7l-.31-.31h0l-.14.14v2.2l.14.14h0Zm1.36-2.38V165l-.14-.14h0l-.31.3V167l.31.31h0Zm0,2.55v-2.2a1.85,1.85,0,0,1-.14-.14h0l-.31.31v1.86l.31.31h0Zm-1.31-4.64h.8l.31-.3h0l-.14-.14h-1.14l-.14.14h0Zm-.31,4.84h0l.14.14h1.14l.14-.14h0l-.31-.31h-.8Zm1.38-2.55v-.06l-.23-.23h-.87l-.23.23v.06l.23.23h.87Z"/><path class="cls-46" d="M122.87,167.18V165l-.14-.14h0l-.31.3V167l.31.31h0Zm0,2.55v-2.2l-.14-.14h0l-.31.31v1.86l.31.31h0Zm.69-.17V167.7l-.3-.31h0l-.14.14v2.2l.14.14h0Zm1.37-2.38V165l-.15-.14h0l-.3.3V167l.3.31h0Zm-1.32-2.09h.81l.3-.3h0a.93.93,0,0,0-.14-.14h-1.13a.93.93,0,0,0-.14.14h0Zm-.3,4.84h0a.93.93,0,0,0,.14.14h1.13a.93.93,0,0,0,.14-.14h0l-.3-.31h-.81Zm1.38-2.55v-.06l-.23-.23h-.87l-.24.23v.06l.24.23h.87Zm2.29-.2V165l-.14-.14h0l-.31.3V167l.31.31h0Zm0,2.55v-2.2l-.14-.14h0l-.31.31v1.86l.31.31h0Zm-1.31-4.64h.8l.31-.3h0l-.14-.14H125.5l-.14.14h0Zm-.31,4.84h0l.14.14h1.14l.14-.14h0l-.31-.31h-.8Zm1.38-2.55v-.06l-.23-.23h-.87l-.23.23v.06l.23.23h.87Zm.63,0h0l-.15-.15V165l.15-.14h0l.3.3V167Zm1.66-.15V165l-.14-.14h0l-.3.3V167l.3.31h0Zm0,2.55v-2.2l-.14-.14h0l-.3.31v1.86l.3.31h0Zm-.23-2.35v-.06l-.24-.23h-.87l-.23.23v.06l.23.23h.87Zm.62,0h0l-.14-.15V165l.14-.14h0l.31.3V167Zm1.67,2.4v-2.2l-.14-.14h0l-.31.31v1.86l.31.31h0Zm-1.31-4.64h.8l.31-.3h0l-.14-.14h-1.14a.93.93,0,0,0-.14.14h0Zm-.31,4.84h0a.93.93,0,0,0,.14.14h1.14l.14-.14h0l-.31-.31h-.8Zm1.38-2.55v-.06l-.23-.23h-.87l-.23.23v.06l.23.23h.87Zm.62,0h0l-.14-.15V165l.14-.14h0l.31.3V167Zm.31,2.23V167.7l-.31-.31h0l-.14.14v2.2l.14.14h0Zm1.36.17v-2.2l-.14-.14h0l-.31.31v1.86l.31.31h0Zm-1.31-4.64h.8l.31-.3h0l-.14-.14h-1.14l-.14.14h0Zm-.31,4.84h0l.14.14h1.14l.14-.14h0l-.31-.31h-.8Zm1.38-2.55v-.06l-.23-.23h-.87l-.23.23v.06l.23.23h.87Zm2.3-.2V165l-.15-.14h0l-.3.3V167l.3.31h0Zm0,2.55v-2.2l-.15-.14h0l-.3.31v1.86l.3.31h0Zm-1.32-4.64h.81l.31-.3h0l-.15-.14h-1.13l-.14.14h0Zm1.7,2.24h0l-.14-.15V165l.14-.14h0l.31.3V167Zm.31,2.23V167.7l-.31-.31h0l-.14.14v2.2l.14.14h0Zm1.36-2.38V165l-.14-.14h0l-.31.3V167l.31.31h0Zm0,2.55v-2.2a1.85,1.85,0,0,1-.14-.14h0l-.31.31v1.86l.31.31h0Zm-1.31-4.64h.8l.31-.3h0l-.14-.14h-1.14l-.14.14h0Zm-.31,4.84h0l.14.14h1.14l.14-.14h0l-.31-.31h-.8Zm1.38-2.55v-.06l-.23-.23h-.87l-.23.23v.06l.23.23h.87Z"/><path class="cls-33" d="M128.19,167.68c-1.91-1.41-4-2.87-6-4.46H121a1.86,1.86,0,0,0-1.86,1.86v7A1.86,1.86,0,0,0,121,174h16.43A89.18,89.18,0,0,1,128.19,167.68Z"/><rect class="cls-38" x="129.32" y="171.22" width="3.13" height="1.58" rx="0.62"/><rect class="cls-7" x="129.11" y="171.4" width="3.13" height="1.58" rx="0.62"/><rect class="cls-8" x="129.4" y="171.62" width="2.5" height="0.79" rx="0.39"/><rect class="cls-38" x="133.36" y="171.22" width="3.13" height="1.58" rx="0.62"/><rect class="cls-47" x="133.14" y="171.4" width="3.13" height="1.58" rx="0.62"/><rect class="cls-48" x="133.44" y="171.62" width="2.5" height="0.79" rx="0.39"/><path class="cls-7" d="M66.1,170.42H63.9V176H94.54v-5.55H92.35a13.13,13.13,0,0,0-26.25,0Zm13.12.74a.74.74,0,1,1,.74-.74A.74.74,0,0,1,79.22,171.16Zm7.92-.74H80.7a1.48,1.48,0,0,0-3,0H71.3a7.92,7.92,0,0,1,15.84,0Z"/><path class="cls-8" d="M93.71,175.13h-29v-3.88h2.19v-.83a12.29,12.29,0,0,1,24.58,0v.83h2.2ZM88,171.25v-.83a8.76,8.76,0,0,0-17.52,0v.83h7.43a1.56,1.56,0,0,0,1.33.74,1.57,1.57,0,0,0,1.34-.74Z"/><path class="cls-38" d="M91.94,169.46l-2.08.16c0-.12,0-.25,0-.38L91.9,169C91.91,169.16,91.93,169.31,91.94,169.46Zm-.37-2.23-2,.52-.1-.37,2-.59Zm-.76-2.14-1.9.87-.16-.34,1.86-.94C90.68,164.81,90.74,165,90.81,165.09Zm-1.13-2L88,164.32l-.23-.31,1.67-1.26Zm-1.46-1.74-1.48,1.48-.27-.26,1.42-1.53Zm-1.75-1.45-1.19,1.72a2.82,2.82,0,0,0-.31-.21l1.12-1.76C86.22,159.76,86.35,159.84,86.47,159.93Zm-2-1.12-.87,1.9a3.68,3.68,0,0,0-.35-.15l.8-1.93Zm-2.15-.76-.51,2-.37-.09.44-2Zm-2.24-.35L80,159.78l-.37,0,.06-2.08Zm-2,2.12-.37.05-.3-2.07.45-.06Zm-1.86.37-.36.11-.66-2,.43-.13Zm-1.76.7-.34.17-1-1.83.4-.21Zm-1.61,1a2.37,2.37,0,0,0-.3.23l-1.32-1.62.36-.28Zm-1.42,1.27-.25.28-1.58-1.37.31-.33Zm-1.16,1.5c-.07.11-.14.21-.2.32l-1.8-1.06.24-.39Zm-.88,1.68c-.05.12-.1.24-.14.36l-2-.73c0-.15.11-.29.17-.43Zm-.57,1.81c0,.13,0,.25-.07.38l-2.06-.37.09-.45ZM68.57,170c0,.12,0,.25,0,.38H66.47c0-.15,0-.3,0-.45Z"/><path class="cls-38" d="M92.67,173.39v2.09h-.42v-2.09Zm-2.09,0v2.09h-.41v-2.09Zm-2.08,0v2.09h-.42v-2.09Zm-2.09,0v2.09H86v-2.09Zm-2.09,0v2.09H83.9v-2.09Zm-2.09,0v2.09h-.42v-2.09Zm-2.09,0v2.09h-.41v-2.09Zm-2.09,0v2.09h-.41v-2.09Zm-2.08,0v2.09h-.42v-2.09Zm-2.09,0v2.09h-.42v-2.09Zm-2.09,0v2.09h-.42v-2.09Zm-2.09,0v2.09h-.41v-2.09Zm-2.09,0v2.09H67.2v-2.09Zm-2.08,0v2.09h-.42v-2.09Z"/><path class="cls-49" d="M80.79,170.47l0-.05h0s0-.06,0-.09l-.84-1.25a1.46,1.46,0,0,0-.63-.14,1.48,1.48,0,0,0-1.48,1.48H71.3A7.91,7.91,0,0,1,76,163.18c-.76-1.23-1.51-2.46-2.24-3.71l-.45-.77a13.11,13.11,0,0,0-7.23,11.72H63.9V176H84.71C83.37,174.16,82.07,172.32,80.79,170.47Zm-2.31-.05a.74.74,0,1,1,.74.74A.74.74,0,0,1,78.48,170.42Z"/><rect class="cls-7" x="85.73" y="170" width="4.13" height="23" transform="translate(269.3 93.71) rotate(90)"/><rect class="cls-10" x="87.17" y="171.44" width="1.26" height="23" transform="translate(270.73 95.14) rotate(90)"/><rect class="cls-8" x="87.17" y="168.57" width="1.26" height="23" transform="translate(267.86 92.28) rotate(90)"/><polygon class="cls-50" points="72.12 182.09 72.12 180.92 76.29 179.44 76.29 183.57 72.12 182.09"/><polygon class="cls-43" points="72.12 180.92 70.27 181.5 72.12 182.09 72.12 180.92"/><rect class="cls-31" x="98.2" y="180.39" width="4.42" height="2.24" transform="translate(281.92 81.09) rotate(90)"/><rect class="cls-34" x="99.3" y="182.77" width="2.24" height="0.95"/><rect class="cls-40" x="99.3" y="180.35" width="2.24" height="0.95"/><path class="cls-48" d="M104,182.71v-1.56l-1-1.71h-1.4v4.13h1.57A.86.86,0,0,0,104,182.71Z"/><polygon class="cls-51" points="103.95 181.15 103.4 180.22 101.53 180.22 101.53 181.43 103.95 181.43 103.95 181.15"/><path class="cls-47" d="M104,182.71v-.66a1.11,1.11,0,0,1-1,.61h-.83a1.06,1.06,0,0,1-.63-.21v1.12h1.57A.86.86,0,0,0,104,182.71Z"/><polygon class="cls-52" points="76.29 180.07 72.12 181.23 76.29 181.23 76.29 180.07"/><polygon class="cls-53" points="76.29 182.09 72.12 181.67 72.12 182.09 76.29 183.57 76.29 182.09"/><path class="cls-48" d="M73.85,127.22A1.25,1.25,0,1,1,72.6,126,1.25,1.25,0,0,1,73.85,127.22Z"/><circle class="cls-51" cx="72.4" cy="127.05" r="0.7"/><path class="cls-48" d="M71,126.41l-1.21-.61a3.73,3.73,0,0,1,.23-.37l1.1.77A2.25,2.25,0,0,0,71,126.41Z"/><path class="cls-48" d="M74.12,126.44a1.13,1.13,0,0,0-.12-.21l1.12-.75c.08.12.15.25.22.38Z"/><path class="cls-48" d="M71.85,125.59l-.54-1.24.41-.14.36,1.3Z"/><path class="cls-48" d="M73.27,125.6l-.23-.08.38-1.29a2.86,2.86,0,0,1,.41.15Z"/><path class="cls-38" d="M58.2,127.24H75.84a0,0,0,0,1,0,0v27.22A1.54,1.54,0,0,1,74.3,156H59.74a1.54,1.54,0,0,1-1.54-1.54V127.24A0,0,0,0,1,58.2,127.24Z"/><path class="cls-43" d="M61.25,138a100.77,100.77,0,0,1,9.23-7.25c1.68-1.2,3.37-2.38,5.1-3.52H58.2v13.67C59.21,139.89,60.25,138.92,61.25,138Z"/><path class="cls-43" d="M65.38,155.09a105,105,0,0,1,7.81-7.26c.87-.74,1.75-1.47,2.65-2.21v-2.44c-.72.54-1.43,1.08-2.13,1.64-3.24,2.6-6.37,5.33-9.45,8.11-1.07,1-2.19,2-3.23,3.07h3.44Z"/><rect class="cls-34" x="59.54" y="128.66" width="14.83" height="8.33" rx="0.77"/><path class="cls-54" d="M63.08,141.85a1.58,1.58,0,1,1-1.57-1.58A1.57,1.57,0,0,1,63.08,141.85Z"/><path class="cls-8" d="M62.7,141.46a1.58,1.58,0,1,1-1.58-1.57A1.58,1.58,0,0,1,62.7,141.46Z"/><path class="cls-55" d="M60.94,142.47a1.18,1.18,0,0,1,0-2.35,1.18,1.18,0,1,1,0,2.35Z"/><path class="cls-54" d="M67,141.85a1.58,1.58,0,1,1-1.57-1.58A1.57,1.57,0,0,1,67,141.85Z"/><path class="cls-8" d="M66.59,141.46A1.58,1.58,0,1,1,65,139.89,1.58,1.58,0,0,1,66.59,141.46Z"/><path class="cls-55" d="M64.83,142.47A1.18,1.18,0,1,1,66,141.3,1.17,1.17,0,0,1,64.83,142.47Z"/><path class="cls-54" d="M70.87,141.85a1.58,1.58,0,1,1-1.58-1.58A1.58,1.58,0,0,1,70.87,141.85Z"/><path class="cls-8" d="M70.48,141.46a1.58,1.58,0,1,1-1.58-1.57A1.58,1.58,0,0,1,70.48,141.46Z"/><path class="cls-55" d="M68.72,142.47a1.18,1.18,0,0,1,0-2.35,1.18,1.18,0,1,1,0,2.35Z"/><path class="cls-54" d="M74.75,141.85a1.58,1.58,0,1,1-1.57-1.58A1.57,1.57,0,0,1,74.75,141.85Z"/><path class="cls-8" d="M74.37,141.46a1.58,1.58,0,1,1-1.58-1.57A1.58,1.58,0,0,1,74.37,141.46Z"/><path class="cls-55" d="M72.61,142.47a1.18,1.18,0,0,1,0-2.35,1.18,1.18,0,1,1,0,2.35Z"/><path class="cls-54" d="M63.08,145.75a1.58,1.58,0,1,1-1.57-1.58A1.57,1.57,0,0,1,63.08,145.75Z"/><path class="cls-8" d="M62.7,145.37a1.58,1.58,0,1,1-1.58-1.58A1.57,1.57,0,0,1,62.7,145.37Z"/><circle class="cls-55" cx="60.94" cy="145.2" r="1.17"/><path class="cls-54" d="M67,145.75a1.58,1.58,0,1,1-1.57-1.58A1.57,1.57,0,0,1,67,145.75Z"/><path class="cls-8" d="M66.59,145.37A1.58,1.58,0,1,1,65,143.79,1.57,1.57,0,0,1,66.59,145.37Z"/><path class="cls-55" d="M64.83,146.37A1.18,1.18,0,1,1,66,145.2,1.17,1.17,0,0,1,64.83,146.37Z"/><path class="cls-54" d="M70.87,145.75a1.58,1.58,0,1,1-1.58-1.58A1.58,1.58,0,0,1,70.87,145.75Z"/><path class="cls-8" d="M70.48,145.37a1.58,1.58,0,1,1-1.58-1.58A1.57,1.57,0,0,1,70.48,145.37Z"/><circle class="cls-55" cx="68.72" cy="145.2" r="1.17"/><path class="cls-54" d="M74.75,145.75a1.58,1.58,0,1,1-1.57-1.58A1.57,1.57,0,0,1,74.75,145.75Z"/><path class="cls-8" d="M74.37,145.37a1.58,1.58,0,1,1-1.58-1.58A1.57,1.57,0,0,1,74.37,145.37Z"/><path class="cls-55" d="M72.61,146.37a1.18,1.18,0,0,1,0-2.35,1.18,1.18,0,1,1,0,2.35Z"/><path class="cls-54" d="M63.08,149.65a1.58,1.58,0,1,1-1.57-1.58A1.57,1.57,0,0,1,63.08,149.65Z"/><path class="cls-8" d="M62.7,149.27a1.58,1.58,0,1,1-1.58-1.58A1.58,1.58,0,0,1,62.7,149.27Z"/><path class="cls-55" d="M60.94,150.27a1.17,1.17,0,1,1,1.18-1.17A1.17,1.17,0,0,1,60.94,150.27Z"/><circle class="cls-54" cx="65.4" cy="149.65" r="1.58"/><path class="cls-8" d="M66.59,149.27A1.58,1.58,0,1,1,65,147.69,1.58,1.58,0,0,1,66.59,149.27Z"/><path class="cls-55" d="M64.83,150.27A1.17,1.17,0,1,1,66,149.1,1.17,1.17,0,0,1,64.83,150.27Z"/><path class="cls-54" d="M70.87,149.65a1.58,1.58,0,1,1-1.58-1.58A1.58,1.58,0,0,1,70.87,149.65Z"/><path class="cls-8" d="M70.48,149.27a1.58,1.58,0,1,1-1.58-1.58A1.58,1.58,0,0,1,70.48,149.27Z"/><path class="cls-55" d="M68.72,150.27a1.17,1.17,0,1,1,1.18-1.17A1.17,1.17,0,0,1,68.72,150.27Z"/><path class="cls-54" d="M74.75,149.65a1.58,1.58,0,1,1-1.57-1.58A1.57,1.57,0,0,1,74.75,149.65Z"/><path class="cls-8" d="M74.37,149.27a1.58,1.58,0,1,1-1.58-1.58A1.58,1.58,0,0,1,74.37,149.27Z"/><path class="cls-55" d="M72.61,150.27a1.17,1.17,0,1,1,1.18-1.17A1.17,1.17,0,0,1,72.61,150.27Z"/><path class="cls-54" d="M63.08,153.55A1.58,1.58,0,1,1,61.51,152,1.57,1.57,0,0,1,63.08,153.55Z"/><path class="cls-8" d="M62.7,153.17a1.58,1.58,0,1,1-1.58-1.58A1.58,1.58,0,0,1,62.7,153.17Z"/><path class="cls-55" d="M60.94,154.18A1.18,1.18,0,1,1,62.12,153,1.17,1.17,0,0,1,60.94,154.18Z"/><path class="cls-54" d="M67,153.55A1.58,1.58,0,1,1,65.4,152,1.57,1.57,0,0,1,67,153.55Z"/><path class="cls-8" d="M66.59,153.17A1.58,1.58,0,1,1,65,151.59,1.58,1.58,0,0,1,66.59,153.17Z"/><path class="cls-55" d="M64.83,154.18A1.18,1.18,0,1,1,66,153,1.17,1.17,0,0,1,64.83,154.18Z"/><path class="cls-54" d="M70.87,153.55A1.58,1.58,0,1,1,69.29,152,1.58,1.58,0,0,1,70.87,153.55Z"/><path class="cls-56" d="M70.48,153.17a1.58,1.58,0,1,1-1.58-1.58A1.58,1.58,0,0,1,70.48,153.17Z"/><path class="cls-55" d="M68.72,154.18A1.18,1.18,0,1,1,69.9,153,1.17,1.17,0,0,1,68.72,154.18Z"/><path class="cls-54" d="M74.75,153.55A1.58,1.58,0,1,1,73.18,152,1.57,1.57,0,0,1,74.75,153.55Z"/><path class="cls-8" d="M74.37,153.17a1.58,1.58,0,1,1-1.58-1.58A1.58,1.58,0,0,1,74.37,153.17Z"/><path class="cls-55" d="M72.61,154.18A1.18,1.18,0,1,1,73.79,153,1.17,1.17,0,0,1,72.61,154.18Z"/><g class="cls-57"><path class="cls-43" d="M73.76,136.34H60.16v-7h13.6Zm-13.41-.2H73.57v-6.63H60.35Z"/><rect class="cls-43" x="60.25" y="135.01" width="13.41" height="0.19"/><rect class="cls-43" x="60.25" y="133.87" width="13.41" height="0.19"/><rect class="cls-43" x="60.25" y="132.73" width="13.41" height="0.19"/><rect class="cls-43" x="60.25" y="131.59" width="13.41" height="0.19"/><rect class="cls-43" x="60.25" y="130.46" width="13.41" height="0.19"/><rect class="cls-43" x="70.21" y="129.42" width="0.19" height="6.82"/><rect class="cls-43" x="66.86" y="129.42" width="0.19" height="6.82"/><rect class="cls-43" x="63.51" y="129.42" width="0.19" height="6.82"/></g><path class="cls-38" d="M60.26,136.44a.2.2,0,0,1-.19-.19.19.19,0,0,1,.19-.19c.66,0,1.08-1.71,1.46-3.22.46-1.84.89-3.57,1.88-3.57S65,131,65.46,132.8c.35,1.51.75,3.23,1.48,3.23s1.14-1.72,1.51-3.25c.44-1.82.86-3.54,1.89-3.54s1.47,1.76,1.91,3.62c.35,1.45.74,3.1,1.38,3.1a.19.19,0,0,1,.19.19.19.19,0,0,1-.19.2c-.95,0-1.34-1.66-1.75-3.41-.37-1.55-.79-3.31-1.54-3.31s-1.15,1.72-1.51,3.25c-.45,1.82-.86,3.54-1.89,3.54s-1.44-1.72-1.86-3.53c-.35-1.52-.75-3.24-1.48-3.24s-1.12,1.75-1.51,3.29C61.64,134.74,61.22,136.44,60.26,136.44Z"/><path class="cls-33" d="M60.31,137h.59a56.32,56.32,0,0,1,6.39-5.11,42.86,42.86,0,0,1,5.43-3.22H60.31a.78.78,0,0,0-.77.77v6.8A.77.77,0,0,0,60.31,137Z"/><rect class="cls-58" x="58.2" y="138.41" width="17.64" height="0.38"/><rect class="cls-30" x="58.2" y="138.03" width="17.64" height="0.38"/><rect class="cls-59" x="58.2" y="138.79" width="17.64" height="0.38"/><text class="cls-60" transform="translate(73.5 206.1)">INVESTIG<tspan class="cls-61" x="46.74" y="0">A</tspan><tspan class="cls-62" x="54.04" y="0">CIÓN</tspan></text></g></g></g></svg>