<svg xmlns="http://www.w3.org/2000/svg" xmlns:xlink="http://www.w3.org/1999/xlink" viewBox="0 0 450 225"><defs><style>.cls-1{fill:none;}.cls-2{isolation:isolate;}.cls-3{fill:#fff;}.cls-35,.cls-4{fill:#1b0043;}.cls-5{fill:#f4f5fb;}.cls-6{fill:#999;}.cls-12,.cls-25,.cls-44,.cls-6{opacity:0.55;}.cls-12,.cls-17,.cls-25,.cls-35,.cls-39,.cls-41,.cls-45,.cls-6,.cls-7{mix-blend-mode:multiply;}.cls-7{fill:#eaecf7;}.cls-8{fill:#7e7c79;}.cls-9{fill:#83828b;}.cls-10{fill:#9aacba;}.cls-11{fill:url(#linear-gradient);}.cls-12{fill:url(#linear-gradient-2);}.cls-13{opacity:0.45;fill:url(#linear-gradient-3);}.cls-14{fill:url(#radial-gradient);}.cls-15{fill:url(#radial-gradient-2);}.cls-16,.cls-25{fill:#6c606f;}.cls-17{fill:#bdcbd6;}.cls-18{fill:#f2f1f2;}.cls-19{fill:#5b5862;}.cls-20{fill:#2f2b38;}.cls-21{fill:url(#linear-gradient-4);}.cls-22{clip-path:url(#clip-path);}.cls-23{fill:url(#linear-gradient-5);}.cls-24{fill:url(#linear-gradient-6);}.cls-26{fill:#51416f;}.cls-27{fill:url(#linear-gradient-7);}.cls-28{fill:url(#linear-gradient-8);}.cls-29{fill:url(#linear-gradient-9);}.cls-30{fill:url(#linear-gradient-10);}.cls-31{fill:url(#linear-gradient-11);}.cls-32{fill:url(#linear-gradient-12);}.cls-33{fill:url(#linear-gradient-13);}.cls-34{fill:url(#linear-gradient-14);}.cls-35{opacity:0.75;}.cls-36{fill:#a5948f;}.cls-37{fill:#39225c;}.cls-38{fill:url(#linear-gradient-15);}.cls-39{fill:#fea431;}.cls-39,.cls-45{opacity:0.5;}.cls-40{fill:url(#linear-gradient-16);}.cls-41{fill:url(#linear-gradient-17);}.cls-42{fill:url(#linear-gradient-18);}.cls-43{fill:url(#radial-gradient-3);}.cls-44,.cls-46{fill:#f9d433;}.cls-44{mix-blend-mode:screen;}.cls-45{fill:#fec94e;}.cls-47{fill:url(#radial-gradient-4);}.cls-48{fill:#e5e5e5;}.cls-49{opacity:0.54;mix-blend-mode:overlay;}</style><linearGradient id="linear-gradient" x1="69.8" y1="81.96" x2="69.8" y2="152.75" gradientUnits="userSpaceOnUse"><stop offset="0" stop-color="#3169ba"/><stop offset="1" stop-color="#8bba92"/></linearGradient><linearGradient id="linear-gradient-2" x1="70.99" y1="92.02" x2="69.47" y2="157.61" gradientUnits="userSpaceOnUse"><stop offset="0" stop-color="#8d468b"/><stop offset="1" stop-color="#903968"/></linearGradient><linearGradient id="linear-gradient-3" x1="70.31" y1="92" x2="68.79" y2="157.6" gradientUnits="userSpaceOnUse"><stop offset="0" stop-color="#3cc"/><stop offset="0.18" stop-color="#33c6cc"/><stop offset="0.43" stop-color="#33b5cc"/><stop offset="0.71" stop-color="#3499cd"/><stop offset="1" stop-color="#3475cd"/></linearGradient><radialGradient id="radial-gradient" cx="54.1" cy="117.92" r="26.03" gradientUnits="userSpaceOnUse"><stop offset="0.5" stop-color="#fae849"/><stop offset="0.81" stop-color="#f9e747"/><stop offset="0.92" stop-color="#f4e140"/><stop offset="1" stop-color="#edd935"/></radialGradient><radialGradient id="radial-gradient-2" cx="90.06" cy="118.37" r="25.16" xlink:href="#radial-gradient"/><linearGradient id="linear-gradient-4" x1="290.85" y1="71.26" x2="154.45" y2="164.58" gradientUnits="userSpaceOnUse"><stop offset="0" stop-color="#d6dcf0"/><stop offset="1" stop-color="#c8d0eb"/></linearGradient><clipPath id="clip-path"><rect class="cls-1" x="151.52" y="79.92" width="137.51" height="72.44"/></clipPath><linearGradient id="linear-gradient-5" x1="270.56" y1="71.43" x2="181.81" y2="150.32" xlink:href="#linear-gradient"/><linearGradient id="linear-gradient-6" x1="269.36" y1="180" x2="339.7" y2="186.42" gradientTransform="translate(74.57 -91.14) rotate(18.92)" gradientUnits="userSpaceOnUse"><stop offset="0" stop-color="#efdb38"/><stop offset="0.05" stop-color="#f2de3c"/><stop offset="0.25" stop-color="#f8e646"/><stop offset="0.5" stop-color="#fae849"/><stop offset="0.81" stop-color="#f9e747"/><stop offset="0.92" stop-color="#f4e140"/><stop offset="1" stop-color="#edd935"/></linearGradient><linearGradient id="linear-gradient-7" x1="351.39" y1="127.17" x2="373.9" y2="127.17" gradientTransform="matrix(1, 0, 0, 1, 0, 0)" xlink:href="#linear-gradient-6"/><linearGradient id="linear-gradient-8" x1="366.85" y1="106.33" x2="412.66" y2="106.33" xlink:href="#linear-gradient"/><linearGradient id="linear-gradient-9" x1="380.07" y1="119.22" x2="383.92" y2="119.22" xlink:href="#linear-gradient"/><linearGradient id="linear-gradient-10" x1="391.25" y1="118.91" x2="395.1" y2="118.91" xlink:href="#linear-gradient"/><linearGradient id="linear-gradient-11" x1="402.43" y1="118.91" x2="406.28" y2="118.91" xlink:href="#linear-gradient"/><linearGradient id="linear-gradient-12" x1="380.07" y1="128.52" x2="383.92" y2="128.52" xlink:href="#linear-gradient"/><linearGradient id="linear-gradient-13" x1="391.25" y1="128.52" x2="395.1" y2="128.52" xlink:href="#linear-gradient"/><linearGradient id="linear-gradient-14" x1="402.43" y1="128.52" x2="406.28" y2="128.52" xlink:href="#linear-gradient"/><linearGradient id="linear-gradient-15" x1="247.25" y1="-17.65" x2="266.78" y2="-17.65" gradientTransform="translate(12.06 19.93) rotate(44.57)" xlink:href="#linear-gradient-6"/><linearGradient id="linear-gradient-16" x1="279.87" y1="-43.91" x2="282.78" y2="-41" gradientTransform="translate(12.06 19.93) rotate(44.57)" gradientUnits="userSpaceOnUse"><stop offset="0" stop-color="#f0f2fa"/><stop offset="1" stop-color="#d6dcf0"/></linearGradient><linearGradient id="linear-gradient-17" x1="280.48" y1="-43.3" x2="282.86" y2="-40.92" xlink:href="#linear-gradient-16"/><linearGradient id="linear-gradient-18" x1="201.95" y1="183.35" x2="230.32" y2="183.35" gradientTransform="matrix(0.89, 0.46, -0.46, 0.89, 102.43, -74.73)" xlink:href="#linear-gradient-6"/><radialGradient id="radial-gradient-3" cx="142.58" cy="156.37" r="36.67" gradientTransform="translate(80.05 -36.57) rotate(21.41)" xlink:href="#radial-gradient"/><radialGradient id="radial-gradient-4" cx="168.07" cy="189.49" r="31.57" gradientTransform="translate(80.05 -36.57) rotate(21.41)" xlink:href="#radial-gradient"/></defs><g class="cls-2"><g id="Capa_2" data-name="Capa 2"><g id="Layer_1" data-name="Layer 1"><rect class="cls-3" width="450" height="225"/><path class="cls-4" d="M102,25a26.33,26.33,0,1,0,26.33,26.33A26.32,26.32,0,0,0,102,25Z"/><path class="cls-5" d="M111.16,32.67a20.91,20.91,0,1,0,11.76,18.8A20.87,20.87,0,0,0,111.16,32.67Z"/><path class="cls-6" d="M103.88,70.63a20.88,20.88,0,0,1-15.22-35.2,20.88,20.88,0,1,0,27.84,31.1c-.36.22-.73.42-1.1.62A20.8,20.8,0,0,1,103.88,70.63Z"/><path class="cls-4" d="M102.44,38.8c0,.12-.19.21-.43.21h0c-.23,0-.42-.09-.42-.21V33c0-.12.19-.21.42-.21h0c.24,0,.43.09.43.21Z"/><path class="cls-4" d="M102.44,70.4c0,.12-.19.21-.43.21h0c-.23,0-.42-.09-.42-.21V64.55c0-.12.19-.21.42-.21h0c.24,0,.43.09.43.21Z"/><path class="cls-4" d="M115.08,52.1c-.11,0-.21-.19-.21-.43h0c0-.23.1-.42.21-.42h5.86c.11,0,.2.19.2.42h0c0,.24-.09.43-.2.43Z"/><path class="cls-4" d="M83.18,52.1c-.12,0-.21-.19-.21-.43h0c0-.23.09-.42.21-.42H89c.11,0,.2.19.2.42h0c0,.24-.09.43-.2.43Z"/><path class="cls-4" d="M101.43,50.52a2,2,0,1,1-2,2A2,2,0,0,1,101.43,50.52Z"/><polygon class="cls-4" points="101.57 51.03 99.87 52.54 94.75 46.66 94.75 44.83 96.45 45.16 101.57 51.03"/><polygon class="cls-4" points="102.38 52.63 101.43 51.17 115.19 42.1 116.78 42.05 116.15 43.56 102.38 52.63"/><rect class="cls-4" x="292.7" y="55.19" width="69.96" height="88.15"/><rect class="cls-5" x="296.34" y="59.33" width="62.68" height="79.86"/><polygon class="cls-7" points="359.02 139.19 296.34 139.19 296.34 97.94 359.02 139.19"/><path class="cls-8" d="M319.61,125.58h-4.44v-.1l.33-42.32.89-10.89,3.06,10.84Zm-4.24-.21h4l-.16-42.25-2.75-9.75-.8,9.78Z"/><path class="cls-8" d="M349.35,83.56,310.9,84v-.94l8.15-.09,4.43-1.49,23.32-.27Zm-38.25.23,37.74-.43-2.12-2-23.21.27-4.43,1.49-8,.09Z"/><path class="cls-8" d="M319.79,91.32l-5.79.06V90.19l5.79-.06Zm-5.59-.14,5.39-.05v-.8l-5.39,0Z"/><path class="cls-8" d="M319.82,97.9l-5.81,0V96.75l5.8,0Zm-5.61-.16,5.41,0v-.8l-5.41,0Z"/><path class="cls-8" d="M319.85,104.51l-5.83,0v-1.21l5.82,0Zm-5.63-.17,5.42,0v-.8l-5.42,0Z"/><path class="cls-8" d="M319.87,111.16l-5.84,0V110l5.84,0Zm-5.64-.18,5.44,0v-.81l-5.44,0Z"/><path class="cls-8" d="M319.9,117.84H314v-1.21l5.85,0Zm-5.65-.19h5.45v-.81h-5.45Z"/><path class="cls-8" d="M319.93,124.56h-5.87v-1.23h5.87Zm-5.67-.21h5.46v-.81h-5.46Z"/><polygon class="cls-8" points="320.74 83.85 320.59 83.71 321.81 82.41 322.97 83.32 324.01 81.94 325.19 83.31 326.35 81.92 327.46 83.13 328.68 81.9 330.16 83.14 331.59 81.49 333.18 83.19 334.7 81.46 336.23 83.09 337.52 81.63 338.98 83 340.52 81.39 341.88 82.99 343.24 81.53 344.63 82.8 345.53 81.54 346.49 82.75 347 81.94 347.18 82.04 346.51 83.1 345.54 81.88 344.66 83.09 343.25 81.81 341.88 83.29 340.51 81.69 338.99 83.28 337.53 81.91 336.24 83.39 334.71 81.75 333.18 83.49 331.6 81.79 330.18 83.42 328.69 82.17 327.46 83.42 326.35 82.22 325.19 83.62 324.02 82.25 323.01 83.6 321.83 82.68 320.74 83.85"/><path class="cls-8" d="M347.11,85.38l-1.86,0,0-2.23,1.85,0Zm-1.66-.19h1.45l0-1.83-1.45,0Z"/><path class="cls-8" d="M346.81,86.26h-1.28l0,0-.44-.35-.17-.13,0,0V85l2.63,0v.76l0,0-.14.1a3.38,3.38,0,0,0-.47.35Zm-1.21-.19h1.12a4.52,4.52,0,0,1,.46-.34l.1-.07v-.46l-2.23,0v.43l.14.11Z"/><path class="cls-8" d="M346.28,87.77a.72.72,0,0,1-.77-.59l.2,0a.51.51,0,0,0,.56.42s.41,0,.41-.41-.49-.39-.51-.39h-.09V85.9h.2v.68a.63.63,0,0,1,.6.58.62.62,0,0,1-.6.61Z"/><polygon class="cls-8" points="319.45 124.54 315.46 122.08 318.77 120.98 315.68 119.63 318.9 118 315.46 116.55 319.23 114.22 315.44 112.92 319.26 110.56 315.43 108.39 318.9 106.97 315.46 105.36 318.79 102.83 315.35 102.29 319.17 100.08 315.41 98.91 319.19 96.43 315.37 94.89 318.78 93.47 315.41 92.18 319.12 89.78 315.32 88.97 319.13 87.07 315.4 85.45 318.82 83.36 315.96 81.8 318.44 80.95 315.95 80.1 317.99 79.03 316.02 77.94 317.4 76.8 316.03 75.97 316.78 75.19 316.92 75.33 316.35 75.93 317.74 76.78 316.37 77.9 318.41 79.03 316.45 80.06 319.05 80.95 316.45 81.84 319.21 83.35 315.82 85.42 319.6 87.06 315.92 88.89 319.63 89.69 315.84 92.13 319.32 93.47 315.89 94.89 319.62 96.39 315.87 98.85 319.66 100.03 315.94 102.18 319.28 102.7 315.85 105.32 319.4 106.99 315.89 108.42 319.65 110.55 315.91 112.86 319.7 114.17 315.9 116.52 319.38 117.99 316.15 119.62 319.33 121 315.93 122.14 319.56 124.37 319.45 124.54"/><path class="cls-8" d="M313.39,129H311v-4.31h2.35Zm-2.15-.21h1.95v-3.9h-1.94Z"/><path class="cls-8" d="M313.39,129H311v-.64h2.35Zm-2.15-.21h1.95v-.23h-1.95Z"/><path class="cls-8" d="M313.39,128.56H311v-.63h2.35Zm-2.15-.21h1.95v-.23h-1.95Z"/><path class="cls-8" d="M313.39,128.12H311v-.64h2.35Zm-2.15-.2h1.95v-.23h-1.95Z"/><path class="cls-8" d="M313.39,127.69H311v-.64h2.35Zm-2.15-.21h1.95v-.23h-1.95Z"/><path class="cls-8" d="M313.39,127.26H311v-.63h2.35Zm-2.15-.21h1.95v-.23h-1.95Z"/><path class="cls-8" d="M313.39,126.82H311v-.64h2.35Zm-2.15-.2h1.95v-.23h-1.95Z"/><path class="cls-8" d="M313.39,126.39H311v-.64h2.35Zm-2.15-.21h1.95V126h-1.95Z"/><path class="cls-8" d="M313.39,126H311v-.63h2.35Zm-2.15-.21h1.95v-.23h-1.95Z"/><path class="cls-8" d="M317.57,131.07h-2.75l-3-1.49L314,129h3.89l2.68.94Zm-2.71-.21h2.67l2.41-.89-2.13-.75H314l-1.62.41Z"/><path class="cls-8" d="M317.36,130.63H315l-2.22-1,1.21-.37,3.91.15,1.69.65Zm-2.35-.2h2.32l1.56-.4-1.06-.41-3.84-.14-.66.19Z"/><path class="cls-8" d="M325.19,132.09l-16.32,0v-.59l16.31,0Zm-16.12-.24,15.91,0v-.18l-15.91,0Z"/><path class="cls-8" d="M314.41,131.68h-3v-.44l.07,0,.2-.07a3.6,3.6,0,0,0,.52-.26h1.11l.36.11a4.3,4.3,0,0,1,.58.18l.07,0,.08,0Zm-2.79-.21h2.59v-.13h0a4.42,4.42,0,0,0-.55-.17l-.36-.1h-1a3.27,3.27,0,0,1-.53.26l-.14.05Z"/><path class="cls-8" d="M313.14,131.06h-.7v-1.33h.7Zm-.5-.2h.3v-.93h-.3Z"/><path class="cls-8" d="M321.54,131.69h-3v-.45l.07,0,.2-.07a3.63,3.63,0,0,0,.52-.27h1.11l.37.1a4.3,4.3,0,0,1,.58.18l.07,0,.08,0Zm-2.8-.21h2.6v-.13h0a4.42,4.42,0,0,0-.55-.17l-.36-.1h-1a3.28,3.28,0,0,1-.53.27l-.14,0Z"/><path class="cls-8" d="M320.27,131.08h-.71v-1.33h.7Zm-.5-.21h.29V130h-.3Z"/><path class="cls-8" d="M311.57,124.84h-.48v0L311,83.89h.1Zm-.38-.11h.28l-.38-30.06Z"/><path class="cls-8" d="M312.61,124.84H312l.12-41h.1Zm-.51-.11h.41L312.2,92Z"/><path class="cls-8" d="M313.34,124.84h-.53v-.06L313,83.87h.1Zm-.43-.11h.32l-.16-31.23Z"/><path class="cls-8" d="M337.4,83.41l-2.28,0L316.31,72.61l.05-.08Zm-2.25-.07,1.85,0-18.72-9.68Z"/><path class="cls-8" d="M348.17,83.29l-2,0L316.32,72.62l0-.1Zm-2-.08,1.43,0-26.11-8.83Z"/><path class="cls-8" d="M317.05,129.23h-1.87v-3.85h4.54Zm-1.67-.21H317l2.37-3.44h-3.95Z"/><path class="cls-8" d="M316.83,129.56l.28-2.41h0l-.52,2h-1l.37-1.82-.6.09,0-.21.68-.09.3-1.48.2,0-.29,1.41.76-.1.38-1.44.2,0-.15,1.34.57-.08.83-1.76-.07,1.86L318,127Zm-1.06-.63h.62l.47-1.75-.75.1Zm1.54-1.81-.14,1.25.63-1.32Zm1.19-1.07-.35.75.32,0Z"/><polygon class="cls-8" points="344.96 87.14 320.88 87.39 320.88 87.19 344.96 86.94 344.96 87.14"/><path class="cls-8" d="M319.68,87.3a6.27,6.27,0,0,1,1.71.93l-.35-.94.34-1A5.8,5.8,0,0,1,319.68,87.3Z"/><path class="cls-8" d="M346.18,87a6.17,6.17,0,0,0-1.72,1l.34-1-.36-1A6.07,6.07,0,0,0,346.18,87Z"/><rect class="cls-8" x="278.7" y="101.85" width="56.13" height="0.2" transform="translate(204.35 408.56) rotate(-89.91)"/><path class="cls-8" d="M306.73,131.25a6.26,6.26,0,0,1,1-1.74l-1,.35-1-.35A5.89,5.89,0,0,1,306.73,131.25Z"/><path class="cls-8" d="M306.79,72.71a6.15,6.15,0,0,0,.94,1.66l-.94-.33-.94.35A5.64,5.64,0,0,0,306.79,72.71Z"/><rect class="cls-8" x="302.36" y="71.81" width="44.94" height="0.2" transform="translate(-1.01 4.73) rotate(-0.83)"/><rect class="cls-8" x="324.91" y="109.17" width="0.21" height="45.63" transform="translate(192.31 456.7) rotate(-89.87)"/><polygon class="cls-4" points="74.58 173.14 77.4 182.26 82.56 181.61 80.38 173.38 74.58 173.14"/><polygon class="cls-4" points="67.8 173.44 67.02 180.28 76.11 180.66 75.62 173.76 67.8 173.44"/><polygon class="cls-4" points="54.34 225 67.67 180.77 61.8 180.06 49.14 225 54.34 225"/><polygon class="cls-4" points="93.54 225 81.3 176.86 76.31 176.65 89.31 225 93.54 225"/><polygon class="cls-4" points="69.09 225 69.78 176.96 74.99 177.3 74.11 225 75.64 225 77.07 173.7 68.56 174.55 67.74 225 69.09 225"/><polygon class="cls-4" points="63.16 173.15 60.96 181.77 67.2 182.9 69.36 172.92 63.16 173.15"/><polygon class="cls-4" points="62.71 170.03 62.01 175.23 81.34 176.04 80.4 170.77 62.71 170.03"/><path class="cls-4" d="M80.92,173.7l-.52-2.93L62.71,170l-.42,3.08C63.77,173.31,78.48,173.79,80.92,173.7Z"/><polygon class="cls-9" points="81.08 171.27 61.96 171.27 58.85 150.69 84.19 150.69 81.08 171.27"/><path class="cls-4" d="M67.74,165.11c-.65-3-.95-6.21-1.77-9.2-.47-1.73-1-3.46-1.36-5.22H58.85L62,171.27h7.15C68.66,169.22,68.18,167.17,67.74,165.11Z"/><path class="cls-4" d="M82.5,161.9l1.69-11.21H58.85l1.8,11.92C75.35,167.58,81.05,162.76,82.5,161.9Z"/><path class="cls-4" d="M81.73,87.24a32.9,32.9,0,0,0-4.49-2.72l0,0a27.78,27.78,0,0,1-3.29.67,24,24,0,0,1-3.59.2c2.7,1.38,7.74,4.28,8,6.67.28,2.18-1.26,3.85-2.45,5.13h5.78c1.24-.7.41-1.6,1.41-2.75C84.74,92.53,84.13,89.19,81.73,87.24Z"/><path class="cls-10" d="M87.28,85.37c-3.88-3-26.14-4.06-35.31-3a17.11,17.11,0,0,1,.23,1.89c0,.35,0,.7.09,1.05v0a2.33,2.33,0,0,1,.1.29,5.47,5.47,0,0,1,.38,1.56c4.25.69,9,2.7,4.76,8.49,0,0-8.12,2-9,7.78s-6.87,44.21-1.19,48.17c4.26,3,28.74,3.34,40.43,1.5l.13-.1c1.31-.88,3.62-1.8,4.45-3.2a36.17,36.17,0,0,0,2.39-5.49C95,128.35,91,88.22,87.28,85.37Zm-4.66,6.56-2.14,2.62a.8.8,0,0,1-.66.3l-11.7-.18a.85.85,0,0,1-.38-.12l-3-2.45A.82.82,0,0,1,64.49,91l2.15-3.6a.79.79,0,0,1,.6-.42c1.93-.26,9.25-.07,10.88.74a32.55,32.55,0,0,1,4.38,3.05A.81.81,0,0,1,82.62,91.93Z"/><path class="cls-11" d="M87.28,85.37c-3.88-3-26.14-4.06-35.31-3a17.11,17.11,0,0,1,.23,1.89c0,.35,0,.7.09,1.05v0a2.33,2.33,0,0,1,.1.29,5.47,5.47,0,0,1,.38,1.56c4.25.69,9,2.7,4.76,8.49,0,0-8.12,2-9,7.78s-6.87,44.21-1.19,48.17c4.26,3,28.74,3.34,40.43,1.5l.13-.1c1.31-.88,3.62-1.8,4.45-3.2a36.17,36.17,0,0,0,2.39-5.49C95,128.35,91,88.22,87.28,85.37Zm-4.66,6.56-2.14,2.62a.8.8,0,0,1-.66.3l-11.7-.18a.85.85,0,0,1-.38-.12l-3-2.45A.82.82,0,0,1,64.49,91l2.15-3.6a.79.79,0,0,1,.6-.42c1.93-.26,9.25-.07,10.88.74a32.55,32.55,0,0,1,4.38,3.05A.81.81,0,0,1,82.62,91.93Z"/><path class="cls-12" d="M53.06,145.13c6.92,1.68,9.84,2.54,20.8,2.76,14.15.28,20.87-2.15,20.86-1.71-.74,1.86-1.38,1.9-2.41,3.63-.83,1.4-3.14,2.32-4.45,3.2l-.13.1C76,155,51.56,154.58,47.3,151.61c-1.72-1.2-2.37-5.55-2.42-11.2,2.21.57,4.43,1.07,6.69,1.46C52.59,142.16,52,144.89,53.06,145.13Z"/><polygon class="cls-13" points="59.74 107.44 66.55 102.64 81.08 114.46 77.17 134.19 62.82 140.67 57.95 137.66 59.74 107.44"/><path class="cls-4" d="M86.15,96.87c-5.27,0-10.53.07-15.8.07-5,0-10,.06-15,0a15.57,15.57,0,0,0-4.7,2.82c13.85-.08,27.72-.09,41.53-.93-.07-.7-.13-1.38-.2-2C90,96.88,88.08,96.89,86.15,96.87Z"/><path class="cls-4" d="M56.61,85.25a27.23,27.23,0,0,1-4.38-2.67c.08.45.17.91.24,1.37-.13-.79.15.71.19.86s.58,1.19.11.37a4.74,4.74,0,0,1,.63,2.1c4.06.79,8.16,2.88,4.13,8.38,0,0-8.12,2-9,7.78s-6.87,44.21-1.19,48.17a7.86,7.86,0,0,0,2.16.92c2.25-4.15,5.68-7.9,8.57-11.68a21.68,21.68,0,0,0,3-5.51,58.36,58.36,0,0,1,.76-6.22,42.29,42.29,0,0,0,.61-9.79L60.7,87.11C59.3,86.48,57.85,85.87,56.61,85.25Z"/><path class="cls-4" d="M50.86,148.27l.3-.12c.24-.13.47-.25.69-.39a4.66,4.66,0,0,0,.75-.5,10.64,10.64,0,0,0,2.31-3.13c1.28-2.71,1.57-6,2.11-8.92.68-3.63,1.68-7.21,2.26-10.85.56-3.47.84-7,1.41-10.45.9-5.5-.08-11.4,1.27-16.82-.86-.47-3.57-1.08-4.15-1.83-.09.13-.19.26-.28.4s.46.3-1.45,1c.76,2.79.45,6.09.27,8.77-.4,5.92-.68,11.77-1.62,17.64-.64,4-1,8-1.62,12-.41,2.62-.83,6.26-2.9,8.16a11,11,0,0,1-5,2.54,19,19,0,0,0,.74,3.66A14.88,14.88,0,0,0,50.86,148.27Z"/><path class="cls-14" d="M62.36,86.62c-.7-2.71-5.75-3.89-8.45-4.45a32.19,32.19,0,0,0-3.93.48,2.56,2.56,0,0,0-1.8,2.11,2.4,2.4,0,0,0,.12,1.45c.29.67.83.75,1.5.86.51.09,1,.2,1.52.33a12.33,12.33,0,0,1,3.22,1.29,4.85,4.85,0,0,1,2.56,3.8s.14,27.88-.42,34c-.78,8.43-1.59,12.52-5,18-1.11,1.77-3.77,2.68-6.38,2.26.38,2.45,1,4.21,2,4.91,1.35.94,4.63,1.63,8.85,2.06l.44-.41,0,0A13.47,13.47,0,0,0,61,146C62.8,137.25,63.46,90.85,62.36,86.62Z"/><path class="cls-15" d="M87.28,85.37a13.62,13.62,0,0,0-5-1.71s4.58,4.08,6,9.13c1.53,5.64,6.39,39.65,3.16,53.94a17,17,0,0,1-3.48,6.35c3.79-.61,5.7-1.8,6.52-2.53,6.53-5.8,2.57-37.2-1.91-56.47A17.2,17.2,0,0,0,87.28,85.37Z"/><path class="cls-4" d="M66.55,102.64s1.37,27.26,0,30.93a38.17,38.17,0,0,1-3.73,7.1H84.19s4.81-5.5,4.81-8-1.42-27-3.46-29.1S70.78,101.05,66.55,102.64Z"/><path class="cls-16" d="M83.57,109.63a39.34,39.34,0,0,0-8.68-.81,23.25,23.25,0,0,0-3,.2q-2.53,1-5,2.23c.21,6.1.39,14,.13,18.72a39.84,39.84,0,0,0,12.68,2.24,17.8,17.8,0,0,0,9.17-2.62c-.24-4.52-.82-12.79-1.62-18.83A17.64,17.64,0,0,0,83.57,109.63Z"/><path class="cls-9" d="M54.62,111.14c-.12,3.09-2.18,5.36-4.46,5.09a22.3,22.3,0,0,1-3.23-.38c-1.4-.81-.44-2.82-.35-5s-.69-4.38.86-5c.31-.12,2.78-.09,3.14-.11C52.87,105.63,54.75,108.06,54.62,111.14Z"/><path class="cls-4" d="M51.23,111c-.11,2.94-2,5.12-4.08,4.87s-3.38-2.53-3.27-5.17,1.7-4.82,3.67-4.89S51.35,108.07,51.23,111Z"/><path class="cls-9" d="M53.64,132.27c-.41,3.53-2.89,5.88-5.31,5.3a25.63,25.63,0,0,1-3.53-.84c-1.32-1,0-3,.31-5.44s-.87-4.63.58-5.34a26.42,26.42,0,0,1,4,0C52.17,125.89,54.05,128.74,53.64,132.27Z"/><path class="cls-4" d="M49.37,131.78c-.38,3.25-2.5,5.44-4.57,4.95-1.89-.45-3-3-2.74-5.79s2-5,4-5C48.17,125.91,49.74,128.53,49.37,131.78Z"/><path class="cls-17" d="M84.44,119.86c0,4.56-1.84,8.26-6.55,8.26l-5-.69c-3.65-1.51-5.49-4-5.49-7.57a8.87,8.87,0,0,1,3.36-6.49s5.34-1.78,6.93-1.78C82.38,111.59,84.44,115.29,84.44,119.86Z"/><path class="cls-18" d="M86.79,119.86a8.53,8.53,0,1,1-8.53-8.27A8.4,8.4,0,0,1,86.79,119.86Z"/><path class="cls-19" d="M85,119.86a6.72,6.72,0,1,1-6.72-6.51A6.61,6.61,0,0,1,85,119.86Z"/><path class="cls-20" d="M78.73,113.37a6.92,6.92,0,0,1,2.25,3.1c1,3,.74,8-2.35,9.88a6.49,6.49,0,0,0,.1-13Z"/><polygon class="cls-4" points="227.43 167.82 228.58 163.71 226.28 163.71 204.7 163.71 202.4 163.71 203.55 167.82 197.79 188.37 209.3 188.37 221.68 188.37 233.19 188.37 227.43 167.82"/><polygon class="cls-16" points="231.79 167.82 232.94 163.71 230.63 163.71 209.05 163.71 206.75 163.71 207.9 167.82 202.14 188.37 213.66 188.37 226.03 188.37 237.54 188.37 231.79 167.82"/><rect class="cls-16" x="189.58" y="186.37" width="55.29" height="5.97"/><rect class="cls-4" x="189.58" y="186.37" width="13.69" height="5.97"/><rect class="cls-4" x="135.87" y="71.5" width="28.83" height="96.1" rx="9.96"/><rect class="cls-21" x="140.74" y="71.5" width="159.07" height="96.1" rx="5.18"/><rect class="cls-4" x="150.28" y="78.58" width="139.97" height="75.11"/><g class="cls-22"><rect class="cls-23" x="151.52" y="79.92" width="137.51" height="72.44"/></g><path class="cls-4" d="M285,160.61a1.49,1.49,0,1,1-1.49-1.48A1.49,1.49,0,0,1,285,160.61Z"/><path class="cls-4" d="M280.14,160.61a1.49,1.49,0,1,1-1.48-1.48A1.49,1.49,0,0,1,280.14,160.61Z"/><path class="cls-4" d="M275.27,160.61a1.49,1.49,0,1,1-1.48-1.48A1.49,1.49,0,0,1,275.27,160.61Z"/><rect class="cls-3" x="172.09" y="100.34" width="26.65" height="1.34"/><rect class="cls-3" x="161.82" y="106.29" width="47.17" height="1.34"/><rect class="cls-3" x="161.82" y="110.49" width="47.17" height="1.34"/><rect class="cls-3" x="161.82" y="114.68" width="47.17" height="1.34"/><rect class="cls-3" x="161.82" y="118.87" width="47.17" height="1.34"/><rect class="cls-3" x="161.82" y="123.06" width="47.17" height="1.34"/><rect class="cls-3" x="161.82" y="127.26" width="47.17" height="1.34"/><rect class="cls-3" x="161.82" y="131.45" width="47.17" height="1.34"/><rect class="cls-3" x="161.82" y="135.64" width="33.5" height="1.34"/><path class="cls-4" d="M337,186.28l-1.63-1.16-2.83-2-23.31-16.53-4.36-3.09L290,152.94l-10.16-7.21,0,40.6ZM284.7,163.51l28.85,17.88L300.63,181l-7.85-.23-9.49-.27Z"/><path class="cls-24" d="M347.34,192.25l-71.51-50.72-7.68,50.81Zm-62-29.67,28.84,17.88-30.25-.88Z"/><polygon class="cls-4" points="269.87 192.33 275.83 141.53 274.48 141.38 268.15 192.34 269.87 192.33"/><rect class="cls-4" x="274.08" y="188.16" width="0.45" height="4.19"/><rect class="cls-4" x="276.13" y="190.25" width="0.45" height="2.09"/><rect class="cls-4" x="278.18" y="190.25" width="0.45" height="2.09" transform="translate(-0.21 0.31) rotate(-0.06)"/><rect class="cls-4" x="280.23" y="190.25" width="0.45" height="2.09" transform="translate(-0.21 0.31) rotate(-0.06)"/><rect class="cls-4" x="282.28" y="190.25" width="0.45" height="2.09"/><rect class="cls-4" x="284.32" y="188.15" width="0.45" height="4.19"/><rect class="cls-4" x="286.37" y="190.24" width="0.45" height="2.09"/><rect class="cls-4" x="288.42" y="190.24" width="0.45" height="2.09"/><rect class="cls-4" x="290.47" y="190.24" width="0.45" height="2.09"/><rect class="cls-4" x="292.52" y="190.24" width="0.45" height="2.09" transform="translate(-0.21 0.33) rotate(-0.06)"/><rect class="cls-4" x="294.57" y="188.14" width="0.45" height="4.19"/><rect class="cls-4" x="296.62" y="190.23" width="0.45" height="2.09"/><rect class="cls-4" x="298.67" y="190.23" width="0.45" height="2.09"/><rect class="cls-4" x="300.72" y="190.23" width="0.45" height="2.09"/><rect class="cls-4" x="302.77" y="190.23" width="0.45" height="2.09"/><rect class="cls-4" x="304.82" y="188.13" width="0.45" height="4.19"/><rect class="cls-4" x="306.87" y="190.22" width="0.45" height="2.09" transform="matrix(1, 0, 0, 1, -0.21, 0.34)"/><rect class="cls-4" x="308.92" y="190.22" width="0.45" height="2.09"/><rect class="cls-4" x="310.97" y="190.22" width="0.45" height="2.09"/><rect class="cls-4" x="313.02" y="190.22" width="0.45" height="2.09"/><rect class="cls-4" x="315.07" y="188.12" width="0.45" height="4.19"/><rect class="cls-4" x="317.12" y="190.21" width="0.45" height="2.09" transform="matrix(1, 0, 0, 1, -0.21, 0.36)"/><rect class="cls-4" x="319.17" y="190.21" width="0.45" height="2.09"/><rect class="cls-4" x="321.22" y="190.21" width="0.45" height="2.09" transform="matrix(1, 0, 0, 1, -0.21, 0.36)"/><rect class="cls-4" x="323.27" y="190.21" width="0.45" height="2.09"/><rect class="cls-4" x="325.32" y="188.11" width="0.45" height="4.19"/><rect class="cls-4" x="327.37" y="190.2" width="0.45" height="2.09"/><rect class="cls-4" x="329.42" y="190.2" width="0.45" height="2.09"/><rect class="cls-4" x="331.47" y="190.2" width="0.45" height="2.09" transform="matrix(1, 0, 0, 1, -0.21, 0.37)"/><rect class="cls-4" x="333.52" y="190.2" width="0.45" height="2.09" transform="translate(-0.21 0.37) rotate(-0.06)"/><rect class="cls-4" x="335.57" y="188.1" width="0.45" height="4.19"/><rect class="cls-16" x="366.23" y="154.58" width="30.82" height="70.42"/><polygon class="cls-25" points="375.33 179.79 397.05 174 397.05 154.58 366.23 154.58 366.23 225 375.33 225 375.33 179.79"/><rect class="cls-26" x="337.98" y="144.33" width="84.1" height="18.9"/><rect class="cls-4" x="337.98" y="153.51" width="84.1" height="9.72"/><polygon class="cls-4" points="414.36 144.33 346.82 144.33 363.22 110 414.36 110 414.36 144.33"/><polygon class="cls-27" points="373.9 112.33 365.57 112.33 351.39 142.01 360.97 142.01 373.9 112.33"/><rect class="cls-28" x="366.85" y="102.66" width="45.81" height="7.34"/><path class="cls-29" d="M383.92,119.22a1.93,1.93,0,1,1-1.92-1.93A1.92,1.92,0,0,1,383.92,119.22Z"/><path class="cls-30" d="M395.1,118.91a1.93,1.93,0,1,1-1.92-1.92A1.92,1.92,0,0,1,395.1,118.91Z"/><path class="cls-31" d="M406.28,118.91a1.93,1.93,0,1,1-1.92-1.92A1.92,1.92,0,0,1,406.28,118.91Z"/><path class="cls-32" d="M383.92,128.52a1.93,1.93,0,1,1-1.92-1.93A1.92,1.92,0,0,1,383.92,128.52Z"/><path class="cls-33" d="M395.1,128.52a1.93,1.93,0,1,1-1.92-1.93A1.92,1.92,0,0,1,395.1,128.52Z"/><path class="cls-34" d="M406.28,128.52a1.93,1.93,0,1,1-1.92-1.93A1.92,1.92,0,0,1,406.28,128.52Z"/><rect class="cls-4" x="74.49" y="198.15" width="296.19" height="26.85"/><polygon class="cls-35" points="86.56 206.44 370.68 206.44 370.68 198.15 74.49 198.15 74.49 225 86.56 206.44"/><rect class="cls-36" x="65.04" y="192.35" width="313.93" height="6.73"/><path class="cls-37" d="M216.52,183.12l-17.69-.1a5.27,5.27,0,0,0-2.71,3.64c-.47,2.59.57,4.84,2.51,5.15s18.66-.06,18.66-.06S218.78,184.08,216.52,183.12Z"/><path class="cls-38" d="M216.52,183.12l-17.69-.1a5.27,5.27,0,0,0-2.71,3.64c-.47,2.59.57,4.84,2.51,5.15s18.66-.06,18.66-.06S218.78,184.08,216.52,183.12Z"/><path class="cls-39" d="M216.52,183.12l-17.69-.1a5.27,5.27,0,0,0-2.71,3.64c-.47,2.59.57,4.84,2.51,5.15s18.66-.06,18.66-.06S218.78,184.08,216.52,183.12Z"/><polygon class="cls-40" points="260.26 185.28 252.61 184.32 252.56 184.32 250.23 185.33 224.43 185.57 224.25 185.57 224.28 189.03 250.26 188.79 252.6 189.78 260.29 188.69 260.26 185.28"/><path class="cls-41" d="M224.27,187.56V189l26-.24,2.35,1,7.68-1.07v-1.27C254.79,188.42,230.55,187.33,224.27,187.56Z"/><path class="cls-42" d="M224.69,190.53l-.05-6.59a1.42,1.42,0,0,0-1.41-1.39,1.38,1.38,0,0,0-1.28.85,6.44,6.44,0,0,0-3.51-1l-18.63.1c-2.84,0-4.4,1.79-4.38,5a5.29,5.29,0,0,0,1.32,3.79,4.27,4.27,0,0,0,3.14,1.1l18.62-.1a6.42,6.42,0,0,0,3.54-1.07,1.4,1.4,0,0,0,2.64-.67Zm-26.92.36s-.06-.07-.06-.09c0-.22,1-.59,1.79-.6l13.41-.06a3.76,3.76,0,0,1,1.9.5s.05.06.05.07c0,.21-1.14.59-1.94.6l-13.41.06A3.26,3.26,0,0,1,197.77,190.89Zm-.25-4.24a2.33,2.33,0,0,1,1.19-.49l14.08-.06a2.65,2.65,0,0,1,1.63.76,1.18,1.18,0,0,1,.41.81,1.51,1.51,0,0,1-.74,1.11,2.54,2.54,0,0,1-1.27.49l-14.09.07a2.3,2.3,0,0,1-1.44-.68,1.31,1.31,0,0,1-.44-.89A1.53,1.53,0,0,1,197.52,186.65ZM214.13,185a3.42,3.42,0,0,1-1.23.31l-13.26.06a2.72,2.72,0,0,1-1.61-.59.45.45,0,0,1-.16-.31c0-.43,1.06-.93,1.76-.93l13.26-.06a3,3,0,0,1,1.77.63.41.41,0,0,1,.15.27C214.81,184.54,214.55,184.77,214.13,185Z"/><path class="cls-39" d="M221.91,183.38a6,6,0,0,0-1.17-.55,9.55,9.55,0,0,0-1,4.86,10.26,10.26,0,0,0,.92,4.19,6.08,6.08,0,0,0,1.36-.65C221.91,190.59,221.86,183.8,221.91,183.38Z"/><path class="cls-39" d="M196.75,189.2a5.68,5.68,0,0,1-.12-3.14,11.43,11.43,0,0,1,1.27-3.2c-1.62.66-2.48,2.24-2.47,4.62a5.29,5.29,0,0,0,1.32,3.79,3.63,3.63,0,0,0,1.49.86A11.3,11.3,0,0,1,196.75,189.2Z"/><path class="cls-43" d="M163.68,182.1s4.29-34.27-34.31-34.28-30,38.88-30,38.88S148.41,188.6,163.68,182.1Z"/><path class="cls-44" d="M152.67,169.78c1.52,3,1.65,10.41,3.22,14.5a39.88,39.88,0,0,0,7.79-2.18s3.56-28.52-25.16-33.52C138.45,157.4,148.75,162,152.67,169.78Z"/><path class="cls-45" d="M128.46,148.92c-35.53.94-27.45,37.41-27.45,37.41s11.27.43,24.51.15C121.14,175,123,160.16,128.46,148.92Z"/><polygon class="cls-46" points="116.14 174.1 116.01 184.74 128 185.14 127.62 174.38 116.14 174.1"/><path class="cls-47" d="M161.26,181.66s16.25-4.29,19.34,3.49-37.83,7-46.56,7c-13.53,0-34.77,2.15-36.19-2.79s-1.18-9.67,10.43-6.87S160,182,161.26,181.66Z"/><path class="cls-45" d="M98,189.83c2.31,3.91,18.92,2.69,31.77,2.4a25.75,25.75,0,0,1-.17-8.68h-.5l-1.23,0-.91,0h-3.78l-1.71,0h-.67l-1.15,0-.67,0-1.34,0-.36,0-1.58-.07-.5,0-1.1-.08-.48,0c-.45,0-.88-.07-1.3-.12h-.13l-1.31-.16-.36,0-.88-.14-.34-.06c-.37-.07-.73-.14-1.06-.22a32.39,32.39,0,0,0-3.84-.71,14.8,14.8,0,0,0-1.55-.12,9.73,9.73,0,0,0-1.34,0,7.36,7.36,0,0,0-1.12.16c-3.58.78-3.57,3.81-2.71,7,0,.16.08.31.13.47a1.66,1.66,0,0,0,.19.43Z"/><polygon class="cls-48" points="398.17 70.39 395.53 70.39 395.53 67.75 393.35 67.75 393.35 70.39 390.71 70.39 390.71 72.57 393.35 72.57 393.35 75.21 395.53 75.21 395.53 72.57 398.17 72.57 398.17 70.39"/><polygon class="cls-48" points="337.61 43.73 334.97 43.73 334.97 41.1 332.79 41.1 332.79 43.73 330.15 43.73 330.15 45.92 332.79 45.92 332.79 48.55 334.97 48.55 334.97 45.92 337.61 45.92 337.61 43.73"/><polygon class="cls-48" points="281.83 61.25 279.19 61.25 279.19 58.61 277.01 58.61 277.01 61.25 274.37 61.25 274.37 63.43 277.01 63.43 277.01 66.06 279.19 66.06 279.19 63.43 281.83 63.43 281.83 61.25"/><polygon class="cls-48" points="157.74 58.24 155.1 58.24 155.1 55.6 152.92 55.6 152.92 58.24 150.28 58.24 150.28 60.42 152.92 60.42 152.92 63.06 155.1 63.06 155.1 60.42 157.74 60.42 157.74 58.24"/><polygon class="cls-48" points="124.87 96.33 122.23 96.33 122.23 93.69 120.05 93.69 120.05 96.33 117.42 96.33 117.42 98.51 120.05 98.51 120.05 101.15 122.23 101.15 122.23 98.51 124.87 98.51 124.87 96.33"/><polygon class="cls-48" points="111.28 117.69 108.64 117.69 108.64 115.05 106.45 115.05 106.45 117.69 103.82 117.69 103.82 119.87 106.45 119.87 106.45 122.51 108.64 122.51 108.64 119.87 111.28 119.87 111.28 117.69"/><polygon class="cls-48" points="64.69 66.38 62.05 66.38 62.05 63.74 59.87 63.74 59.87 66.38 57.23 66.38 57.23 68.56 59.87 68.56 59.87 71.2 62.05 71.2 62.05 68.56 64.69 68.56 64.69 66.38"/><polygon class="cls-48" points="30.48 114.81 27.84 114.81 27.84 112.17 25.66 112.17 25.66 114.81 23.02 114.81 23.02 116.99 25.66 116.99 25.66 119.63 27.84 119.63 27.84 116.99 30.48 116.99 30.48 114.81"/><polygon class="cls-48" points="425.8 125.5 423.17 125.5 423.17 122.86 420.98 122.86 420.98 125.5 418.35 125.5 418.35 127.68 420.98 127.68 420.98 130.32 423.17 130.32 423.17 127.68 425.8 127.68 425.8 125.5"/><g class="cls-49"><path d="M272.06,122.86h-2.32V100l2.32-.84-3.75-9.35L231,102.67l-1.23-2.81-10,2-1.25,5.87,11.25,22.52,6.71-15.08-1.2-2.75,11.05-4-8,27.35h-18.6v3.83h55.77v-3.83h-3.43Zm-6.15,0h-2.64v13H259l-8.42-28.91,15.3-5.53Zm-11.44,13H250V116.37Zm-6.82-20.68v20.68h-4.77Z"/></g><path class="cls-3" d="M274.05,122.94h-2.32V100.05l2.32-.84-3.76-9.34-37.36,12.87-1.22-2.81-10,2-1.25,5.87,11.26,22.53,6.71-15.09-1.21-2.75,11.06-4-8,27.34H221.7v3.83h55.78v-3.83h-3.43Zm-6.16,0h-2.63v12.94H261L252.59,107l15.3-5.53Zm-11.44,12.94H252V116.45Zm-6.82-20.68v20.68h-4.76Z"/></g></g></g></svg>