<?xml version="1.0" encoding="utf-8"?>
<!-- Generator: Adobe Illustrator 24.2.1, SVG Export Plug-In . SVG Version: 6.00 Build 0)  -->
<svg version="1.1" xmlns="http://www.w3.org/2000/svg" xmlns:xlink="http://www.w3.org/1999/xlink" x="0px" y="0px"
	 viewBox="0 0 453.72 106.24" style="enable-background:new 0 0 453.72 106.24;" xml:space="preserve">
<style type="text/css">
	.st0{fill:url(#SVGID_1_);}
	.st1{fill:url(#SVGID_2_);}
	.st2{opacity:0.29;fill:url(#SVGID_3_);}
	.st3{fill:url(#SVGID_4_);}
	.st4{fill:url(#SVGID_5_);}
	.st5{opacity:0.25;fill:url(#SVGID_6_);}
	.st6{fill:url(#SVGID_7_);}
	.st7{fill:#565656;}
	.st8{fill:url(#SVGID_8_);}
	.st9{fill:url(#SVGID_9_);}
	.st10{opacity:0.23;fill:url(#SVGID_10_);}
	.st11{fill:url(#SVGID_11_);}
	.st12{fill:url(#SVGID_12_);}
	.st13{opacity:0.25;fill:url(#SVGID_13_);}
	.st14{fill:url(#SVGID_14_);}
	.st15{fill:url(#SVGID_15_);}
	.st16{fill:url(#SVGID_16_);}
	.st17{opacity:0.23;fill:url(#SVGID_17_);}
	.st18{fill:url(#SVGID_18_);}
	.st19{fill:url(#SVGID_19_);}
	.st20{opacity:0.25;fill:url(#SVGID_20_);}
	.st21{fill:url(#SVGID_21_);}
	.st22{fill:url(#SVGID_22_);}
	.st23{fill:url(#SVGID_23_);}
	.st24{opacity:0.23;fill:url(#SVGID_24_);}
	.st25{fill:url(#SVGID_25_);}
	.st26{fill:url(#SVGID_26_);}
	.st27{opacity:0.25;fill:url(#SVGID_27_);}
	.st28{fill:url(#SVGID_28_);}
	.st29{fill:#2D2D2D;}
	.st30{fill:url(#SVGID_29_);}
	.st31{fill:url(#SVGID_30_);}
	.st32{opacity:0.23;fill:url(#SVGID_31_);}
	.st33{fill:url(#SVGID_32_);}
	.st34{fill:url(#SVGID_33_);}
	.st35{opacity:0.25;fill:url(#SVGID_34_);}
	.st36{fill:url(#SVGID_35_);}
	.st37{fill:url(#SVGID_36_);}
	.st38{fill:url(#SVGID_37_);}
	.st39{opacity:0.23;fill:url(#SVGID_38_);}
	.st40{fill:url(#SVGID_39_);}
	.st41{fill:url(#SVGID_40_);}
	.st42{opacity:0.25;fill:url(#SVGID_41_);}
	.st43{fill:url(#SVGID_42_);}
</style>
<g id="Layer_2">
</g>
<g id="Layer_1">
	<g>
		<linearGradient id="SVGID_1_" gradientUnits="userSpaceOnUse" x1="74.5585" y1="7.9583" x2="49.6945" y2="102.5793">
			<stop  offset="0" style="stop-color:#3BD4FF"/>
			<stop  offset="0.0521" style="stop-color:#3CC9FF;stop-opacity:0.979"/>
			<stop  offset="0.5143" style="stop-color:#4670FF;stop-opacity:0.7932"/>
			<stop  offset="0.8388" style="stop-color:#4D38FF;stop-opacity:0.6627"/>
			<stop  offset="0.9947" style="stop-color:#4F22FF;stop-opacity:0.6"/>
		</linearGradient>
		<path class="st0" d="M103.82,75.64c-0.03,0.05-0.06,0.1-0.08,0.16c-0.46,0.96-0.95,1.89-1.48,2.81c-0.2,0.34-0.39,0.68-0.59,1.02
			c-0.17,0.28-0.34,0.57-0.51,0.85c-0.04,0.06-0.08,0.11-0.11,0.17c-0.18,0.27-0.35,0.56-0.53,0.82c-0.24,0.38-0.49,0.74-0.74,1.12
			c-0.36,0.53-0.72,1.05-1.12,1.56c-0.22,0.28-0.43,0.58-0.66,0.86c-0.44,0.57-0.89,1.13-1.36,1.67c-0.22,0.26-0.45,0.53-0.68,0.79
			c-0.17,0.2-0.34,0.4-0.53,0.6c-0.22,0.24-0.44,0.49-0.67,0.72c-1.77,1.88-3.69,3.63-5.71,5.22c-0.66,0.51-1.32,1.01-2.01,1.5
			c-0.36,0.26-0.73,0.52-1.11,0.76c-0.31,0.22-0.64,0.43-0.97,0.64c-0.34,0.23-0.7,0.45-1.06,0.67c-1.08,0.66-2.17,1.26-3.29,1.84
			c-0.64,0.32-1.27,0.64-1.92,0.93c-0.01,0.01-0.02,0.01-0.03,0.01c-0.22,0.11-0.43,0.21-0.66,0.3c-0.27,0.12-0.55,0.24-0.83,0.35
			c-0.39,0.17-0.77,0.33-1.17,0.48c-0.34,0.14-0.68,0.27-1.04,0.4c-0.45,0.17-0.91,0.33-1.37,0.49c-0.39,0.13-0.79,0.25-1.19,0.38
			c-0.66,0.21-1.32,0.4-1.99,0.58c-0.99,0.26-1.99,0.5-2.99,0.7c-0.42,0.09-0.84,0.17-1.27,0.24c-1.17,0.22-2.37,0.38-3.57,0.51
			c-0.34,0.04-0.68,0.07-1.02,0.1c-0.38,0.04-0.76,0.07-1.14,0.09c-0.28,0.02-0.58,0.04-0.86,0.05c-0.42,0.03-0.84,0.04-1.26,0.05
			c-0.44,0.01-0.89,0.02-1.34,0.02c-0.99,0-1.97-0.03-2.94-0.09c-0.21-0.01-0.4-0.02-0.6-0.03c-0.45-0.03-0.89-0.07-1.34-0.11
			c-0.46-0.04-0.93-0.09-1.4-0.16c-0.68-0.08-1.35-0.17-2.03-0.28c-0.43-0.06-0.85-0.14-1.27-0.22c-0.04-0.01-0.08-0.01-0.12-0.03
			c-0.45-0.08-0.9-0.17-1.34-0.26c-0.37-0.08-0.74-0.17-1.11-0.25c-0.26-0.06-0.53-0.13-0.79-0.2c-0.96-0.24-1.91-0.52-2.85-0.81
			c-0.44-0.14-0.87-0.28-1.3-0.44c-0.08-0.02-0.16-0.05-0.23-0.08c-0.27-0.1-0.56-0.2-0.83-0.3c-0.3-0.12-0.61-0.23-0.91-0.35
			c-0.39-0.15-0.78-0.31-1.17-0.48c-2.82-1.18-5.51-2.62-8.04-4.27c-0.38-0.24-0.75-0.5-1.13-0.75c-0.05-0.04-0.11-0.08-0.16-0.12
			c-0.36-0.24-0.71-0.49-1.06-0.74c-0.44-0.32-0.88-0.66-1.31-1c-0.38-0.29-0.76-0.6-1.14-0.9c-0.41-0.34-0.81-0.68-1.21-1.05
			c-0.38-0.33-0.76-0.68-1.13-1.02c-0.37-0.34-0.73-0.69-1.1-1.06c-0.68-0.67-1.33-1.34-1.97-2.04c-0.05-0.05-0.09-0.1-0.14-0.16
			c-0.34-0.37-0.68-0.75-1-1.14c-0.33-0.38-0.66-0.77-0.97-1.17c-0.32-0.4-0.64-0.8-0.94-1.2c-0.05-0.06-0.09-0.11-0.13-0.17
			c-0.26-0.35-0.52-0.7-0.77-1.07l0.12-0.02c0,0-10.62-17.97,3.32-25.28c7.59-3.99,21.41-5.24,31.93-9.34
			c8.81-3.42,15.29-8.84,13.89-19.49c-1.59-12.16-7.29-18.64-14.54-21.05c-0.16-0.06-0.31-0.11-0.47-0.15
			c-0.55-0.23-1.03-0.6-1.37-1.08c-0.29-0.39-0.5-0.85-0.59-1.36c-0.29-1.67,0.78-3.28,2.42-3.66c0.2-0.04,0.4-0.07,0.61-0.1h0.03
			c1.15-0.16,2.33-0.27,3.52-0.36c1.53-0.1,3.07-0.14,4.64-0.11c0.35,0.01,0.7,0.01,1.06,0.03c1.99,0.08,3.94,0.27,5.87,0.59
			c3.2,0.5,6.3,1.3,9.29,2.37c0.66,0.23,1.31,0.48,1.96,0.74c0.53,0.22,1.06,0.44,1.58,0.67c0.02,0.01,0.04,0.02,0.06,0.03
			c0.58,0.25,1.15,0.53,1.72,0.8c0.47,0.23,0.94,0.47,1.41,0.71c0.02,0.01,0.04,0.02,0.06,0.04c0.26,0.14,0.53,0.28,0.79,0.43
			c1,0.54,1.98,1.12,2.94,1.74c0.35,0.22,0.69,0.44,1.04,0.68c0.4,0.25,0.79,0.53,1.18,0.82c0.32,0.23,0.64,0.45,0.95,0.68
			c0.34,0.24,0.68,0.51,1.01,0.76c0.28,0.23,0.57,0.46,0.84,0.69c0.61,0.49,1.2,1,1.78,1.53c0.88,0.78,1.72,1.59,2.54,2.44
			c0.27,0.27,0.54,0.56,0.81,0.85c0.55,0.58,1.07,1.16,1.58,1.76c0.51,0.6,1,1.19,1.47,1.8c0.24,0.31,0.48,0.63,0.71,0.94
			c0.66,0.88,1.28,1.78,1.89,2.7c0.32,0.5,0.64,1.01,0.94,1.52c0.66,1.08,1.27,2.18,1.84,3.32c3.13,6.13,5.06,12.96,5.48,20.17
			C109.4,59.21,107.54,67.95,103.82,75.64z"/>
		<linearGradient id="SVGID_2_" gradientUnits="userSpaceOnUse" x1="97.4933" y1="85.1946" x2="5.4047" y2="55.0356">
			<stop  offset="0" style="stop-color:#8052FF"/>
			<stop  offset="0.3519" style="stop-color:#B24DD1"/>
			<stop  offset="0.785" style="stop-color:#E9469C"/>
			<stop  offset="0.9947" style="stop-color:#FF4488"/>
		</linearGradient>
		<path class="st1" d="M107.7,64.35c-5.12,23.31-25.88,40.74-50.72,40.74c-28.69,0-51.96-23.27-51.96-51.98
			c0-5.56,0.88-10.92,2.49-15.94c2.39-5.6,7.61-13.03,18.29-11.22c16.77,2.85,22.97,46.96,81.62,38.45
			C107.52,64.37,107.6,64.37,107.7,64.35z"/>
		<linearGradient id="SVGID_3_" gradientUnits="userSpaceOnUse" x1="12.9192" y1="35.0107" x2="26.0418" y2="54.3493">
			<stop  offset="0" style="stop-color:#F9458E"/>
			<stop  offset="0.0132" style="stop-color:#F64490;stop-opacity:0.9867"/>
			<stop  offset="0.4946" style="stop-color:#9D32CB;stop-opacity:0.5028"/>
			<stop  offset="0.8324" style="stop-color:#6526F1;stop-opacity:0.1632"/>
			<stop  offset="0.9947" style="stop-color:#4F22FF;stop-opacity:0"/>
		</linearGradient>
		<path style="opacity:0.23;fill:url(#SVGID_3_);" d="M43.64,46.6c-7.73-8.4-10.62-15.24-17.06-16.39
			c-9.05-1.6-13.47,4.97-15.5,9.91c-1.36,4.43-2.11,9.17-2.11,14.08c0,3.54,0.38,6.99,1.11,10.3c0,0-0.34-6.7,6.98-10.64
			S43.64,46.6,43.64,46.6z"/>
		<linearGradient id="SVGID_4_" gradientUnits="userSpaceOnUse" x1="75.6269" y1="-8.1911" x2="77.0082" y2="55.0046">
			<stop  offset="0" style="stop-color:#3BD4FF"/>
			<stop  offset="0.0521" style="stop-color:#3CC9FF;stop-opacity:0.979"/>
			<stop  offset="0.5143" style="stop-color:#4670FF;stop-opacity:0.7932"/>
			<stop  offset="0.8388" style="stop-color:#4D38FF;stop-opacity:0.6627"/>
			<stop  offset="0.9947" style="stop-color:#4F22FF;stop-opacity:0.6"/>
		</linearGradient>
		<path class="st3" d="M105.67,35.03C96.3,13.15,65.83,8.97,49.3,7.96C48.08,7.62,47.74,7,47.45,6.74c-0.29-0.39-0.5-0.85-0.59-1.36
			c-0.29-1.67,0.78-3.28,2.42-3.66c0.02-0.01,0.03-0.01,0.05-0.02c0.01,0,0.03-0.01,0.05-0.01c0.03-0.01,0.07-0.01,0.1-0.02
			c0.1-0.02,0.19-0.03,0.27-0.04h0.05c0.03,0,0.06-0.01,0.09-0.01h0.03c1.16-0.17,2.34-0.28,3.52-0.36c1.53-0.1,3.07-0.14,4.64-0.11
			c0.35,0.01,0.7,0.03,1.06,0.04c1.99,0.08,3.94,0.27,5.87,0.58c0.8,0.13,1.59,0.27,2.38,0.43c0.53,0.11,1.06,0.23,1.59,0.35
			c0.13,0.03,0.24,0.06,0.36,0.09c0.52,0.13,1.04,0.26,1.56,0.41c0.76,0.22,1.53,0.45,2.28,0.69c0.38,0.13,0.75,0.25,1.13,0.39
			c0.66,0.23,1.31,0.48,1.96,0.74c0.53,0.22,1.06,0.44,1.58,0.67c0.02,0.01,0.04,0.02,0.06,0.03c0.58,0.25,1.15,0.53,1.72,0.8
			c0.47,0.23,0.94,0.47,1.41,0.71c0.02,0.01,0.04,0.02,0.06,0.04c0.26,0.14,0.53,0.28,0.79,0.43c1,0.54,1.98,1.12,2.94,1.74
			c0.35,0.22,0.69,0.44,1.04,0.68c0.4,0.25,0.79,0.53,1.18,0.82c0.32,0.23,0.64,0.45,0.95,0.68c0.34,0.24,0.68,0.51,1.01,0.76
			c0.28,0.23,0.57,0.46,0.84,0.69c0.61,0.49,1.2,1,1.78,1.53c0.88,0.77,1.73,1.59,2.54,2.44c0.27,0.27,0.54,0.56,0.81,0.85
			c0.55,0.58,1.07,1.16,1.58,1.76c0.51,0.6,1,1.19,1.47,1.8c0.24,0.31,0.48,0.63,0.71,0.94c0.66,0.88,1.28,1.78,1.89,2.7
			c0.32,0.5,0.64,1.01,0.94,1.52c0.66,1.08,1.26,2.18,1.84,3.32C104.23,31.5,105,33.24,105.67,35.03z"/>
		<linearGradient id="SVGID_5_" gradientUnits="userSpaceOnUse" x1="48.3291" y1="2.8918" x2="29.1631" y2="14.6331">
			<stop  offset="0" style="stop-color:#3BD4FF"/>
			<stop  offset="0.473" style="stop-color:#5D80F3"/>
			<stop  offset="0.8254" style="stop-color:#7348EA"/>
			<stop  offset="0.9947" style="stop-color:#7C32E7"/>
		</linearGradient>
		<circle class="st4" cx="40.66" cy="7.59" r="3.06"/>
		<linearGradient id="SVGID_6_" gradientUnits="userSpaceOnUse" x1="57.5307" y1="103.2243" x2="56.84" y2="78.8208">
			<stop  offset="0" style="stop-color:#F9458E"/>
			<stop  offset="0.0132" style="stop-color:#F64490;stop-opacity:0.9867"/>
			<stop  offset="0.4946" style="stop-color:#9D32CB;stop-opacity:0.5028"/>
			<stop  offset="0.8324" style="stop-color:#6526F1;stop-opacity:0.1632"/>
			<stop  offset="0.9947" style="stop-color:#4F22FF;stop-opacity:0"/>
		</linearGradient>
		<path class="st5" d="M96.64,82.83C89.13,94.61,74.46,102.6,57.6,102.6c-17.95,0-33.41-9.06-40.4-22.1
			C39.68,100.12,65.18,105.49,96.64,82.83z"/>
		<linearGradient id="SVGID_7_" gradientUnits="userSpaceOnUse" x1="67.5475" y1="8.2465" x2="85.9652" y2="34.722">
			<stop  offset="0" style="stop-color:#3BD4FF;stop-opacity:0.42"/>
			<stop  offset="0.0521" style="stop-color:#3CC9FF;stop-opacity:0.398"/>
			<stop  offset="0.5143" style="stop-color:#4670FF;stop-opacity:0.2028"/>
			<stop  offset="0.8388" style="stop-color:#4D38FF;stop-opacity:0.0658"/>
			<stop  offset="0.9947" style="stop-color:#4F22FF;stop-opacity:0"/>
		</linearGradient>
		<path class="st6" d="M56.75,8.82c0,0,39.09,1.42,46.42,29.65c0,0-18.43-11.57-35.91-6.14C67.26,32.33,69.86,16.86,56.75,8.82z"/>
		<g>
			<path class="st29" d="M151.57,79.57h21.98v10.02h-35.06V24.11h13.08V79.57z"/>
			<path class="st29" d="M211.27,40.62c3.09,2.04,5.29,4.79,6.59,8.25V38.21h12.98v51.38h-12.98V78.83c-1.3,3.46-3.49,6.23-6.59,8.3
				c-3.09,2.07-6.8,3.11-11.13,3.11c-4.33,0-8.22-1.05-11.69-3.15c-3.46-2.1-6.17-5.15-8.12-9.13c-1.95-3.99-2.92-8.67-2.92-14.05
				c0-5.38,0.97-10.06,2.92-14.05c1.95-3.99,4.65-7.03,8.12-9.14c3.46-2.1,7.36-3.15,11.69-3.15
				C204.47,37.56,208.18,38.58,211.27,40.62z M194.4,52.95c-2.47,2.66-3.71,6.31-3.71,10.94c0,4.64,1.24,8.27,3.71,10.9
				c2.47,2.63,5.75,3.94,9.83,3.94c3.96,0,7.22-1.35,9.78-4.04c2.56-2.69,3.85-6.29,3.85-10.8c0-4.57-1.28-8.21-3.85-10.9
				c-2.57-2.69-5.83-4.03-9.78-4.03C200.15,48.97,196.87,50.3,194.4,52.95z"/>
			<path class="st29" d="M243.21,18.31c1.48-1.33,3.43-1.99,5.84-1.99c2.41,0,4.36,0.67,5.84,1.99c1.48,1.33,2.23,3.05,2.23,5.15
				c0,2.04-0.74,3.73-2.23,5.05c-1.48,1.33-3.43,1.99-5.84,1.99c-2.41,0-4.36-0.66-5.84-1.99c-1.48-1.33-2.23-3.01-2.23-5.05
				C240.98,21.36,241.72,19.64,243.21,18.31z M255.54,38.21v51.38h-13.08V38.21H255.54z"/>
			<path class="st29" d="M293.79,78.37v11.22h-6.86c-5.75,0-10.16-1.39-13.22-4.17c-3.06-2.78-4.59-7.42-4.59-13.91V49.24h-7.14
				V38.21h7.14V25.5h13.08v12.71h11.5v11.04h-11.5v22.44c0,2.47,0.49,4.21,1.48,5.19c0.99,0.99,2.66,1.48,5.01,1.48H293.79z"/>
			<path class="st29" d="M351.56,38.21v51.38h-13.08V79.2c-1.36,3.46-3.6,6.17-6.72,8.12c-3.12,1.95-6.72,2.92-10.8,2.92
				c-5.94,0-10.67-1.95-14.19-5.84c-3.52-3.89-5.29-9.34-5.29-16.32V38.21h12.98v28.38c0,4.08,1.05,7.25,3.15,9.51
				c2.1,2.26,4.95,3.39,8.53,3.39c3.77,0,6.77-1.21,9-3.62c2.23-2.41,3.34-5.87,3.34-10.39V38.21H351.56z"/>
			<path class="st29" d="M443.27,43.26c3.62,3.87,5.43,9.35,5.43,16.46v29.86h-12.98V61.21c0-3.96-1.01-7-3.01-9.14
				c-2.01-2.13-4.78-3.2-8.3-3.2c-3.65,0-6.55,1.14-8.72,3.43c-2.17,2.29-3.25,5.63-3.25,10.02v27.27h-12.98V61.21
				c0-3.96-1.01-7-3.01-9.14c-2.01-2.13-4.78-3.2-8.3-3.2c-3.65,0-6.55,1.14-8.72,3.43c-2.17,2.29-3.25,5.63-3.25,10.02v27.27H363.1
				V38.21h13.08v9.74c1.36-3.34,3.51-5.92,6.45-7.74c2.94-1.82,6.35-2.74,10.25-2.74c4.14,0,7.74,0.99,10.8,2.97
				c3.06,1.98,5.36,4.82,6.91,8.53c1.61-3.52,4-6.32,7.19-8.39c3.18-2.07,6.75-3.11,10.71-3.11
				C434.73,37.47,439.66,39.4,443.27,43.26z"/>
		</g>
	</g>
</g>
</svg>
