<?xml version="1.0" encoding="utf-8"?>
<!-- Generator: Adobe Illustrator 24.2.3, SVG Export Plug-In . SVG Version: 6.00 Build 0)  -->
<svg version="1.1" xmlns="http://www.w3.org/2000/svg" xmlns:xlink="http://www.w3.org/1999/xlink" x="0px" y="0px"
	 viewBox="0 0 1280 342" style="enable-background:new 0 0 1280 342;" xml:space="preserve">
<style type="text/css">
	.st0{fill:url(#SVGID_1_);}
	.st1{fill:#406CC4;}
	.st2{clip-path:url(#XMLID_5_);fill:#22B59D;}
	.st3{opacity:0.34;}
	.st4{opacity:0.18;fill:url(#SVGID_2_);}
	.st5{opacity:0.03;fill:#E6E6E6;}
	.st6{fill:#E6E6E6;}
	.st7{clip-path:url(#SVGID_4_);fill:#CCCCCC;}
	.st8{fill:none;stroke:#FFFFFF;stroke-width:8;stroke-linecap:round;stroke-miterlimit:10;}
	.st9{fill:none;stroke:#FFFFFF;stroke-width:8;stroke-linecap:round;stroke-miterlimit:10;stroke-dasharray:0,40.3229;}
	.st10{fill:none;stroke:#CA464B;stroke-width:4;stroke-linecap:round;stroke-miterlimit:10;}
	.st11{fill:#3760F7;}
	.st12{opacity:0.42;fill:#3760F7;}
	.st13{fill:#CA464B;}
	.st14{fill:#CCCCCC;}
	.st15{opacity:0.47;fill:#CCCCCC;}
	.st16{fill:#77ADD8;stroke:#1B76BD;stroke-width:11;stroke-miterlimit:10;}
	.st17{opacity:0.06;fill:#3760F7;}
	.st18{opacity:0.17;fill:none;stroke:#3760F7;stroke-width:0.75;stroke-miterlimit:10;}
	.st19{opacity:0.18;}
	.st20{fill:#FFFFFF;}
	.st21{display:none;}
	.st22{display:inline;fill:#FFFFFF;}
	.st23{font-family:'Poppins-Bold';}
	.st24{font-size:25.9316px;}
	.st25{display:inline;}
	.st26{font-size:13.2881px;}
	.st27{font-size:5.8236px;}
	.st28{font-size:9px;}
	.st29{display:inline;fill:none;}
	.st30{font-family:'Poppins-Regular';}
	.st31{font-size:7px;}
</style>
<g id="Diseño">
	
		<radialGradient id="SVGID_1_" cx="951.5883" cy="525.9412" r="1454.1615" gradientTransform="matrix(-0.6667 0 0 -0.1826 1268.7843 262.5992)" gradientUnits="userSpaceOnUse">
		<stop  offset="0" style="stop-color:#0F2338"/>
		<stop  offset="1" style="stop-color:#001527"/>
	</radialGradient>
	<rect class="st0" width="1280" height="342"/>
	<g>
		<g id="XMLID_2_">
			<circle class="st1" cx="133.18" cy="217.18" r="85.4"/>
		</g>
		<g>
			<defs>
				<circle id="XMLID_1_" cx="133.18" cy="217.18" r="85.4"/>
			</defs>
			<clipPath id="XMLID_5_">
				<use xlink:href="#XMLID_1_"  style="overflow:visible;"/>
			</clipPath>
			<path class="st2" d="M67.51,227.23c1.43,0.57,3.02,0.87,4.19,1.86c2.76,2.32,1.82,6.93,3.86,9.91c0.62,0.9,1.5,1.63,1.94,2.63
				c0.82,1.87-0.11,4.04,0.19,6.06c0.52,3.5,4.32,5.32,7.48,6.9c5.7,2.85,11.15,7.22,12.88,13.35c0.43,1.52,0.64,3.16,1.61,4.41
				c0.89,1.14,2.27,1.76,3.48,2.54c3.67,2.35,6.1,6.55,6.3,10.91c0.15,3.24-0.84,6.53-0.08,9.68c1.53,6.36,11.22,8.69,15.47,3.71
				c-2.97-6.66-5.1-13.69-6.32-20.88c-0.19-1.11-0.35-2.26-0.04-3.34c0.32-1.12,1.12-2.03,1.89-2.91c3.31-3.75,6.62-7.5,9.94-11.25
				c0.86-0.98,1.74-1.98,2.19-3.21c0.87-2.39-0.08-5.07,0.33-7.58c0.56-3.48,3.69-6.77,2.41-10.05c-0.61-1.56-2.08-2.59-3.23-3.81
				c-1.75-1.87-2.82-4.36-2.96-6.91c-0.11-1.97,0.16-4.33-1.39-5.55c-0.79-0.62-1.85-0.74-2.85-0.89
				c-7.74-1.16-14.89-5.83-19.07-12.45c-8.56,2.12-16.93,4.97-25,8.52c-1.79-2.01-5.46,0.48-7.71-0.99
				c-0.89-0.58-1.31-1.64-1.65-2.64c-1.07-3.08-1.93-6.23-2.58-9.43c-1.68,2.02-5.13,1.53-7.02-0.32c-1.88-1.84-2.6-4.53-3.23-7.09
				c0.9-0.55,1.79-1.09,2.69-1.64c0.06-1.72-0.35-3.45-1.17-4.97c2.91-2.51,7.85-2.12,10.33,0.82c1.74,2.06,2.83,5.38,5.53,5.46
				c3.14,0.09,4.14-4.33,3.31-7.35s-2.32-6.5-0.48-9.04c0.72-1,1.85-1.62,2.92-2.23c8.99-5.08,17.3-11.36,24.65-18.61
				c1.11-1.09,2.28-2.6,1.71-4.05c-0.37-0.93-1.34-1.45-2.24-1.89c-4.32-2.12-10.2-3.98-13.38-0.36c-2.14-0.91-0.98-4.37,1.06-5.49
				c2.04-1.12,4.68-1.35,6.15-3.15c0.89-1.1,1.16-2.61,0.93-4c-0.65-3.92-4.98-6.4-8.95-6.24c-3.97,0.16-7.57,2.32-10.76,4.69
				c-5.68,4.22-10.67,9.29-15.63,14.33c-5.95,6.05-11.99,12.17-16.7,19.28c-5.33,8.05-5.75,13.5-5.62,22.65
				c0.12,8.3,6.13,7.79,11.1,13.8C58.51,215.89,60.35,224.34,67.51,227.23z"/>
			<path class="st2" d="M107.96,153.28c2.03,1.37,4.76,0.4,6.99-0.61c1-0.45,2.09-0.99,2.49-2.01c0.24-0.61,0.2-1.33,0.58-1.87
				c0.69-0.97,2.18-0.71,3.28-1.17c1.62-0.67,2.08-2.7,2.32-4.44c0.3-2.16,0.6-4.33,0.9-6.49c0.06-0.4,0.11-0.84-0.07-1.2
				c-0.36-0.73-1.37-0.75-2.12-1.06c-1.67-0.69-2.1-2.84-2.13-4.65c-0.02-1.81,0.02-3.87-1.31-5.1
				c-3.29-3.06-13.49,7.66-14.36,10.78C103.29,139.97,103.85,150.5,107.96,153.28z"/>
			<path class="st2" d="M153.71,148.32c1.68,1.37,1.85,3.93,1.18,5.99s-1.98,3.85-2.84,5.83c-1.39,3.17-1.49,7.13,0.63,9.86
				c2.13,2.73,6.82,3.35,9.01,0.68c1.83-2.24,1.31-5.53,0.49-8.3c1.4-0.59,2.89,0.48,4.21,1.24c1.32,0.76,3.44,0.98,3.97-0.45
				c0.51-1.38-0.96-3.39,0.28-4.19c0.42-0.27,0.97-0.21,1.45-0.08c3.84,1.01,6.54,5.42,10.5,5.16c1.81-0.12,3.42-1.25,5.23-1.48
				c1.79-0.23,3.62,0.46,5.41,0.19c2.98-0.45,4.89-3.33,6.42-5.93c0.65-1.1,1.32-2.33,1.09-3.59c-0.21-1.18-1.17-2.07-2.04-2.9
				c-4.78-4.51-8.73-9.84-13.32-14.54c-4.59-4.71-10.08-8.9-16.51-10.26c-7.24-1.54-21.8-1.65-25.25,6.55
				c-1.09,2.58-1.42,8.26-0.28,10.77C145.61,147.87,150.26,145.52,153.71,148.32z"/>
			<path class="st2" d="M150.71,192.44c2.56,13.1,17.47,22.32,30.33,18.76c5.68,7.51,10.72,15.51,15.03,23.88
				c1.06,2.05,2.11,4.19,3.85,5.71c1.74,1.52,4.38,2.27,6.4,1.16c1.23,4.66,2.47,9.32,3.7,13.98c0.27,1.03,0.66,2.19,1.63,2.62
				c0.67,0.29,1.43,0.14,2.14-0.01c3.43-0.73,6.94-1.48,9.94-3.32c2.99-1.83,5.42-4.99,5.41-8.5c0-2.31-1.03-4.48-1.52-6.74
				c-0.96-4.48,0.23-9.1,0.97-13.62c1.51-9.16,1.17-18.51,0.82-27.78c-0.18-4.88-0.38-9.84-2-14.44s-4.94-8.87-9.56-10.41
				c-2.94-0.98-6.12-0.8-9.16-1.4c-3.04-0.6-6.23-2.38-6.91-5.39c-0.15-0.68-0.24-1.49-0.84-1.82c-0.42-0.23-0.94-0.14-1.4-0.04
				c-5.54,1.2-11.08,2.41-16.62,3.61c-3.27,0.71-6.53,1.42-9.8,2.13C161.48,173.34,147.71,177.04,150.71,192.44z"/>
		</g>
		<g class="st3">
			<path class="st1" d="M136.56,294.89c-6.65,2.67-13.4,4.67-20.17,6.04c15.76,3.18,32.6,1.94,48.64-4.5
				c43.77-17.59,64.99-67.32,47.4-111.09c-1.46-3.63-3.14-7.11-5.02-10.42C213.61,225.11,185.71,275.15,136.56,294.89z"/>
		</g>
	</g>
	<g>
		<radialGradient id="SVGID_2_" cx="992.8605" cy="56.1121" r="81.5513" gradientUnits="userSpaceOnUse">
			<stop  offset="0" style="stop-color:#FFFFFF"/>
			<stop  offset="0.9894" style="stop-color:#FFFFFF;stop-opacity:0"/>
		</radialGradient>
		<circle class="st4" cx="992.86" cy="56.11" r="81.55"/>
		<circle class="st5" cx="992.86" cy="56.11" r="56.59"/>
		<circle class="st6" cx="992.86" cy="56.11" r="35.92"/>
		<g>
			<defs>
				<circle id="SVGID_3_" cx="992.86" cy="56.11" r="35.92"/>
			</defs>
			<clipPath id="SVGID_4_">
				<use xlink:href="#SVGID_3_"  style="overflow:visible;"/>
			</clipPath>
			<path class="st7" d="M970.63,76.84c0.38-0.25,0.84-0.4,1.28-0.3c0.71,0.16,1.12,0.87,1.71,1.3c1.15,0.82,2.72,0.42,4.11,0.19
				c1.57-0.26,3.19-0.26,4.76,0.01c0.35,0.06,0.7,0.14,0.99,0.34c0.35,0.25,0.55,0.66,0.78,1.03c0.5,0.81,1.18,1.51,1.62,2.35
				c0.45,0.84,0.61,1.94,0.05,2.71c-0.69,0.95-2.08,0.96-3.24,0.86c-2.64-0.23-5.26-0.57-7.87-1.02
				C972.14,83.83,966.59,79.48,970.63,76.84z"/>
			<path class="st7" d="M1001.02,75.43c0.15,0.7,0.3,1.43,0.71,2.02s1.14,1.02,1.84,0.86c0.39-0.09,0.71-0.34,0.98-0.63
				c1.49-1.61,1.32-4.11,0.99-6.28c-0.09-0.55-0.18-1.12-0.47-1.6c-0.85-1.41-3.1-1.37-4.3-0.24s-1.49,2.94-1.36,4.58"/>
			<path class="st7" d="M994.4,29.97c0.8,1.58,0.58,3.67,1.83,4.92c0.74,0.73,1.91,0.99,2.88,0.63c0.97-0.36,1.7-1.32,1.77-2.36
				c-0.8,0.11-1.59-0.47-1.91-1.22c-0.31-0.75-0.22-1.61,0.05-2.38c0.25-0.7,0.56-1.63-0.05-2.04c-0.24-0.16-0.54-0.16-0.83-0.16
				c-0.88,0-1.75,0.01-2.63,0.01c-0.24,0-0.5,0.01-0.66,0.18c-0.15,0.16-0.17,0.4-0.18,0.62c-0.03,0.86-0.07,1.72-0.1,2.58"/>
			<path class="st7" d="M974.55,66.14c0.11,0.96,0.25,1.94,0.7,2.79c0.45,0.85,1.25,1.58,2.21,1.68c0.5,0.06,1.05-0.08,1.37-0.46
				c0.37-0.44,0.36-1.06,0.34-1.63c-0.09-2.18-0.18-4.37-0.29-6.55c-0.01-0.31-0.04-0.64-0.26-0.86c-0.18-0.18-0.45-0.24-0.7-0.28
				c-1.29-0.23-2.82-0.38-3.75,0.55c-1.11,1.11-0.65,2.97-0.11,4.45"/>
			<path class="st7" d="M962.5,55.37c1.18-0.83,2.26-1.84,2.96-3.11s0.95-2.82,0.46-4.17c-1.45-0.13-2.83-1.4-4.2-0.88
				c-0.46,0.17-0.82,0.53-1.16,0.87c-0.49,0.49-0.99,0.98-1.48,1.48c-0.22,0.22-0.45,0.45-0.53,0.76c-0.08,0.31,0,0.63,0.09,0.94
				c0.41,1.47,0.82,2.93,1.24,4.4c1.95,0.03,3.9,0.06,5.85,0.09"/>
			<path class="st7" d="M984.36,30.48c0.59,1.48,1.25,3.05,2.58,3.91c0.27,0.17,0.58,0.32,0.9,0.3c0.86-0.05,1.22-1.15,1.16-2.01
				c-0.05-0.86-0.25-1.83,0.29-2.51c0.14-0.18,0.33-0.33,0.4-0.54c0.28-0.85-1.33-1.06-1.65-1.9c-0.1-0.26-0.05-0.56-0.13-0.82
				c-0.19-0.62-0.99-0.81-1.63-0.71s-1.25,0.39-1.9,0.34c-0.18-1.14-1.64-1.48-2.79-1.56c-1.47-0.1-3.32,0.01-3.88,1.38
				c-0.55,1.34,0.64,2.72,1.74,3.66c1.45,1.24,3.28,2.51,5.12,1.99"/>
			<path class="st7" d="M1021.64,45.24c-0.33,0.31-0.65,0.69-0.63,1.14c0.03,0.56,0.57,0.92,0.97,1.31c0.92,0.88,1.3,2.29,0.94,3.51
				c-0.22,0.76-0.68,1.41-1.08,2.09c-1.2,2-1.95,4.26-2.18,6.58c-0.08,0.85-0.08,1.78,0.43,2.46c0.34,0.45,0.86,0.74,1.17,1.21
				c1.03,1.58-0.92,3.86,0.04,5.49c0.21,0.36,0.54,0.63,0.89,0.84c2.08,1.24,4.96,0.32,6.45-1.57s1.83-4.5,1.55-6.9
				c-0.16-1.35-0.49-2.69-0.45-4.05c0.03-1.16,0.33-2.3,0.63-3.43c0.54-2.06,1.06-4.17,0.85-6.29c-0.21-2.12-1.3-4.27-3.22-5.18
				C1026.09,41.55,1023,43.98,1021.64,45.24z"/>
			<path class="st7" d="M1008.7,28.74c0.27,0.28,0.68,0.37,1.06,0.46c1.03,0.22,2.05,0.45,3.08,0.67c1.04,0.23,2.51,0.19,2.7-0.86
				c0.15-0.81-0.69-1.42-1.26-2.01c-0.59-0.61-0.96-1.39-1.47-2.07c-0.98-1.33-6.04-4.6-7.6-2.41
				C1004.7,23.24,1007.93,27.96,1008.7,28.74z"/>
			<path class="st7" d="M998.77,92.77c-0.63-1.72-0.19-3.79,1.09-5.1c0.22-0.23,0.52-0.45,0.83-0.41c0.4,0.06,0.62,0.5,0.74,0.89
				c0.29,0.92,0.47,1.89,0.52,2.85c0.05,0.92-0.06,1.95-0.75,2.58c-0.83,0.75-2.28,0.53-2.97-0.35c-0.69-0.88-0.65-2.2-0.04-3.14"/>
			<path class="st7" d="M1011.02,78.39c1-0.7,2.59-0.26,3.09,0.85c0.47,1.04-0.07,2.4-1.1,2.9c-1.03,0.5-2.37,0.15-3.09-0.74
				c-0.72-0.89-0.81-2.21-0.3-3.23c0.18-0.36,0.44-0.7,0.79-0.91c1.16-0.69,2.72,0.47,2.88,1.8"/>
			<path class="st7" d="M980.78,48.55c-3.12,1.54-8.22,1.49-10.2-1.72c-1.65-2.68-0.83-6.09,1.61-7.95
				C978.55,34.01,987.9,45.04,980.78,48.55z"/>
		</g>
	</g>
	<g>
		<g>
			<line class="st8" x1="85.47" y1="249.81" x2="85.47" y2="249.81"/>
			<path class="st9" d="M106.38,215.44c40.74-53.45,150.24-147.86,405.8-122.35c345.07,34.44,382.02,230.97,667.23,26.07"/>
			<line class="st8" x1="1195.68" y1="107.23" x2="1195.68" y2="107.23"/>
		</g>
	</g>
	<g>
		<line class="st10" x1="90.29" y1="244.1" x2="79.24" y2="257.19"/>
		<line class="st10" x1="91.31" y1="256.18" x2="78.22" y2="245.12"/>
	</g>
	<g>
		
			<ellipse transform="matrix(0.8088 -0.5881 0.5881 0.8088 127.7289 691.1425)" class="st11" cx="1126.74" cy="149.14" rx="35.1" ry="11.67"/>
		
			<ellipse transform="matrix(0.8088 -0.5881 0.5881 0.8088 127.7289 691.1425)" class="st12" cx="1126.74" cy="149.14" rx="22.11" ry="7.35"/>
		<polygon class="st13" points="1143.41,159.03 1123.34,129.67 1129.35,125.33 1149.42,154.69 		"/>
		<path class="st13" d="M1113.41,101.73L1113.41,101.73l16.45,14.47l22.35-26.34l-19.02,1.59
			C1125.57,92.09,1118.45,95.79,1113.41,101.73z"/>
		<path class="st13" d="M1165.58,178.28L1165.58,178.28l-7.34-20.94l31.87-12.16l-8.18,17.73
			C1178.65,170.01,1172.77,175.54,1165.58,178.28z"/>
		<g>
			<path class="st14" d="M1149.97,161.65c14.08-1.52,28.04-6.67,40.51-15.67c23.05-16.65,35.77-42.71,36.54-69.26
				c-24.57-8.25-52.72-4.79-75.78,11.86c-12.47,9-21.91,20.76-28.07,33.86L1149.97,161.65z"/>
			<path class="st15" d="M1227.02,76.72c-24.57-8.25-52.72-4.79-75.78,11.86c-12.47,9-21.91,20.76-28.07,33.86l13.4,19.61
				L1227.02,76.72z"/>
		</g>
		<path class="st13" d="M1220,108.88c4.32-10.21,6.69-21.14,7.02-32.16c-10.19-3.42-21-4.83-31.81-4.12L1220,108.88z"/>
		
			<ellipse transform="matrix(0.3489 -0.9372 0.9372 0.3489 668.5004 1179.2935)" class="st16" cx="1182.94" cy="108.56" rx="13.1" ry="12.74"/>
	</g>
	<g>
		<g>
			<circle class="st1" cx="234.72" cy="122.19" r="15.93"/>
		</g>
	</g>
	<g>
		<g>
			<circle class="st1" cx="470.88" cy="92.03" r="15.93"/>
		</g>
	</g>
	<g>
		<g>
			<circle class="st1" cx="748.29" cy="149.14" r="15.93"/>
		</g>
	</g>
	<g>
		<g>
			<circle class="st1" cx="952.2" cy="204.76" r="15.93"/>
		</g>
	</g>
	<g>
		<g>
			<path class="st17" d="M947.99,230.18h165.55c3.4,0,6.16,2.76,6.16,6.16v91.44c0,3.4-2.76,6.16-6.16,6.16H947.99
				c-3.4,0-6.16-2.76-6.16-6.16v-91.44C941.82,232.94,944.58,230.18,947.99,230.18z"/>
			<path class="st18" d="M947.99,230.18h165.55c3.4,0,6.16,2.76,6.16,6.16v91.44c0,3.4-2.76,6.16-6.16,6.16H947.99
				c-3.4,0-6.16-2.76-6.16-6.16v-91.44C941.82,232.94,944.58,230.18,947.99,230.18z"/>
		</g>
		<g>
			<g>
				<circle class="st1" cx="953.07" cy="259.11" r="3.58"/>
			</g>
		</g>
		<g>
			<g>
				<circle class="st1" cx="953.07" cy="299.14" r="3.58"/>
			</g>
		</g>
		<g>
			<g>
				<circle class="st1" cx="953.07" cy="317.06" r="3.58"/>
			</g>
		</g>
	</g>
	<g class="st19">
		<g>
			<g>
				<path class="st20" d="M282.41,37.56c1.93,0,1.93-3,0-3C280.48,34.56,280.48,37.56,282.41,37.56L282.41,37.56z"/>
			</g>
		</g>
		<g>
			<g>
				<path class="st20" d="M305.71,192.15c1.93,0,1.93-3,0-3C303.78,189.15,303.77,192.15,305.71,192.15L305.71,192.15z"/>
			</g>
		</g>
		<g>
			<g>
				<path class="st20" d="M375.59,215.44c1.93,0,1.93-3,0-3C373.66,212.44,373.65,215.44,375.59,215.44L375.59,215.44z"/>
			</g>
		</g>
		<g>
			<g>
				<path class="st20" d="M337.51,177.6c0.54,0,0.51-3.55-0.09-3.55C336.89,174.05,336.91,177.6,337.51,177.6L337.51,177.6z"/>
			</g>
		</g>
		<g>
			<g>
				<path class="st20" d="M373.5,168.72c0.41,0,0.39-2.73-0.07-2.73C373.02,165.99,373.04,168.72,373.5,168.72L373.5,168.72z"/>
			</g>
		</g>
		<g>
			<g>
				<path class="st20" d="M297.27,264.13c1.31,0,1.25-2.97-0.07-2.97C295.89,261.16,295.94,264.13,297.27,264.13L297.27,264.13z"/>
			</g>
		</g>
		<g>
			<g>
				<path class="st20" d="M356.58,270.89c1.67,0,1.6-3.79-0.09-3.79C354.81,267.11,354.88,270.89,356.58,270.89L356.58,270.89z"/>
			</g>
		</g>
		<g>
			<g>
				<path class="st20" d="M468.81,218.09c1.79,0,1.72-4.06-0.1-4.06C466.92,214.03,467,218.09,468.81,218.09L468.81,218.09z"/>
			</g>
		</g>
		<g>
			<g>
				<path class="st20" d="M517.5,215.21c1.12,0,1.07-2.54-0.06-2.54C516.32,212.67,516.37,215.21,517.5,215.21L517.5,215.21z"/>
			</g>
		</g>
		<g>
			<g>
				<path class="st20" d="M559.87,270.7c1.5,0,1.44-3.4-0.08-3.4C558.28,267.3,558.35,270.7,559.87,270.7L559.87,270.7z"/>
			</g>
		</g>
		<g>
			<g>
				<path class="st20" d="M34.69,317.37c1.57,0,1.5-3.55-0.09-3.55C33.04,313.81,33.1,317.37,34.69,317.37L34.69,317.37z"/>
			</g>
		</g>
		<g>
			<g>
				<path class="st20" d="M83.4,63.54c1.83,0,1.75-4.14-0.1-4.14C81.48,59.4,81.55,63.54,83.4,63.54L83.4,63.54z"/>
			</g>
		</g>
		<g>
			<g>
				<path class="st20" d="M193.51,48.21c1.38,0,1.32-3.12-0.08-3.12C192.05,45.09,192.11,48.21,193.51,48.21L193.51,48.21z"/>
			</g>
		</g>
		<g>
			<g>
				<path class="st20" d="M538.68,18.23c1.09,0,1.04-2.46-0.06-2.46C537.53,15.77,537.58,18.23,538.68,18.23L538.68,18.23z"/>
			</g>
		</g>
		<g>
			<g>
				<path class="st20" d="M612.78,212.51c0.6,0,0.58-1.37-0.03-1.37C612.14,211.14,612.17,212.51,612.78,212.51L612.78,212.51z"/>
			</g>
		</g>
		<g>
			<g>
				<path class="st20" d="M703.85,268.13c1.1,0,1.06-2.5-0.06-2.5C702.69,265.63,702.74,268.13,703.85,268.13L703.85,268.13z"/>
			</g>
		</g>
		<g>
			<g>
				<path class="st20" d="M1093.5,270.11c0.98,0,0.94-2.23-0.05-2.23C1092.46,267.89,1092.5,270.11,1093.5,270.11L1093.5,270.11z"/>
			</g>
		</g>
		<g>
			<g>
				<path class="st20" d="M1173.97,213.13c1.15,0,1.11-2.62-0.06-2.62C1172.75,210.52,1172.8,213.13,1173.97,213.13L1173.97,213.13z
					"/>
			</g>
		</g>
		<g>
			<g>
				<path class="st20" d="M1205.74,272.52c1.24,0,1.19-2.81-0.07-2.81C1204.43,269.71,1204.48,272.52,1205.74,272.52L1205.74,272.52
					z"/>
			</g>
		</g>
		<g>
			<g>
				<path class="st20" d="M775.49,237.74c-0.34,0.08-0.68,0.17-1.03,0.25c-0.17,0.04-0.34,0.08-0.5,0.12
					c-0.08,0.02-0.16,0.04-0.24,0.06c-0.17,0.05-0.26,0.18-0.37,0.3c-0.19,0.22-0.28,0.46-0.3,0.75c-0.02,0.14-0.01,0.27,0.02,0.4
					c0.03,0.16,0.09,0.31,0.18,0.44c0.14,0.16,0.27,0.37,0.48,0.44c0.08,0.03,0.16,0.04,0.24,0.06c0.18,0.04,0.35,0.09,0.53,0.13
					c0.35,0.09,0.71,0.17,1.06,0.26c0.2,0.08,0.39,0.07,0.59-0.01c0.2-0.1,0.36-0.25,0.48-0.44c0.21-0.36,0.3-0.78,0.29-1.2
					c-0.01-0.39-0.12-0.85-0.35-1.18c-0.12-0.19-0.29-0.33-0.5-0.42C775.88,237.65,775.68,237.66,775.49,237.74L775.49,237.74z"/>
			</g>
		</g>
		<g>
			<g>
				<path class="st20" d="M750.45,270.76c1.55,0,1.49-3.51-0.09-3.51C748.82,267.24,748.88,270.76,750.45,270.76L750.45,270.76z"/>
			</g>
		</g>
		<g>
			<g>
				<path class="st20" d="M788.57,306.66c1.46,0,1.4-3.32-0.08-3.32C787.02,303.34,787.09,306.66,788.57,306.66L788.57,306.66z"/>
			</g>
		</g>
		<g>
			<g>
				<path class="st20" d="M1167.63,237.01c1.67,0,1.6-3.79-0.09-3.79C1165.87,233.22,1165.94,237.01,1167.63,237.01L1167.63,237.01z
					"/>
			</g>
		</g>
		<g>
			<g>
				<path class="st20" d="M1231.17,186.31c1.78,0,1.7-4.02-0.1-4.02C1229.29,182.28,1229.37,186.31,1231.17,186.31L1231.17,186.31z"
					/>
			</g>
		</g>
		<g>
			<g>
				<path class="st20" d="M1229.04,29.25c1.46,0,1.4-3.32-0.08-3.32C1227.49,25.93,1227.56,29.25,1229.04,29.25L1229.04,29.25z"/>
			</g>
		</g>
		<g>
			<g>
				<path class="st20" d="M1178.22,35.8c1.64,0,1.57-3.71-0.09-3.71C1176.49,32.09,1176.56,35.8,1178.22,35.8L1178.22,35.8z"/>
			</g>
		</g>
		<g>
			<g>
				<path class="st20" d="M902.93,33.82c1.76,0,1.68-3.98-0.1-3.98C901.08,29.83,901.15,33.82,902.93,33.82L902.93,33.82z"/>
			</g>
		</g>
		<g>
			<g>
				<path class="st20" d="M633.99,63.35c1.65,0,1.58-3.75-0.09-3.75C632.24,59.6,632.31,63.35,633.99,63.35L633.99,63.35z"/>
			</g>
		</g>
		<g>
			<g>
				<path class="st20" d="M733.5,86.03c1.12,0,1.07-2.54-0.06-2.54C732.32,83.5,732.37,86.03,733.5,86.03L733.5,86.03z"/>
			</g>
		</g>
		<g>
			<g>
				<path class="st20" d="M655.16,188.17c1.55,0,1.49-3.51-0.09-3.51C653.52,184.65,653.59,188.17,655.16,188.17L655.16,188.17z"/>
			</g>
		</g>
	</g>
</g>
<g id="Text" class="st21">
	<text transform="matrix(1 0 0 1 229.1795 131.2258)" class="st22 st23 st24">1</text>
	<text transform="matrix(1 0 0 1 463.5439 99.8141)" class="st22 st23 st24">2</text>
	<text transform="matrix(1 0 0 1 740.4498 156.9905)" class="st22 st23 st24">3</text>
	<text transform="matrix(1 0 0 1 942.5198 213.8142)" class="st22 st23 st24">4</text>
	<text transform="matrix(1 0 0 1 246.8438 159.2344)" class="st25"><tspan x="0" y="0" class="st20 st23 st26">Ingeniería</tspan><tspan x="0" y="19.19" class="st20 st23 st26">Química</tspan></text>
	<text transform="matrix(1 0 0 1 951.8263 261.1414)" class="st22 st23 st27">1</text>
	<text transform="matrix(1 0 0 1 951.2086 301.1639)" class="st22 st23 st27">2</text>
	<text transform="matrix(1 0 0 1 951.2086 319.0873)" class="st22 st23 st27">3</text>
	<text transform="matrix(1 0 0 1 984.4191 245.1763)" class="st22 st23 st28">Despegamos con:</text>
	<rect x="961.24" y="256.47" class="st29" width="146.12" height="28.94"/>
	<text transform="matrix(1 0 0 1 961.2355 261.6504)" class="st25"><tspan x="0" y="0" class="st20 st30 st31">Ingeniería Química</tspan><tspan x="0" y="14.4" class="st20 st30 st31">¿Qué carrera te gustaría que venga </tspan><tspan x="0" y="22.8" class="st20 st30 st31">luego?</tspan></text>
</g>
<g id="Contornos">
	<g>
		<path class="st20" d="M229.46,117.04v-4.15h7.42v18.33h-4.67v-14.18H229.46z"/>
	</g>
	<g>
		<path class="st20" d="M472.67,86.93c0-1.42-0.61-2.13-1.84-2.13c-0.69,0-1.2,0.24-1.52,0.73s-0.5,1.24-0.53,2.26h-4.33
			c0.1-2.23,0.78-3.91,2.02-5.03c1.24-1.12,2.82-1.69,4.72-1.69c1.99,0,3.49,0.5,4.5,1.5c1.01,1,1.52,2.31,1.52,3.92
			c0,1.78-0.68,3.52-2.05,5.23s-3,3.14-4.9,4.32h7.23v3.58h-13.07v-3.32C469.92,92.36,472.67,89.24,472.67,86.93z"/>
	</g>
	<g>
		<path class="st20" d="M751.57,138.51c0.92,0.44,1.61,1.05,2.09,1.81c0.48,0.77,0.71,1.64,0.71,2.61c0,1.19-0.31,2.15-0.92,2.88
			c-0.61,0.73-1.38,1.18-2.29,1.37v0.13c2.37,0.76,3.55,2.24,3.55,4.43c0,1.05-0.24,1.99-0.73,2.81c-0.48,0.82-1.19,1.46-2.11,1.92
			c-0.92,0.46-2.04,0.69-3.33,0.69c-2.11,0-3.78-0.52-5.02-1.56c-1.24-1.04-1.91-2.62-2.01-4.75h4.33c0.03,0.81,0.26,1.45,0.67,1.92
			c0.42,0.47,1.02,0.7,1.82,0.7c0.64,0,1.15-0.19,1.52-0.57c0.37-0.38,0.56-0.87,0.56-1.48c0-1.5-1.09-2.26-3.27-2.26h-0.83v-3.6
			h0.8c1.95,0.03,2.93-0.67,2.93-2.1c0-0.62-0.17-1.1-0.51-1.44c-0.34-0.34-0.79-0.51-1.36-0.51c-0.62,0-1.12,0.21-1.48,0.64
			c-0.36,0.42-0.57,0.99-0.62,1.7h-4.33c0.09-1.94,0.69-3.42,1.82-4.46c1.12-1.04,2.7-1.56,4.72-1.56
			C749.56,137.85,750.66,138.07,751.57,138.51z"/>
	</g>
	<g>
		<path class="st20" d="M943.66,210.44v-3.71l8.38-11.49h4.77v11.33h2.2v3.86h-2.2v3.37h-4.49v-3.37H943.66z M952.69,200.38
			l-4.51,6.2h4.51V200.38z"/>
	</g>
	<g>
		<path class="st20" d="M249.9,149.84v9.39h-2.27v-9.39H249.9z"/>
		<path class="st20" d="M258.33,152.59c0.5,0.57,0.75,1.35,0.75,2.34v4.31h-2.27v-4.04c0-0.5-0.13-0.88-0.39-1.16
			c-0.26-0.28-0.61-0.42-1.04-0.42c-0.46,0-0.83,0.15-1.1,0.44c-0.27,0.29-0.41,0.71-0.41,1.25v3.93h-2.27v-7.41h2.27v1.35
			c0.21-0.44,0.53-0.79,0.95-1.05c0.42-0.26,0.91-0.39,1.48-0.39C257.16,151.74,257.83,152.02,258.33,152.59z"/>
		<path class="st20" d="M265,152.11c0.41,0.26,0.71,0.61,0.9,1.05v-1.34h2.26v7.37c0,0.69-0.13,1.31-0.4,1.87s-0.67,0.99-1.22,1.32
			c-0.55,0.33-1.23,0.49-2.05,0.49c-1.12,0-2.01-0.26-2.68-0.79c-0.67-0.53-1.07-1.24-1.2-2.15h2.25c0.07,0.3,0.23,0.54,0.48,0.7
			c0.25,0.17,0.58,0.25,0.99,0.25c0.47,0,0.85-0.14,1.14-0.41c0.29-0.27,0.43-0.7,0.43-1.3v-1.3c-0.19,0.44-0.5,0.79-0.9,1.05
			c-0.41,0.26-0.9,0.39-1.46,0.39c-0.61,0-1.16-0.15-1.64-0.46s-0.86-0.75-1.14-1.32c-0.28-0.58-0.42-1.25-0.42-2.02
			c0-0.78,0.14-1.46,0.42-2.03c0.28-0.57,0.66-1.01,1.14-1.32s1.03-0.46,1.64-0.46C264.1,151.73,264.59,151.85,265,152.11z
			 M263.09,154.2c-0.3,0.32-0.44,0.76-0.44,1.33c0,0.57,0.15,1.01,0.44,1.33s0.69,0.48,1.18,0.48c0.48,0,0.87-0.16,1.18-0.49
			c0.31-0.33,0.46-0.77,0.46-1.32c0-0.56-0.15-1-0.46-1.32c-0.31-0.32-0.7-0.48-1.18-0.48C263.78,153.72,263.38,153.88,263.09,154.2
			z"/>
		<path class="st20" d="M276.83,155.94h-5.14c0.03,0.56,0.17,0.96,0.43,1.2s0.58,0.37,0.98,0.37c0.34,0,0.62-0.08,0.84-0.25
			c0.22-0.17,0.37-0.39,0.44-0.65h2.41c-0.1,0.52-0.31,0.99-0.64,1.4c-0.33,0.41-0.74,0.74-1.25,0.97c-0.5,0.23-1.07,0.35-1.69,0.35
			c-0.73,0-1.37-0.15-1.93-0.46s-1-0.75-1.32-1.32s-0.48-1.25-0.48-2.02c0-0.78,0.16-1.46,0.47-2.03c0.31-0.57,0.75-1.01,1.32-1.32
			s1.21-0.46,1.94-0.46c0.73,0,1.38,0.15,1.94,0.45c0.56,0.3,0.99,0.72,1.3,1.27s0.46,1.17,0.46,1.88
			C276.9,155.51,276.88,155.72,276.83,155.94z M274.21,153.89c-0.27-0.24-0.6-0.37-1-0.37c-0.42,0-0.76,0.12-1.04,0.37
			c-0.27,0.25-0.43,0.61-0.47,1.09h2.9C274.61,154.5,274.48,154.13,274.21,153.89z"/>
		<path class="st20" d="M284.95,152.59c0.5,0.57,0.75,1.35,0.75,2.34v4.31h-2.27v-4.04c0-0.5-0.13-0.88-0.39-1.16
			c-0.26-0.28-0.61-0.42-1.04-0.42c-0.46,0-0.83,0.15-1.1,0.44c-0.27,0.29-0.41,0.71-0.41,1.25v3.93h-2.27v-7.41h2.27v1.35
			c0.21-0.44,0.53-0.79,0.95-1.05c0.42-0.26,0.91-0.39,1.48-0.39C283.77,151.74,284.45,152.02,284.95,152.59z"/>
		<path class="st20" d="M287.49,148.88c0.25-0.23,0.58-0.34,0.98-0.34c0.41,0,0.74,0.11,0.98,0.34c0.25,0.23,0.37,0.51,0.37,0.86
			c0,0.34-0.12,0.62-0.37,0.84s-0.58,0.34-0.98,0.34c-0.41,0-0.74-0.11-0.98-0.34s-0.37-0.51-0.37-0.84
			C287.12,149.39,287.24,149.1,287.49,148.88z M289.6,151.82v7.41h-2.27v-7.41H289.6z"/>
		<path class="st20" d="M298.28,155.94h-5.14c0.03,0.56,0.17,0.96,0.43,1.2s0.58,0.37,0.98,0.37c0.34,0,0.62-0.08,0.84-0.25
			c0.22-0.17,0.37-0.39,0.44-0.65h2.41c-0.1,0.52-0.31,0.99-0.64,1.4c-0.33,0.41-0.74,0.74-1.25,0.97c-0.5,0.23-1.07,0.35-1.69,0.35
			c-0.73,0-1.37-0.15-1.93-0.46s-1-0.75-1.32-1.32s-0.48-1.25-0.48-2.02c0-0.78,0.16-1.46,0.47-2.03c0.31-0.57,0.75-1.01,1.32-1.32
			s1.21-0.46,1.94-0.46c0.73,0,1.38,0.15,1.94,0.45c0.56,0.3,0.99,0.72,1.3,1.27s0.46,1.17,0.46,1.88
			C298.35,155.51,298.33,155.72,298.28,155.94z M295.66,153.89c-0.27-0.24-0.6-0.37-1-0.37c-0.42,0-0.76,0.12-1.04,0.37
			c-0.27,0.25-0.43,0.61-0.47,1.09h2.9C296.06,154.5,295.93,154.13,295.66,153.89z"/>
		<path class="st20" d="M303.03,152.14c0.45-0.27,0.93-0.4,1.46-0.4v2.43h-0.65c-0.6,0-1.07,0.13-1.4,0.39
			c-0.33,0.26-0.5,0.69-0.5,1.3v3.38h-2.27v-7.41h2.27v1.4C302.22,152.76,302.58,152.4,303.03,152.14z"/>
		<path class="st20" d="M308.87,149.92l-3.2,1.37v-1.54l3.2-1.54V149.92z M308.1,151.82v7.41h-2.27v-7.41H308.1z"/>
		<path class="st20" d="M314.33,152.11c0.41,0.26,0.71,0.61,0.9,1.05v-1.34h2.26v7.41h-2.26v-1.34c-0.19,0.44-0.5,0.79-0.9,1.05
			c-0.41,0.26-0.9,0.39-1.46,0.39c-0.61,0-1.16-0.15-1.64-0.46s-0.86-0.75-1.14-1.32c-0.28-0.58-0.42-1.25-0.42-2.02
			c0-0.78,0.14-1.46,0.42-2.03c0.28-0.57,0.66-1.01,1.14-1.32s1.03-0.46,1.64-0.46C313.44,151.73,313.93,151.85,314.33,152.11z
			 M312.43,154.2c-0.3,0.32-0.44,0.76-0.44,1.33c0,0.57,0.15,1.01,0.44,1.33s0.69,0.48,1.18,0.48c0.48,0,0.87-0.16,1.18-0.49
			c0.31-0.33,0.46-0.77,0.46-1.32c0-0.56-0.15-1-0.46-1.32c-0.31-0.32-0.7-0.48-1.18-0.48C313.11,153.72,312.72,153.88,312.43,154.2
			z"/>
		<path class="st20" d="M254.34,180.08l-1.22-1.66c-0.35,0.07-0.7,0.11-1.02,0.11c-0.88,0-1.68-0.21-2.4-0.62
			c-0.72-0.41-1.29-0.99-1.71-1.72c-0.42-0.74-0.63-1.56-0.63-2.48s0.21-1.75,0.63-2.48c0.42-0.73,0.99-1.3,1.71-1.71
			c0.72-0.41,1.52-0.62,2.4-0.62c0.89,0,1.69,0.21,2.41,0.62c0.72,0.41,1.29,0.98,1.71,1.71c0.42,0.73,0.62,1.56,0.62,2.48
			c0,0.81-0.17,1.56-0.5,2.23c-0.33,0.67-0.79,1.23-1.38,1.66l2.1,2.48H254.34z M250.32,175.66c0.44,0.49,1.03,0.73,1.77,0.73
			c0.73,0,1.32-0.24,1.77-0.73c0.44-0.49,0.66-1.14,0.66-1.97s-0.22-1.48-0.66-1.97c-0.44-0.49-1.03-0.73-1.77-0.73
			s-1.34,0.24-1.77,0.72c-0.44,0.48-0.66,1.14-0.66,1.97C249.66,174.52,249.88,175.18,250.32,175.66z"/>
		<path class="st20" d="M265.62,171.01v7.41h-2.29v-1.34c-0.21,0.43-0.53,0.78-0.95,1.04c-0.42,0.26-0.91,0.39-1.47,0.39
			c-0.85,0-1.53-0.28-2.03-0.85c-0.5-0.57-0.75-1.35-0.75-2.34v-4.31h2.26v4.03c0,0.51,0.13,0.9,0.39,1.18
			c0.26,0.28,0.61,0.42,1.06,0.42c0.46,0,0.82-0.15,1.09-0.44s0.4-0.71,0.4-1.25v-3.93H265.62z"/>
		<path class="st20" d="M270.62,169.11l-3.2,1.37v-1.54l3.2-1.54V169.11z M269.85,171.01v7.41h-2.27v-7.41H269.85z"/>
		<path class="st20" d="M283.56,171.78c0.52,0.56,0.78,1.34,0.78,2.35v4.31h-2.26v-4.04c0-0.47-0.13-0.83-0.38-1.1
			s-0.6-0.39-1.03-0.39c-0.45,0-0.81,0.14-1.07,0.42c-0.26,0.28-0.39,0.67-0.39,1.18v3.93h-2.27v-4.04c0-0.47-0.12-0.83-0.37-1.1
			s-0.59-0.39-1.02-0.39c-0.45,0-0.81,0.14-1.08,0.41c-0.27,0.27-0.4,0.67-0.4,1.18v3.93h-2.27v-7.41h2.27v1.26
			c0.19-0.42,0.49-0.74,0.9-0.98s0.88-0.36,1.42-0.36c0.57,0,1.07,0.13,1.5,0.39c0.43,0.26,0.76,0.64,0.98,1.12
			c0.26-0.46,0.61-0.83,1.06-1.1s0.94-0.41,1.48-0.41C282.32,170.93,283.04,171.21,283.56,171.78z"/>
		<path class="st20" d="M286.15,168.07c0.25-0.23,0.58-0.34,0.98-0.34c0.41,0,0.74,0.11,0.98,0.34c0.25,0.23,0.37,0.51,0.37,0.86
			c0,0.34-0.12,0.62-0.37,0.84s-0.58,0.34-0.98,0.34c-0.41,0-0.74-0.11-0.98-0.34s-0.37-0.51-0.37-0.84
			C285.78,168.58,285.9,168.3,286.15,168.07z M288.26,171.01v7.41h-2.27v-7.41H288.26z"/>
		<path class="st20" d="M295.72,171.71c0.65,0.53,1.05,1.25,1.22,2.17h-2.41c-0.07-0.32-0.22-0.57-0.44-0.74
			c-0.22-0.18-0.5-0.27-0.84-0.27c-0.4,0-0.73,0.16-0.98,0.47c-0.26,0.31-0.39,0.77-0.39,1.38c0,0.6,0.13,1.06,0.39,1.38
			c0.26,0.31,0.58,0.47,0.98,0.47c0.34,0,0.62-0.09,0.84-0.27c0.22-0.18,0.37-0.43,0.44-0.74h2.41c-0.17,0.92-0.58,1.65-1.22,2.17
			c-0.65,0.53-1.45,0.79-2.4,0.79c-0.73,0-1.37-0.15-1.93-0.46s-1-0.75-1.32-1.32s-0.48-1.25-0.48-2.02c0-0.78,0.16-1.46,0.47-2.03
			c0.31-0.57,0.75-1.01,1.32-1.32s1.21-0.46,1.94-0.46C294.27,170.92,295.07,171.18,295.72,171.71z"/>
		<path class="st20" d="M302.53,171.31c0.41,0.26,0.71,0.61,0.9,1.05v-1.34h2.26v7.41h-2.26v-1.34c-0.19,0.44-0.5,0.79-0.9,1.05
			c-0.41,0.26-0.9,0.39-1.46,0.39c-0.61,0-1.16-0.15-1.64-0.46s-0.86-0.75-1.14-1.32c-0.28-0.58-0.42-1.25-0.42-2.02
			c0-0.78,0.14-1.46,0.42-2.03c0.28-0.57,0.66-1.01,1.14-1.32s1.03-0.46,1.64-0.46C301.64,170.92,302.13,171.05,302.53,171.31z
			 M300.63,173.39c-0.3,0.32-0.44,0.76-0.44,1.33c0,0.57,0.15,1.01,0.44,1.33s0.69,0.48,1.18,0.48c0.48,0,0.87-0.16,1.18-0.49
			c0.31-0.33,0.46-0.77,0.46-1.32c0-0.56-0.15-1-0.46-1.32c-0.31-0.32-0.7-0.48-1.18-0.48
			C301.32,172.91,300.92,173.07,300.63,173.39z"/>
	</g>
	<g>
		<path class="st20" d="M951.89,257.96v-0.93h1.67v4.12h-1.05v-3.19H951.89z"/>
	</g>
	<g>
		<path class="st20" d="M953.26,298.27c0-0.32-0.14-0.48-0.41-0.48c-0.16,0-0.27,0.05-0.34,0.16c-0.07,0.11-0.11,0.28-0.12,0.51
			h-0.97c0.02-0.5,0.17-0.88,0.45-1.13c0.28-0.25,0.63-0.38,1.06-0.38c0.45,0,0.78,0.11,1.01,0.34c0.23,0.23,0.34,0.52,0.34,0.88
			c0,0.4-0.15,0.79-0.46,1.17s-0.67,0.71-1.1,0.97h1.63v0.8h-2.94v-0.75C952.64,299.49,953.26,298.79,953.26,298.27z"/>
	</g>
	<g>
		<path class="st20" d="M953.71,314.94c0.21,0.1,0.36,0.23,0.47,0.41c0.11,0.17,0.16,0.37,0.16,0.59c0,0.27-0.07,0.48-0.21,0.65
			s-0.31,0.27-0.52,0.31v0.03c0.53,0.17,0.8,0.5,0.8,1c0,0.24-0.05,0.45-0.16,0.63c-0.11,0.18-0.27,0.33-0.47,0.43
			c-0.21,0.1-0.46,0.15-0.75,0.15c-0.47,0-0.85-0.12-1.13-0.35c-0.28-0.23-0.43-0.59-0.45-1.07h0.97c0.01,0.18,0.06,0.33,0.15,0.43
			s0.23,0.16,0.41,0.16c0.14,0,0.26-0.04,0.34-0.13s0.13-0.2,0.13-0.33c0-0.34-0.24-0.51-0.73-0.51h-0.19v-0.81h0.18
			c0.44,0.01,0.66-0.15,0.66-0.47c0-0.14-0.04-0.25-0.11-0.32s-0.18-0.11-0.31-0.11c-0.14,0-0.25,0.05-0.33,0.14
			s-0.13,0.22-0.14,0.38h-0.97c0.02-0.43,0.16-0.77,0.41-1s0.61-0.35,1.06-0.35C953.25,314.79,953.5,314.84,953.71,314.94z"/>
	</g>
	<g>
		<path class="st20" d="M990.27,243.64c-0.27,0.48-0.65,0.86-1.15,1.13s-1.09,0.4-1.77,0.4h-2.4v-6.36h2.4
			c0.68,0,1.27,0.13,1.77,0.4c0.5,0.26,0.88,0.64,1.15,1.12c0.27,0.48,0.4,1.03,0.4,1.66S990.54,243.16,990.27,243.64z
			 M988.62,243.32c0.33-0.32,0.5-0.77,0.5-1.34c0-0.58-0.17-1.02-0.5-1.34c-0.33-0.32-0.8-0.48-1.4-0.48h-0.73v3.64h0.73
			C987.82,243.8,988.29,243.64,988.62,243.32z"/>
		<path class="st20" d="M996.36,242.94h-3.48c0.02,0.38,0.11,0.65,0.29,0.81s0.4,0.25,0.67,0.25c0.23,0,0.42-0.06,0.57-0.17
			c0.15-0.11,0.25-0.26,0.3-0.44h1.63c-0.07,0.35-0.21,0.67-0.43,0.95c-0.22,0.28-0.5,0.5-0.85,0.66c-0.34,0.16-0.72,0.24-1.14,0.24
			c-0.49,0-0.93-0.1-1.31-0.31s-0.68-0.51-0.9-0.9c-0.22-0.39-0.32-0.85-0.32-1.37c0-0.53,0.11-0.99,0.32-1.37
			c0.21-0.39,0.51-0.68,0.9-0.89c0.38-0.21,0.82-0.31,1.31-0.31c0.5,0,0.94,0.1,1.31,0.31c0.38,0.2,0.67,0.49,0.88,0.86
			s0.31,0.79,0.31,1.27C996.41,242.66,996.39,242.79,996.36,242.94z M994.58,241.55c-0.18-0.17-0.41-0.25-0.68-0.25
			c-0.28,0-0.52,0.08-0.7,0.25s-0.29,0.41-0.31,0.74h1.96C994.86,241.97,994.77,241.72,994.58,241.55z"/>
		<path class="st20" d="M1000.65,240.57c0.38,0.32,0.62,0.74,0.72,1.26h-1.44c-0.04-0.2-0.14-0.36-0.28-0.48
			c-0.15-0.12-0.33-0.18-0.55-0.18c-0.17,0-0.31,0.04-0.4,0.11c-0.09,0.08-0.13,0.18-0.13,0.32c0,0.16,0.08,0.27,0.25,0.35
			c0.17,0.08,0.42,0.16,0.78,0.23c0.38,0.09,0.7,0.18,0.95,0.27c0.25,0.09,0.46,0.24,0.64,0.45s0.27,0.49,0.27,0.85
			c0,0.29-0.08,0.54-0.23,0.77c-0.16,0.22-0.38,0.4-0.67,0.52c-0.29,0.13-0.64,0.19-1.04,0.19c-0.68,0-1.22-0.15-1.63-0.45
			c-0.41-0.3-0.66-0.73-0.75-1.29h1.49c0.02,0.22,0.12,0.38,0.27,0.49c0.16,0.11,0.36,0.17,0.62,0.17c0.17,0,0.31-0.04,0.4-0.12
			s0.13-0.19,0.13-0.32c0-0.17-0.08-0.3-0.25-0.37c-0.17-0.08-0.43-0.15-0.81-0.24c-0.37-0.08-0.68-0.16-0.92-0.25
			s-0.45-0.24-0.62-0.44s-0.26-0.48-0.26-0.82c0-0.45,0.17-0.81,0.51-1.09s0.83-0.42,1.45-0.42
			C999.76,240.09,1000.27,240.25,1000.65,240.57z"/>
		<path class="st20" d="M1006.63,240.4c0.33,0.21,0.58,0.5,0.77,0.89c0.19,0.39,0.28,0.84,0.28,1.37c0,0.52-0.09,0.98-0.28,1.37
			c-0.19,0.39-0.45,0.69-0.77,0.9s-0.7,0.31-1.11,0.31c-0.38,0-0.71-0.09-0.99-0.26c-0.28-0.17-0.48-0.41-0.6-0.71v3.3h-1.54v-7.42
			h1.54v0.91c0.13-0.3,0.33-0.54,0.6-0.71c0.28-0.17,0.61-0.26,0.99-0.26C1005.93,240.09,1006.3,240.19,1006.63,240.4z
			 M1004.22,241.77c-0.21,0.22-0.31,0.52-0.31,0.9c0,0.37,0.1,0.67,0.31,0.89c0.21,0.22,0.47,0.33,0.8,0.33
			c0.33,0,0.6-0.11,0.8-0.32c0.2-0.22,0.3-0.52,0.3-0.9c0-0.38-0.1-0.68-0.3-0.9c-0.2-0.22-0.47-0.32-0.8-0.32
			C1004.7,241.44,1004.43,241.55,1004.22,241.77z"/>
		<path class="st20" d="M1013.3,242.94h-3.48c0.02,0.38,0.11,0.65,0.29,0.81s0.4,0.25,0.67,0.25c0.23,0,0.42-0.06,0.57-0.17
			c0.15-0.11,0.25-0.26,0.3-0.44h1.63c-0.07,0.35-0.21,0.67-0.43,0.95c-0.22,0.28-0.5,0.5-0.85,0.66c-0.34,0.16-0.72,0.24-1.14,0.24
			c-0.49,0-0.93-0.1-1.31-0.31s-0.68-0.51-0.9-0.9c-0.22-0.39-0.32-0.85-0.32-1.37c0-0.53,0.11-0.99,0.32-1.37
			c0.21-0.39,0.51-0.68,0.9-0.89c0.38-0.21,0.82-0.31,1.31-0.31c0.5,0,0.94,0.1,1.31,0.31c0.38,0.2,0.67,0.49,0.88,0.86
			s0.31,0.79,0.31,1.27C1013.34,242.66,1013.33,242.79,1013.3,242.94z M1011.52,241.55c-0.18-0.17-0.41-0.25-0.68-0.25
			c-0.28,0-0.52,0.08-0.7,0.25s-0.29,0.41-0.31,0.74h1.96C1011.79,241.97,1011.71,241.72,1011.52,241.55z"/>
		<path class="st20" d="M1017.13,240.35c0.28,0.17,0.48,0.41,0.61,0.71v-0.91h1.53v5c0,0.47-0.09,0.89-0.27,1.26
			s-0.46,0.67-0.83,0.9c-0.37,0.22-0.83,0.33-1.39,0.33c-0.76,0-1.36-0.18-1.81-0.54c-0.45-0.36-0.72-0.84-0.81-1.45h1.52
			c0.05,0.2,0.16,0.36,0.33,0.48c0.17,0.11,0.39,0.17,0.67,0.17c0.32,0,0.57-0.09,0.77-0.27s0.29-0.48,0.29-0.88v-0.88
			c-0.13,0.3-0.34,0.54-0.61,0.71c-0.28,0.17-0.61,0.26-0.99,0.26c-0.41,0-0.78-0.1-1.11-0.31s-0.58-0.51-0.77-0.9
			c-0.19-0.39-0.28-0.85-0.28-1.37c0-0.53,0.09-0.99,0.28-1.37c0.19-0.39,0.45-0.68,0.77-0.89s0.7-0.31,1.11-0.31
			C1016.53,240.09,1016.86,240.18,1017.13,240.35z M1015.84,241.77c-0.2,0.22-0.3,0.52-0.3,0.9c0,0.38,0.1,0.68,0.3,0.9
			c0.2,0.22,0.47,0.32,0.8,0.32c0.32,0,0.59-0.11,0.8-0.33c0.21-0.22,0.31-0.52,0.31-0.89c0-0.38-0.1-0.68-0.31-0.9
			c-0.21-0.22-0.47-0.33-0.8-0.33C1016.31,241.44,1016.04,241.55,1015.84,241.77z"/>
		<path class="st20" d="M1023.33,240.35c0.28,0.17,0.48,0.41,0.61,0.71v-0.91h1.53v5.02h-1.53v-0.91c-0.13,0.3-0.34,0.54-0.61,0.71
			c-0.28,0.17-0.61,0.26-0.99,0.26c-0.41,0-0.79-0.1-1.11-0.31c-0.33-0.21-0.58-0.51-0.77-0.9c-0.19-0.39-0.28-0.85-0.28-1.37
			c0-0.53,0.09-0.99,0.28-1.37c0.19-0.39,0.45-0.68,0.77-0.89c0.33-0.21,0.7-0.31,1.11-0.31
			C1022.72,240.09,1023.05,240.18,1023.33,240.35z M1022.03,241.77c-0.2,0.22-0.3,0.52-0.3,0.9c0,0.38,0.1,0.68,0.3,0.9
			c0.2,0.22,0.47,0.32,0.8,0.32c0.32,0,0.59-0.11,0.8-0.33c0.21-0.22,0.31-0.52,0.31-0.89c0-0.38-0.1-0.68-0.31-0.9
			c-0.21-0.22-0.47-0.33-0.8-0.33C1022.5,241.44,1022.24,241.55,1022.03,241.77z"/>
		<path class="st20" d="M1034.58,240.67c0.35,0.38,0.53,0.91,0.53,1.59v2.92h-1.53v-2.74c0-0.32-0.09-0.57-0.26-0.74
			c-0.17-0.18-0.4-0.27-0.7-0.27c-0.31,0-0.55,0.09-0.72,0.28s-0.27,0.45-0.27,0.8v2.66h-1.54v-2.74c0-0.32-0.08-0.57-0.25-0.74
			c-0.17-0.18-0.4-0.27-0.69-0.27c-0.31,0-0.55,0.09-0.73,0.28s-0.27,0.45-0.27,0.8v2.66h-1.54v-5.02h1.54v0.85
			c0.13-0.28,0.33-0.5,0.61-0.67c0.27-0.16,0.59-0.24,0.96-0.24c0.38,0,0.72,0.09,1.02,0.27c0.29,0.18,0.52,0.43,0.67,0.76
			c0.17-0.31,0.41-0.56,0.72-0.75s0.64-0.28,1-0.28C1033.74,240.1,1034.23,240.29,1034.58,240.67z"/>
		<path class="st20" d="M1039.92,240.4c0.39,0.21,0.7,0.51,0.93,0.9s0.34,0.85,0.34,1.37c0,0.52-0.11,0.98-0.34,1.37
			c-0.22,0.39-0.53,0.69-0.93,0.9c-0.39,0.21-0.84,0.31-1.34,0.31s-0.94-0.1-1.34-0.31c-0.4-0.21-0.71-0.51-0.93-0.9
			c-0.22-0.39-0.34-0.85-0.34-1.37c0-0.52,0.11-0.98,0.34-1.37c0.23-0.39,0.54-0.69,0.93-0.9c0.4-0.21,0.84-0.31,1.34-0.31
			S1039.52,240.19,1039.92,240.4z M1037.84,241.74c-0.2,0.21-0.3,0.52-0.3,0.92c0,0.4,0.1,0.71,0.3,0.92s0.45,0.31,0.74,0.31
			s0.54-0.1,0.74-0.31s0.3-0.52,0.3-0.92c0-0.4-0.1-0.71-0.3-0.92c-0.2-0.21-0.44-0.32-0.74-0.32S1038.04,241.53,1037.84,241.74z"/>
		<path class="st20" d="M1045.42,240.57c0.38,0.32,0.62,0.74,0.71,1.26h-1.44c-0.04-0.2-0.14-0.36-0.28-0.48
			c-0.15-0.12-0.33-0.18-0.55-0.18c-0.17,0-0.31,0.04-0.4,0.11c-0.09,0.08-0.13,0.18-0.13,0.32c0,0.16,0.08,0.27,0.25,0.35
			c0.17,0.08,0.42,0.16,0.78,0.23c0.38,0.09,0.7,0.18,0.94,0.27c0.25,0.09,0.46,0.24,0.64,0.45c0.18,0.21,0.27,0.49,0.27,0.85
			c0,0.29-0.08,0.54-0.23,0.77c-0.16,0.22-0.38,0.4-0.67,0.52s-0.64,0.19-1.04,0.19c-0.68,0-1.22-0.15-1.63-0.45
			c-0.41-0.3-0.66-0.73-0.75-1.29h1.49c0.02,0.22,0.12,0.38,0.27,0.49c0.16,0.11,0.36,0.17,0.62,0.17c0.17,0,0.31-0.04,0.4-0.12
			s0.13-0.19,0.13-0.32c0-0.17-0.08-0.3-0.25-0.37c-0.17-0.08-0.43-0.15-0.81-0.24c-0.37-0.08-0.68-0.16-0.92-0.25
			c-0.24-0.09-0.45-0.24-0.62-0.44c-0.17-0.2-0.26-0.48-0.26-0.82c0-0.45,0.17-0.81,0.51-1.09s0.83-0.42,1.45-0.42
			C1044.54,240.09,1045.04,240.25,1045.42,240.57z"/>
		<path class="st20" d="M1052.94,240.63c0.44,0.36,0.71,0.85,0.83,1.47h-1.63c-0.05-0.22-0.15-0.38-0.3-0.5
			c-0.15-0.12-0.34-0.18-0.57-0.18c-0.27,0-0.49,0.11-0.67,0.32s-0.26,0.52-0.26,0.93c0,0.41,0.09,0.72,0.26,0.93
			c0.17,0.21,0.4,0.32,0.67,0.32c0.23,0,0.42-0.06,0.57-0.18c0.15-0.12,0.25-0.29,0.3-0.5h1.63c-0.11,0.62-0.39,1.11-0.83,1.47
			c-0.44,0.36-0.98,0.54-1.63,0.54c-0.49,0-0.93-0.1-1.31-0.31s-0.68-0.51-0.9-0.9c-0.22-0.39-0.32-0.85-0.32-1.37
			c0-0.53,0.11-0.99,0.32-1.37c0.21-0.39,0.51-0.68,0.9-0.89c0.38-0.21,0.82-0.31,1.31-0.31
			C1051.96,240.09,1052.51,240.27,1052.94,240.63z"/>
		<path class="st20" d="M1058.35,240.4c0.39,0.21,0.7,0.51,0.93,0.9s0.34,0.85,0.34,1.37c0,0.52-0.11,0.98-0.34,1.37
			c-0.22,0.39-0.53,0.69-0.93,0.9c-0.39,0.21-0.84,0.31-1.34,0.31s-0.95-0.1-1.34-0.31c-0.4-0.21-0.71-0.51-0.93-0.9
			c-0.22-0.39-0.34-0.85-0.34-1.37c0-0.52,0.11-0.98,0.34-1.37s0.54-0.69,0.93-0.9c0.4-0.21,0.84-0.31,1.34-0.31
			S1057.96,240.19,1058.35,240.4z M1056.27,241.74c-0.2,0.21-0.3,0.52-0.3,0.92c0,0.4,0.1,0.71,0.3,0.92s0.45,0.31,0.74,0.31
			s0.54-0.1,0.74-0.31s0.3-0.52,0.3-0.92c0-0.4-0.1-0.71-0.3-0.92c-0.2-0.21-0.44-0.32-0.74-0.32S1056.47,241.53,1056.27,241.74z"/>
		<path class="st20" d="M1065.06,240.68c0.34,0.38,0.51,0.91,0.51,1.58v2.92h-1.54v-2.74c0-0.34-0.09-0.6-0.26-0.79
			c-0.18-0.19-0.41-0.28-0.71-0.28c-0.31,0-0.56,0.1-0.74,0.3c-0.18,0.2-0.27,0.48-0.27,0.85v2.66h-1.54v-5.02h1.54v0.92
			c0.14-0.3,0.36-0.54,0.64-0.71c0.28-0.17,0.62-0.26,1-0.26C1064.27,240.1,1064.72,240.29,1065.06,240.68z"/>
		<path class="st20" d="M1068.24,239.97v1.54h-1.6v-1.54H1068.24z M1068.24,243.64v1.54h-1.6v-1.54H1068.24z"/>
	</g>
	<g>
		<path class="st20" d="M962.38,256.72v4.94h-0.64v-4.94H962.38z"/>
		<path class="st20" d="M966.58,258.17c0.28,0.29,0.41,0.7,0.41,1.24v2.23h-0.64v-2.18c0-0.38-0.1-0.68-0.29-0.88
			c-0.2-0.21-0.46-0.31-0.8-0.31c-0.35,0-0.63,0.11-0.84,0.34c-0.21,0.23-0.32,0.56-0.32,0.99v2.04h-0.64v-3.84h0.64v0.91
			c0.1-0.31,0.27-0.55,0.52-0.72c0.25-0.17,0.54-0.25,0.87-0.25C965.95,257.74,966.31,257.89,966.58,258.17z"/>
		<path class="st20" d="M970.57,258.04c0.26,0.19,0.44,0.44,0.54,0.75v-0.98h0.64v3.91c0,0.35-0.08,0.67-0.22,0.94
			c-0.15,0.28-0.36,0.49-0.63,0.64c-0.27,0.15-0.58,0.23-0.94,0.23c-0.52,0-0.94-0.12-1.27-0.37c-0.33-0.25-0.53-0.59-0.62-1.01
			h0.63c0.08,0.26,0.22,0.46,0.42,0.61s0.47,0.22,0.8,0.22c0.34,0,0.63-0.11,0.86-0.33c0.23-0.22,0.34-0.53,0.34-0.93v-1.04
			c-0.1,0.31-0.28,0.56-0.54,0.75s-0.58,0.28-0.95,0.28c-0.34,0-0.64-0.08-0.91-0.24s-0.47-0.39-0.63-0.68
			c-0.15-0.3-0.23-0.65-0.23-1.05s0.08-0.75,0.23-1.05c0.15-0.3,0.36-0.53,0.63-0.69s0.57-0.24,0.91-0.24
			C970,257.76,970.31,257.85,970.57,258.04z M968.86,258.7c-0.24,0.25-0.35,0.59-0.35,1.03s0.12,0.78,0.35,1.03
			c0.24,0.25,0.55,0.37,0.94,0.37c0.25,0,0.48-0.06,0.68-0.17s0.35-0.28,0.47-0.49c0.11-0.21,0.17-0.46,0.17-0.74
			c0-0.28-0.06-0.53-0.17-0.74c-0.11-0.21-0.27-0.38-0.47-0.49s-0.42-0.17-0.68-0.17C969.41,258.33,969.1,258.45,968.86,258.7z"/>
		<path class="st20" d="M976.34,259.87h-3.07c0.01,0.44,0.14,0.77,0.37,0.99c0.24,0.22,0.52,0.33,0.87,0.33
			c0.31,0,0.57-0.08,0.77-0.23c0.21-0.16,0.33-0.36,0.38-0.63h0.68c-0.05,0.27-0.15,0.5-0.31,0.71c-0.16,0.21-0.37,0.37-0.63,0.49
			s-0.55,0.17-0.87,0.17c-0.37,0-0.7-0.08-0.98-0.24c-0.29-0.16-0.51-0.39-0.67-0.68s-0.24-0.65-0.24-1.05s0.08-0.75,0.24-1.05
			c0.16-0.3,0.38-0.53,0.67-0.69c0.28-0.16,0.61-0.24,0.98-0.24c0.37,0,0.7,0.08,0.98,0.24c0.28,0.16,0.49,0.37,0.64,0.64
			c0.15,0.27,0.22,0.56,0.22,0.88C976.37,259.65,976.36,259.77,976.34,259.87z M975.59,258.84c-0.11-0.19-0.25-0.33-0.44-0.43
			s-0.39-0.14-0.61-0.14c-0.35,0-0.64,0.11-0.88,0.33c-0.24,0.22-0.37,0.54-0.38,0.96h2.46
			C975.74,259.27,975.69,259.03,975.59,258.84z"/>
		<path class="st20" d="M980.38,258.17c0.28,0.29,0.41,0.7,0.41,1.24v2.23h-0.64v-2.18c0-0.38-0.1-0.68-0.29-0.88
			c-0.2-0.21-0.46-0.31-0.8-0.31c-0.35,0-0.63,0.11-0.84,0.34c-0.21,0.23-0.32,0.56-0.32,0.99v2.04h-0.64v-3.84h0.64v0.91
			c0.1-0.31,0.27-0.55,0.52-0.72c0.25-0.17,0.54-0.25,0.87-0.25C979.74,257.74,980.11,257.89,980.38,258.17z"/>
		<path class="st20" d="M981.85,256.4c0.08-0.07,0.18-0.11,0.32-0.11c0.13,0,0.24,0.04,0.31,0.11c0.08,0.07,0.12,0.17,0.12,0.28
			c0,0.12-0.04,0.21-0.12,0.28c-0.08,0.07-0.18,0.11-0.31,0.11c-0.13,0-0.24-0.04-0.32-0.11s-0.12-0.17-0.12-0.28
			C981.73,256.56,981.77,256.47,981.85,256.4z M982.48,257.81v3.84h-0.64v-3.84H982.48z"/>
		<path class="st20" d="M987.08,259.87h-3.07c0.01,0.44,0.14,0.77,0.37,0.99c0.24,0.22,0.52,0.33,0.87,0.33
			c0.31,0,0.57-0.08,0.77-0.23c0.21-0.16,0.33-0.36,0.38-0.63h0.68c-0.05,0.27-0.15,0.5-0.31,0.71c-0.16,0.21-0.37,0.37-0.63,0.49
			s-0.55,0.17-0.87,0.17c-0.37,0-0.7-0.08-0.98-0.24c-0.29-0.16-0.51-0.39-0.67-0.68s-0.24-0.65-0.24-1.05s0.08-0.75,0.24-1.05
			c0.16-0.3,0.38-0.53,0.67-0.69c0.28-0.16,0.61-0.24,0.98-0.24c0.37,0,0.7,0.08,0.98,0.24c0.28,0.16,0.49,0.37,0.64,0.64
			c0.15,0.27,0.22,0.56,0.22,0.88C987.11,259.65,987.1,259.77,987.08,259.87z M986.32,258.84c-0.11-0.19-0.25-0.33-0.44-0.43
			s-0.39-0.14-0.61-0.14c-0.35,0-0.64,0.11-0.88,0.33c-0.24,0.22-0.37,0.54-0.38,0.96h2.46
			C986.48,259.27,986.43,259.03,986.32,258.84z"/>
		<path class="st20" d="M989.2,257.96c0.24-0.15,0.53-0.22,0.87-0.22v0.69h-0.2c-0.36,0-0.65,0.09-0.88,0.28
			c-0.23,0.18-0.34,0.49-0.34,0.91v2.02h-0.64v-3.84h0.64v0.78C988.77,258.32,988.96,258.11,989.2,257.96z"/>
		<path class="st20" d="M992.3,256.69l-1.49,0.82v-0.46l1.49-0.88V256.69z M991.47,257.81v3.84h-0.64v-3.84H991.47z"/>
		<path class="st20" d="M995.15,258.04c0.26,0.19,0.44,0.44,0.54,0.75v-0.98h0.64v3.84h-0.64v-0.98c-0.1,0.31-0.28,0.56-0.54,0.75
			s-0.58,0.28-0.95,0.28c-0.34,0-0.64-0.08-0.91-0.24s-0.47-0.39-0.63-0.68c-0.15-0.3-0.23-0.65-0.23-1.05s0.08-0.75,0.23-1.05
			c0.15-0.3,0.36-0.53,0.63-0.69s0.57-0.24,0.91-0.24C994.57,257.76,994.89,257.85,995.15,258.04z M993.44,258.7
			c-0.24,0.25-0.35,0.59-0.35,1.03s0.12,0.78,0.35,1.03c0.24,0.25,0.55,0.37,0.94,0.37c0.25,0,0.48-0.06,0.68-0.17
			s0.35-0.28,0.47-0.49c0.11-0.21,0.17-0.46,0.17-0.74c0-0.28-0.06-0.53-0.17-0.74c-0.11-0.21-0.27-0.38-0.47-0.49
			s-0.42-0.17-0.68-0.17C993.99,258.33,993.67,258.45,993.44,258.7z"/>
		<path class="st20" d="M1003.18,262.61l-0.99-1c-0.23,0.07-0.47,0.1-0.71,0.1c-0.46,0-0.87-0.11-1.24-0.32
			c-0.37-0.21-0.66-0.51-0.87-0.9c-0.21-0.38-0.32-0.82-0.32-1.31c0-0.48,0.11-0.92,0.32-1.31c0.21-0.39,0.5-0.69,0.87-0.9
			c0.37-0.21,0.79-0.32,1.24-0.32c0.46,0,0.87,0.11,1.24,0.32c0.37,0.21,0.66,0.51,0.87,0.9c0.21,0.38,0.31,0.82,0.31,1.31
			c0,0.49-0.1,0.93-0.31,1.31c-0.21,0.39-0.5,0.68-0.87,0.89l1.28,1.23H1003.18z M999.93,260.2c0.15,0.29,0.36,0.52,0.63,0.68
			s0.57,0.23,0.91,0.23c0.34,0,0.64-0.08,0.91-0.24c0.27-0.16,0.48-0.38,0.63-0.68c0.15-0.29,0.23-0.63,0.23-1.02
			c0-0.39-0.08-0.73-0.23-1.03c-0.15-0.29-0.36-0.52-0.63-0.67c-0.27-0.16-0.57-0.23-0.91-0.23c-0.34,0-0.64,0.08-0.91,0.23
			s-0.48,0.38-0.63,0.67c-0.15,0.29-0.23,0.63-0.23,1.03C999.7,259.57,999.78,259.91,999.93,260.2z"/>
		<path class="st20" d="M1008.23,257.81v3.84h-0.64v-0.9c-0.1,0.31-0.27,0.55-0.52,0.72s-0.54,0.25-0.87,0.25
			c-0.44,0-0.8-0.14-1.08-0.43c-0.28-0.29-0.41-0.7-0.41-1.24v-2.24h0.64v2.18c0,0.38,0.1,0.68,0.29,0.89
			c0.2,0.21,0.46,0.31,0.8,0.31c0.35,0,0.63-0.11,0.84-0.34c0.21-0.23,0.31-0.56,0.31-0.99v-2.04H1008.23z"/>
		<path class="st20" d="M1010.86,256.69l-1.49,0.82v-0.46l1.49-0.88V256.69z M1010.03,257.81v3.84h-0.64v-3.84H1010.03z"/>
		<path class="st20" d="M1016.99,258.17c0.27,0.29,0.41,0.7,0.41,1.24v2.23h-0.64v-2.18c0-0.38-0.09-0.67-0.28-0.87
			s-0.44-0.3-0.76-0.3c-0.34,0-0.61,0.11-0.81,0.33c-0.2,0.22-0.3,0.55-0.3,0.98v2.04h-0.64v-2.18c0-0.38-0.09-0.67-0.28-0.87
			s-0.44-0.3-0.76-0.3c-0.34,0-0.61,0.11-0.82,0.33c-0.2,0.22-0.3,0.55-0.3,0.98v2.04h-0.64v-3.84h0.64v0.88
			c0.09-0.3,0.26-0.54,0.5-0.7s0.52-0.24,0.83-0.24c0.33,0,0.61,0.08,0.85,0.25c0.24,0.17,0.41,0.41,0.51,0.73
			c0.11-0.31,0.29-0.55,0.54-0.72s0.54-0.26,0.85-0.26C1016.35,257.74,1016.71,257.89,1016.99,258.17z"/>
		<path class="st20" d="M1018.46,256.4c0.08-0.07,0.18-0.11,0.32-0.11c0.13,0,0.24,0.04,0.31,0.11c0.08,0.07,0.12,0.17,0.12,0.28
			c0,0.12-0.04,0.21-0.12,0.28c-0.08,0.07-0.18,0.11-0.31,0.11c-0.13,0-0.24-0.04-0.32-0.11s-0.12-0.17-0.12-0.28
			C1018.34,256.56,1018.38,256.47,1018.46,256.4z M1019.09,257.81v3.84h-0.64v-3.84H1019.09z"/>
		<path class="st20" d="M1023.1,258.15c0.32,0.26,0.52,0.61,0.59,1.05h-0.67c-0.05-0.27-0.17-0.49-0.38-0.65
			c-0.21-0.16-0.47-0.23-0.77-0.23c-0.22,0-0.43,0.05-0.61,0.15c-0.18,0.1-0.33,0.26-0.44,0.47s-0.17,0.48-0.17,0.79
			s0.06,0.58,0.17,0.79s0.26,0.37,0.44,0.47c0.18,0.1,0.39,0.15,0.61,0.15c0.31,0,0.57-0.08,0.77-0.24
			c0.21-0.16,0.33-0.38,0.38-0.65h0.67c-0.07,0.44-0.27,0.79-0.59,1.05c-0.32,0.26-0.73,0.39-1.22,0.39c-0.37,0-0.7-0.08-0.98-0.24
			c-0.28-0.16-0.51-0.39-0.67-0.68s-0.24-0.65-0.24-1.05s0.08-0.75,0.24-1.05c0.16-0.3,0.38-0.53,0.67-0.69
			c0.29-0.16,0.61-0.24,0.98-0.24C1022.38,257.76,1022.78,257.89,1023.1,258.15z"/>
		<path class="st20" d="M1027.12,258.04c0.26,0.19,0.44,0.44,0.54,0.75v-0.98h0.64v3.84h-0.64v-0.98c-0.1,0.31-0.28,0.56-0.54,0.75
			c-0.26,0.19-0.58,0.28-0.95,0.28c-0.34,0-0.64-0.08-0.91-0.24c-0.27-0.16-0.47-0.39-0.63-0.68s-0.23-0.65-0.23-1.05
			s0.08-0.75,0.23-1.05c0.15-0.3,0.36-0.53,0.63-0.69c0.27-0.16,0.57-0.24,0.91-0.24C1026.55,257.76,1026.86,257.85,1027.12,258.04z
			 M1025.42,258.7c-0.24,0.25-0.35,0.59-0.35,1.03s0.12,0.78,0.35,1.03c0.24,0.25,0.55,0.37,0.94,0.37c0.25,0,0.48-0.06,0.67-0.17
			s0.35-0.28,0.47-0.49c0.11-0.21,0.17-0.46,0.17-0.74c0-0.28-0.06-0.53-0.17-0.74c-0.11-0.21-0.27-0.38-0.47-0.49
			s-0.42-0.17-0.67-0.17C1025.96,258.33,1025.65,258.45,1025.42,258.7z"/>
		<path class="st20" d="M962,276.96c-0.27-0.25-0.41-0.6-0.41-1.04c0-0.49,0.15-0.86,0.46-1.11c0.31-0.24,0.72-0.37,1.26-0.38v-0.83
			h0.6v1.26h-0.28c-0.43,0-0.77,0.07-1.03,0.22c-0.25,0.15-0.38,0.43-0.38,0.83c0,0.27,0.08,0.49,0.24,0.65s0.38,0.24,0.65,0.24
			c0.29,0,0.52-0.08,0.7-0.24c0.18-0.16,0.26-0.38,0.26-0.64h0.62c0,0.28-0.07,0.53-0.2,0.74c-0.13,0.21-0.32,0.38-0.56,0.5
			c-0.24,0.12-0.52,0.17-0.84,0.17C962.63,277.33,962.27,277.21,962,276.96z M963.21,272.95v-0.75h0.77v0.75H963.21z"/>
		<path class="st20" d="M969.21,277.01l-0.99-1c-0.23,0.07-0.47,0.1-0.71,0.1c-0.46,0-0.87-0.11-1.24-0.32
			c-0.37-0.21-0.66-0.51-0.87-0.9c-0.21-0.38-0.32-0.82-0.32-1.31c0-0.48,0.11-0.92,0.32-1.31c0.21-0.39,0.5-0.69,0.87-0.9
			c0.37-0.21,0.79-0.32,1.24-0.32c0.46,0,0.87,0.11,1.24,0.32c0.37,0.21,0.66,0.51,0.87,0.9c0.21,0.38,0.31,0.82,0.31,1.31
			c0,0.49-0.1,0.93-0.31,1.31c-0.21,0.39-0.5,0.68-0.87,0.89l1.28,1.23H969.21z M965.96,274.6c0.15,0.29,0.36,0.52,0.63,0.68
			s0.57,0.23,0.91,0.23c0.34,0,0.64-0.08,0.91-0.24c0.27-0.16,0.48-0.38,0.63-0.68c0.15-0.29,0.23-0.63,0.23-1.02
			c0-0.39-0.08-0.73-0.23-1.03c-0.15-0.29-0.36-0.52-0.63-0.67c-0.27-0.16-0.57-0.23-0.91-0.23c-0.34,0-0.64,0.08-0.91,0.23
			s-0.48,0.38-0.63,0.67c-0.15,0.29-0.23,0.63-0.23,1.03C965.73,273.97,965.8,274.31,965.96,274.6z"/>
		<path class="st20" d="M974.26,272.21v3.84h-0.64v-0.9c-0.1,0.31-0.27,0.55-0.52,0.72c-0.25,0.17-0.54,0.25-0.87,0.25
			c-0.44,0-0.8-0.14-1.08-0.43c-0.28-0.29-0.41-0.7-0.41-1.24v-2.24h0.64v2.18c0,0.38,0.1,0.68,0.29,0.89
			c0.2,0.21,0.46,0.31,0.8,0.31c0.35,0,0.63-0.11,0.84-0.34c0.21-0.23,0.32-0.56,0.32-0.99v-2.04H974.26z"/>
		<path class="st20" d="M978.86,274.27h-3.07c0.01,0.44,0.14,0.77,0.38,0.99s0.52,0.33,0.86,0.33c0.31,0,0.57-0.08,0.77-0.23
			c0.21-0.16,0.33-0.36,0.38-0.63h0.68c-0.05,0.27-0.15,0.5-0.31,0.71c-0.16,0.21-0.37,0.37-0.63,0.49
			c-0.26,0.12-0.55,0.17-0.87,0.17c-0.37,0-0.7-0.08-0.98-0.24c-0.28-0.16-0.51-0.39-0.67-0.68s-0.24-0.65-0.24-1.05
			s0.08-0.75,0.24-1.05c0.16-0.3,0.38-0.53,0.67-0.69c0.29-0.16,0.61-0.24,0.98-0.24c0.37,0,0.7,0.08,0.98,0.24
			c0.28,0.16,0.49,0.37,0.64,0.64c0.15,0.27,0.22,0.56,0.22,0.88C978.89,274.05,978.88,274.17,978.86,274.27z M978.11,273.24
			c-0.11-0.19-0.25-0.33-0.44-0.43c-0.19-0.09-0.39-0.14-0.61-0.14c-0.35,0-0.64,0.11-0.88,0.33c-0.24,0.22-0.37,0.54-0.39,0.96
			h2.46C978.26,273.67,978.21,273.44,978.11,273.24z M978.18,271.09l-1.49,0.82v-0.46l1.49-0.88V271.09z"/>
		<path class="st20" d="M984.51,272.55c0.32,0.26,0.52,0.61,0.59,1.05h-0.67c-0.05-0.27-0.17-0.49-0.38-0.65
			c-0.21-0.16-0.47-0.23-0.77-0.23c-0.22,0-0.43,0.05-0.61,0.15c-0.18,0.1-0.33,0.26-0.44,0.47s-0.17,0.48-0.17,0.79
			s0.06,0.58,0.17,0.79s0.26,0.37,0.44,0.47c0.18,0.1,0.39,0.15,0.61,0.15c0.31,0,0.57-0.08,0.77-0.24
			c0.21-0.16,0.33-0.38,0.38-0.65h0.67c-0.07,0.44-0.27,0.79-0.59,1.05c-0.32,0.26-0.73,0.39-1.22,0.39c-0.37,0-0.7-0.08-0.98-0.24
			c-0.28-0.16-0.51-0.39-0.67-0.68s-0.24-0.65-0.24-1.05s0.08-0.75,0.24-1.05c0.16-0.3,0.38-0.53,0.67-0.69
			c0.29-0.16,0.61-0.24,0.98-0.24C983.78,272.16,984.19,272.29,984.51,272.55z"/>
		<path class="st20" d="M988.53,272.44c0.26,0.19,0.44,0.44,0.54,0.75v-0.98h0.64v3.84h-0.64v-0.98c-0.1,0.31-0.28,0.56-0.54,0.75
			c-0.26,0.19-0.58,0.28-0.95,0.28c-0.34,0-0.64-0.08-0.91-0.24c-0.27-0.16-0.47-0.39-0.63-0.68s-0.23-0.65-0.23-1.05
			s0.08-0.75,0.23-1.05c0.15-0.3,0.36-0.53,0.63-0.69c0.27-0.16,0.57-0.24,0.91-0.24C987.96,272.16,988.27,272.25,988.53,272.44z
			 M986.82,273.1c-0.24,0.25-0.35,0.59-0.35,1.03s0.12,0.78,0.35,1.03c0.24,0.25,0.55,0.37,0.94,0.37c0.25,0,0.48-0.06,0.67-0.17
			s0.35-0.28,0.47-0.49c0.11-0.21,0.17-0.46,0.17-0.74c0-0.28-0.06-0.53-0.17-0.74c-0.11-0.21-0.27-0.38-0.47-0.49
			s-0.42-0.17-0.67-0.17C987.37,272.73,987.06,272.85,986.82,273.1z"/>
		<path class="st20" d="M991.99,272.37c0.24-0.15,0.53-0.22,0.87-0.22v0.69h-0.2c-0.36,0-0.65,0.09-0.88,0.28
			c-0.23,0.18-0.34,0.49-0.34,0.91v2.02h-0.64v-3.84h0.64v0.78C991.56,272.72,991.74,272.51,991.99,272.37z"/>
		<path class="st20" d="M994.74,272.37c0.24-0.15,0.53-0.22,0.87-0.22v0.69h-0.2c-0.36,0-0.65,0.09-0.88,0.28
			c-0.23,0.18-0.34,0.49-0.34,0.91v2.02h-0.64v-3.84h0.64v0.78C994.32,272.72,994.5,272.51,994.74,272.37z"/>
		<path class="st20" d="M999.82,274.27h-3.07c0.01,0.44,0.14,0.77,0.37,0.99c0.24,0.22,0.52,0.33,0.87,0.33
			c0.31,0,0.57-0.08,0.77-0.23c0.21-0.16,0.33-0.36,0.38-0.63h0.68c-0.05,0.27-0.15,0.5-0.31,0.71c-0.16,0.21-0.37,0.37-0.63,0.49
			s-0.55,0.17-0.87,0.17c-0.37,0-0.7-0.08-0.98-0.24c-0.29-0.16-0.51-0.39-0.67-0.68s-0.24-0.65-0.24-1.05s0.08-0.75,0.24-1.05
			c0.16-0.3,0.38-0.53,0.67-0.69c0.28-0.16,0.61-0.24,0.98-0.24c0.37,0,0.7,0.08,0.98,0.24c0.28,0.16,0.49,0.37,0.64,0.64
			c0.15,0.27,0.22,0.56,0.22,0.88C999.85,274.05,999.84,274.17,999.82,274.27z M999.06,273.24c-0.11-0.19-0.25-0.33-0.44-0.43
			s-0.39-0.14-0.61-0.14c-0.35,0-0.64,0.11-0.88,0.33c-0.24,0.22-0.37,0.54-0.38,0.96h2.46
			C999.22,273.67,999.17,273.44,999.06,273.24z"/>
		<path class="st20" d="M1001.94,272.37c0.24-0.15,0.53-0.22,0.87-0.22v0.69h-0.2c-0.36,0-0.65,0.09-0.88,0.28
			c-0.23,0.18-0.34,0.49-0.34,0.91v2.02h-0.64v-3.84h0.64v0.78C1001.51,272.72,1001.7,272.51,1001.94,272.37z"/>
		<path class="st20" d="M1006.03,272.44c0.26,0.19,0.44,0.44,0.54,0.75v-0.98h0.64v3.84h-0.64v-0.98c-0.1,0.31-0.28,0.56-0.54,0.75
			c-0.26,0.19-0.58,0.28-0.95,0.28c-0.34,0-0.64-0.08-0.91-0.24c-0.27-0.16-0.47-0.39-0.63-0.68s-0.23-0.65-0.23-1.05
			s0.08-0.75,0.23-1.05c0.15-0.3,0.36-0.53,0.63-0.69c0.27-0.16,0.57-0.24,0.91-0.24C1005.46,272.16,1005.77,272.25,1006.03,272.44z
			 M1004.32,273.1c-0.24,0.25-0.35,0.59-0.35,1.03s0.12,0.78,0.35,1.03c0.24,0.25,0.55,0.37,0.94,0.37c0.25,0,0.48-0.06,0.67-0.17
			s0.35-0.28,0.47-0.49c0.11-0.21,0.17-0.46,0.17-0.74c0-0.28-0.06-0.53-0.17-0.74c-0.11-0.21-0.27-0.38-0.47-0.49
			s-0.42-0.17-0.67-0.17C1004.87,272.73,1004.56,272.85,1004.32,273.1z"/>
		<path class="st20" d="M1011.93,275.49v0.56h-0.48c-0.39,0-0.68-0.09-0.88-0.28c-0.19-0.19-0.29-0.5-0.29-0.94v-2.07h-0.57v-0.55
			h0.57v-0.96h0.64v0.96h0.99v0.55h-0.99v2.09c0,0.25,0.04,0.42,0.14,0.51c0.09,0.09,0.25,0.14,0.47,0.14H1011.93z"/>
		<path class="st20" d="M1016.28,274.27h-3.07c0.01,0.44,0.14,0.77,0.37,0.99c0.24,0.22,0.52,0.33,0.87,0.33
			c0.31,0,0.57-0.08,0.77-0.23c0.21-0.16,0.33-0.36,0.38-0.63h0.68c-0.05,0.27-0.15,0.5-0.31,0.71c-0.16,0.21-0.37,0.37-0.63,0.49
			s-0.55,0.17-0.87,0.17c-0.37,0-0.7-0.08-0.98-0.24c-0.29-0.16-0.51-0.39-0.67-0.68s-0.24-0.65-0.24-1.05s0.08-0.75,0.24-1.05
			c0.16-0.3,0.38-0.53,0.67-0.69c0.28-0.16,0.61-0.24,0.98-0.24c0.37,0,0.7,0.08,0.98,0.24c0.28,0.16,0.49,0.37,0.64,0.64
			c0.15,0.27,0.22,0.56,0.22,0.88C1016.31,274.05,1016.3,274.17,1016.28,274.27z M1015.53,273.24c-0.11-0.19-0.25-0.33-0.44-0.43
			s-0.39-0.14-0.61-0.14c-0.35,0-0.64,0.11-0.88,0.33c-0.24,0.22-0.37,0.54-0.38,0.96h2.46
			C1015.68,273.67,1015.63,273.44,1015.53,273.24z"/>
		<path class="st20" d="M1021.54,272.44c0.26,0.19,0.44,0.44,0.54,0.75v-0.98h0.64v3.91c0,0.35-0.07,0.67-0.22,0.94
			s-0.36,0.49-0.63,0.64c-0.27,0.15-0.59,0.23-0.95,0.23c-0.52,0-0.94-0.12-1.27-0.37c-0.33-0.25-0.53-0.59-0.62-1.01h0.63
			c0.07,0.26,0.22,0.46,0.42,0.61c0.21,0.15,0.47,0.22,0.8,0.22c0.35,0,0.63-0.11,0.86-0.33c0.23-0.22,0.34-0.53,0.34-0.93v-1.04
			c-0.1,0.31-0.28,0.56-0.54,0.75c-0.26,0.19-0.58,0.28-0.95,0.28c-0.34,0-0.64-0.08-0.91-0.24c-0.27-0.16-0.47-0.39-0.63-0.68
			s-0.23-0.65-0.23-1.05s0.08-0.75,0.23-1.05c0.15-0.3,0.36-0.53,0.63-0.69c0.27-0.16,0.57-0.24,0.91-0.24
			C1020.96,272.16,1021.28,272.25,1021.54,272.44z M1019.83,273.1c-0.24,0.25-0.35,0.59-0.35,1.03s0.12,0.78,0.35,1.03
			c0.24,0.25,0.55,0.37,0.94,0.37c0.25,0,0.48-0.06,0.67-0.17s0.35-0.28,0.47-0.49c0.11-0.21,0.17-0.46,0.17-0.74
			c0-0.28-0.06-0.53-0.17-0.74c-0.11-0.21-0.27-0.38-0.47-0.49s-0.42-0.17-0.67-0.17C1020.38,272.73,1020.06,272.85,1019.83,273.1z"
			/>
		<path class="st20" d="M1027.22,272.21v3.84h-0.64v-0.9c-0.1,0.31-0.27,0.55-0.52,0.72c-0.25,0.17-0.54,0.25-0.87,0.25
			c-0.44,0-0.8-0.14-1.08-0.43c-0.28-0.29-0.41-0.7-0.41-1.24v-2.24h0.64v2.18c0,0.38,0.1,0.68,0.29,0.89
			c0.2,0.21,0.46,0.31,0.8,0.31c0.35,0,0.63-0.11,0.84-0.34c0.21-0.23,0.32-0.56,0.32-0.99v-2.04H1027.22z"/>
		<path class="st20" d="M1030.56,272.5c0.26,0.23,0.42,0.53,0.48,0.91h-0.61c-0.03-0.23-0.12-0.42-0.28-0.56
			c-0.16-0.15-0.38-0.22-0.65-0.22c-0.23,0-0.41,0.05-0.54,0.16c-0.13,0.11-0.19,0.26-0.19,0.44c0,0.14,0.04,0.25,0.13,0.34
			c0.09,0.09,0.19,0.15,0.32,0.2c0.13,0.04,0.3,0.09,0.53,0.14c0.28,0.06,0.51,0.13,0.69,0.2c0.17,0.07,0.32,0.18,0.45,0.33
			c0.12,0.15,0.19,0.35,0.19,0.6c0,0.31-0.12,0.57-0.35,0.76c-0.24,0.2-0.55,0.29-0.94,0.29c-0.46,0-0.83-0.11-1.12-0.33
			c-0.29-0.22-0.46-0.53-0.51-0.92h0.62c0.02,0.23,0.13,0.42,0.3,0.57s0.42,0.22,0.71,0.22c0.22,0,0.39-0.06,0.51-0.17
			s0.19-0.26,0.19-0.44c0-0.15-0.04-0.27-0.13-0.36c-0.09-0.09-0.2-0.16-0.33-0.2c-0.13-0.05-0.31-0.1-0.54-0.15
			c-0.28-0.07-0.51-0.13-0.68-0.2c-0.17-0.07-0.31-0.17-0.43-0.31c-0.12-0.14-0.18-0.33-0.18-0.58c0-0.32,0.12-0.58,0.36-0.78
			c0.24-0.2,0.56-0.3,0.97-0.3C1029.95,272.16,1030.29,272.27,1030.56,272.5z"/>
		<path class="st20" d="M1033.83,275.49v0.56h-0.48c-0.39,0-0.69-0.09-0.88-0.28c-0.19-0.19-0.29-0.5-0.29-0.94v-2.07h-0.57v-0.55
			h0.57v-0.96h0.64v0.96h0.99v0.55h-0.99v2.09c0,0.25,0.05,0.42,0.14,0.51c0.09,0.09,0.25,0.14,0.47,0.14H1033.83z"/>
		<path class="st20" d="M1037.2,272.44c0.26,0.19,0.44,0.44,0.54,0.75v-0.98h0.64v3.84h-0.64v-0.98c-0.1,0.31-0.28,0.56-0.54,0.75
			s-0.58,0.28-0.95,0.28c-0.34,0-0.64-0.08-0.91-0.24s-0.47-0.39-0.63-0.68c-0.15-0.3-0.23-0.65-0.23-1.05s0.08-0.75,0.23-1.05
			c0.15-0.3,0.36-0.53,0.63-0.69s0.57-0.24,0.91-0.24C1036.63,272.16,1036.94,272.25,1037.2,272.44z M1035.49,273.1
			c-0.24,0.25-0.35,0.59-0.35,1.03s0.12,0.78,0.35,1.03c0.24,0.25,0.55,0.37,0.94,0.37c0.25,0,0.48-0.06,0.68-0.17
			s0.35-0.28,0.47-0.49c0.11-0.21,0.17-0.46,0.17-0.74c0-0.28-0.06-0.53-0.17-0.74c-0.11-0.21-0.27-0.38-0.47-0.49
			s-0.42-0.17-0.68-0.17C1036.04,272.73,1035.73,272.85,1035.49,273.1z"/>
		<path class="st20" d="M1040.66,272.37c0.24-0.15,0.53-0.22,0.87-0.22v0.69h-0.2c-0.36,0-0.65,0.09-0.88,0.28
			c-0.23,0.18-0.34,0.49-0.34,0.91v2.02h-0.64v-3.84h0.64v0.78C1040.23,272.72,1040.41,272.51,1040.66,272.37z"/>
		<path class="st20" d="M1043.76,271.09l-1.49,0.82v-0.46l1.49-0.88V271.09z M1042.92,272.21v3.84h-0.64v-3.84H1042.92z"/>
		<path class="st20" d="M1046.6,272.44c0.26,0.19,0.44,0.44,0.54,0.75v-0.98h0.64v3.84h-0.64v-0.98c-0.1,0.31-0.28,0.56-0.54,0.75
			c-0.26,0.19-0.58,0.28-0.95,0.28c-0.34,0-0.64-0.08-0.91-0.24c-0.27-0.16-0.47-0.39-0.63-0.68c-0.15-0.3-0.23-0.65-0.23-1.05
			s0.08-0.75,0.23-1.05c0.15-0.3,0.36-0.53,0.63-0.69c0.27-0.16,0.57-0.24,0.91-0.24C1046.03,272.16,1046.34,272.25,1046.6,272.44z
			 M1044.89,273.1c-0.24,0.25-0.35,0.59-0.35,1.03s0.12,0.78,0.35,1.03c0.24,0.25,0.55,0.37,0.94,0.37c0.25,0,0.48-0.06,0.68-0.17
			s0.35-0.28,0.47-0.49c0.11-0.21,0.17-0.46,0.17-0.74c0-0.28-0.06-0.53-0.17-0.74c-0.11-0.21-0.27-0.38-0.47-0.49
			s-0.42-0.17-0.68-0.17C1045.44,272.73,1045.13,272.85,1044.89,273.1z"/>
		<path class="st20" d="M1053.19,272.43c0.25,0.17,0.43,0.4,0.54,0.69v-0.91h0.64v5.66h-0.64v-2.76c-0.12,0.3-0.3,0.54-0.55,0.72
			c-0.25,0.18-0.55,0.27-0.9,0.27c-0.34,0-0.65-0.08-0.92-0.24c-0.28-0.16-0.49-0.39-0.65-0.69s-0.23-0.64-0.23-1.03
			s0.08-0.74,0.23-1.03s0.37-0.53,0.65-0.69c0.28-0.16,0.58-0.25,0.92-0.25C1052.64,272.17,1052.94,272.26,1053.19,272.43z
			 M1051.49,273.1c-0.24,0.25-0.36,0.6-0.36,1.04s0.12,0.79,0.36,1.03s0.55,0.37,0.94,0.37c0.24,0,0.46-0.06,0.66-0.17
			c0.2-0.11,0.36-0.28,0.47-0.49c0.12-0.21,0.17-0.46,0.17-0.75s-0.06-0.53-0.17-0.75c-0.12-0.21-0.27-0.38-0.47-0.49
			s-0.42-0.17-0.66-0.17C1052.04,272.73,1051.73,272.85,1051.49,273.1z"/>
		<path class="st20" d="M1058.87,272.21v3.84h-0.64v-0.9c-0.1,0.31-0.27,0.55-0.52,0.72s-0.54,0.25-0.87,0.25
			c-0.44,0-0.8-0.14-1.08-0.43c-0.28-0.29-0.41-0.7-0.41-1.24v-2.24h0.64v2.18c0,0.38,0.1,0.68,0.29,0.89
			c0.2,0.21,0.46,0.31,0.8,0.31c0.35,0,0.63-0.11,0.84-0.34c0.21-0.23,0.32-0.56,0.32-0.99v-2.04H1058.87z"/>
		<path class="st20" d="M1063.47,274.27h-3.07c0.01,0.44,0.14,0.77,0.37,0.99s0.52,0.33,0.86,0.33c0.31,0,0.57-0.08,0.77-0.23
			c0.21-0.16,0.33-0.36,0.38-0.63h0.68c-0.05,0.27-0.15,0.5-0.31,0.71c-0.16,0.21-0.37,0.37-0.63,0.49s-0.55,0.17-0.87,0.17
			c-0.37,0-0.7-0.08-0.98-0.24c-0.29-0.16-0.51-0.39-0.67-0.68s-0.24-0.65-0.24-1.05s0.08-0.75,0.24-1.05
			c0.16-0.3,0.38-0.53,0.67-0.69c0.28-0.16,0.61-0.24,0.98-0.24c0.37,0,0.7,0.08,0.98,0.24s0.49,0.37,0.64,0.64
			c0.15,0.27,0.22,0.56,0.22,0.88C1063.5,274.05,1063.49,274.17,1063.47,274.27z M1062.71,273.24c-0.11-0.19-0.25-0.33-0.44-0.43
			s-0.39-0.14-0.61-0.14c-0.35,0-0.64,0.11-0.88,0.33c-0.24,0.22-0.37,0.54-0.38,0.96h2.46
			C1062.87,273.67,1062.82,273.44,1062.71,273.24z"/>
		<path class="st20" d="M1067.69,275.37l1.19-3.16h0.69l-1.5,3.84h-0.76l-1.5-3.84h0.69L1067.69,275.37z"/>
		<path class="st20" d="M1073.76,274.27h-3.07c0.01,0.44,0.14,0.77,0.37,0.99s0.52,0.33,0.86,0.33c0.31,0,0.57-0.08,0.77-0.23
			c0.21-0.16,0.33-0.36,0.38-0.63h0.68c-0.05,0.27-0.15,0.5-0.31,0.71c-0.16,0.21-0.37,0.37-0.63,0.49s-0.55,0.17-0.87,0.17
			c-0.37,0-0.7-0.08-0.98-0.24c-0.29-0.16-0.51-0.39-0.67-0.68s-0.24-0.65-0.24-1.05s0.08-0.75,0.24-1.05
			c0.16-0.3,0.38-0.53,0.67-0.69c0.28-0.16,0.61-0.24,0.98-0.24c0.37,0,0.7,0.08,0.98,0.24s0.49,0.37,0.64,0.64
			c0.15,0.27,0.22,0.56,0.22,0.88C1073.79,274.05,1073.78,274.17,1073.76,274.27z M1073.01,273.24c-0.11-0.19-0.25-0.33-0.44-0.43
			s-0.39-0.14-0.61-0.14c-0.35,0-0.64,0.11-0.88,0.33c-0.24,0.22-0.37,0.54-0.38,0.96h2.46
			C1073.16,273.67,1073.12,273.44,1073.01,273.24z"/>
		<path class="st20" d="M1077.8,272.58c0.28,0.29,0.41,0.7,0.41,1.24v2.23h-0.64v-2.18c0-0.38-0.1-0.68-0.29-0.88
			c-0.2-0.21-0.46-0.31-0.8-0.31c-0.35,0-0.63,0.11-0.84,0.34c-0.21,0.23-0.31,0.56-0.31,0.99v2.04h-0.64v-3.84h0.64v0.91
			c0.1-0.31,0.27-0.55,0.52-0.72c0.25-0.17,0.54-0.25,0.86-0.25C1077.17,272.15,1077.53,272.29,1077.8,272.58z"/>
		<path class="st20" d="M1081.79,272.44c0.26,0.19,0.44,0.44,0.54,0.75v-0.98h0.64v3.91c0,0.35-0.07,0.67-0.22,0.94
			s-0.36,0.49-0.63,0.64c-0.27,0.15-0.59,0.23-0.95,0.23c-0.52,0-0.94-0.12-1.27-0.37c-0.33-0.25-0.54-0.59-0.62-1.01h0.63
			c0.07,0.26,0.22,0.46,0.42,0.61c0.21,0.15,0.48,0.22,0.8,0.22c0.35,0,0.63-0.11,0.86-0.33c0.23-0.22,0.34-0.53,0.34-0.93v-1.04
			c-0.1,0.31-0.28,0.56-0.54,0.75c-0.26,0.19-0.58,0.28-0.95,0.28c-0.34,0-0.64-0.08-0.91-0.24c-0.27-0.16-0.47-0.39-0.63-0.68
			c-0.15-0.3-0.23-0.65-0.23-1.05s0.08-0.75,0.23-1.05c0.15-0.3,0.36-0.53,0.63-0.69c0.27-0.16,0.57-0.24,0.91-0.24
			C1081.21,272.16,1081.53,272.25,1081.79,272.44z M1080.08,273.1c-0.24,0.25-0.35,0.59-0.35,1.03s0.12,0.78,0.35,1.03
			c0.24,0.25,0.55,0.37,0.94,0.37c0.25,0,0.48-0.06,0.68-0.17s0.35-0.28,0.47-0.49c0.11-0.21,0.17-0.46,0.17-0.74
			c0-0.28-0.06-0.53-0.17-0.74c-0.11-0.21-0.27-0.38-0.47-0.49s-0.42-0.17-0.68-0.17C1080.63,272.73,1080.32,272.85,1080.08,273.1z"
			/>
		<path class="st20" d="M1086.58,272.44c0.26,0.19,0.44,0.44,0.54,0.75v-0.98h0.64v3.84h-0.64v-0.98c-0.1,0.31-0.28,0.56-0.54,0.75
			c-0.26,0.19-0.58,0.28-0.95,0.28c-0.34,0-0.64-0.08-0.91-0.24c-0.27-0.16-0.47-0.39-0.63-0.68c-0.15-0.3-0.23-0.65-0.23-1.05
			s0.08-0.75,0.23-1.05c0.15-0.3,0.36-0.53,0.63-0.69c0.27-0.16,0.57-0.24,0.91-0.24C1086,272.16,1086.32,272.25,1086.58,272.44z
			 M1084.87,273.1c-0.24,0.25-0.35,0.59-0.35,1.03s0.12,0.78,0.35,1.03c0.24,0.25,0.55,0.37,0.94,0.37c0.25,0,0.48-0.06,0.68-0.17
			s0.35-0.28,0.47-0.49c0.11-0.21,0.17-0.46,0.17-0.74c0-0.28-0.06-0.53-0.17-0.74c-0.11-0.21-0.27-0.38-0.47-0.49
			s-0.42-0.17-0.68-0.17C1085.42,272.73,1085.11,272.85,1084.87,273.1z"/>
		<path class="st20" d="M962.38,279.27v5.18h-0.64v-5.18H962.38z"/>
		<path class="st20" d="M966.89,280.61v3.84h-0.64v-0.9c-0.1,0.31-0.27,0.55-0.52,0.72c-0.25,0.17-0.54,0.25-0.87,0.25
			c-0.44,0-0.8-0.14-1.08-0.43c-0.28-0.29-0.41-0.7-0.41-1.24v-2.24h0.64v2.18c0,0.38,0.1,0.68,0.29,0.89
			c0.2,0.21,0.46,0.31,0.8,0.31c0.35,0,0.63-0.11,0.84-0.34c0.21-0.23,0.32-0.56,0.32-0.99v-2.04H966.89z"/>
		<path class="st20" d="M971.49,282.67h-3.07c0.01,0.44,0.14,0.77,0.37,0.99c0.24,0.22,0.52,0.33,0.87,0.33
			c0.31,0,0.57-0.08,0.77-0.23c0.21-0.16,0.33-0.36,0.38-0.63h0.68c-0.05,0.27-0.15,0.5-0.31,0.71c-0.16,0.21-0.37,0.37-0.63,0.49
			s-0.55,0.17-0.87,0.17c-0.37,0-0.7-0.08-0.98-0.24c-0.29-0.16-0.51-0.39-0.67-0.68s-0.24-0.65-0.24-1.05s0.08-0.75,0.24-1.05
			c0.16-0.3,0.38-0.53,0.67-0.69c0.28-0.16,0.61-0.24,0.98-0.24c0.37,0,0.7,0.08,0.98,0.24c0.28,0.16,0.49,0.37,0.64,0.64
			c0.15,0.27,0.22,0.56,0.22,0.88C971.52,282.45,971.51,282.57,971.49,282.67z M970.74,281.64c-0.11-0.19-0.25-0.33-0.44-0.43
			s-0.39-0.14-0.61-0.14c-0.35,0-0.64,0.11-0.88,0.33c-0.24,0.22-0.37,0.54-0.38,0.96h2.46
			C970.89,282.07,970.84,281.83,970.74,281.64z"/>
		<path class="st20" d="M974.95,280.84c0.26,0.19,0.44,0.44,0.54,0.75v-0.98h0.64v3.91c0,0.35-0.08,0.67-0.22,0.94
			c-0.15,0.28-0.36,0.49-0.63,0.64c-0.27,0.15-0.58,0.23-0.94,0.23c-0.52,0-0.94-0.12-1.27-0.37c-0.33-0.25-0.53-0.59-0.62-1.01
			h0.63c0.08,0.26,0.22,0.46,0.42,0.61s0.47,0.22,0.8,0.22c0.34,0,0.63-0.11,0.86-0.33c0.23-0.22,0.34-0.53,0.34-0.93v-1.04
			c-0.1,0.31-0.28,0.56-0.54,0.75s-0.58,0.28-0.95,0.28c-0.34,0-0.64-0.08-0.91-0.24s-0.47-0.39-0.63-0.68
			c-0.15-0.3-0.23-0.65-0.23-1.05s0.08-0.75,0.23-1.05c0.15-0.3,0.36-0.53,0.63-0.69s0.57-0.24,0.91-0.24
			C974.37,280.56,974.69,280.65,974.95,280.84z M973.24,281.5c-0.24,0.25-0.35,0.59-0.35,1.03s0.12,0.78,0.35,1.03
			c0.24,0.25,0.55,0.37,0.94,0.37c0.25,0,0.48-0.06,0.68-0.17s0.35-0.28,0.47-0.49c0.11-0.21,0.17-0.46,0.17-0.74
			c0-0.28-0.06-0.53-0.17-0.74c-0.11-0.21-0.27-0.38-0.47-0.49s-0.42-0.17-0.68-0.17C973.79,281.13,973.47,281.25,973.24,281.5z"/>
		<path class="st20" d="M979.94,280.8c0.29,0.16,0.52,0.39,0.69,0.69c0.17,0.3,0.25,0.65,0.25,1.05s-0.08,0.75-0.25,1.05
			s-0.39,0.52-0.69,0.68c-0.29,0.16-0.62,0.24-0.99,0.24c-0.37,0-0.7-0.08-0.99-0.24s-0.52-0.39-0.69-0.68s-0.25-0.65-0.25-1.05
			s0.08-0.75,0.25-1.05c0.17-0.3,0.4-0.53,0.69-0.69s0.62-0.24,0.99-0.24C979.32,280.56,979.65,280.64,979.94,280.8z M978.32,281.27
			c-0.19,0.1-0.35,0.26-0.47,0.47c-0.12,0.21-0.18,0.48-0.18,0.79c0,0.31,0.06,0.57,0.18,0.78c0.12,0.21,0.28,0.37,0.47,0.47
			c0.19,0.1,0.4,0.15,0.63,0.15s0.44-0.05,0.63-0.15s0.35-0.26,0.47-0.47c0.12-0.21,0.18-0.47,0.18-0.78c0-0.31-0.06-0.58-0.18-0.79
			s-0.28-0.37-0.47-0.47c-0.19-0.1-0.41-0.15-0.63-0.15S978.51,281.17,978.32,281.27z"/>
		<path class="st20" d="M984.14,279.69c0.27,0.25,0.41,0.6,0.41,1.04c0,0.49-0.15,0.86-0.46,1.11c-0.31,0.25-0.72,0.37-1.26,0.38
			v0.83h-0.6v-1.26h0.28c0.43,0,0.77-0.07,1.03-0.22c0.25-0.15,0.38-0.43,0.38-0.83c0-0.28-0.08-0.49-0.24-0.65
			c-0.16-0.16-0.38-0.24-0.66-0.24c-0.29,0-0.52,0.08-0.7,0.25c-0.17,0.16-0.26,0.38-0.26,0.64h-0.62c0-0.28,0.06-0.53,0.2-0.74
			s0.32-0.38,0.56-0.5c0.24-0.12,0.52-0.17,0.84-0.17C983.5,279.32,983.87,279.44,984.14,279.69z M982.93,283.7v0.75h-0.77v-0.75
			H982.93z"/>
	</g>
</g>
</svg>
